<svg xmlns="http://www.w3.org/2000/svg" viewBox="0 0 256 256" width="50" height="50"><path d="M25 2C12.317 2 2 12.318 2 25s10.317 23 23 23c2.66 0 5.213-.457 7.592-1.293h.002c.114.126.226.253.347.375 3.89 3.889 10.252 3.889 14.141 0 3.889-3.889 3.889-10.252 0-14.14-.121-.122-.25-.229-.377-.342A22.847 22.847 0 0 0 48 25C48 12.318 37.683 2 25 2zm-1 8h2.05v2.8c4.8.2 6.8 4.3 6.6 7.1h-2.1c-.1-1.7-.7-5.5-5.5-5.5-4.7 0-5.6 2.7-5.6 5 0 6.9 13.7 2.3 13.7 11.3 0 1-.45 6-7.15 6.5V40h-2v-2.8c-2.7-.3-6.95-1.2-7.15-7.9h2.1c-.2 6.3 5.9 6.3 6.1 6.3 5.9 0 6.1-4 6.1-4.9 0-7.1-13.7-2.1-13.7-11.5 0-1.9.95-6.1 6.55-6.4zm16.012 22.021a7.98 7.98 0 0 1 5.658 2.334c3.112 3.111 3.11 8.204 0 11.315-3.111 3.11-8.203 3.11-11.315 0-3.112-3.111-3.11-8.203 0-11.315a7.972 7.972 0 0 1 5.657-2.334zm0 2.051a.967.967 0 0 0-.99.99v3.96h-3.96a.967.967 0 0 0-.99.99c0 .566.425.99.99.99h3.96v3.96c0 .567.424.99.99.99.283 0 .566-.14.707-.282.14-.142.283-.424.283-.707v-3.961h3.96c.284 0 .567-.141.708-.283a1.08 1.08 0 0 0 .281-.707.965.965 0 0 0-.988-.99h-3.961v-3.96a.967.967 0 0 0-.99-.99z" transform="scale(5.12)" fill="#89bf19" stroke-miterlimit="10" font-family="none" font-weight="none" font-size="none" text-anchor="none" style="mix-blend-mode:normal"/></svg>