<svg xmlns="http://www.w3.org/2000/svg" viewBox="0 0 256 256" width="50" height="50"><path d="M25 3c-6.065 0-11 4.935-11 11s4.935 11 11 11 11-4.935 11-11S31.065 3 25 3zm-1 4H25.998v1.771a3.297 3.297 0 0 1 1.857 1.01c.555.608.87 1.443.87 2.219h-1.856c-.05-.793-.424-1.664-1.84-1.664-1.3 0-1.906.51-1.906 1.605 0 .915.818 1.149 2.264 1.48 1.61.37 3.614.83 3.613 3.222 0 .455-.154 2.66-3 3.123V21H24.002v-1.266c-1.946-.37-2.928-1.57-2.988-3.67L21.012 16h1.857l-.002.063c-.017.663.157 1.182.516 1.54.608.609 1.578.616 1.619.616 1.866 0 2.144-.98 2.144-1.563 0-.972-.817-1.203-2.263-1.527-1.611-.36-3.615-.807-3.615-3.283 0-.28.084-2.632 2.732-3.076zM13.4 24.9c-2.5 0-4.7.9-12.9 4.6-.5.2-.7.8-.5 1.3l5.3 11.8c.1.3.4.5.6.6.3.1.6 0 .8-.1l2.7-1.8c1.2-.8 1.7-.9 3.3-.1l2.1 1.1c2.5 1.3 5.9 3.1 6.9 3.6 1.6.8 2.9 1.1 4 1.1 2 0 3.3-.8 4.5-1.6 1.2-.8 15.8-10.3 17.1-11.2 1.6-1.1 2.6-2.4 2.6-3.4.1-2.8-2.6-3.5-5-2L34.2 36c-1.7 1-3.2.9-4.2.9h-6c-2.7 0-6-1-6.1-1-.3-.1-.4-.4-.3-.6.1-.3.3-.4.6-.3h.1c.3.1 3.6 1 6 1H30c.8 0 1.4-.2 1.8-.5.4-.3.7-.6.9-1 0-.1.1-.1.1-.2v-.1c.1-.3.1-.5.1-.8 0-1.2-1-2.4-3-2.5-1.6-.1-3.8-.5-5.6-1-1-.3-1.7-.6-2.1-.8-.3-.2-.6-.5-1-.9-1.2-1.3-3-3.3-7.8-3.3zm21.7 0c-1.1 0-2.3.4-3.3 1.1-.7.4-3.7 2.3-5.5 3.4 1.3.3 2.7.5 3.7.5.7 0 1.4.2 1.9.4l6.5-4.4s-1.5-1-3.3-1zm6.6 1.1c-1 0-2.2.4-3.9 1.5l-5 3.4c.8.7 1.2 1.6 1.2 2.5 0 .6-.2 1.3-.6 1.9l.1-.1.1-.1 11-7.3c-.3-1.3-1.9-1.8-2.9-1.8z" transform="scale(5.12)" fill="#89bf19" stroke-miterlimit="10" font-family="none" font-weight="none" font-size="none" text-anchor="none" style="mix-blend-mode:normal"/></svg>