<svg xmlns="http://www.w3.org/2000/svg" viewBox="0 0 256 256" width="50" height="50"><path d="M43.816 1c-.606.01-14.916.327-20.896 9.11L12.39 28.878a2.995 2.995 0 0 0 .967 3.975l13.024 8.642a3.044 3.044 0 0 0 1.68.498c.896 0 1.784-.383 2.375-1.11l13.66-16.7a.69.69 0 0 0 .052-.069C46.34 20.901 47.015 17.077 47 13.5c-.026-6.121-2.097-11.515-2.236-11.867-.153-.386-.55-.597-.948-.633zM33.492 12a5.5 5.5 0 1 1-3.06 10.064A5.5 5.5 0 0 1 33.492 12zm-17.851 7.01c-5.19.13-9.272 2.22-12.442 6.38-.23.31-.26.71-.1 1.05.17.34.521.56.901.56h1.75c1.4 0 3.21.14 5.02.68zM38.18 34.54c-3.36 4.09-6.6 8.03-6.82 8.24 1.36 1.97 2.12 4.01 2.63 5.39l.07.18a1 1 0 0 0 .79.64c.05.01.1.01.15.01.31 0 .61-.14.8-.39C38.04 45.65 39 42.78 39 39c0-1.65-.35-3.16-.82-4.46zm-24.756.753c-2.15 3.54-3.81 10.953-.658 13.115.576.394 1.26.594 2.047.594a5.63 5.63 0 0 0 1.072-.111c3.08-.605 6.908-3.649 8.674-6.2l-2.075-1.379c-1.939 1.873-4.88 3.47-6.62 2.303-1.742-1.174-1.425-4.494-.444-6.996z" transform="scale(5.12)" fill="#89bf19" stroke-miterlimit="10" font-family="none" font-weight="none" font-size="none" text-anchor="none" style="mix-blend-mode:normal"/></svg>