<svg xmlns="http://www.w3.org/2000/svg" viewBox="0 0 256 256" width="50" height="50"><path d="M15.531 2.582A.993.993 0 0 0 15 2.77C5.492 9.39 3.148 22.496 9.77 32c3.867 5.555 9.949 8.64 16.23 8.95v3.105c-4.02.27-8.363 2.015-8.363 2.015A1 1 0 0 0 18 48h8.832c.11.02.219.02.324 0H36a1 1 0 0 0 .363-1.93S32.02 44.324 28 44.055v-3.102a20.873 20.873 0 0 0 11-3.723.997.997 0 0 0-.129-1.746.994.994 0 0 0-1.012.106A18.937 18.937 0 0 1 27.152 39c-.058-.008-.113-.016-.168-.016-.027.004-.054.004-.082.004-5.964-.03-11.82-2.855-15.492-8.129-6.004-8.62-3.89-20.445 4.73-26.449a1 1 0 0 0-.511-1.828h-.098zM27 3a16.69 16.69 0 0 0-5.082.797c1.117.32 2.305.789 3.555 1.445a26.867 26.867 0 0 1 3.648 2.332l4.586-3.191A16.91 16.91 0 0 0 27 3zm-8.004 2.32c-.2 0-.387.012-.566.032-.114.07-.23.128-.34.199l4.566 6.52 4.73-3.29a25.133 25.133 0 0 0-2.843-1.773c-2.11-1.106-4.063-1.688-5.547-1.688zm16.754.133-4.969 3.453a28.903 28.903 0 0 1 4.13 4.442l5.476-3.793a17.057 17.057 0 0 0-4.637-4.102zm-19.3 1.242c-.095.07-.18.153-.27.227-.965 1.945-.91 5.61.148 9.55l4.688-3.257zm-2.884 2.922A16.88 16.88 0 0 0 10 20c0 .285.027.563.043.844l4.539-3.157c-.844-2.87-1.195-5.699-1.016-8.07zm15.508.48-5.246 3.65 3.438 4.905 6-4.164a27.224 27.224 0 0 0-4.192-4.39zm12.442 1.106-5.47 3.793a29.646 29.646 0 0 1 2.65 5.363l5-3.515a16.774 16.774 0 0 0-2.18-5.64zm-19.328 3.684-5.231 3.633a27.153 27.153 0 0 0 2.629 5.457l6.035-4.184zm12.214 1.25-5.992 4.152 3.422 4.89 5.16-3.624a28.129 28.129 0 0 0-2.59-5.418zm9.555 3.02-4.586 3.226c.387 1.32.692 2.648.875 3.96.207 1.512.238 2.887.129 4.114A16.868 16.868 0 0 0 44 20c0-.285-.027-.563-.043-.844zm-28.695.546-4.957 3.445a16.856 16.856 0 0 0 2.222 5.723l5.426-3.762a28.951 28.951 0 0 1-2.691-5.406zm11.504 1.727-6.036 4.183a26.038 26.038 0 0 0 4.25 4.383l5.22-3.668zm10.875 2.168-4.637 3.254 4.504 6.43c.863-1.313 1.16-3.723.758-6.665a25.472 25.472 0 0 0-.625-3.02zm-18.555 3.156-5.418 3.762a17.12 17.12 0 0 0 4.715 4.113l4.898-3.441a28.068 28.068 0 0 1-4.195-4.434zM31.37 28l-4.683 3.293c.87.598 1.765 1.14 2.675 1.61 2.594 1.327 4.942 1.847 6.492 1.503zm-6.406 4.504-4.528 3.18A16.937 16.937 0 0 0 27 37a16.83 16.83 0 0 0 5.234-.844c-1.183-.304-2.453-.793-3.78-1.472a26.954 26.954 0 0 1-3.49-2.18z" transform="scale(5.12)" fill="#89bf19" stroke-miterlimit="10" font-family="none" font-weight="none" font-size="none" text-anchor="none" style="mix-blend-mode:normal"/></svg>