<svg xmlns="http://www.w3.org/2000/svg" viewBox="0 0 256 256" width="50" height="50"><path d="M25 .098c-1.981 0-3.77.94-6.248 2.244C15.56 4.02 11.187 6.317 3.785 7.943L3 8.115v.805C3 39.385 24.364 49.6 24.58 49.7l.441.202.432-.218C25.67 49.574 47 38.37 47 8.92v-.805l-.785-.172C38.813 6.317 34.44 4.021 31.248 2.342 28.77 1.04 26.981.098 25 .098zM23.9 11.5h2v2.1c1.4.2 2.7.8 3.6 1.8 1 1 1.5 2.6 1.4 3.9v.2h-2.1v-.2c0-1.2-.4-3.9-3.9-3.9-2.7 0-4 1.2-4 3.5 0 2.2 2.1 2.7 4.5 3.3 2.8.6 6 1.4 6.1 5.3 0 .8-.4 4.7-5.6 5.2v1.8h-2v-1.8c-2.4-.3-5.3-1.3-5.4-6.2v-.3h2.1v.3c0 1.3.3 2.4 1.1 3.2C22.9 31 24.8 31 25 31c4 0 4.4-2.5 4.4-3.5 0-2.4-2.1-2.8-4.5-3.4-2.8-.6-6-1.4-6-5.4 0-.5.1-4.7 5-5.1z" transform="scale(5.12)" fill="#89bf19" stroke-miterlimit="10" font-family="none" font-weight="none" font-size="none" text-anchor="none" style="mix-blend-mode:normal"/></svg>