<svg xmlns="http://www.w3.org/2000/svg" viewBox="0 0 256 256" width="50" height="50"><path d="M25 5C14.351 5 5.633 13.38 5.055 23.89a2 2 0 1 0 3.994.22C9.513 15.674 16.44 9 25 9c4.585 0 8.699 1.924 11.611 5H35a2 2 0 1 0 0 4h5.26a2 2 0 0 0 .687 0H44V9a2 2 0 1 0-4 0v2.777C36.332 7.622 30.964 5 25 5zm4.951 10.988a1 1 0 0 0-.799.483l-10 16a1 1 0 1 0 1.696 1.058l10-16a1 1 0 0 0-.897-1.54zM20 16c-1.645 0-3 1.355-3 3v3h.416c.443 1.107 1.327 2 2.584 2 1.645 0 3-1.355 3-3v-2c0-1.645-1.355-3-3-3zm0 2c.565 0 1 .435 1 1v2c0 .565-.435 1-1 1s-1-.435-1-1v-2c0-.565.435-1 1-1zm23.031 5.973a2 2 0 0 0-2.08 1.918C40.487 34.325 33.56 41 25 41a15.925 15.925 0 0 1-11.61-5H15a2 2 0 1 0 0-4H9.717a2 2 0 0 0-.63 0H6v9a2 2 0 1 0 4 0v-2.777C13.668 42.378 19.037 45 25 45c10.649 0 19.367-8.38 19.945-18.89a2 2 0 0 0-1.914-2.137zM30 26c-1.645 0-3 1.355-3 3v3h.416c.443 1.107 1.327 2 2.584 2 1.645 0 3-1.355 3-3v-2c0-1.645-1.355-3-3-3zm0 2c.565 0 1 .435 1 1v2c0 .565-.435 1-1 1s-1-.435-1-1v-2c0-.565.435-1 1-1z" transform="scale(5.12)" fill="#89bf19" stroke-miterlimit="10" font-family="none" font-weight="none" font-size="none" text-anchor="none" style="mix-blend-mode:normal"/></svg>