<svg xmlns="http://www.w3.org/2000/svg" viewBox="0 0 256 256" width="50" height="50"><path d="M12.813 7c-.551.05-.958.543-.907 1.094.051.55.543.957 1.094.906h6.563L2.28 26.281a1.014 1.014 0 0 0 0 1.438c.399.398 1.04.398 1.438 0L21 10.437V17c-.004.36.184.695.496.879.313.18.695.18 1.008 0 .312-.184.5-.52.496-.879V7H12.812zM34 11v39h14V11zm2 2h10v35H36zM18 24v26h14V24zm2 2h10v22H20zM2 35v15h14V35zm2 2h10v11H4z" transform="scale(5.12)" fill="#89bf19" stroke-miterlimit="10" font-family="none" font-weight="none" font-size="none" text-anchor="none" style="mix-blend-mode:normal"/></svg>