<svg xmlns="http://www.w3.org/2000/svg" viewBox="0 0 256 256" width="50" height="50"><path d="M6 1v4c0 1.652 1.348 3 3 3h2v6.719a9.013 9.013 0 0 0 4 7.5L19.188 25 15 27.781a9.013 9.013 0 0 0-4 7.5V42H9c-1.652 0-3 1.348-3 3v4h38v-4c0-1.652-1.348-3-3-3h-2v-6.719a9.013 9.013 0 0 0-4-7.5L30.812 25 35 22.219a9.013 9.013 0 0 0 4-7.5V8h2c1.652 0 3-1.348 3-3V1zm7 7h24v6.719a6.981 6.981 0 0 1-3.125 5.812l-5.438 3.625-1.25.844 1.25.844 5.438 3.625A6.986 6.986 0 0 1 37 35.28V42H13v-6.719a6.986 6.986 0 0 1 3.125-5.812l5.438-3.625 1.25-.844-1.25-.844-5.438-3.625A6.981 6.981 0 0 1 13 14.72zm4 7c0 5.09 8 7 8 7s8-2.016 8-7zm8 17s-6.64 2.355-8.5 8h17.031C31.695 34.242 25 32 25 32z" transform="scale(5.12)" fill="#89bf19" stroke-miterlimit="10" font-family="none" font-weight="none" font-size="none" text-anchor="none" style="mix-blend-mode:normal"/></svg>