<svg width="19" height="19" fill="none" xmlns="http://www.w3.org/2000/svg"><g clip-path="url('#clip0_9_46')"><path fill-rule="evenodd" clip-rule="evenodd" d="M0 0h1.188v17.813H19V19H0V0Zm11.875 4.156a.594.594 0 0 1 .594-.593h4.75a.594.594 0 0 1 .593.593v4.75a.594.594 0 0 1-1.187 0V5.82l-4.29 5.245a.596.596 0 0 1-.88.044L8.385 8.036l-4.342 5.97a.594.594 0 0 1-.96-.699l4.75-6.531a.594.594 0 0 1 .9-.071l3.1 3.099 4.134-5.054h-3.497a.594.594 0 0 1-.594-.594Z" fill="#fff"/></g><defs><clipPath id="clip0_9_46"><path fill="#fff" d="M0 0h19v19H0z"/></clipPath></defs></svg>