<svg xmlns="http://www.w3.org/2000/svg" viewBox="0 0 256 256" width="50" height="50"><path d="M16 0C7.178 0 0 7.178 0 16s7.178 16 16 16c.041 0 .076-.004.117-.004.924-8.339 7.54-14.955 15.88-15.879 0-.04.003-.076.003-.117 0-8.822-7.178-16-16-16zm23.293.293L33.586 6l5.707 5.707 1.414-1.414L37.414 7H42c2.755 0 5 2.245 5 5v6h2v-6c0-3.845-3.155-7-7-7h-4.586l3.293-3.293zM16 4a1 1 0 0 1 1 1v1.734c1.108.137 2.04.607 2.7 1.266.7.7 1.2 1.8 1.5 3.1h-1.9c-.284-1.425-1.027-2.212-2.3-2.545v5.508l1.1.337c.3.1.6.2 1 .4s.8.4 1.2.8c.4.3.7.7.9 1.2.3.5.4 1.1.4 1.8s-.1 1.4-.4 1.9c-.2.6-.6 1.1-1 1.5-.4.4-.9.7-1.5 1-.52.173-1.049.34-1.7.383V25a1 1 0 0 1-2 0v-1.678c-1.261-.189-2.294-.726-3-1.521-.9-.9-1.4-2.101-1.5-3.701h1.9c-.1 1.1.3 1.9.8 2.4.505.506 1.091.793 1.8.992v-5.896c-.631-.166-1.186-.33-1.6-.496-.6-.2-1-.501-1.4-.801-.4-.3-.7-.7-.8-1.2-.2-.5-.3-1-.3-1.7s.1-1.3.4-1.8c.2-.6.6-1 1-1.5.4-.4.9-.7 1.5-1 .4-.132.8-.261 1.2-.335V5a1 1 0 0 1 1-1zm-1 4.635c-.494.07-1.008.274-1.4.666-.5.4-.7 1.098-.7 1.898 0 .4.1.7.2 1 .1.3.3.501.5.701.2.2.5.3.8.5.18.06.391.152.6.24zm2 7.574v5.414a12.9 12.9 0 0 0 .8-.223c.3-.1.7-.3.9-.5.3-.2.5-.5.6-.9.1-.3.2-.8.2-1.2 0-.4-.1-.8-.2-1.1-.1-.3-.3-.5-.6-.7-.3-.2-.6-.4-.9-.5-.29-.073-.538-.189-.8-.291zM34 18c-8.822 0-16 7.178-16 16s7.178 16 16 16 16-7.178 16-16-7.178-16-16-16zm0 7c1.775 0 3.469.854 4.768 2.406a1.003 1.003 0 0 1-.125 1.41 1.003 1.003 0 0 1-1.41-.125C36.32 27.601 35.172 27 34 27c-1.989 0-3.707 1.639-4.512 4H33a1 1 0 0 1 0 2h-3.943c-.034.328-.057.66-.057 1 0 .34.023.672.057 1H33a1 1 0 0 1 0 2h-3.512c.805 2.361 2.522 4 4.512 4 1.173 0 2.32-.6 3.232-1.69a1 1 0 1 1 1.536 1.284C37.468 42.144 35.775 43 34 43c-3.041 0-5.628-2.51-6.592-6H26a1 1 0 0 1 0-2h1.047A11.372 11.372 0 0 1 27 34c0-.338.018-.671.047-1H26a1 1 0 0 1 0-2h1.408c.964-3.49 3.551-6 6.592-6zM1 32v6c0 3.845 3.155 7 7 7h3.586l-3.293 3.293 1.414 1.414L15.414 44l-5.707-5.707-1.414 1.414L11.586 43H8c-2.755 0-5-2.245-5-5v-6z" transform="scale(5.12)" fill="#89bf19" stroke-miterlimit="10" font-family="none" font-weight="none" font-size="none" text-anchor="none" style="mix-blend-mode:normal"/></svg>