<svg xmlns="http://www.w3.org/2000/svg" viewBox="0 0 256 256" width="50" height="50"><path d="M50 41V9c0-.551-.449-1-1-1H1c-.551 0-1 .449-1 1v32c0 .551.449 1 1 1h30.358c-.004.193-.01.388-.026.604-.273.47-1.226.845-2.149 1.208-1.95.767-4.622 1.818-4.82 5.128A1 1 0 0 0 25.36 50h18.715a.997.997 0 0 0 .998-1.06 5.57 5.57 0 0 0-.14-.94H49a.996.996 0 0 0 .998-1.059c-.172-2.888-2.468-3.794-4.144-4.456A12.496 12.496 0 0 1 44.74 42H49c.551 0 1-.449 1-1zM35 18h7v4h-7zM2 40v-4a5.144 5.144 0 0 1 4 4zm0-26V9.988L6 10a5.144 5.144 0 0 1-4 4zm6 4h7v4H8zm13.792 19H9v-2h12.792zM27 32H9v-2h18zm-1.086-6.219V27h-1.82v-1.242c-2.012-.348-3.02-1.559-3.082-3.695L21 21.578h1.879l-.012.484c-.016.664.156 1.18.516 1.539.605.609 1.578.617 1.617.617 1.867 0 2.145-.98 2.145-1.563 0-.973-.816-1.203-2.262-1.527-1.613-.359-3.617-.809-3.617-3.285 0-.281.082-2.695 2.832-3.094V13h1.82v1.754a3.312 3.312 0 0 1 1.938 1.027c.594.656.93 1.574.875 2.398l-.031.438h-1.813l-.008-.465c-.012-.828-.344-1.816-1.852-1.816-1.301 0-1.906.512-1.906 1.605 0 .914.816 1.148 2.266 1.48 1.609.368 3.613.829 3.613 3.22 0 .461-.152 2.711-3.086 3.14zM26.591 48c.477-1.125 1.643-1.667 3.323-2.327 1.393-.548 2.834-1.115 3.337-2.467.031-.083.05-.17.059-.259.061-.668.056-1.176.051-1.714l-.002-.449a.999.999 0 0 0-.458-.84c-.185-.199-.615-.998-.687-1.673a.999.999 0 0 0-.724-.857c-.038-.074-.099-.236-.136-.544a.425.425 0 0 1-.001-.108 1 1 0 0 0 .355-1.042c-.557-2.145-.488-3.758.2-4.664.513-.676 1.449-1.032 2.763-1.056.86 0 1.308.222 1.387.361.154.27.424.453.731.496.666.092.927.4 1.066.623.572.921.344 2.811-.11 4.176a1 1 0 0 0 .336 1.106.413.413 0 0 1 0 .108c-.037.308-.099.47-.136.544a.999.999 0 0 0-.725.856c-.074.692-.484 1.474-.666 1.677a1 1 0 0 0-.453.837l-.001.453c-.005.537-.009 1.043.051 1.71.008.088.028.176.059.259.503 1.351 1.938 1.918 3.326 2.466 1.673.661 2.834 1.202 3.31 2.328zm21.114-2h-3.786c-.998-1.138-2.457-1.718-3.648-2.188-.919-.363-1.868-.737-2.141-1.208a15.086 15.086 0 0 1-.03-1.349v-.046c.445-.535.821-1.372 1.006-2.14.409-.292.829-.859.961-1.96.067-.559-.057-1.021-.26-1.37.262-.973.623-2.849.135-4.419a4.321 4.321 0 0 1 1.138-.161c.713 0 .997.179 1.031.224.154.27.424.453.731.496.489.068.677.277.785.452.485.782.201 2.452-.109 3.384-.126.381-.012.794.277 1.056a1.53 1.53 0 0 1-.075.346.999.999 0 0 0-.65.833c-.056.521-.366 1.133-.511 1.31a1 1 0 0 0-.432.823l-.002.381c-.004.455-.008.885.043 1.455a.994.994 0 0 0 .059.259c.448 1.204 1.69 1.694 2.891 2.168 1.25.492 2.148.901 2.587 1.654zM48 40h-3.55c.221-.4.396-.853.502-1.266.349-.267.689-.762.815-1.65A5.104 5.104 0 0 1 48 36zm0-26a5.144 5.144 0 0 1-4-4h4z" transform="scale(5.12)" fill="#89bf19" stroke-miterlimit="10" font-family="none" font-weight="none" font-size="none" text-anchor="none" style="mix-blend-mode:normal"/></svg>