<svg xmlns="http://www.w3.org/2000/svg" viewBox="0 0 256 256" width="50" height="50"><path d="M25 2C12.318 2 2 12.318 2 25s10.318 23 23 23 23-10.318 23-23c0-4.597-1.36-8.88-3.693-12.479l-.893.893-.586.586h-2.586l-2.732 2.732A14.915 14.915 0 0 1 40 25c0 8.284-6.716 15-15 15-8.284 0-15-6.716-15-15 0-8.284 6.716-15 15-15 3.057 0 5.897.92 8.268 2.49L36 9.758V7.172l.586-.586.889-.889A22.84 22.84 0 0 0 25 2zm18 1-5 5v2.586L24.293 24.293a1 1 0 1 0 1.414 1.414L39.414 12H42l5-5h-4zM25 16c-4.962 0-9 4.038-9 9s4.038 9 9 9 9-4.038 9-9a8.931 8.931 0 0 0-.887-3.87l-5.992 5.991A2.978 2.978 0 0 1 25 28a2.978 2.978 0 0 1-2.121-.879A2.978 2.978 0 0 1 22 25c0-.801.312-1.555.879-2.121l5.992-5.992A8.894 8.894 0 0 0 25 16z" transform="scale(5.12)" fill="#fff" stroke-miterlimit="10" font-family="none" font-weight="none" font-size="none" text-anchor="none" style="mix-blend-mode:normal"/></svg>