<svg xmlns="http://www.w3.org/2000/svg" viewBox="0 0 256 256" width="50" height="50"><path d="M20 3C10.611 3 3 10.611 3 20s7.611 17 17 17c3.718 0 7.143-1.208 9.938-3.234l13.148 13.148 2.828-2.828-13.027-13.027A16.948 16.948 0 0 0 36.949 21h-3.535L27 27.414l-12-12L9.414 21H5.051C5.029 20.668 5 20.338 5 20c0-.338.029-.668.05-1h3.536L15 12.586l12 12L32.586 19h4.363C36.43 10.079 29.051 3 20 3zm16.95 16c.018.333.05.662.05 1 0 .338-.032.667-.05 1H47v-2z" transform="scale(5.12)" fill="#fff" stroke-miterlimit="10" font-family="none" font-weight="none" font-size="none" text-anchor="none" style="mix-blend-mode:normal"/></svg>