<svg xmlns="http://www.w3.org/2000/svg" viewBox="0 0 256 256" width="50" height="50"><path d="M20 3c-1.645 0-3 1.355-3 3v3H3c-1.654 0-3 1.346-3 3v13c0 1.654 1.346 3 3 3h29.094a12.923 12.923 0 0 1 13.812 0H47c1.654 0 3-1.346 3-3V12c0-1.654-1.346-3-3-3H33V6c0-1.645-1.355-3-3-3zm0 2h10c.563 0 1 .437 1 1v3H19V6c0-.563.437-1 1-1zm5 17a2 2 0 1 1-.001 4.001A2 2 0 0 1 25 22zM0 27v17c0 1.654 1.346 3 3 3h25.768A12.932 12.932 0 0 1 26 39c0-3.496 1.387-6.664 3.633-9H3c-1.654 0-3-1.346-3-3zm36.9 1-.5 3.2c-.3.1-.7.3-1 .4l-2.7-1.9-3 3 1.8 2.5c-.2.3-.3.7-.4 1.1l-3.1.5V41l3.1.5c.1.3.3.7.4 1l-1.8 2.7 3 3 2.7-1.8c.4.2.7.3 1.1.4l.4 3.2h4.2l.5-3.2c.3-.1.7-.3 1-.4l2.7 1.8 3-3-1.9-2.6c.2-.3.3-.7.4-1L50 41v-4.2l-3.2-.5c-.1-.3-.3-.7-.4-1l1.8-2.7-2.9-2.9-2.6 1.9c-.3-.2-.7-.3-1-.4l-.6-3.2zm2.1 8c1.7 0 3 1.3 3 3s-1.3 3-3 3-3-1.3-3-3 1.3-3 3-3z" transform="scale(5.12)" fill="#fff" stroke-miterlimit="10" font-family="none" font-weight="none" font-size="none" text-anchor="none" style="mix-blend-mode:normal"/></svg>