<svg xmlns="http://www.w3.org/2000/svg" viewBox="0 0 256 256" width="50" height="50"><path d="M3 3a1 1 0 1 0 0 2h1v8c-1.5.5-2 1.625-2 2.5s.5 2 2 2.5v10c-1.5.5-2 1.625-2 2.5s.5 2 2 2.5v8H3a1 1 0 1 0 0 2h14.133l.396-.973.319-.783.1-.244.407-1H21v-1.225l.148-.363 1.7-4.168.507-1.244H26v-1.225l.148-.363 1.7-4.168.507-1.244H32v-8c1.5-.5 2-1.625 2-2.5s-.5-2-2-2.5V5h1a1 1 0 1 0 0-2zm15 11.75s5 7.417 5 10.25-2.167 5-5 5-5-2.167-5-5 5-10.25 5-10.25zM29.7 28 28 32.168V33h10v-.832L36.3 28zm-5 7L23 39.168V40h20v-.832L41.3 35h-6.6L33 39.168 31.3 35zm-5 7L18 46.168V47h30v-.832L46.3 42h-6.6L38 46.168 36.3 42h-6.6L28 46.168 26.3 42z" transform="scale(5.12)" fill="#fff" stroke-miterlimit="10" font-family="none" font-weight="none" font-size="none" text-anchor="none" style="mix-blend-mode:normal"/></svg>