<svg xmlns="http://www.w3.org/2000/svg" viewBox="0 0 256 256" width="50" height="50"><path d="M20 12c-.418 0-.79.266-.938.656L17 19h16l-2.063-6.344A1.009 1.009 0 0 0 30 12zm-8.688 9a.972.972 0 0 0-.906.594L8 28h17l-2.469-6.406a.972.972 0 0 0-.906-.594zm17 0a.972.972 0 0 0-.906.594l-1.343 3.593.812 2.094.281.719H42l-2.406-6.406a.972.972 0 0 0-.907-.594zm-25 9c-.417 0-.789.203-.937.594L0 37h16.625l-2.375-6.406c-.148-.39-.52-.594-.938-.594zM20 30c-.418 0-.79.266-.938.656l-1.343 3.532.781 2.124.281.688h14.532l-2.376-6.344A1.005 1.005 0 0 0 30 30zm16.688 0c-.418 0-.79.203-.938.594l-1.344 3.593.782 2.126.28.687H50l-2.375-6.406c-.145-.39-.52-.594-.938-.594z" transform="scale(5.12)" fill="#89bf19" stroke-miterlimit="10" font-family="none" font-weight="none" font-size="none" text-anchor="none" style="mix-blend-mode:normal"/></svg>