<svg xmlns="http://www.w3.org/2000/svg" viewBox="0 0 256 256" width="50" height="50"><path d="M24 1v18h2V1zm-2 3.242C12.824 5.562 5.559 12.824 4.234 22h4.032C9.516 15.031 15.027 9.531 22 8.281zm6 0v4.04C34.973 9.526 40.484 15.031 41.734 22h4.032C44.44 12.824 37.176 5.562 28 4.242zm-6 9.153A12.047 12.047 0 0 0 13.383 22h4.226A8.038 8.038 0 0 1 22 17.59zm6 0v4.195A8.014 8.014 0 0 1 32.39 22h4.231c-1.09-4.203-4.414-7.516-8.621-8.605zM25.004 22A3.004 3.004 0 0 0 22 25c0 1.656 1.348 3 3.004 3s2.945-1.344 2.945-3-1.289-3-2.945-3zM1 24v2h18v-2zm30 0v2h18v-2zM4.242 28C5.562 37.176 12.824 44.441 22 45.766v-4.032C15.031 40.484 9.531 34.973 8.281 28zm9.137 0c1.09 4.203 4.414 7.516 8.621 8.605V32.41A8.014 8.014 0 0 1 17.61 28zm28.34 0c-1.25 6.973-6.75 12.484-13.719 13.734v4.032C37.176 44.44 44.438 37.176 45.762 28zm-9.309 0A8.014 8.014 0 0 1 28 32.39v4.231c4.203-1.09 7.516-4.414 8.605-8.621zM24 31v18h2V31z" transform="scale(5.12)" fill="#fff" stroke-miterlimit="10" font-family="none" font-weight="none" font-size="none" text-anchor="none" style="mix-blend-mode:normal"/></svg>