<svg xmlns="http://www.w3.org/2000/svg" viewBox="0 0 256 256" width="50" height="50"><path d="M20 4a1 1 0 0 0-1 1v13c0 6.063 4.937 11 11 11s11-4.937 11-11V5a1 1 0 0 0-2 0v13c0 4.983-4.017 9-9 9s-9-4.017-9-9V5a1 1 0 0 0-1-1zm4 0a1 1 0 0 0-1 1v5.863a10.034 10.034 0 0 1 2-1.513V5a1 1 0 0 0-1-1zm4 0a1 1 0 0 0-1 1v3.459c.641-.201 1.31-.34 2-.408V5a1 1 0 0 0-1-1zm4 0a1 1 0 0 0-1 1v3.05c.69.07 1.359.208 2 .409V5a1 1 0 0 0-1-1zm4 0a1 1 0 0 0-1 1v4.35c.729.422 1.402.927 2 1.513V5a1 1 0 0 0-1-1zm-7 7v1.77c-2.648.444-2.732 2.797-2.732 3.076 0 2.476 2.004 2.923 3.615 3.283 1.446.324 2.263.555 2.263 1.527 0 .583-.278 1.563-2.144 1.563-.041 0-1.011-.007-1.62-.615-.358-.36-.532-.879-.515-1.542L27.87 20h-1.857l.002.064c.06 2.1 1.042 3.3 2.988 3.67V25H31v-1.234c2.846-.462 3-2.668 3-3.123.001-2.391-2.003-2.851-3.613-3.221-1.446-.332-2.264-.566-2.264-1.48 0-1.096.605-1.606 1.906-1.606 1.416 0 1.79.871 1.84 1.664h1.856a3.377 3.377 0 0 0-.87-2.219 3.297 3.297 0 0 0-1.857-1.01V11H29.096zm15.158 14.984a3.757 3.757 0 0 0-1.941.579l-11.1 6.84c-.256-.14-.57-.295-.984-.495-.476-.229-.973-.463-1.254-.59-1.51-.683-6.327-2.67-9.983-4.275a12.506 12.506 0 0 0-9.833-.092l-6.448 2.686a1 1 0 1 0 .77 1.845l6.447-2.685a10.497 10.497 0 0 1 8.26.078c3.69 1.62 8.585 3.643 9.963 4.266.247.112.747.347 1.21.57.465.223.952.47.993.494.446.26.742.724.742 1.283 0 .841-.66 1.5-1.5 1.5-.12 0-.232-.013-.34-.039h-.002c-.025-.006-.816-.228-1.775-.51-.96-.281-2.18-.643-3.38-1-2.398-.713-4.716-1.408-4.716-1.408a1 1 0 0 0-.574 1.916s2.32.694 4.723 1.408c1.2.358 2.421.72 3.384 1.002.963.283 1.575.466 1.875.538.26.062.53.093.805.093 1.921 0 3.5-1.579 3.5-3.5 0-.592-.155-1.148-.418-1.638l10.693-6.59a1.755 1.755 0 0 1 2.451.547 1.757 1.757 0 0 1-.529 2.427L29.424 43.186a4.004 4.004 0 0 1-3.762.584l-11.648-4.13a8.354 8.354 0 0 0-8.125.987l-3.485 2.557a1 1 0 1 0 1.184 1.61l3.484-2.554a6.344 6.344 0 0 1 6.225-.732l11.697 4.146a6.011 6.011 0 0 0 5.639-.875l15.736-11.924a3.785 3.785 0 0 0 1.049-5.115 3.785 3.785 0 0 0-3.26-1.756z" transform="scale(5.12)" fill="#fff" stroke-miterlimit="10" font-family="none" font-weight="none" font-size="none" text-anchor="none" style="mix-blend-mode:normal"/></svg>