<svg xmlns="http://www.w3.org/2000/svg" viewBox="0 0 256 256" width="50" height="50"><path d="M25 3c-.16 0-.32.037-.465.113l-21 11A1.002 1.002 0 0 0 3 15v2a1 1 0 0 0 1 1h42a1 1 0 0 0 1-1v-2a1 1 0 0 0-.535-.887l-21-11A1.002 1.002 0 0 0 25 3zm0 6a3 3 0 1 1 0 6 3 3 0 0 1 0-6zM8 20a1 1 0 0 0-1 1v14h6V21a1 1 0 0 0-1-1zm10 0a1 1 0 0 0-1 1v14h6V21a1 1 0 0 0-1-1zm10 0c-.553 0-1 .359-1 .8v9.632A4.971 4.971 0 0 1 29.02 30H33v-9.2c0-.441-.447-.8-1-.8zm10 0c-.553 0-1 .3-1 .668V30h6v-9.332c0-.368-.447-.668-1-.668zm-9 12.018c-1.574 0-2.982 1.215-2.982 2.847v10.27c0 1.573 1.316 2.847 2.89 2.847h17.184c1.573 0 2.892-1.275 2.89-2.851V34.865c0-1.631-1.408-2.847-2.982-2.847zM41.656 36h2.627c.363 0 .656.269.656.6v1.8c0 .331-.293.6-.656.6h-2.627c-.363 0-.656-.269-.656-.6v-1.8c0-.331.293-.6.656-.6zM5 37a1 1 0 0 0-1 1v2H3a1 1 0 0 0-1 1v3a1 1 0 0 0 1 1h21v-8zm26 4h1a1 1 0 1 1 0 2h-1a1 1 0 1 1 0-2zm4 0h1a1 1 0 1 1 0 2h-1a1 1 0 1 1 0-2zm4 0h1a1 1 0 1 1 0 2h-1a1 1 0 1 1 0-2zm4 0h1a1 1 0 1 1 0 2h-1a1 1 0 1 1 0-2z" transform="scale(5.12)" fill="#89bf19" stroke-miterlimit="10" font-family="none" font-weight="none" font-size="none" text-anchor="none" style="mix-blend-mode:normal"/></svg>