<svg xmlns="http://www.w3.org/2000/svg" viewBox="0 0 256 256" width="50" height="50"><path d="M25 1C16.43 1 9.242 7.031 7.437 15.063c.184-.02.375-.063.563-.063.512 0 1.004.105 1.469.25C11.164 8.238 17.473 3 25 3c7.523 0 13.836 5.238 15.531 12.25.465-.145.953-.25 1.469-.25.188 0 .379.043.563.063C40.758 7.03 33.566 1 25 1zM8 17c-1.652 0-3 1.348-3 3v15c0 1.652 1.348 3 3 3s3-1.348 3-3V20c0-1.652-1.348-3-3-3zm34 0c-1.652 0-3 1.348-3 3v15c0 1.652 1.348 3 3 3s3-1.348 3-3V20c0-1.652-1.348-3-3-3zM3 20.125c-1.805 1.45-3 4.168-3 7.375s1.195 5.926 3 7.375zm44 0v14.75c1.805-1.45 3-4.168 3-7.375s-1.195-5.926-3-7.375zm-6.406 19.656C39.71 42.496 37.418 44 34 44h-1.094c.067.324.094.656.094 1s-.027.676-.094 1H34c4.492 0 7.602-2.258 8.625-6.063-.21.028-.41.063-.625.063-.492 0-.957-.086-1.406-.219zM23 42c-1.652 0-3 1.348-3 3s1.348 3 3 3h5c1.652 0 3-1.348 3-3s-1.348-3-3-3z" transform="scale(5.12)" fill="#89bf19" stroke-miterlimit="10" font-family="none" font-weight="none" font-size="none" text-anchor="none" style="mix-blend-mode:normal"/></svg>