<svg xmlns="http://www.w3.org/2000/svg" width="256" height="256"><g fill="none" stroke-miterlimit="10" font-family="none" font-weight="none" font-size="none" text-anchor="none" style="mix-blend-mode:normal"><path fill="#89bf19" d="M48.297 11.261h145.272v183.25H48.297z"/><path fill="#fff" d="M48.297 11.261h15.5v183.25h-15.5z"/><path fill="#89bf19" d="M178.069 11.261h15.5v183.25h-15.5z"/><rect x="63.6" y="25.731" width="114.667" height="114.667" rx="4.65" ry="4.65" fill="#fff"/><path d="M87.6 113.667h2.746a5 5 0 0 1 5 5v1.1H82.6v-1.1a5 5 0 0 1 5-5zM90.342 77.048h-2.746a5 5 0 0 1-5-5v-1.1h12.746v1.1a5 5 0 0 1-5 5z" fill="#f8af23"/><path d="m159.268 63.458-38.335-31.742-38.335 31.742z" fill="#89bf19"/><rect x="-167.884" y="-70.95" transform="rotate(180)" width="93.903" height="7.492" rx="3.533" ry="3.533" fill="#89bf19"/><path d="M122.306 77.046h-2.746a5 5 0 0 1-5-5v-1.1h12.746v1.1a5 5 0 0 1-5 5zM119.56 113.667h2.746a5 5 0 0 1 5 5v1.1H114.56v-1.1a5 5 0 0 1 5-5z" fill="#f8af23"/><path fill="#9e9e9e" d="M124.28 113.666h-6.939v-36.62h6.939z"/><path d="M154.268 77.046h-2.746a5 5 0 0 1-5-5v-1.1h12.746v1.1a5 5 0 0 1-5 5zM151.522 113.667h2.746a5 5 0 0 1 5 5v1.1h-12.746v-1.1a5 5 0 0 1 5-5z" fill="#f8af23"/><path fill="#9e9e9e" d="M156.244 113.666h-6.939v-36.62h6.939z"/><path fill="#707070" d="M92.32 113.666h-6.939v-36.62h6.939z"/><path fill="#89bf19" d="M163.721 127.088H78.145v-7.325h85.576z"/><path fill="#fff" d="M78.145 119.762h15.5v7.325h-15.5z"/><path fill="#89bf19" d="M167.075 134.412H74.792v-7.325h92.283z"/><path fill="#fff" d="M74.791 127.088h15.5v7.325h-15.5z"/><path d="M193.569 75.27v36.174l-7.12-8.353a8.3 8.3 0 0 0-11.665-.93 8.3 8.3 0 0 0-.93 11.665l16.2 19s-4.834 20.4 7.909 32.058h36.026l-3.194-43.827c-.383-4.048-2.879-7.471-5.417-10.3z" fill="#f8af23"/><path fill="#9e9e9e" d="M182.026 164.887h63.046v26.003h-63.046z"/><path fill="#89bf19" d="M185.762 190.89h55.574v42.876h-55.574z"/><path d="m209.875 110.757-16.306-18.193V75.27l31.806 35.487c2.538 2.832 5.034 6.256 5.417 10.3l3.194 43.827h-15.5l-3.194-43.827c-.383-4.044-2.879-7.468-5.417-10.3z" fill="#f8d323"/><path fill="#89bf19" d="M225.837 190.89h15.5v42.876h-15.5z"/><path fill="#cecece" d="M229.572 164.887h15.5v26.003h-15.5z"/><path fill="#9e9e9e" d="M102.19 184.632v19.755H10.927v-19.755z"/><path fill="#707070" d="M10.928 184.632h15.5v19.756h-15.5z"/><path fill="#f8af23" d="M139.433 172.867v43.285H102.19v-43.285z"/><rect x="155.254" y="-147.968" transform="rotate(90)" width="10.4" height="54.313" rx="4.734" ry="4.734" fill="#f8af23"/><rect x="223.366" y="-147.968" transform="rotate(90)" width="10.4" height="54.313" rx="4.734" ry="4.734" fill="#f8af23"/><path fill="#9e9e9e" d="M139.433 165.654v7.213H102.19v-7.213zM139.434 216.153v7.213h-37.243v-7.213z"/><rect x="180.501" y="-18.238" transform="rotate(90)" width="28.017" height="7.31" rx="3.328" ry="3.328" fill="#f87023"/><path d="M102.19 179.467v30.079h-.886a9.008 9.008 0 0 1-9.008-9.008v-12.06a9.008 9.008 0 0 1 9.007-9.011h.886z" fill="#f8af23"/><path d="M27.323 243.239h-18a1.5 1.5 0 1 0 0 3h18a1.5 1.5 0 1 0 0-3zM246.68 243.239h-18a1.5 1.5 0 1 0 0 3h18a1.5 1.5 0 1 0 0-3zM218.479 243.239H37.521a1.5 1.5 0 1 0 0 3h180.958a1.5 1.5 0 1 0 0-3zM9.32 235.267h237.36a1.5 1.5 0 1 0 0-3h-3.843v-39.876h2.235a1.5 1.5 0 0 0 1.5-1.5v-26a1.5 1.5 0 0 0-1.5-1.5h-9.691l-3.1-42.469c-.44-4.657-3.327-8.412-5.793-11.162L195.069 74.7V11.261a1.5 1.5 0 0 0-1.5-1.5H48.3a1.5 1.5 0 0 0-1.5 1.5v171.872H19.668A4.82 4.82 0 0 0 14.91 179h-.655a4.832 4.832 0 0 0-4.827 4.827v21.363a4.833 4.833 0 0 0 4.827 4.828h.655a4.821 4.821 0 0 0 4.758-4.131h72.606a10.5 10.5 0 0 0 8.416 5.131v10.847h-2.3a6.242 6.242 0 0 0-6.234 6.234v.932c0 1.142.317 2.261.915 3.234H9.32a1.5 1.5 0 1 0 0 3zm133.914-13.4h-2.3V196.01h43.328v36.257h-35.708a6.187 6.187 0 0 0 .915-3.234v-.933a6.242 6.242 0 0 0-6.235-6.234zm-3.8-57.712H98.39a3.238 3.238 0 0 1-3.234-3.234v-.932a3.238 3.238 0 0 1 3.234-3.234h44.845a3.238 3.238 0 0 1 3.234 3.234v.932a3.238 3.238 0 0 1-3.234 3.234zm-1.5 3v4.214H103.69v-4.214zm-34.243 42.4v-35.187h34.243v40.284H103.69zm136.146 22.717h-52.575v-39.881h52.575zm3.735-42.876h-60.046v-10h34.86a1.5 1.5 0 1 0 0-3h-34.86v-10h60.046zm-19.314-77.632c2.159 2.408 4.683 5.657 5.038 9.411l3.077 42.218h-33.819c-11.405-10.979-7.088-30.021-7.042-30.214a1.5 1.5 0 0 0-.318-1.317l-16.2-19a6.775 6.775 0 1 1 10.313-8.79l7.12 8.353 13.52 15.862a1.5 1.5 0 0 0 2.283-1.945L195.069 110.9V79.2zM176.767 99.3a9.779 9.779 0 0 0-4.055 15.5l4.055 4.757v16.192a3.154 3.154 0 0 1-3.15 3.15H68.25a3.154 3.154 0 0 1-3.15-3.15V30.382a3.154 3.154 0 0 1 3.15-3.15h105.366a3.154 3.154 0 0 1 3.15 3.15zM49.8 12.761h142.269v94.61l-4.479-5.253a9.706 9.706 0 0 0-7.824-3.413V30.382a6.157 6.157 0 0 0-6.15-6.15H68.25a6.157 6.157 0 0 0-6.15 6.15v105.365a6.157 6.157 0 0 0 6.15 6.15h105.366a6.157 6.157 0 0 0 6.15-6.15v-12.672l8.667 10.167a47.473 47.473 0 0 0-.7 11.332 34.114 34.114 0 0 0 4.345 15.346v3.467h-10.052a1.5 1.5 0 0 0-1.5 1.5v26a1.5 1.5 0 0 0 1.5 1.5h2.235v.619h-43.327v-25.852h2.3a6.242 6.242 0 0 0 6.234-6.234v-.932a6.242 6.242 0 0 0-6.234-6.234H98.39a6.242 6.242 0 0 0-6.234 6.234v.932a6.242 6.242 0 0 0 6.234 6.234h2.3V178a10.5 10.5 0 0 0-8.416 5.131H49.8zM16.738 205.19a1.83 1.83 0 0 1-1.828 1.828h-.655a1.83 1.83 0 0 1-1.827-1.828v-21.361c0-1.01.818-1.828 1.827-1.829h.655a1.83 1.83 0 0 1 1.828 1.827zm3-2.3v-16.757H91.07c-.18.77-.27 1.556-.273 2.346v12.063c.002.79.094 1.577.273 2.346zm74.062-2.348v-12.063a7.518 7.518 0 0 1 6.89-7.479v27.03a7.518 7.518 0 0 1-6.89-7.488zm9.894 17.11h34.243v4.214H103.69zm-8.535 11.38v-.932a3.238 3.238 0 0 1 3.234-3.234h44.845a3.238 3.238 0 0 1 3.234 3.234v.932a3.238 3.238 0 0 1-3.234 3.234H98.39a3.238 3.238 0 0 1-3.235-3.234z" fill="#3f3679"/><path d="M164.352 61.958h-4.542l-37.919-31.4a1.5 1.5 0 0 0-1.914 0l-37.92 31.4h-4.541a5.039 5.039 0 0 0-5.033 5.033v.426a5.039 5.039 0 0 0 5.033 5.033h3.6a6.493 6.493 0 0 0 2.763 4.92v35.972a6.493 6.493 0 0 0-2.763 4.92h-2.971a1.5 1.5 0 0 0-1.5 1.5v5.825h-1.854a1.5 1.5 0 0 0-1.5 1.5v7.325a1.5 1.5 0 0 0 1.5 1.5h92.283a1.5 1.5 0 0 0 1.5-1.5v-7.325a1.5 1.5 0 0 0-1.5-1.5h-1.854v-5.825a1.5 1.5 0 0 0-1.5-1.5h-2.973a6.494 6.494 0 0 0-3-5.08V77.53a6.494 6.494 0 0 0 3-5.08h3.6a5.039 5.039 0 0 0 5.033-5.033v-.426a5.039 5.039 0 0 0-5.028-5.033zm-43.418-28.295 34.172 28.295H86.762zm-7.853 38.787a6.493 6.493 0 0 0 2.762 4.92v35.973a6.493 6.493 0 0 0-2.762 4.92H96.824a6.494 6.494 0 0 0-3-5.08V77.53a6.494 6.494 0 0 0 3-5.08zm31.962 0a6.493 6.493 0 0 0 2.762 4.92v35.973a6.493 6.493 0 0 0-2.762 4.92h-16.257a6.494 6.494 0 0 0-3-5.08V77.53a6.494 6.494 0 0 0 3-5.08zm-26.2 39.717V78.546h3.938v33.621zm.718 3h2.746a3.505 3.505 0 0 1 3.477 3.1h-9.7a3.505 3.505 0 0 1 3.477-3.1zm2.746-39.621h-2.746a3.505 3.505 0 0 1-3.477-3.1h9.7a3.505 3.505 0 0 1-3.477 3.1zm-31.962 0H87.6a3.505 3.505 0 0 1-3.477-3.1h9.7a3.505 3.505 0 0 1-3.478 3.1zm-3.464 36.621V78.546h3.938v33.621zm.717 3h2.747a3.505 3.505 0 0 1 3.477 3.1h-9.7a3.505 3.505 0 0 1 3.478-3.1zm77.977 17.746H76.291v-4.325h89.283zm-3.354-7.325H79.645v-4.325h82.576zm-14.175-7.325a3.505 3.505 0 0 1 3.477-3.1h2.746a3.505 3.505 0 0 1 3.477 3.1zm6.7-39.717v33.621H150.8V78.546h3.938zm-.475-3h-2.746a3.505 3.505 0 0 1-3.477-3.1h9.7a3.505 3.505 0 0 1-3.479 3.1zm12.116-8.129a2.036 2.036 0 0 1-2.033 2.033H77.516a2.036 2.036 0 0 1-2.033-2.033v-.426a2.036 2.036 0 0 1 2.033-2.033h86.836a2.036 2.036 0 0 1 2.033 2.033zM226.5 176.389a1.5 1.5 0 1 0 0 3h7.487a1.5 1.5 0 1 0 0-3z" fill="#3f3679"/></g></svg>