<svg xmlns="http://www.w3.org/2000/svg" viewBox="0 0 256 256" width="68" height="68"><path d="M28.3 1.4c-2.9 0-5.2 2.4-5.2 5.2v.2H19c-1.2 0-2.2.4-3.1 1.3-.7.6-1.1 1.5-1.2 2.4h-4c-3.6 0-6.5 2.9-6.5 6.5v43.2c0 3.6 2.9 6.5 6.5 6.5H63c.4 0 .7-.3.7-.7v-3c.1-1.6-1.1-2.8-2.7-2.8-3.1-5.6-4.4-12.5-3.9-19.9h.1c1.7 0 3.1-1.4 3.1-3.1v-5.3c0-.4-.3-.7-.7-.7h-2.3c-.4 0-.7.3-.7.7v2c0 .2-.2.4-.4.4h-1.9c-.2 0-.4-.2-.4-.4v-2c0-.4-.3-.7-.7-.7h-.8V16.9c0-3.6-2.9-6.5-6.5-6.5h-4c-.3-2-2.1-3.6-4.3-3.6h-4.1v-.2c0-2.9-2.4-5.2-5.2-5.2zm0 3.1c.8 0 1.5.7 1.5 1.5s-.7 1.5-1.5 1.5-1.5-.7-1.5-1.5c0-.9.7-1.5 1.5-1.5zm-17.6 7.9h4.1c.6 1.7 2.2 3 4.1 3h18.6c1.9 0 3.6-1.3 4.1-3h4.1c2.5 0 4.5 2 4.5 4.5v14.3c-.3.1-.4.4-.4.6v2c0 .2-.2.4-.4.4h-1.9c-.2 0-.4-.2-.4-.4v-2c0-.4-.3-.7-.7-.7h-2.3c-.4 0-.7.3-.7.7v5.3c0 1.7 1.4 3.1 3.1 3.1h.1c.5 7.4-.8 14.3-3.9 19.9a2.69 2.69 0 0 0-2.7 2.7v1.7H10.8c-2.5 0-4.5-2-4.5-4.5V16.9h-.1c0-2.5 2-4.5 4.5-4.5zm1.2 6.8c-.6 0-1 .4-1 1s.4 1 1 1h32.8c.6 0 1-.4 1-1s-.4-1-1-1zm0 5.3c-.6 0-1 .4-1 1 0 .5.4 1 1 1h32.8c.6 0 1-.4 1-1s-.4-1-1-1zm0 5.3c-.6 0-1 .5-1 1s.4 1 1 1H32c.5 0 1-.5 1-1s-.5-1-1-1zm-.1 6.9c-.5 0-1 .4-1 1v22.6c0 .6.5 1 1 1h27.1c.5 0 1-.5 1-1s-.5-1-1-1h-2.4V46.7c0-.8-.7-1.5-1.5-1.5h-2.6c-.8 0-1.5.7-1.5 1.5v12.6h-2.3v-3.8c0-.8-.7-1.5-1.5-1.5h-2.6c-.8 0-1.5.7-1.5 1.5v3.8h-2.3v-7.8c0-.8-.7-1.5-1.5-1.5h-2.6c-.8 0-1.5.7-1.5 1.5v7.8h-2.3V37.7c0-.6-.4-1-1-1zm23.3.6-2.1.1c-.9 0-1.3 1.1-.8 1.8l.2.2-6.5 5.4-3.5-3.4c-.4-.4-.9-.4-1.3-.1l-3.8 2.9c-.4.3-.5 1-.2 1.4.3.4 1 .5 1.4.2l3.2-2.4 3.4 3.4c.2.2.5.3.7.3.2 0 .5-.1.6-.2l7.3-6 .2.3c.6.7 1.7.4 1.9-.5l.4-2.1c.1-.7-.4-1.3-1.1-1.3zm13.6 3.3h6.4c-.4 7.1.8 13.8 3.5 19.3H45.2c2.7-5.6 3.9-12.2 3.5-19.3z" transform="scale(3.76471)" fill="#fff" stroke-miterlimit="10" font-family="none" font-weight="none" font-size="none" text-anchor="none" style="mix-blend-mode:normal"/></svg>