<svg xmlns="http://www.w3.org/2000/svg" viewBox="0 0 256 256" width="50" height="50"><path d="M8 4C5.793 4 4 5.793 4 8v9h5V9h32v14h5V8c0-2.207-1.793-4-4-4zM2 18c-1.102 0-2 .898-2 2v24c0 1.102.898 2 2 2h19c1.102 0 2-.898 2-2V20c0-1.102-.898-2-2-2zm2 4h15v18H4zm33 2c-1.102 0-2 .898-2 2v18c0 1.102.898 2 2 2h11c1.102 0 2-.898 2-2V26c0-1.102-.898-2-2-2zm2 4h7v12h-7zm-15 4v11h10v-4h-4v-3h4v-4zm-12.5 9.5a1 1 0 1 1 .001 1.999A1 1 0 0 1 11.5 41.5zm31 0c.555 0 1 .445 1 1 0 .555-.445 1-1 1-.555 0-1-.445-1-1 0-.555.445-1 1-1z" transform="scale(5.12)" fill="#89bf19" stroke-miterlimit="10" font-family="none" font-weight="none" font-size="none" text-anchor="none" style="mix-blend-mode:normal"/></svg>