<svg xmlns="http://www.w3.org/2000/svg" width="256" height="256"><g transform="scale(.5)" fill="none" stroke-miterlimit="10" font-family="none" font-weight="none" font-size="none" text-anchor="none" style="mix-blend-mode:normal"><circle cx="-58.435" cy="125.927" transform="rotate(-70.36)" r="47.03" fill="#89bf19"/><path d="M145.85 93.58c.994 25.957-19.243 47.806-45.2 48.8-25.957.994-47.806-19.243-48.8-45.2 0 0 10.65 37.26 49.72 35.76s44.28-39.36 44.28-39.36z" fill="#3f456b" opacity=".2"/><path d="M52 101.07c-.997-25.957 19.238-47.808 45.195-48.805 25.957-.997 47.808 19.238 48.805 45.195 0 0-10.65-37.25-49.72-35.75S52 101.07 52 101.07z" fill="#fff" opacity=".3"/><path d="M84.58 116.76A5 5 0 0 1 81 115.3c-9.905-9.905-9.905-25.965 0-35.87 9.905-9.905 25.965-9.905 35.87 0a5 5 0 0 1-7.07 7.07c-6.041-5.754-15.57-5.637-21.468.262-5.9 5.899-6.016 15.427-.262 21.468a5 5 0 0 1-3.53 8.53z" fill="#3f456b" opacity=".3"/><circle cx="471.46" cy="56.98" r="26.5" fill="#89bf19"/><path d="M448.6 63.31s1.15-20 21.92-21.86c20.77-1.86 25.18 19.26 25.18 19.26s.67-32.33-24-30.22c-29.04 2.51-23.1 32.82-23.1 32.82z" fill="#fff" opacity=".3"/><path d="M495 51.06s-1.15 20-21.92 21.86c-20.77 1.86-25.18-19.25-25.18-19.25s-.67 32.32 24 30.22C501 81.41 495 51.06 495 51.06z" fill="#3f456b" opacity=".15"/><circle cx="41.46" cy="452.98" r="26.5" fill="#89bf19"/><path d="M18.6 459.31s1.15-20 21.92-21.86c20.77-1.86 25.18 19.26 25.18 19.26s.67-32.33-24-30.22c-29.04 2.51-23.1 32.82-23.1 32.82z" fill="#fff" opacity=".3"/><path d="M65 447.06s-1.15 20-21.92 21.86c-20.77 1.86-25.18-19.25-25.18-19.25s-.67 32.32 24 30.22C71 477.41 65 447.06 65 447.06z" fill="#3f456b" opacity=".15"/><circle cx="-229.075" cy="280.975" transform="rotate(-84.29)" r="223.13" fill="#8bd0f7"/><path d="M200.72 56.69c-58.51 0-111.26 35.246-133.65 89.303-22.39 54.057-10.011 116.279 31.363 157.65 41.375 41.372 103.597 53.746 157.653 31.353 54.055-22.394 89.298-75.146 89.294-133.656A144.65 144.65 0 0 0 200.72 56.69z" fill="#fff" opacity=".5"/><path d="M154.72 112.07A43.28 43.28 0 1 0 198 155.34a43.27 43.27 0 0 0-43.28-43.27z" fill="#fff" opacity=".5"/><g fill="#3f456b" opacity=".3"><path d="M256 484a5 5 0 0 1-5-5V33a5 5 0 0 1 10 0v446a5 5 0 0 1-5 5z"/><path d="M471 261H41a5 5 0 0 1 0-10h430a5 5 0 0 1 0 10z"/><path d="M311.76 476.84a5 5 0 0 1-4.47-7.25c.37-.72 36.53-74.45 36.53-213.29 0-138.84-36.17-213.39-36.54-214.13a5.02 5.02 0 0 1 9-4.45c1.53 3.08 37.58 77.13 37.58 218.58 0 141.45-36.1 214.7-37.63 217.79a5 5 0 0 1-4.47 2.75zM367.91 454.07a5 5 0 0 1-3.65-8.41c.15-.16 15.39-16.72 30.42-48.22 13.86-29 30.38-77.11 30.38-141.18 0-64.3-16.63-112.7-30.59-142-15-31.55-30.08-48-30.23-48.17a5.003 5.003 0 1 1 7.35-6.79c.65.71 16.23 17.75 31.91 50.66 14.4 30.21 31.56 80.11 31.56 146.28s-17.17 115.9-31.56 145.94c-15.69 32.74-31.28 49.6-31.93 50.3a5 5 0 0 1-3.66 1.59zM204.7 476.84a5 5 0 0 1-4.47-2.75c-1.54-3-37.6-76.32-37.6-217.79s36.05-215.5 37.59-218.58a5 5 0 1 1 8.95 4.45c-.36.74-36.54 75.28-36.54 214.13s36.17 212.57 36.53 213.3a5 5 0 0 1-4.46 7.24zM148.54 455.07a5 5 0 0 1-3.68-1.61c-.65-.72-16.23-17.82-31.91-50.79C98.56 372.4 81.4 322.43 81.4 256.26S98.55 139.67 112.94 109c15.67-33.38 31.22-50.89 31.88-51.62a5 5 0 1 1 7.44 6.67c-.28.32-15.47 17.56-30.45 49.6-13.88 29.68-30.41 78.5-30.41 142.61 0 122.91 60.21 189.76 60.82 190.42a5 5 0 0 1-3.68 8.39z"/><path d="M256.39 184.22c-129.67 0-190.23-36.39-192.74-37.94a5 5 0 1 1 5.23-8.51c.6.36 61 36.45 187.51 36.45 126.94 0 188.53-34.27 189.13-34.62a5.013 5.013 0 1 1 5 8.69c-2.62 1.46-64.52 35.93-194.13 35.93zM256.67 111.37c-81.87 0-120.26-37.05-121.85-38.63a5 5 0 0 1 7-7.12c.37.36 37.36 35.75 114.83 35.75 77.91 0 115.52-33.62 115.89-34a5 5 0 0 1 6.75 7.38c-1.61 1.53-40.86 36.62-122.62 36.62zM64.28 369.77a5 5 0 0 1-2.61-9.27c2.54-1.54 63.71-37.91 194.71-37.91S449.86 357 452.46 358.5a5.002 5.002 0 0 1-4.92 8.71c-.61-.34-63.19-34.62-191.16-34.62-66.83 0-114.81 9.91-143.29 18.23C82.26 359.83 67 369 66.86 369.05a5 5 0 0 1-2.58.72zM138.33 442.61a5 5 0 0 1-3.51-8.55c1.59-1.57 40-38.63 121.85-38.63s121 35.09 122.64 36.59a5 5 0 1 1-6.75 7.37c-.37-.33-38.31-34-115.89-34s-114.46 35.39-114.83 35.75a5 5 0 0 1-3.51 1.47zM33.66 260.89a5 5 0 0 1 0-10H480a5 5 0 0 1 0 10z"/></g><path d="M103.8 416.25c86 86 225.5 86 311.53 0 86.03-86 86-225.5 0-311.53 0 0 86.55 171.2-26.8 284.55-117.95 117.95-284.73 26.98-284.73 26.98z" fill="#3f456b" opacity=".3"/><circle cx="-78.446" cy="301.884" transform="rotate(-70.36)" r="47.03" fill="#89bf19"/><path d="M304.85 171.58c.994 25.957-19.243 47.806-45.2 48.8-25.957.994-47.806-19.243-48.8-45.2 0 0 10.65 37.26 49.72 35.76s44.28-39.36 44.28-39.36z" fill="#3f456b" opacity=".2"/><path d="M211 179.07c-.997-25.957 19.238-47.808 45.195-48.805 25.957-.997 47.808 19.238 48.805 45.195 0 0-10.65-37.25-49.72-35.75S211 179.07 211 179.07z" fill="#fff" opacity=".3"/><circle cx="-258.363" cy="273.727" transform="rotate(-70.36)" r="47.03" fill="#89bf19"/><path d="M217.85 331.58c.994 25.957-19.243 47.806-45.2 48.8-25.957.994-47.806-19.243-48.8-45.2 0 0 10.65 37.26 49.72 35.76s44.28-39.36 44.28-39.36z" fill="#3f456b" opacity=".2"/><path d="M124 339.07c-.997-25.957 19.238-47.808 45.195-48.805 25.957-.997 47.808 19.238 48.805 45.195 0 0-10.65-37.25-49.72-35.75S124 339.07 124 339.07z" fill="#fff" opacity=".3"/><path d="M258 200.73c-14.011 0-25.37-11.359-25.37-25.37 0-14.011 11.359-25.37 25.37-25.37 14.011 0 25.37 11.359 25.37 25.37-.017 14.005-11.365 25.353-25.37 25.37zm0-40.73a15.37 15.37 0 1 0 15.37 15.36c-.011-8.482-6.888-15.354-15.37-15.36zM171 360.73c-14.011 0-25.37-11.359-25.37-25.37 0-14.011 11.359-25.37 25.37-25.37 14.011 0 25.37 11.359 25.37 25.37-.017 14.005-11.365 25.353-25.37 25.37zm0-40.73a15.37 15.37 0 1 0 15.37 15.36c-.011-8.482-6.888-15.354-15.37-15.36z" fill="#3f456b" opacity=".3"/><path d="M486 419.22c0 42.465-34.425 76.89-76.89 76.89s-76.89-34.425-76.89-76.89 34.425-76.89 76.89-76.89c42.463.006 76.884 34.427 76.89 76.89z" fill="#89bf19"/><path d="M485.54 416.43c.49 43.43-33.42 79-75.75 79.5s-77.05-34.32-77.55-77.74c0 0 14.77 64.28 78.47 62 62.29-2.19 74.83-63.76 74.83-63.76z" fill="#3f456b" opacity=".15"/><path d="M333.14 421.81c-.5-43.42 33.42-79 75.75-79.5s77.05 34.33 77.54 77.75c0 0-14.77-64.28-78.46-62-62.29 2.18-74.83 63.75-74.83 63.75z" fill="#fff" opacity=".3"/><path d="M353.72 473.59c-30.028-30.028-30.028-78.712 0-108.74 30.028-30.028 78.712-30.028 108.74 0z" fill="#fff" opacity=".3"/><g fill="#3f456b"><path d="M256.79 484A228.12 228.12 0 0 1 28.66 255.89c0-43.86 13.56-86.77 41.46-131.17 13-20.63 44.23-47 45.56-48.09l.12-.1c68.67-53.974 162.129-64.004 240.688-25.83 78.56 38.172 128.43 117.847 128.432 205.19a225.66 225.66 0 0 1-25.24 104.39l-8.89-4.58c34.777-67.63 31.828-148.49-7.783-213.408C403.396 77.374 332.838 37.767 256.79 37.76a215.91 215.91 0 0 0-134.74 46.58c-1.5 1.26-31.58 26.79-43.46 45.7C51.72 172.8 38.66 214 38.66 255.89c.036 73.002 36.571 141.151 97.35 181.59 60.779 40.438 137.751 47.809 205.1 19.64l3.87 9.23A226.88 226.88 0 0 1 256.79 484z"/><path d="M409.1 457.7c-16.84 0-27.93-8.47-28.32-21.71a5.002 5.002 0 0 1 10-.3c.33 11.06 13.29 12.08 18.86 12 5.57-.08 10.72-2.2 13.51-5.41a9.17 9.17 0 0 0 2.16-7.59c-.51-3.89-2.84-6.8-12.55-8.39l-2.83-.43c-8.39-1.27-17.89-2.7-24.37-11.87a16.12 16.12 0 0 1-2.76-12.44 22.87 22.87 0 0 1 9.79-14.28c7.21-4.89 18.27-5.64 27.5-1.85a26.56 26.56 0 0 1 14.73 14.69 5 5 0 1 1-9.31 3.64 16.72 16.72 0 0 0-9.21-9.08c-6.17-2.53-13.61-2.17-18.1.88a13.06 13.06 0 0 0-5.56 7.79 6.2 6.2 0 0 0 1.08 4.88c3.83 5.41 9.22 6.47 17.7 7.75 1 .15 2 .29 2.95.45 4.71.77 19 3.11 20.85 17a19.16 19.16 0 0 1-4.51 15.43c-4.71 5.44-12.54 8.75-20.94 8.86z"/><path d="M409 393a5 5 0 0 1-5-5v-15a5 5 0 0 1 10 0v15a5 5 0 0 1-5 5zM409 473a5 5 0 0 1-5-5v-15a5 5 0 0 1 10 0v15a5 5 0 0 1-5 5z"/><path d="M409.09 501.11c-45.224-.011-81.877-36.68-81.87-81.903.007-45.224 36.673-81.88 81.897-81.877 45.224.004 81.883 36.666 81.883 81.89-.06 45.21-36.7 81.84-81.91 81.89zm0-153.78c-39.701.011-71.877 32.202-71.87 71.903.007 39.701 32.196 71.88 71.897 71.877 39.7-.004 71.883-32.189 71.883-71.89-.06-39.686-32.224-71.84-71.91-71.89zM471.43 88.47c-14.753-.021-27.514-10.283-30.7-24.688-3.187-14.406 4.054-29.092 17.422-35.334 13.368-6.243 29.278-2.367 38.277 9.324 9 11.69 8.676 28.062-.779 39.388a31.45 31.45 0 0 1-24.22 11.31zm.06-53c-.65 0-1.31 0-2 .09A21.5 21.5 0 1 0 488 70.75a21.5 21.5 0 0 0-16.48-35.27zM41.43 484.47c-14.753-.021-27.514-10.283-30.7-24.688-3.187-14.406 4.054-29.092 17.422-35.334 13.368-6.243 29.278-2.367 38.277 9.324 9 11.69 8.676 28.062-.779 39.388a31.45 31.45 0 0 1-24.22 11.31zm.06-53c-.65 0-1.31 0-2 .09A21.5 21.5 0 1 0 58 466.75a21.5 21.5 0 0 0-16.48-35.27z"/><path d="m419.512 103.389 30.996-30.006 6.955 7.185-30.995 30.006zM62 440a5 5 0 0 1-3.41-8.66l30-28a5.002 5.002 0 0 1 6.82 7.32l-30 28A5 5 0 0 1 62 440zM68.11 355.58c-28.23 0-53.74-4.67-58.81-20.57-3.75-11.74 4.62-26 24.88-42.46a5 5 0 0 1 6.3 7.76c-16 13-23.92 24.55-21.66 31.66 3.39 10.63 33 19.38 105.15 9.08a5 5 0 1 1 1.42 9.9c-16.39 2.33-37.48 4.63-57.28 4.63zM217.88 331.71a5 5 0 0 1-1.26-9.84c18.45-4.87 37.38-10.32 56.18-16.33C337.35 285 396.21 260 438.51 235.29c20.34-11.88 35.65-23 45.51-33 8.88-9.05 12.84-16.94 11.16-22.21-2.29-7.17-15.59-12-36.5-13.3a5.01 5.01 0 0 1 .61-10c26.37 1.61 41.64 8.42 45.41 20.24 2.95 9.24-1.61 20.09-13.54 32.25-10.48 10.69-26.5 22.35-47.61 34.68-42.92 25.05-102.48 50.31-167.71 71.12-19 6.06-38.07 11.6-56.69 16.48a5 5 0 0 1-1.27.16z"/><path d="M456.31 363.5a5 5 0 0 1-.95-9.91c15.79-3 35.6-9.74 40.31-24.26 5.45-16.79-11-41.18-45.24-66.93-35.92-27-88.17-53.5-147.11-74.52a5 5 0 0 1 3.36-9.42c59.87 21.35 113.06 48.33 149.76 76 38.94 29.3 55.79 56.27 48.74 78-4.92 15.16-21.49 25.87-47.92 31a5.17 5.17 0 0 1-.95.04zM35.19 227.16a5 5 0 0 1-3.64-1.57c-18.68-19.82-25.94-38.37-21-53.64 6.17-19 30-30.68 69-33.76 36.07-2.86 84.23 2 135.6 13.57a5 5 0 1 1-2.21 9.75c-101.73-23-182.82-17.3-192.83 13.53-4.75 14.63 7.58 31.84 18.76 43.69a5 5 0 0 1-3.64 8.43z"/><path d="M258 227.39c-28.719 0-52-23.281-52-52s23.281-52 52-52 52 23.281 52 52c-.05 28.698-23.302 51.95-52 52zm0-94c-23.196 0-42 18.804-42 42s18.804 42 42 42 42-18.804 42-42c-.011-23.2-18.8-42.011-42-42.05zM171 387.39c-28.719 0-52-23.281-52-52s23.281-52 52-52 52 23.281 52 52c-.05 28.698-23.302 51.95-52 52zm0-94.05c-23.196 0-42 18.804-42 42s18.804 42 42 42 42-18.804 42-42c-.039-23.18-18.82-41.961-42-42zM65.72 135.62a5 5 0 0 1-3.53-1.47c-20.316-20.316-20.316-53.254 0-73.57 20.316-20.316 53.254-20.316 73.57 0a5 5 0 1 1-7.07 7.07c-16.411-16.411-43.019-16.411-59.43 0s-16.411 43.019 0 59.43a5 5 0 0 1-3.54 8.54z"/></g></g></svg>