<svg xmlns="http://www.w3.org/2000/svg" viewBox="0 0 256 256" width="50" height="50"><path d="M3.844 6.969a2 2 0 0 0-1.313 3.406L22.25 31.344 14.125 40H4a1.988 1.988 0 0 0-1.754.992 1.982 1.982 0 0 0 0 2.016A1.988 1.988 0 0 0 4 44h11a2.008 2.008 0 0 0 1.469-.625L25 34.281l8.531 9.094c.383.402.914.629 1.469.625h11a1.988 1.988 0 0 0 1.754-.992 1.982 1.982 0 0 0 0-2.016A1.988 1.988 0 0 0 46 40H35.875l-8.125-8.656 19.719-20.969a2 2 0 0 0-1.563-3.406 2 2 0 0 0-1.375.656L25 28.406 5.469 7.625a1.998 1.998 0 0 0-1.625-.656zM4 24c-.55 0-1 .45-1 1s.45 1 1 1 1-.45 1-1-.45-1-1-1zm3 0c-.55 0-1 .45-1 1s.45 1 1 1 1-.45 1-1-.45-1-1-1zm3 0c-.55 0-1 .45-1 1s.45 1 1 1 1-.45 1-1-.45-1-1-1zm15 0c-.398 0-.707.195-.906.594L25 25.5l.906-.906C25.707 24.195 25.398 24 25 24zm15 0c-.55 0-1 .45-1 1s.45 1 1 1 1-.45 1-1-.45-1-1-1zm3 0c-.55 0-1 .45-1 1s.45 1 1 1 1-.45 1-1-.45-1-1-1zm3 0c-.55 0-1 .45-1 1s.45 1 1 1 1-.45 1-1-.45-1-1-1zm-33.313.094c-.398.101-.687.508-.687.906 0 .602.398 1 1 1 .398 0 .805-.195.906-.594zm24.626 0-1.22 1.312c.102.399.509.594.907.594.602 0 1-.398 1-1 0-.398-.29-.805-.688-.906z" transform="scale(5.12)" fill="#89bf19" stroke-miterlimit="10" font-family="none" font-weight="none" font-size="none" text-anchor="none" style="mix-blend-mode:normal"/></svg>