<svg xmlns="http://www.w3.org/2000/svg" viewBox="0 0 256 256" width="64" height="64"><path d="M10 18v13a2.002 2.002 0 0 0 2 2h1v5a1 1 0 0 0 2 0v-5h1a2.002 2.002 0 0 0 2-2V18a2.002 2.002 0 0 0-2-2h-1v-5a1 1 0 0 0-2 0v5h-1a2.002 2.002 0 0 0-2 2zm2 0h4l.001 13H12zm22 0v13a2.002 2.002 0 0 0 2 2h1v5a1 1 0 0 0 2 0v-5h1a2.002 2.002 0 0 0 2-2V18a2.002 2.002 0 0 0-2-2h-1v-5a1 1 0 0 0-2 0v5h-1a2.002 2.002 0 0 0-2 2zm2 0h4l.001 13H36zm12 11h1v5a1 1 0 0 0 2 0v-5h1a2.002 2.002 0 0 0 2-2V10a2.002 2.002 0 0 0-2-2h-1V3a1 1 0 0 0-2 0v5h-1a2.002 2.002 0 0 0-2 2v17a2.002 2.002 0 0 0 2 2zm0-19h4l.001 17H48zM28 47a1 1 0 0 1 1-1h6a1 1 0 0 1 0 2h-6a1 1 0 0 1-1-1zm29-35a1 1 0 0 0 0 2 3.003 3.003 0 0 1 3 3v25H4V17a3.003 3.003 0 0 1 3-3h3a1 1 0 0 0 0-2H7a5.006 5.006 0 0 0-5 5v30a5.006 5.006 0 0 0 5 5h18.873a10.43 10.43 0 0 1-2.31 4H23a3.003 3.003 0 0 0-3 3v2a1 1 0 0 0 1 1h22a1 1 0 0 0 1-1v-2a3.003 3.003 0 0 0-3-3h-.564a10.43 10.43 0 0 1-2.309-4H57a5.006 5.006 0 0 0 5-5V17a5.006 5.006 0 0 0-5-5zM41 58a1 1 0 0 1 1 1v1H22v-1a1 1 0 0 1 1-1zm-14.889-2a10.273 10.273 0 0 0 1.794-4h8.19a10.273 10.273 0 0 0 1.794 4zM60 47a3.003 3.003 0 0 1-3 3H7a3.003 3.003 0 0 1-3-3v-3h56zM24 29h1v5a1 1 0 0 0 2 0v-5h1a2.002 2.002 0 0 0 2-2V10a2.002 2.002 0 0 0-2-2h-1V3a1 1 0 0 0-2 0v5h-1a2.002 2.002 0 0 0-2 2v17a2.002 2.002 0 0 0 2 2zm0-19h4l.001 17H24zm17 3a1 1 0 0 1 1-1h1a1 1 0 0 1 0 2h-1a1 1 0 0 1-1-1zm-9 0a1 1 0 0 1 1-1h1a1 1 0 0 1 0 2h-1a1 1 0 0 1-1-1zm-15 0a1 1 0 0 1 1-1h1a1 1 0 0 1 0 2h-1a1 1 0 0 1-1-1z" transform="scale(4)" fill="#fff" stroke-miterlimit="10" font-family="none" font-weight="none" font-size="none" text-anchor="none" style="mix-blend-mode:normal"/></svg>