<svg xmlns="http://www.w3.org/2000/svg" viewBox="0 0 256 256" width="64" height="64"><path d="M24 2a5.008 5.008 0 0 0-4.9 4H16a5.006 5.006 0 0 0-5 5v6H6a1 1 0 0 0-1 1v10a1 1 0 0 0 2 0v-9h6v13a1 1 0 0 0 1 1h.3L10 36.684 5.7 33H6a1 1 0 0 0 0-2H3a1 1 0 0 0-.65 1.76l7 6a1 1 0 0 0 1.298 0l.35-.301V42H5a3 3 0 0 0-3 3v10a3 3 0 0 0 3 3h6.1a5.008 5.008 0 0 0 4.9 4h18a1 1 0 0 0 0-2H16a3 3 0 0 1-2.816-2H16a1 1 0 0 0 0-2H5a1 1 0 0 1-1-1V45a1 1 0 0 1 1-1h28.191a3 3 0 0 0 .309 4.99l2.5 1.444V55a1 1 0 0 1-1 1H20a1 1 0 0 0 0 2h15a3 3 0 0 0 3-3v-3.41l1.672.965a4.006 4.006 0 0 0 1.853 4.535l2.885 1.666A2.989 2.989 0 0 1 42 60h-4a1 1 0 0 0 0 2h4a4.988 4.988 0 0 0 4.154-2.273 7.613 7.613 0 0 0 6.147.261 5.629 5.629 0 0 1 4.89.371l2.61 1.506a1 1 0 0 0 1-1.73l-2.61-1.508a7.622 7.622 0 0 0-6.619-.5 5.632 5.632 0 0 1-4.89-.37l-4.157-2.4a1.948 1.948 0 0 1-.992-1.728l3.227 1.861a1 1 0 0 0 1-1.73l-11.26-6.5a1 1 0 1 1 1-1.733l6.928 4a1 1 0 0 0 1-1.732 1 1 0 1 1 1-1.732 1 1 0 0 0 1-1.733 1 1 0 1 1 1-1.73 1 1 0 0 0 1-1.733 1 1 0 0 1 1-1.73l5.85 3.377a5.777 5.777 0 0 1 2.406 2.715l.2.466a7.79 7.79 0 0 0 3.247 3.662l.367.211a1 1 0 0 0 1-1.73l.002-.002-.367-.213a5.771 5.771 0 0 1-2.408-2.715l-.202-.467a7.783 7.783 0 0 0-3.246-3.662L49.43 37.4a2.983 2.983 0 0 0-2.43-.24V32h7a5.006 5.006 0 0 0 5-5V14a1 1 0 0 0-2 0v13a3 3 0 0 1-3 3H38.988a1 1 0 0 0-.76.35L34 35.293V31a1 1 0 0 0-1-1h-9a3 3 0 0 1-3-3V7a3 3 0 0 1 3-3h30a3 3 0 0 1 3 3v3a1 1 0 0 0 2 0V7a5.006 5.006 0 0 0-5-5zm2.97 4A1 1 0 0 0 26 7v1h-1a1 1 0 0 0-1 1v8a1 1 0 0 0 1 1h1v1a1 1 0 0 0 2 0v-1h1a1 1 0 0 0 1-1V9a1 1 0 0 0-1-1h-1V7a1 1 0 0 0-1.03-1zM16 8h3v19a5.006 5.006 0 0 0 5 5h8v6a1 1 0 0 0 1.76.65L39.45 32H45v7.4a2.989 2.989 0 0 0-.006 1.22 2.987 2.987 0 0 0-2 3.46 3 3 0 0 0-2.015 2.3l-3.014-1.74A2.994 2.994 0 0 0 35 42H13v-5.254l4.65-3.986A1 1 0 0 0 17 31h-2V18a1 1 0 0 0-1-1h-1v-6a3 3 0 0 1 3-3zm26.97 1a1 1 0 0 0-.97 1v1h-1a1 1 0 0 0-1 1v8a1 1 0 0 0 1 1h1v1a1 1 0 0 0 2 0v-1h1a1 1 0 0 0 1-1v-8a1 1 0 0 0-1-1h-1v-1a1 1 0 0 0-1.03-1zM26 10h2v6h-2zm8.97 1a1 1 0 0 0-.97 1v1h-1a1 1 0 0 0-1 1v8a1 1 0 0 0 1 1h1v1a1 1 0 0 0 2 0v-1h1a1 1 0 0 0 1-1v-8a1 1 0 0 0-1-1h-1v-1a1 1 0 0 0-1.03-1zM42 13h2v6h-2zm8.97 1a1 1 0 0 0-.97 1v1h-1a1 1 0 0 0-1 1v8a1 1 0 0 0 1 1h1v1a1 1 0 0 0 2 0v-1h1a1 1 0 0 0 1-1v-8a1 1 0 0 0-1-1h-1v-1a1 1 0 0 0-1.03-1zM34 15h2v6h-2zm16 3h2v6h-2zM20 34a1 1 0 0 0 0 2h9a1 1 0 0 0 0-2zm-4 4a1 1 0 0 0 0 2h9a1 1 0 0 0 0-2zm-7.506 7.959A2.542 2.542 0 1 0 9 51c.62 0 1 .324 1 .5s-.38.5-1 .5a1.145 1.145 0 0 1-.973-.408 1 1 0 0 0-1.742.982A3.06 3.06 0 0 0 9 54a2.542 2.542 0 1 0 0-5c-.62 0-1-.324-1-.5s.38-.5 1-.5c.371-.03.734.122.973.408a1 1 0 1 0 1.742-.982A3.06 3.06 0 0 0 9 46a2.543 2.543 0 0 0-.506-.041zM15 46a1 1 0 0 0-1 1v6a1 1 0 0 0 1 1h4a1 1 0 0 0 0-2h-3v-1h2a1 1 0 0 0 0-2h-2v-1h3a1 1 0 0 0 0-2zm8 0a1 1 0 0 0-1 1v6a1 1 0 0 0 1 1h3a1 1 0 0 0 0-2h-2v-5a1 1 0 0 0-1-1zm7 0a1 1 0 0 0-1 1v6a1 1 0 0 0 1 1h3a1 1 0 0 0 0-2h-2v-5a1 1 0 0 0-1-1z" transform="scale(4)" fill="#fff" stroke-miterlimit="10" font-family="none" font-weight="none" font-size="none" text-anchor="none" style="mix-blend-mode:normal"/></svg>