<svg xmlns="http://www.w3.org/2000/svg" viewBox="0 0 256 256" width="50" height="50"><path d="M85.94 51.886c-.257-5.386-3.427-7.955-5.085-8.935l2.884-8.096-4.172.194-1.999-1.88-2.478 1.11-3.617-1.549.038 7.143c-.768-.221-1.647-.653-1.905-1.503l-.326-1.075-2.149.653.327 1.075c.439 1.444 1.55 2.259 2.637 2.72-2.105.739-5.009 2.522-6.665 6.845l-2.324 6.708a12.275 12.275 0 0 0-6.612-1.926c-4.331 0-8.146 2.241-10.352 5.623l-13.568-2.456c3.536-1.893 5.949-5.622 5.949-9.907 0-6.193-5.038-11.232-11.231-11.232-6.194 0-11.231 5.039-11.231 11.232 0 3.104 1.266 5.917 3.309 7.952l-1.124 6.208 25.9 4.688c-.002.082-.006.162-.006.244V81.445h24.709V69.951l15.709 2.844 1.142-6.308c.103-.08.208-.156.307-.246 1.382-1.259 1.986-3.149 1.8-5.512zm-4.794 16.087-.4 2.211-13.898-2.516V65.723c0-.114-.006-.227-.008-.34l13.144 2.379zm-16.545 1.572v9.657H44.385v-2.246h16.847V74.71H44.385v-8.986a10.382 10.382 0 0 1 .218-2.082c.158-.752.408-1.47.724-2.152.167-.359.354-.706.56-1.04.216-.352.449-.692.706-1.014 1.854-2.324 4.704-3.821 7.901-3.821a10.044 10.044 0 0 1 6.77 2.624c.337.305.658.627.951.975a10.078 10.078 0 0 1 1.889 3.391c.012.035.027.068.038.103.111.356.199.723.271 1.095.017.087.026.177.041.264.049.298.087.598.11.904.008.105.011.212.016.317.007.145.022.288.022.435v3.822zM19.255 56.772l2.181.394 3.842.696 17.77 3.216a12.32 12.32 0 0 0-.66 2.164l-23.533-4.26zm6.037-19.126c4.954 0 8.985 4.03 8.985 8.985 0 4.904-3.951 8.897-8.835 8.978l-3.428-.62c-3.336-1.313-5.707-4.561-5.707-8.357-.001-4.956 4.03-8.986 8.985-8.986zm51.827-1.816 1.602 1.506 1.779-.083-1.393 3.909-5.348-.91-.022-4.111 1.373.588zm-4.451 7.635 1.109-.02-.005-.911 4.57.777-.302.848 1.026.392c.043.017 4.359 1.729 4.629 7.371l-.133 8.877c.134 1.74-.227 3.013-1.071 3.783-.679.619-1.579.854-2.384.922L66.552 63.05a12.354 12.354 0 0 0-3.579-6.298l2.566-7.394c2.177-5.681 6.934-5.887 7.129-5.893zm-48.5 8.781H21.36V50h4.493c.619 0 1.123-.504 1.123-1.123s-.504-1.123-1.123-1.123H24.73a3.373 3.373 0 0 1-3.37-3.369 3.373 3.373 0 0 1 2.808-3.319v-1.174h2.246v1.123h2.808v2.246H24.73c-.619 0-1.123.504-1.123 1.123s.504 1.123 1.123 1.123h1.123a3.372 3.372 0 0 1 3.369 3.369 3.372 3.372 0 0 1-2.808 3.319v1.174h-2.246zm34.403 9.36a4.495 4.495 0 0 0-4.078-2.62 4.48 4.48 0 0 0-3.925 2.313 4.464 4.464 0 0 0-.422 1.065A4.44 4.44 0 0 0 50 63.478c0 .405.059.797.16 1.171.12.444.306.861.548 1.24a4.52 4.52 0 0 0 3.784 2.081 4.468 4.468 0 0 0 2.697-.909c.363-.274.683-.6.949-.97a4.469 4.469 0 0 0 .846-2.614c0-.227-.022-.448-.055-.666a4.374 4.374 0 0 0-.358-1.205zm-3.292 3.969a2.226 2.226 0 0 1-.785.149c-.562 0-1.07-.215-1.464-.557a2.232 2.232 0 0 1-.783-1.69c0-.25.051-.487.127-.712a2.24 2.24 0 0 1 .701-1.015c.388-.32.878-.52 1.419-.52a2.24 2.24 0 0 1 1.936 1.127c.192.331.31.71.31 1.119 0 .026-.007.051-.008.077a2.244 2.244 0 0 1-1.453 2.022zm-4.717-44.776h-1.123v-2.247h3.369v11.232h-2.246zm-22.463 0h-1.123v-2.247h3.369v11.232h-2.246zm30.887 8.985a3.936 3.936 0 0 0 3.931-3.931v-3.37a3.936 3.936 0 0 0-3.931-3.931 3.936 3.936 0 0 0-3.931 3.931v3.37a3.936 3.936 0 0 0 3.931 3.931zm-1.685-7.301c0-.928.756-1.684 1.685-1.684s1.685.756 1.685 1.684v3.37c0 .929-.756 1.685-1.685 1.685a1.687 1.687 0 0 1-1.685-1.685zm11.793 7.301a3.936 3.936 0 0 0 3.931-3.931v-3.37a3.936 3.936 0 0 0-3.931-3.931 3.936 3.936 0 0 0-3.931 3.931v3.37a3.936 3.936 0 0 0 3.931 3.931zm-1.685-7.301c0-.928.756-1.684 1.685-1.684s1.685.756 1.685 1.684v3.37c0 .929-.756 1.685-1.685 1.685-.93 0-1.685-.756-1.685-1.685zm-30.132 3.273 1.588-1.588-1.588-1.588 1.588-1.588 1.588 1.588 1.588-1.588 1.588 1.588-1.588 1.588 1.588 1.588-1.588 1.588-1.588-1.588-1.588 1.588zm3.738 15.259h-2.246v-2.246h2.246zm1.124 11.231h-2.246V50h2.246zm1.123-10.108h2.246v2.246h-2.246zm-22.463-8.985h-2.246v-2.246h2.246zm52.279 26.829-2.797-.257.206-2.237 4.474.411c.303.023.591-.063.821-.255a1.124 1.124 0 0 0-.615-1.982l-1.12-.103a3.372 3.372 0 0 1-3.046-3.662 3.35 3.35 0 0 1 1.201-2.283 3.343 3.343 0 0 1 1.899-.766l.107-1.168 2.236.205-.103 1.119 2.797.257-.206 2.237-4.474-.411a1.119 1.119 0 0 0-1.221 1.016 1.126 1.126 0 0 0 1.015 1.222l1.119.103a3.372 3.372 0 0 1 1.846 5.946 3.333 3.333 0 0 1-1.898.757l-.108 1.177-2.236-.205z" transform="scale(2.56)" fill="#fff" stroke-miterlimit="10" font-family="none" font-weight="none" font-size="none" text-anchor="none" style="mix-blend-mode:normal"/></svg>