<svg xmlns="http://www.w3.org/2000/svg" viewBox="0 0 256 256" width="80" height="80"><path d="M10 10c-2.75 0-5 2.25-5 5v44c0 2.75 2.25 5 5 5h33v-2H10c-1.668 0-3-1.332-3-3V15c0-1.668 1.332-3 3-3h60c1.668 0 3 1.332 3 3v42h2V15c0-2.75-2.25-5-5-5H36zm8 5a1 1 0 1 0 0 2 1 1 0 0 0 0-2zm4 0a1 1 0 1 0 0 2 1 1 0 0 0 0-2zm4 0a1 1 0 1 0 0 2 1 1 0 0 0 0-2zm4 0a1 1 0 1 0 0 2 1 1 0 0 0 0-2zm4 0a1 1 0 1 0 0 2 1 1 0 0 0 0-2zm4 0a1 1 0 1 0 0 2 1 1 0 0 0 0-2zm4 0a1 1 0 1 0 0 2 1 1 0 0 0 0-2zm4 0a1 1 0 1 0 0 2 1 1 0 0 0 0-2zm4 0a1 1 0 1 0 0 2 1 1 0 0 0 0-2zm4 0a1 1 0 1 0 0 2 1 1 0 0 0 0-2zm4 0a1 1 0 1 0 0 2 1 1 0 0 0 0-2zm4 0a1 1 0 1 0 0 2 1 1 0 0 0 0-2zm-44.938 3.498a1 1 0 1 0 0 2 1 1 0 0 0 0-2zm45.876 0a1 1 0 1 0 0 2 1 1 0 0 0 0-2zm-23.858.072v1.92c-3.75.35-6.04 2.48-6.04 5.69 0 2.72 1.7 4.58 4.8 5.38l1.24.32v6.34c-2.07-.24-3.41-1.39-3.55-3.05h-2.95c.02 3.23 2.52 5.41 6.5 5.68v1.81h1.91v-1.83c4.07-.34 6.43-2.47 6.43-5.88 0-2.88-1.65-4.65-5.14-5.5l-1.29-.29v-5.99c1.83.22 3.09 1.41 3.14 2.95h2.91c-.08-3.11-2.45-5.31-6.05-5.63v-1.92zm-24.578 2.492a1 1 0 1 0 0 2 1 1 0 0 0 0-2zm50.996 0a1 1 0 1 0 0 2 1 1 0 0 0 0-2zM11 22a1 1 0 1 0 0 2 1 1 0 0 0 0-2zm58 0a1 1 0 1 0 0 2 1 1 0 0 0 0-2zm-29.92 1.15v5.61c-2-.4-3.06-1.39-3.06-2.82 0-1.52 1.28-2.69 3.06-2.79zM11 26a1 1 0 1 0 0 2 1 1 0 0 0 0-2zm58 0a1 1 0 1 0 0 2 1 1 0 0 0 0-2zm-58 4a1 1 0 1 0 0 2 1 1 0 0 0 0-2zm58 0a1 1 0 1 0 0 2 1 1 0 0 0 0-2zm-28.01 2.24c2.36.47 3.46 1.43 3.46 3.03 0 1.77-1.26 2.85-3.46 2.98zM11 34a1 1 0 1 0 0 2 1 1 0 0 0 0-2zm58 0a1 1 0 1 0 0 2 1 1 0 0 0 0-2zm-58 4a1 1 0 1 0 0 2 1 1 0 0 0 0-2zm58 0a1 1 0 1 0 0 2 1 1 0 0 0 0-2zm-7.5 2c-5.235 0-9.5 4.265-9.5 9.5 0 3.515 2.01 6.468 4.857 8.111C50.627 59.296 46 64.6 46 71h2c0-6.598 5.769-12 13-12s13 5.402 13 12h2c0-.404-.02-.804-.057-1.2l.016-.083-.031-.033c-.562-5.567-4.637-10.123-10.086-11.871C68.865 56.22 71 53.145 71 49.5c0-5.235-4.265-9.5-9.5-9.5zM11 42a1 1 0 1 0 0 2 1 1 0 0 0 0-2zm50.5 0c4.154 0 7.5 3.346 7.5 7.5S65.654 57 61.5 57a7.485 7.485 0 0 1-7.5-7.5c0-4.154 3.346-7.5 7.5-7.5zM17 45v2h31v-2zm-6 1a1 1 0 1 0 0 2 1 1 0 0 0 0-2zm0 4a1 1 0 1 0 0 2 1 1 0 0 0 0-2zm10.844 0v2H48v-2zm-7.342.938a1 1 0 1 0 0 2 1 1 0 0 0 0-2zm2.56 2.564a1 1 0 1 0 0 2 1 1 0 0 0 0-2zM18 57a1 1 0 1 0 0 2 1 1 0 0 0 0-2zm4 0a1 1 0 1 0 0 2 1 1 0 0 0 0-2zm4 0a1 1 0 1 0 0 2 1 1 0 0 0 0-2zm4 0a1 1 0 1 0 0 2 1 1 0 0 0 0-2zm4 0a1 1 0 1 0 0 2 1 1 0 0 0 0-2zm4 0a1 1 0 1 0 0 2 1 1 0 0 0 0-2zm4 0a1 1 0 1 0 0 2 1 1 0 0 0 0-2zm4 0a1 1 0 1 0 0 2 1 1 0 0 0 0-2zm5 12-.8.402-.159.881.611.654L51 71l.8-.402.159-.881-.611-.654zm4 0-.8.402-.159.881.611.654L55 71l.8-.402.159-.881-.611-.654zm4 0-.8.402-.159.881.611.654L59 71l.8-.402.159-.881-.611-.654zm4 0-.8.402-.159.881.611.654L63 71l.8-.402.159-.881-.611-.654zm4 0-.8.402-.159.881.611.654L67 71l.8-.402.159-.881-.611-.654zm4 0-.8.402-.159.881.611.654L71 71l.8-.402.159-.881-.611-.654z" transform="scale(3.2)" fill="#fff" stroke-miterlimit="10" font-family="none" font-weight="none" font-size="none" text-anchor="none" style="mix-blend-mode:normal"/></svg>