<svg xmlns="http://www.w3.org/2000/svg" viewBox="0 0 256 256" width="64" height="64"><path d="M21 1a7.008 7.008 0 0 0-7 7v5H3a3 3 0 0 0-3 3v12a5.009 5.009 0 0 0 4 4.9V55a6.006 6.006 0 0 0 6 6h31a1 1 0 0 0 0-2H10a4 4 0 0 1-4-4V33h18v2a2 2 0 0 0 2 2h12a2 2 0 0 0 2-2v-2h18v18a8.007 8.007 0 1 1-3.559-6.65 1 1 0 0 0 1.118-1.66A10 10 0 1 0 60 51V32.9a5.009 5.009 0 0 0 4-4.9V16a3 3 0 0 0-3-3H50V8a7.008 7.008 0 0 0-7-7zm0 2h22a5.006 5.006 0 0 1 5 5v5h-4V8a1 1 0 0 0-1-1H21a1 1 0 0 0-1 1v5h-4V8a5.006 5.006 0 0 1 5-5zm1 6h20v4H22zM3 15h58a1 1 0 0 1 1 1v12a3 3 0 0 1-3 3H40v-2a2 2 0 0 0-2-2H26a2 2 0 0 0-2 2v2H5a3 3 0 0 1-3-3V16a1 1 0 0 1 1-1zm45.97 3a1 1 0 0 0-.97 1v1H10a1 1 0 0 0 0 2h38v1a1 1 0 0 0 2 0v-1h4a1 1 0 0 0 0-2h-4v-1a1 1 0 0 0-1.03-1zM26 29h12v6H26zm23.97 15a1 1 0 0 0-.97 1 3 3 0 0 0-3 3v.559a3 3 0 0 0 2.05 2.845l.95.317V55a1 1 0 0 1-1-1 1 1 0 0 0-2 0 3 3 0 0 0 3 3 1 1 0 0 0 2 0 3 3 0 0 0 3-3v-.559a3 3 0 0 0-2.05-2.841l-.95-.32V47a1 1 0 0 1 1 1 1 1 0 0 0 2 0 3 3 0 0 0-3-3 1 1 0 0 0-1.03-1zM49 47v2.613l-.316-.105a1 1 0 0 1-.684-.95V48a1 1 0 0 1 1-1zm2 5.387.316.105a1 1 0 0 1 .684.95V54a1 1 0 0 1-1 1z" transform="scale(4)" fill="#fff" stroke-miterlimit="10" font-family="none" font-weight="none" font-size="none" text-anchor="none" style="mix-blend-mode:normal"/></svg>