<svg xmlns="http://www.w3.org/2000/svg" viewBox="0 0 256 256" width="50" height="50"><path d="M12 0c-1.094 0-2 .906-2 2v2H4c-1.16 0-2 .84-2 2v7h46V6c0-1.16-.84-2-2-2h-6V2c0-1.094-.906-2-2-2h-2c-1.094 0-2 .906-2 2v2H16V2c0-1.094-.906-2-2-2zm0 2h2v6h-2zm24 0h2v6h-2zM2 15v31c0 1.105.895 2 2 2h30.027c1.668 1.25 3.73 2 5.973 2 5.516 0 10-4.484 10-10 0-2.242-.75-4.305-2-5.973V15zm10 6h5v5h-5zm7 0h5v5h-5zm7 0h5v5h-5zm7 0h5v5h-5zm-21 7h5v5h-5zm7 0h5v5h-5zm7 0h5v5h-5zm7 0h5v2.203a9.96 9.96 0 0 0-5 2.668zm7 4c4.41 0 8 3.59 8 8s-3.59 8-8 8-8-3.59-8-8 3.59-8 8-8zm0 2.098c-.602 0-1 .402-1 1V39h-3.902c-.598 0-1 .398-1 1s.402 1 1 1H39v3.902c0 .598.398 1 1 1s1-.402 1-1V41h3.902c.598 0 1-.398 1-1s-.402-1-1-1H41v-3.902c0-.598-.398-1-1-1zM12 35h5v5h-5zm7 0h5v5h-5zm7 0h5v.672A9.925 9.925 0 0 0 30 40h-4z" transform="scale(5.12)" fill="#89bf19" stroke-miterlimit="10" font-family="none" font-weight="none" font-size="none" text-anchor="none" style="mix-blend-mode:normal"/></svg>