<svg xmlns="http://www.w3.org/2000/svg" viewBox="0 0 256 256" width="212" height="212"><g fill="none" stroke-miterlimit="10" font-family="none" font-weight="none" font-size="none" text-anchor="none" style="mix-blend-mode:normal"><path d="M219.72 100.644c0 50.537-41.034 91.716-91.715 91.716-50.682 0-91.716-41.18-91.716-91.716 0-50.681 41.034-91.86 91.716-91.86 50.681 0 91.715 41.179 91.715 91.86z" fill="#fff"/><path d="M128.004 193.771c-51.351 0-93.127-41.775-93.127-93.127 0-51.43 41.776-93.272 93.127-93.272 51.351 0 93.129 41.842 93.129 93.272 0 51.352-41.778 93.127-93.13 93.127zm0-183.575C78.21 10.196 37.7 50.77 37.7 100.644c0 49.795 40.51 90.304 90.304 90.304 49.794 0 90.305-40.51 90.305-90.304 0-49.873-40.511-90.448-90.305-90.448z" fill="#070b00"/><path d="M128.008 166.447c-36.283 0-65.803-29.52-65.803-65.804 0-36.36 29.52-65.944 65.803-65.944 36.276 0 65.797 29.584 65.797 65.944 0 36.284-29.52 65.804-65.797 65.804z" fill="#89bf19"/><path d="M128.007 167.858c-37.062 0-67.215-30.153-67.215-67.215 0-37.14 30.153-67.355 67.215-67.355 37.06 0 67.21 30.215 67.21 67.355 0 37.062-30.15 67.215-67.21 67.215zm0-131.747c-35.505 0-64.391 28.949-64.391 64.532 0 35.505 28.886 64.391 64.391 64.391 35.502 0 64.387-28.886 64.387-64.391 0-35.583-28.885-64.532-64.387-64.532z" fill="#070b00"/><path d="M152.598 132.208c-2.002 3.032-4.852 5.451-8.547 7.257-3.695 1.806-7.976 2.857-12.835 3.147l.017 7.505c.002.916-.297 1.674-.894 2.273-.596.6-1.391.902-2.376.905-.916.002-1.674-.276-2.273-.838-.603-.567-.902-1.34-.904-2.325l-.017-7.505c-7.614-.477-14.735-2.113-21.36-4.92-.849-.35-1.555-.929-2.12-1.736-.566-.812-.852-1.671-.854-2.592a4.44 4.44 0 0 1 1.21-3.116c.807-.884 1.847-1.329 3.115-1.332a4.868 4.868 0 0 1 2.01.421 49.403 49.403 0 0 0 17.978 4.187l-.055-24.312c-4.798-1.258-8.831-2.621-12.112-4.093-3.28-1.472-6.016-3.565-8.207-6.274-2.19-2.704-3.291-6.138-3.3-10.297-.009-3.66.883-7.047 2.673-10.152 1.791-3.105 4.46-5.683 8.017-7.734 3.552-2.05 7.828-3.295 12.834-3.727l-.017-7.402c-.002-.912.293-1.691.894-2.325.596-.637 1.352-.953 2.268-.955.916-.002 1.691.31 2.33.945.633.63.953 1.409.955 2.32l.016 7.294c6.904.269 13.04 1.416 18.399 3.447 1.975.7 2.963 2.11 2.968 4.22.003 1.132-.382 2.152-1.154 3.07-.772.918-1.795 1.376-3.064 1.379-.421 0-.985-.136-1.69-.418-4.796-1.68-9.942-2.618-15.439-2.816l.057 25.155c5.078 1.184 9.287 2.478 12.64 3.881 3.35 1.403 6.155 3.491 8.419 6.269 2.26 2.782 3.395 6.46 3.405 11.037.009 3.737-.986 7.12-2.987 10.157zm-38.35-37.228c2.366 1.69 5.84 3.127 10.423 4.312l-.053-23.255c-4.226.578-7.608 1.867-10.137 3.881-2.533 2.014-3.796 4.645-3.788 7.884.007 3.1 1.19 5.493 3.556 7.178zm31.822 26.46c-.006-2.748-1.262-4.874-3.764-6.387-2.507-1.508-6.226-2.927-11.162-4.254l.051 22.726c9.934-.728 14.892-4.756 14.875-12.085z" fill="#fff"/><path d="M127.956 154.707c-1.283 0-2.37-.41-3.233-1.22-.89-.837-1.344-1.964-1.35-3.35l-.013-6.195c-7.264-.588-14.154-2.246-20.501-4.934-1.089-.45-2.01-1.2-2.727-2.228-.733-1.051-1.106-2.194-1.108-3.397-.006-1.555.528-2.926 1.58-4.075 1.082-1.182 2.479-1.783 4.153-1.789 1.019-.064 1.77.18 2.587.543a48.173 48.173 0 0 0 15.989 3.981l-.05-21.731c-4.393-1.195-8.185-2.502-11.28-3.89-3.466-1.555-6.402-3.8-8.727-6.673-2.388-2.952-3.605-6.713-3.614-11.182-.01-3.897.952-7.551 2.862-10.862 1.91-3.309 4.781-6.085 8.533-8.25 3.405-1.967 7.48-3.235 12.125-3.781l-.013-6.122c-.002-1.272.44-2.413 1.281-3.3.848-.907 1.988-1.394 3.29-1.396h.01c1.296 0 2.412.456 3.316 1.355a4.598 4.598 0 0 1 1.373 3.32l.013 5.952c6.493.365 12.372 1.53 17.491 3.47 2.522.897 3.873 2.815 3.88 5.539.003 1.467-.497 2.807-1.485 3.981-1.033 1.228-2.465 1.88-4.143 1.881h-.015c-.61 0-1.332-.17-2.204-.518-4.158-1.454-8.707-2.348-13.496-2.644l.051 22.557c4.646 1.125 8.603 2.368 11.774 3.693 3.552 1.487 6.568 3.736 8.969 6.68 2.461 3.028 3.713 7.04 3.722 11.925.01 4-1.073 7.68-3.22 10.938-2.133 3.231-5.195 5.838-9.105 7.75-3.507 1.713-7.553 2.784-12.04 3.189l.014 6.19c.002 1.28-.45 2.413-1.307 3.273-.853.859-2.018 1.314-3.37 1.32h-.012zm-23.182-24.364h-.01c-.874.002-1.536.28-2.076.871-.576.629-.842 1.315-.84 2.162.001.627.196 1.211.599 1.789.41.584.9.99 1.502 1.239 6.446 2.73 13.478 4.349 20.908 4.816a1.41 1.41 0 0 1 1.323 1.404l.017 7.504c.004.781.263 1.116.46 1.3.33.31.742.455 1.297.455.75-.09 1.177-.279 1.383-.487.332-.334.487-.739.485-1.275l-.018-7.504a1.414 1.414 0 0 1 1.327-1.414c4.649-.277 8.786-1.288 12.301-3.005 3.449-1.688 6.136-3.963 7.987-6.769 1.837-2.785 2.763-5.939 2.754-9.375-.01-4.222-1.048-7.638-3.088-10.15-2.103-2.58-4.752-4.55-7.87-5.857-3.272-1.368-7.448-2.649-12.413-3.807a1.413 1.413 0 0 1-1.092-1.371l-.057-25.157c0-.384.154-.751.43-1.018.278-.268.577-.465 1.033-.395 5.612.202 10.945 1.176 15.853 2.893.803.32 1.088.348 1.219.338.858-.001 1.489-.28 1.989-.875.555-.66.825-1.365.823-2.158-.003-1.524-.61-2.39-2.03-2.893-5.214-1.974-11.256-3.103-17.98-3.366a1.411 1.411 0 0 1-1.357-1.406l-.017-7.294c-.002-.539-.173-.96-.539-1.324-.373-.37-.78-.535-1.327-.535h-.003c-.532.002-.914.158-1.241.508-.353.373-.515.803-.513 1.358l.016 7.4a1.411 1.411 0 0 1-1.29 1.41c-4.772.414-8.893 1.607-12.25 3.545-3.318 1.914-5.84 4.342-7.5 7.217-1.656 2.873-2.493 6.05-2.484 9.443.01 3.809 1.013 6.976 2.986 9.413 2.044 2.526 4.63 4.5 7.687 5.872 3.199 1.435 7.2 2.787 11.894 4.016.62.162 1.051.723 1.053 1.362l.055 24.313c0 .386-.156.755-.434 1.022-.28.268-.647.406-1.038.392a51.056 51.056 0 0 1-18.487-4.306 3.427 3.427 0 0 0-1.427-.301zm47.824 1.864h.035zm-21.403 2.73a1.41 1.41 0 0 1-1.412-1.408l-.051-22.727a1.41 1.41 0 0 1 1.777-1.367c5.037 1.355 8.914 2.838 11.524 4.408 2.947 1.781 4.441 4.336 4.449 7.594.013 5.616-2.785 12.514-16.184 13.496-.035.002-.068.004-.103.004zm1.364-22.276.044 19.314c8.121-.934 12.07-4.39 12.055-10.53-.003-2.238-1.013-3.933-3.082-5.185-2.078-1.248-5.105-2.457-9.017-3.599zm-7.888-11.958a1.44 1.44 0 0 1-.353-.044c-4.8-1.243-8.362-2.724-10.89-4.53-2.744-1.955-4.137-4.757-4.147-8.325-.009-3.678 1.445-6.704 4.322-8.99 2.708-2.159 6.35-3.565 10.824-4.175a1.414 1.414 0 0 1 1.603 1.395l.053 23.254a1.41 1.41 0 0 1-1.412 1.415zM123.21 77.7c-3.226.623-5.86 1.739-7.848 3.323-2.198 1.748-3.263 3.963-3.257 6.774.005 2.643.976 4.618 2.963 6.035 1.905 1.36 4.653 2.57 8.188 3.605z" fill="#070b00"/><path d="M228.661 202.16v34.862c0 5.63-4.563 10.193-10.193 10.193H37.53c-5.63 0-10.193-4.563-10.193-10.193V202.16c0-5.63 4.564-10.194 10.193-10.194h180.937c5.63 0 10.193 4.564 10.193 10.194z" fill="#fff"/><path d="M218.467 248.628H37.531c-6.399 0-11.605-5.206-11.605-11.607V202.16c0-6.399 5.206-11.605 11.605-11.605h180.936c6.4 0 11.607 5.206 11.607 11.605v34.862c0 6.401-5.206 11.607-11.607 11.607zm-180.936-55.25c-4.842 0-8.781 3.94-8.781 8.781v34.862c0 4.844 3.94 8.784 8.781 8.784h180.936c4.844 0 8.783-3.94 8.783-8.784V202.16c0-4.842-3.94-8.781-8.783-8.781z" fill="#070b00"/><path fill="#89bf19" d="M50.191 191.966h12.205v55.251H50.191z"/><path d="M62.395 248.628H50.19c-.779 0-1.411-.632-1.411-1.412v-55.25c0-.78.632-1.412 1.411-1.412h12.206c.78 0 1.412.633 1.412 1.412v55.25c0 .78-.632 1.412-1.412 1.412zm-10.794-2.823h9.383v-52.427H51.6z" fill="#070b00"/><path fill="#89bf19" d="M86.042 191.966h12.206v55.251H86.042z"/><path d="M98.248 248.628H86.044c-.78 0-1.412-.632-1.412-1.412v-55.25c0-.78.633-1.412 1.412-1.412h12.204c.78 0 1.412.633 1.412 1.412v55.25c0 .78-.632 1.412-1.412 1.412zm-10.792-2.823h9.38v-52.427h-9.38z" fill="#070b00"/><path fill="#89bf19" d="M121.898 191.966h12.205v55.251h-12.205z"/><path d="M134.103 248.628h-12.206c-.78 0-1.412-.632-1.412-1.412v-55.25c0-.78.633-1.412 1.412-1.412h12.206c.78 0 1.412.633 1.412 1.412v55.25c0 .78-.633 1.412-1.412 1.412zm-10.794-2.823h9.382v-52.427h-9.382z" fill="#070b00"/><path fill="#89bf19" d="M157.749 191.966h12.205v55.251H157.75z"/><path d="M169.956 248.628H157.75c-.78 0-1.412-.632-1.412-1.412v-55.25c0-.78.633-1.412 1.412-1.412h12.206c.78 0 1.412.633 1.412 1.412v55.25c0 .78-.633 1.412-1.412 1.412zm-10.794-2.823h9.382v-52.427h-9.382z" fill="#070b00"/><path fill="#89bf19" d="M193.604 191.966h12.205v55.251h-12.205z"/><path d="M205.81 248.628h-12.207c-.78 0-1.412-.632-1.412-1.412v-55.25c0-.78.633-1.412 1.412-1.412h12.206c.78 0 1.412.633 1.412 1.412v55.25c0 .78-.633 1.412-1.412 1.412zm-10.795-2.823h9.382v-52.427h-9.382z" fill="#070b00"/></g></svg>