<svg xmlns="http://www.w3.org/2000/svg" viewBox="0 0 256 256" width="64" height="64"><path d="M24 2a5.008 5.008 0 0 0-4.9 4H16a5.006 5.006 0 0 0-5 5v4.54l-.35-.3a1 1 0 0 0-1.298 0l-7 6A1 1 0 0 0 3 23h3a1 1 0 0 0 0-2h-.3l4.3-3.684L14.3 21H14a1 1 0 0 0-1 1v13H7v-9a1 1 0 0 0-2 0v10a1 1 0 0 0 1 1h5v5h-1a3 3 0 0 0-3 3v10a3 3 0 0 0 3 3h1.1a5.008 5.008 0 0 0 4.9 4h17a1 1 0 0 0 0-2H16a3 3 0 0 1-2.816-2H17a1 1 0 0 0 0-2h-7a1 1 0 0 1-1-1V45a1 1 0 0 1 1-1h23.191a3.009 3.009 0 0 0-1.168 2 .992.992 0 0 0-.73.287L30 47.586l-1.293-1.293a1 1 0 0 0-1.414 1.414L29 49.414V53a1 1 0 0 0 2 0v-3.586l1.455-1.457c.256.426.616.782 1.045 1.033l1.5.867V55a1 1 0 0 1-1 1H21a1 1 0 0 0 0 2h13a3 3 0 0 0 3-3v-3.988l2.672 1.54a4 4 0 0 0 1.853 4.538l2.885 1.664A2.99 2.99 0 0 1 42 60h-5a1 1 0 0 0 0 2h5a4.993 4.993 0 0 0 4.156-2.271 7.619 7.619 0 0 0 6.145.26 5.629 5.629 0 0 1 4.89.37l2.61 1.506a1 1 0 0 0 1-1.73l-2.61-1.508a7.63 7.63 0 0 0-6.619-.5 5.631 5.631 0 0 1-4.89-.37l-4.157-2.4a1.947 1.947 0 0 1-.992-1.728l3.227 1.861a1 1 0 0 0 1-1.73L34.5 47.258a1 1 0 1 1 1-1.73l6.924 4a1 1 0 0 0 1-1.733 1 1 0 1 1 1-1.732 1 1 0 0 0 1-1.733 1 1 0 1 1 1-1.73 1 1 0 0 0 1-1.733 1 1 0 1 1 1-1.73l5.85 3.377a5.768 5.768 0 0 1 2.408 2.713l.199.468a7.786 7.786 0 0 0 3.248 3.66l.367.213a1 1 0 0 0 1-1.732h.004l-.367-.213a5.771 5.771 0 0 1-2.408-2.715l-.2-.467a7.783 7.783 0 0 0-3.248-3.662L49.43 37.4a2.987 2.987 0 0 0-2.43-.24V32h7a5.006 5.006 0 0 0 5-5V15a1 1 0 0 0-2 0v12a3 3 0 0 1-3 3H38.99a1 1 0 0 0-.76.35L34 35.293V31a1 1 0 0 0-1-1h-9a3 3 0 0 1-3-3V7a3 3 0 0 1 3-3h30a3 3 0 0 1 3 3v4a1 1 0 0 0 2 0V7a5.006 5.006 0 0 0-5-5zm26.97 4A1 1 0 0 0 50 7v1h-1a1 1 0 0 0-1 1v8a1 1 0 0 0 1 1h1v1a1 1 0 0 0 2 0v-1h1a1 1 0 0 0 1-1V9a1 1 0 0 0-1-1h-1V7a1 1 0 0 0-1.03-1zM16 8h3v19a5.006 5.006 0 0 0 5 5h8v6a1 1 0 0 0 1.76.65L39.45 32H45v7.389a2.97 2.97 0 0 0-.008 1.228 2.989 2.989 0 0 0-1.662 1.348 2.978 2.978 0 0 0-.338 2.115 3 3 0 0 0-2.015 2.3l-4.164-2.4A2.992 2.992 0 0 0 34 42H13v-5h1a1 1 0 0 0 1-1V23h2a1 1 0 0 0 .65-1.76L13 17.254V11a3 3 0 0 1 3-3zm18.97 1a1 1 0 0 0-.97 1v1h-1a1 1 0 0 0-1 1v8a1 1 0 0 0 1 1h1v1a1 1 0 0 0 2 0v-1h1a1 1 0 0 0 1-1v-8a1 1 0 0 0-1-1h-1v-1a1 1 0 0 0-1.03-1zM50 10h2v6h-2zm-7.03 1a1 1 0 0 0-.97 1v1h-1a1 1 0 0 0-1 1v8a1 1 0 0 0 1 1h1v1a1 1 0 0 0 2 0v-1h1a1 1 0 0 0 1-1v-8a1 1 0 0 0-1-1h-1v-1a1 1 0 0 0-1.03-1zM34 13h2v6h-2zm-7.03 1a1 1 0 0 0-.97 1v1h-1a1 1 0 0 0-1 1v8a1 1 0 0 0 1 1h1v1a1 1 0 0 0 2 0v-1h1a1 1 0 0 0 1-1v-8a1 1 0 0 0-1-1h-1v-1a1 1 0 0 0-1.03-1zM42 15h2v6h-2zm-16 3h2v6h-2zm-6 16a1 1 0 0 0 0 2h9a1 1 0 0 0 0-2zm-4 4a1 1 0 0 0 0 2h9a1 1 0 0 0 0-2zm-4 8a1 1 0 0 0-1 1v6a1 1 0 0 0 1 1h2.5a2.5 2.5 0 0 0 2.5-2.5 2.476 2.476 0 0 0-.514-1.5c.331-.43.512-.957.514-1.5a2.5 2.5 0 0 0-2.5-2.5zm8 0a1 1 0 0 0-1 1v4a3 3 0 0 0 6 0v-4a1 1 0 0 0-2 0v4a1 1 0 0 1-2 0v-4a1 1 0 0 0-1-1zm-7 2h1.5a.5.5 0 0 1 0 1H13zm0 3h1.5a.5.5 0 0 1 0 1H13z" transform="scale(4)" fill="#fff" stroke-miterlimit="10" font-family="none" font-weight="none" font-size="none" text-anchor="none" style="mix-blend-mode:normal"/></svg>