<svg xmlns="http://www.w3.org/2000/svg" viewBox="0 0 256 256" width="50" height="50"><path d="M25 3c-.912 0-2.663.19-4.102 1.426-.277.209-.972.81-2.394 2.04L17.887 7H11a1 1 0 0 0-1 1v5.963c-3.439 3.04-6.359 5.64-6.639 5.89L12 26.585V9h26v17.584l8.639-6.73c-.281-.25-3.2-2.851-6.639-5.891V8a1 1 0 0 0-1-1h-6.943c-1.213-1.089-2.547-2.265-2.907-2.533C27.662 3.19 25.912 3 25 3zm-1 7v1.111c-1.233.262-2.078.978-2.492 1.7-.518.903-.508 1.804-.508 1.804 0 1.243.696 2.24 1.525 2.813.83.572 1.774.872 2.641 1.18.867.307 1.655.62 2.135.986.48.366.699.668.699 1.406 0 0-.003.451-.332.945C27.338 22.44 26.75 23 25 23c-1.667 0-2.225-.686-2.605-1.447C22.014 20.79 22 20 22 20h-2s-.014 1.209.605 2.447c.525 1.05 1.647 2.145 3.395 2.457V26h2v-1.074c1.671-.232 2.768-1.025 3.332-1.871C30.002 22.049 30 21 30 21a3.76 3.76 0 0 0-1.488-2.998c-.833-.635-1.795-.966-2.678-1.28-.883-.312-1.689-.607-2.172-.94-.483-.334-.662-.553-.662-1.167 0 0 .01-.406.242-.81C23.474 13.4 23.791 13 25 13c1.167 0 1.475.436 1.73.947C26.986 14.46 27 15 27 15h2s.014-.959-.48-1.947c-.397-.794-1.252-1.627-2.52-1.928V10zM3 22.135v19.002c.08-.061.153-.12.234-.184 3.474-2.702 8.243-6.41 11.963-9.299zm44 0-12.26 9.568c3.648 2.88 8.41 6.633 12.26 9.664zm-22 5.687c-.251 0-1.567.05-2.908 1.032-.92.679-11.79 9.136-17.63 13.68-.551.428-1.032.804-1.462 1.136V46a1 1 0 0 0 1 1h42a1 1 0 0 0 1-1v-2.088a10278.615 10278.615 0 0 1-19.125-15.084A4.637 4.637 0 0 0 25 27.822z" transform="scale(5.12)" fill="#89bf19" stroke-miterlimit="10" font-family="none" font-weight="none" font-size="none" text-anchor="none" style="mix-blend-mode:normal"/></svg>