<svg xmlns="http://www.w3.org/2000/svg" viewBox="0 0 256 256" width="270" height="270"><g fill="none" stroke-miterlimit="10" font-family="none" font-weight="none" font-size="none" text-anchor="none" style="mix-blend-mode:normal"><path d="M195.612 25.957V230a14.893 14.893 0 0 1-7.964 13.217 14.776 14.776 0 0 1-6.96 1.726H75.348c-2.995 0-5.802-.872-8.134-2.427a14.865 14.865 0 0 1-6.808-12.516V25.957c0-8.249 6.713-14.943 14.943-14.943h105.34c2.995 0 5.783.892 8.153 2.447a14.888 14.888 0 0 1 6.77 12.496z" fill="#89bf19"/><path d="M79.73 221.068v3.413h.056c4.475 0 8.135 3.66 8.135 8.154v9.88a8.44 8.44 0 0 1-.36 2.427H75.349c-2.996 0-5.803-.872-8.135-2.427a14.865 14.865 0 0 1-6.808-12.516v-35.1h19.38c4.475 0 8.135 3.66 8.135 8.154v9.88c0 4.494-3.66 8.135-8.135 8.135zM195.612 189.646v40.353a14.893 14.893 0 0 1-7.964 13.217 14.776 14.776 0 0 1-6.96 1.726H147.39a10.112 10.112 0 0 1-1.1-4.589v-40.391c0-5.69 4.627-10.316 10.297-10.316z" fill="#000" opacity=".05"/><path d="m174.332 11.04-68.93 233.918H75.334c-3.009 0-5.813-.89-8.149-2.428l68.213-231.49zM188.818 13.467l-68.213 231.49h-10.634L178.902 11.04h1.756c3.008 0 5.812.89 8.16 2.428z" fill="#fff"/><path d="M188.823 25.957V230c0 4.494-3.66 8.154-8.135 8.154H75.348c-4.475 0-8.134-3.66-8.134-8.154V25.957c0-4.475 3.66-8.154 8.135-8.154H94.16c0 4.001 3.262 7.263 7.244 7.263h59.032c4.02 0 7.244-3.262 7.244-7.263h13.008c4.476 0 8.135 3.679 8.135 8.154z" fill="#fff"/><path d="M79.73 221.068v3.413h.056c4.475 0 8.135 3.66 8.135 8.154v5.518H75.35c-4.476 0-8.135-3.66-8.135-8.154v-35.1h12.572c4.475 0 8.135 3.66 8.135 8.154v9.88c0 4.494-3.66 8.135-8.135 8.135h-.057zM188.823 189.646v40.353c0 4.494-3.66 8.154-8.135 8.154H146.29v-38.191c0-5.69 4.627-10.316 10.297-10.316h32.237z" fill="#000" opacity=".05"/><path d="M188.823 224.746V230c0 4.494-3.66 8.154-8.135 8.154H75.348c-4.475 0-8.134-3.66-8.134-8.154v-5.253c0 4.495 3.66 8.155 8.135 8.155h105.34c4.475 0 8.134-3.66 8.134-8.155zM188.823 25.957v4.912c0-4.476-3.66-8.154-8.135-8.154H167.68c0 4-3.224 7.262-7.244 7.262h-59.032c-3.982 0-7.244-3.261-7.244-7.262H75.35c-4.476 0-8.135 3.678-8.135 8.154v-4.912c0-4.475 3.66-8.154 8.135-8.154H94.16c0 4.001 3.262 7.263 7.244 7.263h59.032c4.02 0 7.244-3.262 7.244-7.263h13.008c4.475 0 8.135 3.679 8.135 8.154z" fill="#d4f4ff"/><path d="M74.045 217.839v9.88a2.454 2.454 0 0 1-2.454 2.454h-58.89a2.454 2.454 0 0 1-2.454-2.454v-9.88a2.454 2.454 0 0 1 2.454-2.454h58.89a2.454 2.454 0 0 1 2.454 2.454z" fill="#fff"/><path d="M74.053 220.849v-3.01a2.461 2.461 0 0 0-2.454-2.454H12.71a2.45 2.45 0 0 0-2.454 2.454v3.01a2.46 2.46 0 0 1 2.454-2.454H71.6a2.472 2.472 0 0 1 2.454 2.454z" fill="#fff" opacity=".3"/><path d="M74.053 224.71v3.01a2.461 2.461 0 0 1-2.454 2.453H12.71a2.45 2.45 0 0 1-2.454-2.454v-3.01a2.46 2.46 0 0 0 2.454 2.454H71.6a2.472 2.472 0 0 0 2.454-2.454z" fill="#000" opacity=".05"/><path d="M18.435 232.627v9.88a2.454 2.454 0 0 0 2.453 2.454h58.89a2.454 2.454 0 0 0 2.454-2.454v-9.88a2.454 2.454 0 0 0-2.454-2.454h-58.89a2.454 2.454 0 0 0-2.453 2.454z" fill="#fff"/><path d="M18.426 235.637v-3.01a2.461 2.461 0 0 1 2.454-2.454h58.89a2.45 2.45 0 0 1 2.454 2.454v3.01a2.46 2.46 0 0 0-2.454-2.454H20.88a2.472 2.472 0 0 0-2.454 2.454z" fill="#fff" opacity=".3"/><path d="M18.426 239.497v3.01a2.461 2.461 0 0 0 2.454 2.454h58.89a2.45 2.45 0 0 0 2.454-2.454v-3.01a2.46 2.46 0 0 1-2.454 2.454H20.88a2.472 2.472 0 0 1-2.454-2.454z" fill="#000" opacity=".05"/><path d="M18.435 203.051v9.88a2.454 2.454 0 0 0 2.453 2.454h58.89a2.454 2.454 0 0 0 2.454-2.454v-9.88a2.454 2.454 0 0 0-2.454-2.454h-58.89a2.454 2.454 0 0 0-2.453 2.454z" fill="#fff"/><path d="M18.426 206.061v-3.01a2.461 2.461 0 0 1 2.454-2.454h58.89a2.45 2.45 0 0 1 2.454 2.454v3.01a2.46 2.46 0 0 0-2.454-2.454H20.88a2.472 2.472 0 0 0-2.454 2.454z" fill="#fff" opacity=".3"/><path d="M18.426 209.921v3.01a2.461 2.461 0 0 0 2.454 2.454h58.89a2.45 2.45 0 0 0 2.454-2.454v-3.01a2.46 2.46 0 0 1-2.454 2.454H20.88a2.472 2.472 0 0 1-2.454-2.454z" fill="#000" opacity=".05"/><g transform="scale(1.8963)"><path d="M125.906 105.445v21.303a2.43 2.43 0 0 1-2.43 2.43H82.577a2.43 2.43 0 0 1-2.43-2.43v-21.303a2.432 2.432 0 0 1 2.43-2.44h40.899a2.432 2.432 0 0 1 2.43 2.44z" fill="#89bf19"/><path d="M80.271 127.48a2.422 2.422 0 0 0 2.306 1.698h40.899a2.422 2.422 0 0 0 2.305-1.698z" fill="#000" opacity=".05"/><path d="M125.753 104.59a2.344 2.344 0 0 0-.844-.152H84.011a2.432 2.432 0 0 0-2.43 2.44v21.304c0 .295.05.58.152.844a2.43 2.43 0 0 1-1.586-2.278v-21.303a2.432 2.432 0 0 1 2.43-2.44h40.899a2.43 2.43 0 0 1 2.277 1.585z" fill="#fff" opacity=".3"/><path d="M122.855 109.105v13.972a3.05 3.05 0 0 0-3.05 3.05H86.248a3.05 3.05 0 0 0-3.05-3.05v-13.972a3.05 3.05 0 0 0 3.05-3.05h33.557a3.05 3.05 0 0 0 3.05 3.05z" fill="#fff"/><path d="M121.106 108.556H88.617a3.047 3.047 0 0 1-3.05 3.05v12.59a3.075 3.075 0 0 0-2.37-1.119v-13.972a3.047 3.047 0 0 0 3.051-3.05h33.557c0 1.037.518 1.952 1.301 2.501zM122.855 109.105v1.363a2.934 2.934 0 0 1-.64-1.424c.213.041.427.061.64.061zM122.215 109.044a3.03 3.03 0 0 1-1.109-.488h1.068c0 .163.01.326.04.488z" fill="#d4f4ff"/><circle cx="-89.314" cy="126.943" transform="rotate(-76.717)" r="6.724" fill="#89bf19"/></g><path d="M93.916 79.665v28.197c0 .765-.62 1.385-1.385 1.385h-8.88c-.764 0-1.384-.62-1.384-1.385V79.665c0-.765.62-1.385 1.385-1.385h8.879c.765 0 1.385.62 1.385 1.385z" fill="#ff4b3a"/><path d="M87.887 109.247H83.65c-.775 0-1.385-.61-1.385-1.385v-28.2c0-.775.61-1.384 1.385-1.384h4.238c-.748 0-1.385.609-1.385 1.385v28.2a1.39 1.39 0 0 0 1.385 1.384z" fill="#fc6868"/><path d="M120.53 65.815v42.047c0 .765-.62 1.385-1.386 1.385h-8.878c-.765 0-1.385-.62-1.385-1.385V65.815c0-.765.62-1.385 1.385-1.385h8.878c.765 0 1.386.62 1.386 1.385z" fill="#89bf19"/><path d="M114.495 109.247h-4.238a1.39 1.39 0 0 1-1.385-1.385v-42.05a1.39 1.39 0 0 1 1.385-1.385h4.238c-.748 0-1.385.61-1.385 1.385v42.05a1.39 1.39 0 0 0 1.385 1.385z" fill="#fff" opacity=".5"/><path d="M147.142 79.663v28.2c0 .775-.61 1.384-1.386 1.384h-8.864c-.387 0-.72-.138-.97-.388a1.588 1.588 0 0 1-.304-.443 1.243 1.243 0 0 1-.11-.554v-28.2c0-.775.609-1.384 1.384-1.384h8.864c.776 0 1.386.609 1.386 1.385z" fill="#fff"/><path d="M141.13 109.247h-4.238c-.387 0-.72-.138-.97-.388a1.588 1.588 0 0 1-.304-.443 1.243 1.243 0 0 1-.11-.554v-28.2c0-.775.609-1.384 1.384-1.384h2.853v29.584a1.39 1.39 0 0 0 1.385 1.385z" fill="#ffff9a"/><path d="M173.757 65.815v42.047c0 .765-.62 1.385-1.385 1.385h-8.879c-.765 0-1.385-.62-1.385-1.385V65.815c0-.765.62-1.385 1.385-1.385h8.88c.764 0 1.384.62 1.384 1.385z" fill="#52eef8"/><path d="M167.732 109.247h-4.239a1.39 1.39 0 0 1-1.385-1.385v-42.05a1.39 1.39 0 0 1 1.385-1.385h4.239c-.748 0-1.385.61-1.385 1.385v42.05a1.39 1.39 0 0 0 1.385 1.385z" fill="#fff" opacity=".5"/><g fill="#384b7d"><path d="M249.364 244.013h-11.07c.866-.98 1.409-2.253 1.409-3.661v-40.397c0-3.075-2.493-5.576-5.556-5.576h-37.592V25.98c0-8.762-7.128-15.89-15.891-15.89H75.344c-8.763 0-15.892 7.128-15.892 15.89v173.67H20.888a3.406 3.406 0 0 0-3.401 3.4v9.882c0 .543.14 1.05.367 1.505H12.7A3.406 3.406 0 0 0 9.3 217.84v9.88a3.406 3.406 0 0 0 3.401 3.402h5.153a3.36 3.36 0 0 0-.367 1.506v9.88c0 .544.14 1.05.367 1.506H6.637a.948.948 0 1 0 0 1.896c47.27.001 189.304.004 242.727 0a.948.948 0 1 0 0-1.896zM61.349 25.98c0-7.716 6.278-13.994 13.994-13.994h105.32c7.717 0 13.995 6.278 13.995 13.994V194.38h-4.892V25.98c0-5.02-4.084-9.103-9.102-9.103h-12.99a.948.948 0 0 0-.947.949 6.303 6.303 0 0 1-6.297 6.296h-59.05a6.303 6.303 0 0 1-6.296-6.296.948.948 0 0 0-.948-.949H75.343c-5.018 0-9.102 4.084-9.102 9.103v173.67H61.35zm13.386 215.023a.948.948 0 0 0-.948.948v2.062h-6.238v-12.892h6.238v5.04a.948.948 0 1 0 1.896 0v-5.04h4.095c.831 0 1.506.675 1.506 1.506v5.503c0 .01-.006.018-.006.027 0 .01.006.018.006.028v4.323c0 .83-.675 1.505-1.506 1.505h-4.095v-2.062a.948.948 0 0 0-.948-.948zm-16.268.245a.948.948 0 0 0-.948.948v1.817h-6.238v-12.892h6.238v7.804a.948.948 0 1 0 1.896 0v-7.804h6.237v12.892h-6.237v-1.817a.948.948 0 0 0-.948-.948zm-31.64-12.023v-12.892h6.237v5.04a.948.948 0 1 0 1.897 0v-5.04h6.237v12.892H34.96v-1.817a.948.948 0 1 0-1.897 0v1.817zm31.64-18.928a.948.948 0 0 0 .948-.948v-7.804h14.372v5.04a.948.948 0 1 0 1.896 0v-5.04h4.095c.831 0 1.506.675 1.506 1.506v9.88c0 .831-.675 1.506-1.506 1.506h-4.095v-3.753a.948.948 0 1 0-1.896 0v3.753H59.415v-1.817a.948.948 0 1 0-1.896 0v1.817h-6.238v-12.892h6.238v7.804c0 .524.424.948.948.948zm14.63 7.542v9.88c0 .831-.675 1.506-1.506 1.506h-4.096v-6.217a.948.948 0 1 0-1.896 0v6.217h-6.237v-12.892h12.23c.83 0 1.505.675 1.505 1.506zm-30.003 11.386v-12.892h6.237v12.892zm8.133 0v-12.892h6.238v12.892zm-1.842-14.788h-6.237v-12.892h6.237zm-8.134 0h-6.237v-12.892h6.237zm-6.237 16.684h6.237v12.892h-6.237zm8.134 0h6.237v12.892h-6.237zm39.665 12.892a3.36 3.36 0 0 0 .367-1.506v-3.401h67.854v1.246c0 1.408.543 2.68 1.41 3.661zm68.221-44.058v37.254H83.18v-4.582a3.406 3.406 0 0 0-3.402-3.402h-5.152a3.36 3.36 0 0 0 .367-1.506v-9.88c0-.543-.14-1.05-.367-1.506h5.152a3.406 3.406 0 0 0 3.402-3.402v-9.88a3.406 3.406 0 0 0-3.402-3.402h-11.64V25.98c0-3.974 3.232-7.206 7.205-7.206h17.9c.47 4.072 3.94 7.244 8.136 7.244h59.051c4.197 0 7.667-3.172 8.14-7.244h12.094c3.974 0 7.205 3.232 7.205 7.206V194.38h-31.278c-3.064 0-5.557 2.5-5.557 5.576zM19.383 212.932v-9.881c0-.83.675-1.506 1.505-1.506h4.096v2.586a.948.948 0 1 0 1.896 0v-2.586h6.238v12.892H26.88v-6.217a.948.948 0 1 0-1.896 0v6.217h-4.096c-.83 0-1.505-.675-1.505-1.506zm-8.187 14.787v-9.88c0-.83.675-1.506 1.505-1.506h4.096v5.04a.948.948 0 1 0 1.896 0v-5.04h6.237v12.892h-6.237v-3.255a.948.948 0 1 0-1.896 0v3.255H12.7c-.83 0-1.505-.675-1.505-1.506zm8.187 14.788v-9.88c0-.83.675-1.506 1.505-1.506h4.096v2.586a.948.948 0 1 0 1.896 0v-2.586h6.238v12.892H26.88v-6.217a.948.948 0 1 0-1.896 0v6.217h-4.096c-.83 0-1.505-.675-1.505-1.506zm137.209 1.506a3.666 3.666 0 0 1-3.662-3.661v-40.397c0-2.03 1.643-3.68 3.662-3.68h77.555c2.019 0 3.66 1.65 3.66 3.68v40.397a3.664 3.664 0 0 1-3.66 3.661z"/><path d="M117.158 18.778h21.683a.948.948 0 1 0 0-1.896h-21.683a.948.948 0 1 0 0 1.896zM143.525 18.778h1.826a.948.948 0 1 0 0-1.896h-1.826a.948.948 0 1 0 0 1.896zM232.971 205.948a4.842 4.842 0 0 1-4.837-4.836.948.948 0 0 0-.948-.948h-63.633a.948.948 0 0 0-.949.948 4.842 4.842 0 0 1-4.837 4.836.948.948 0 0 0-.948.948v26.495c0 .524.424.948.948.948a4.843 4.843 0 0 1 4.837 4.837c0 .524.425.948.949.948h63.633a.948.948 0 0 0 .948-.948 4.843 4.843 0 0 1 4.837-4.837.948.948 0 0 0 .948-.948v-26.495a.948.948 0 0 0-.948-.948zm-.948 26.561a6.749 6.749 0 0 0-5.718 5.719h-61.87a6.749 6.749 0 0 0-5.72-5.719v-24.731a6.748 6.748 0 0 0 5.72-5.718h61.87a6.748 6.748 0 0 0 5.718 5.718z"/><path d="M221.642 219.195h-6.428a.948.948 0 1 0 0 1.897h6.428a.948.948 0 1 0 0-1.897zM175.523 219.195h-6.428a.948.948 0 1 0 0 1.897h6.428a.948.948 0 1 0 0-1.897zM197.24 219.195h-.922v-4.678h3.235a.948.948 0 1 0 0-1.897h-3.235v-.913a.948.948 0 1 0-1.897 0v.913h-.922a4.235 4.235 0 0 0-4.226 4.246 4.23 4.23 0 0 0 4.226 4.226h.922v4.68h-3.237a.948.948 0 1 0 0 1.896h3.237v.912a.948.948 0 1 0 1.897 0v-.912h.922c2.33 0 4.226-1.897 4.226-4.246a4.232 4.232 0 0 0-4.226-4.227zm-3.741 0a2.336 2.336 0 0 1-2.33-2.349 2.332 2.332 0 0 1 2.33-2.33h.922v4.68h-.922zm3.74 6.576h-.921v-4.68h.922a2.336 2.336 0 0 1 2.33 2.35 2.332 2.332 0 0 1-2.33 2.33zM83.652 110.195h8.878a2.335 2.335 0 0 0 2.334-2.333V79.665a2.335 2.335 0 0 0-2.334-2.333h-8.878a2.335 2.335 0 0 0-2.334 2.333v28.197a2.335 2.335 0 0 0 2.334 2.333zm-.437-30.53c0-.24.196-.437.437-.437h8.878c.241 0 .437.197.437.437v28.197c0 .24-.196.437-.437.437h-8.878a.438.438 0 0 1-.437-.437zM110.266 63.481a2.335 2.335 0 0 0-2.334 2.334v42.047a2.335 2.335 0 0 0 2.334 2.333h8.878a2.335 2.335 0 0 0 2.334-2.333V65.815a2.335 2.335 0 0 0-2.334-2.334h-8.878zm9.315 2.334v42.047c0 .24-.196.437-.437.437h-8.879a.438.438 0 0 1-.437-.437V65.815c0-.241.197-.437.437-.437h8.88c.24 0 .436.196.436.437zM136.878 77.332a2.335 2.335 0 0 0-2.331 2.333v28.197a2.335 2.335 0 0 0 2.331 2.333h8.88a2.335 2.335 0 0 0 2.333-2.333V79.665a2.335 2.335 0 0 0-2.333-2.333zm9.317 2.333v28.197c0 .24-.196.437-.437.437h-8.88a.436.436 0 0 1-.435-.437V79.665c0-.24.195-.437.435-.437h8.88c.24 0 .437.197.437.437zM161.16 65.815v42.047a2.335 2.335 0 0 0 2.333 2.333h8.88a2.335 2.335 0 0 0 2.332-2.333V65.815a2.335 2.335 0 0 0-2.332-2.334h-8.88a2.335 2.335 0 0 0-2.333 2.334zm11.648 0v42.047c0 .24-.194.437-.435.437h-8.88a.438.438 0 0 1-.437-.437V65.815c0-.241.197-.437.437-.437h8.88c.24 0 .435.196.435.437z"/><path d="M87.889 68.283c.173 0 .349-.047.505-.147l26.103-16.51 26.319 16.512a.95.95 0 0 0 1.037-.019l24.88-16.927-.638 5.123a.948.948 0 0 0 1.882.236l.896-7.199c.056-.444-.253-.974-.808-1.053-.005 0-.01-.004-.014-.005l-7.196-.904a.955.955 0 0 0-1.06.822.95.95 0 0 0 .822 1.059l4.7.59L141.3 66.202l-26.3-16.5a.948.948 0 0 0-1.01.002L87.38 66.534a.947.947 0 0 0 .508 1.75zM82.265 124.381h91.491a.948.948 0 1 0 0-1.896H82.265a.948.948 0 1 0 0 1.896zM173.756 147.137h-30.655a.948.948 0 1 0 0 1.896h30.655a.948.948 0 1 0 0-1.896zM82.265 149.033h51.354a.948.948 0 1 0 0-1.896H82.265a.948.948 0 1 0 0 1.896zM173.756 159.463h-41.481a.948.948 0 1 0 0 1.896h41.481a.948.948 0 1 0 0-1.896zM82.265 161.36h40.53a.948.948 0 1 0 0-1.897h-40.53a.948.948 0 1 0 0 1.896zM174.705 172.737a.948.948 0 0 0-.949-.948H82.265a.948.948 0 1 0 0 1.896h91.491a.948.948 0 0 0 .949-.948zM135 184.115H82.266a.948.948 0 1 0 0 1.896H135a.948.948 0 1 0 0-1.896zM82.265 136.707h92.067a.948.948 0 1 0 0-1.896H82.265a.948.948 0 1 0 0 1.896z"/></g></g></svg>