<svg xmlns="http://www.w3.org/2000/svg" viewBox="0 0 256 256" width="200" height="200"><g fill="none" stroke-linecap="none" stroke-linejoin="none" stroke-miterlimit="10" font-family="none" font-weight="none" font-size="none" text-anchor="none" style="mix-blend-mode:normal"><path d="M79.36 209.92c-16.94 0-30.72-13.78-30.72-30.72V79.36c0-16.94 13.78-30.72 30.72-30.72h99.84c16.94 0 30.72 13.78 30.72 30.72v99.84c0 16.94-13.78 30.72-30.72 30.72z" fill="#fff"/><path d="m211.2 103.68-12.8 10.24-10.24 20.754-10.24-18.194-10.24 7.68-8.026-18.058-2.214.432-1.83-.3-8.251 23.046-7.767 2.726L129.28 147.2l-10.24-5.12-10.24-25.6-10.24 20.308-10.24-4.948-10.24 12.8-7.68 2.89-10.24-5.45-10.24-2.56-1.065 41.277 5.437 16.955 12.798 9.608 10.632 2.56 106.268-.259 12.426-4.142 10.944-13.332 2.647-15.404z" fill="#89bf19"/><path d="m159.58 106.048 8.1 18.222 10.24-7.68 10.24 18.194 10.24-20.754 12.8-10.24M49.92 139.52l10.24 2.56 10.24 5.45 7.68-2.89 10.24-12.8 10.24 4.948 10.24-20.308 10.24 25.6 10.24 5.12 10.312-15.194 7.767-2.726 8.25-23.045" stroke="#1f212b" stroke-linecap="round" stroke-linejoin="round" stroke-width="2.56"/><path d="M179.2 212.48H79.36c-18.38 0-33.28-14.9-33.28-33.28V79.36c0-18.38 14.9-33.28 33.28-33.28h99.84c18.38 0 33.28 14.9 33.28 33.28v99.84c0 18.38-14.902 33.28-33.28 33.28zM51.2 79.36v99.84c0 15.552 12.608 28.16 28.16 28.16h99.84c15.552 0 28.16-12.608 28.16-28.16V79.36c0-15.552-12.608-28.16-28.16-28.16H79.36c-15.555 0-28.16 12.608-28.16 28.16z" fill="#1f212b"/><path d="M70.4 106.24v102.4M70.4 83.2v10.24M70.4 49.92v25.6M98.56 188.16v21.76M98.56 51.2v126.72M129.28 177.92v10.24M129.28 85.76v84.48M129.28 72.96v5.12" stroke="#1f212b" stroke-linecap="round" stroke-linejoin="round" stroke-width="2.56"/><path d="M157.44 208.64a2.563 2.563 0 0 1-2.56-2.56V51.84c0-1.41 1.147-2.56 2.56-2.56s2.56 1.15 2.56 2.56v154.24a2.56 2.56 0 0 1-2.56 2.56z" fill="#39c2d8"/><path d="M158.72 51.2v156.16h-2.56V51.2m1.28-3.2c-2.117 0-3.84-.837-3.84 1.28V208a3.845 3.845 0 0 0 3.84 3.84 3.845 3.845 0 0 0 3.84-3.84V49.28c0-2.117-1.723-1.28-3.84-1.28z" fill="#1f212b"/><path d="M165.12 98.56c0 3.5-2.34 6.451-5.54 7.378a7.68 7.68 0 0 1-9.82-7.378 7.68 7.68 0 0 1 7.68-7.68 7.68 7.68 0 0 1 7.68 7.68z" fill="#39c2d8"/><path d="M188.16 101.12v108.8M188.16 83.2v7.68M188.16 51.2v24.32M165.12 98.56c0 3.5-2.34 6.451-5.54 7.378a7.68 7.68 0 0 1-9.82-7.378 7.68 7.68 0 0 1 7.68-7.68 7.68 7.68 0 0 1 7.68 7.68zM129.28 198.4v11.52M129.28 51.2v11.52" stroke="#1f212b" stroke-linecap="round" stroke-linejoin="round" stroke-width="2.56"/></g></svg>