<svg xmlns="http://www.w3.org/2000/svg" viewBox="0 0 256 256" width="212" height="212"><g fill="none" stroke-miterlimit="10" font-family="none" font-weight="none" font-size="none" text-anchor="none" style="mix-blend-mode:normal"><path d="M68.766 66.376c-5.04-2.926-12.052-2.534-19.765 1.922-15.295 8.822-27.697 30.18-27.653 47.738 0 8.735 3.111 14.85 8.108 17.732L17.14 126.65c-4.997-2.882-8.108-9.041-8.108-17.776-.044-17.514 12.315-38.916 27.653-47.738 7.713-4.411 14.725-4.848 19.765-1.922z" fill="#89bf19"/><path d="M76.841 84.102c.075 17.562-12.342 38.94-27.659 47.758-7.733 4.447-14.722 4.817-19.778 1.89l-12.268-7.114c-4.982-2.853-8.104-9.04-8.104-17.747-.037-17.525 12.304-38.94 27.659-47.758 7.696-4.41 14.721-4.854 19.778-1.927l12.045 7.04c5.13 2.816 8.327 9.003 8.327 17.858z" fill="#89bf19"/><path d="M36.756 137.155c-2.945 0-5.684-.699-8.106-2.103l-12.269-7.114c-5.625-3.22-8.856-10.166-8.856-19.048-.037-18.033 12.71-40.044 28.415-49.063 7.978-4.577 15.53-5.264 21.283-1.926l12.052 7.04c5.838 3.206 9.073 10.019 9.073 19.162.07 17.989-12.673 40-28.415 49.063-4.61 2.65-9.096 3.989-13.177 3.989zm12.416-78.32c-3.56 0-7.556 1.21-11.732 3.603-14.871 8.54-26.938 29.375-26.9 46.448 0 7.78 2.676 13.769 7.345 16.445l12.272 7.118c4.816 2.78 11.301 2.114 18.276-1.894 14.904-8.584 26.974-29.419 26.9-46.445v-.007c0-7.993-2.68-13.868-7.544-16.54l-12.08-7.06c-1.927-1.117-4.133-1.668-6.537-1.668z" fill="#000"/><path d="M49.01 68.286c15.323-8.816 27.8-1.749 27.85 15.798.05 17.565-12.346 38.945-27.668 47.761-15.322 8.817-27.8 1.749-27.85-15.816-.05-17.547 12.347-38.927 27.669-47.743z" fill="#fff"/><path d="M36.734 137.158c-2.915 0-5.625-.684-8.022-2.07-5.698-3.283-8.85-10.051-8.875-19.055-.051-17.996 12.699-40.003 28.423-49.051 7.934-4.57 15.478-5.258 21.239-1.941 5.691 3.283 8.842 10.044 8.868 19.04.051 18.011-12.7 40.022-28.427 49.07-4.629 2.665-9.121 4.007-13.206 4.007zM49.76 69.592c-14.886 8.566-26.96 29.397-26.908 46.434.018 7.886 2.636 13.728 7.364 16.456 4.78 2.75 11.25 2.07 18.224-1.941 14.89-8.567 26.963-29.405 26.912-46.453-.019-7.875-2.633-13.713-7.357-16.437-4.798-2.758-11.268-2.07-18.235 1.941z" fill="#000"/><path d="M246.589 219.824c-1.58 4.619-8.612 5.702-11.832 2.33 2.676 4.077 1.59 10.116-1.968 13.56-3.927 3.729-9.935 4.679-15.225 3.555-5.29-1.073-9.986-3.914-14.446-6.938l-.062-.061c2.492 7.653-3.752 16.778-11.78 17.248-3.63.245-7.197-1.063-10.642-2.371a14634.358 14634.358 0 0 1-55.149-20.67c-.01 0-.03 0-.04-.011a6.544 6.544 0 0 1-.452.572c-2.122 2.38-5.7 2.718-9.125 2.268-.83-.06-1.61-.173-2.378-.357a105.158 105.158 0 0 1-7.382-1.83 56.422 56.422 0 0 1-4.511-1.43c-.185 0-.298-.05-.482-.112a117.316 117.316 0 0 1-4.932-1.9c-.42-.174-.779-.297-1.19-.532a77.947 77.947 0 0 1-5.054-2.31c-18.977-9.185-35.156-24.42-45.029-43.088-2.132-4.098-4.1-8.481-4.573-13.049-.779-7.285 2.02-14.877-.123-21.866-.594-1.84-1.425-3.495-2.378-5.099-1.846-3.086-4.163-5.865-6.07-8.828-.892-1.37-1.722-2.79-2.317-4.332-.359-.828-.595-1.717-.769-2.667-.061-.47-.123-.95-.123-1.482.533-16.001 11.78-34.853 25.519-42.854 3.742-2.074 7.371-3.26 10.519-3.32h.185c.533 0 1.066.06 1.599.122.062 0 .184 0 .246.061 4.634.347 9.094 2.125 13.441 3.852 13.38 5.334 26.821 10.73 38.95 18.495 20.228 12.977 35.802 32.176 55.733 45.694 16.589 11.322 35.976 18.556 50.965 31.83 3.927 3.494 7.792 8 7.608 13.272-.175 4.271-4.757 8.185-8.561 7.53 6.48 3.2 12.375 7.532 17.306 12.743 3.035 3.26 5.947 7.704 4.522 11.975z" fill="#fff"/><path d="M246.59 219.812c-1.563 4.632-8.626 5.706-11.823 2.335 2.676 4.075 1.561 10.114-1.971 13.56-3.94 3.742-9.926 4.668-15.241 3.557-5.279-1.075-9.964-3.89-14.424-6.928l-.076-.075c2.492 7.67-3.754 16.785-11.785 17.266-3.605.222-7.174-1.074-10.632-2.371-18.44-6.892-36.804-13.746-55.17-20.675h-.037l-.447.556c-2.118 2.371-5.687 2.705-9.107 2.26a11.914 11.914 0 0 1-2.38-.333 119.695 119.695 0 0 1-7.397-1.853 63.014 63.014 0 0 1-4.498-1.408c-.187 0-.298-.074-.485-.11a97.927 97.927 0 0 1-4.944-1.928 8.255 8.255 0 0 1-1.19-.518 88.409 88.409 0 0 1-5.055-2.297c-18.96-9.189-35.132-24.417-45.02-43.09-2.12-4.113-4.09-8.485-4.572-13.079-.781-7.262 2.007-14.857-.113-21.86-.595-1.816-1.449-3.483-2.378-5.076-1.859-3.113-4.164-5.891-6.061-8.855-.891-1.371-1.746-2.779-2.342-4.335a11.75 11.75 0 0 1-.744-2.668c-.074-.444-.147-.926-.147-1.444.557-16.007 11.785-34.866 25.539-42.868a26.73 26.73 0 0 1 3.458-1.667c-22.12 43.682.519 101.963 52.344 132.308 44.76 26.231 97.178 23.305 128.37-4.04a44.34 44.34 0 0 1 3.792 3.669c3.05 3.26 5.948 7.707 4.536 11.967z" fill="#e9edf4"/><path d="M190.396 251.055c-3.72 0-7.342-1.378-10.294-2.5-18.1-6.746-36.136-13.5-54.18-20.305-2.173 2.269-5.699 3.14-10.254 2.548-.82-.055-1.676-.18-2.53-.386a108.193 108.193 0 0 1-7.444-1.842 56.522 56.522 0 0 1-4.42-1.397c-.253-.033-.444-.103-.584-.15a116.76 116.76 0 0 1-5.077-1.953c-.629-.25-.982-.397-1.371-.621-1.589-.64-3.28-1.423-4.975-2.265-19.548-9.463-35.78-24.996-45.687-43.735-2.063-3.956-4.232-8.658-4.74-13.596-.345-3.213-.025-6.46.28-9.595.416-4.232.809-8.225-.345-11.986-.486-1.503-1.199-3.025-2.232-4.772-.996-1.662-2.173-3.287-3.309-4.856-.941-1.302-1.879-2.596-2.735-3.927-.772-1.18-1.754-2.78-2.452-4.603-.353-.801-.629-1.754-.85-2.934-.084-.654-.147-1.176-.147-1.757.552-16.526 12.089-35.897 26.269-44.155 4.059-2.25 7.937-3.463 11.246-3.525h.007c.802 0 1.39.062 1.982.132.088.011.195.033.305.066 4.802.383 9.327 2.184 13.71 3.927 13.22 5.264 26.834 10.687 39.26 18.643 10.63 6.82 20.1 15.445 29.258 23.783 8.375 7.625 17.033 15.508 26.508 21.934 6.57 4.482 13.72 8.397 20.64 12.18 10.496 5.743 21.352 11.684 30.48 19.765 3.59 3.199 8.332 8.17 8.111 14.456-.103 2.548-1.503 5.143-3.739 6.952-.599.482-1.228.886-1.871 1.206a61.975 61.975 0 0 1 13.945 11.026c4.573 4.912 6.206 9.445 4.856 13.489-.003.003-.003.007-.003.007-.868 2.537-3.144 4.434-6.092 5.085a9.774 9.774 0 0 1-4.331-.015c.687 3.967-.654 8.42-3.754 11.415-3.97 3.769-10.334 5.272-16.584 3.949-4.405-.893-8.423-2.963-12.147-5.305.08 3.055-.868 6.239-2.747 8.992-2.647 3.88-6.757 6.342-10.996 6.592-.324.022-.643.033-.967.033zm-64.647-26.062c.092.015.18.04.268.073 18.36 6.93 36.72 13.802 55.144 20.67 3.099 1.176 6.58 2.514 10.014 2.279 3.324-.195 6.57-2.17 8.695-5.283 2.125-3.11 2.78-6.846 1.754-9.996a1.506 1.506 0 0 1 2.53-1.5c4.055 2.728 8.676 5.536 13.709 6.558 5.32 1.13 10.636-.084 13.89-3.172 3.158-3.06 3.948-8.287 1.746-11.64a1.505 1.505 0 0 1 2.346-1.868c1.213 1.272 3.345 1.794 5.43 1.339 1.908-.42 3.36-1.585 3.886-3.11 1.21-3.63-1.614-7.696-4.195-10.468-4.816-5.092-10.496-9.272-16.871-12.419a1.508 1.508 0 0 1-.769-1.816 1.51 1.51 0 0 1 1.688-1.018c1.298.22 2.834-.302 4.18-1.386 1.573-1.269 2.555-3.037 2.625-4.721.132-3.809-2.125-7.654-7.103-12.088-8.871-7.857-19.577-13.714-29.927-19.375-6.981-3.82-14.202-7.769-20.89-12.335-9.646-6.544-18.385-14.5-26.838-22.198-9.066-8.254-18.44-16.79-28.856-23.471-12.184-7.801-25.662-13.17-38.699-18.36-4.257-1.695-8.606-3.427-12.992-3.754a1.368 1.368 0 0 1-.405-.085c-.518-.051-.926-.091-1.33-.091-2.975.051-6.372 1.132-9.975 3.128-13.342 7.772-24.224 26.044-24.743 41.589.004.393.055.794.107 1.187.169.92.382 1.662.665 2.309.622 1.621 1.497 3.044 2.195 4.11.831 1.294 1.736 2.54 2.644 3.794 1.176 1.625 2.393 3.302 3.456 5.085 1.158 1.948 1.955 3.665 2.522 5.408 1.334 4.357.897 8.846.47 13.184-.294 2.985-.595 6.073-.287 8.985.46 4.441 2.49 8.816 4.412 12.515 9.607 18.165 25.36 33.235 44.35 42.426a74.837 74.837 0 0 0 4.974 2.272c.434.236.665.324.915.423 1.846.758 3.497 1.4 5.136 1.985.18 0 .331.056.497.114 1.444.53 2.89.99 4.39 1.397a104.35 104.35 0 0 0 7.293 1.806c.728.172 1.43.275 2.173.327 2.625.35 6.04.312 7.894-1.765.121-.136.239-.287.349-.441.357-.5.978-.732 1.533-.603zm-.305 1.474h.037zm121.143-6.643h.037z" fill="#000"/><path d="M234.756 223.658c-.455 0-.908-.206-1.202-.599-.129-.165-13.386-16.963-73.301-38.941a1.507 1.507 0 1 1 1.037-2.83c61.047 22.396 74.147 39.26 74.672 39.966a1.505 1.505 0 0 1-1.206 2.404zM203.087 233.813c-.5 0-.989-.25-1.276-.702-.113-.184-12.102-18.416-62.915-37.056a1.507 1.507 0 1 1 1.037-2.83c52.007 19.08 63.948 37.514 64.434 38.286a1.503 1.503 0 0 1-.482 2.07 1.467 1.467 0 0 1-.798.232zM224.856 196.662a1.5 1.5 0 0 1-.945-.335c-.25-.202-25.401-20.301-51.827-26.864a1.512 1.512 0 0 1-1.1-1.827 1.512 1.512 0 0 1 1.827-1.099c27.081 6.728 52.736 27.239 52.99 27.445a1.507 1.507 0 0 1-.945 2.68zM124.992 228.544c-.357 0-.717-.128-1.004-.386a1.502 1.502 0 0 1-.118-2.125c.074-.084.147-.172.217-.264.717-3.864.305-8.798-1.1-12.997-1.451-4.03-3.959-7.911-7.44-11.5-3.36-3.54-7.32-6.21-11.1-8.562-.786-.39-1.676-.868-2.562-1.342-1.232-.658-2.456-1.316-3.724-1.908l-.497-.213c-5.625-2.442-9.933-6.57-12.132-11.625-1.103-2.438-2.566-7-.338-10.956a1.506 1.506 0 0 1 2.625 1.478c-1.577 2.797-.412 6.316.426 8.165 1.945 4.467 5.695 8.04 10.614 10.173l.533.231c1.36.633 2.636 1.313 3.916 2 .864.464 1.728.927 2.614 1.372 3.878 2.412 8.206 5.316 11.798 9.103 3.768 3.886 6.503 8.128 8.114 12.595 1.647 4.93 2.062 10.526 1.125 15-.07.335-.247.622-.493.831-.114.151-.232.294-.353.427-.294.33-.71.503-1.121.503zm.452-2.077h.037z" fill="#000"/><path d="M115.839 229.336a15.988 15.988 0 0 1-2.374-.364 98.43 98.43 0 0 1-23.551-8.127c.304-.97.791-1.82 1.217-2.73.487-1.03 1.095-2.062 1.947-2.85.67-.667 1.461-1.092 2.252-1.456 3.956-1.698 8.58-.97 12.658.425 1.582.546 3.104 1.152 4.503 2.123 1.34.97 2.496 2.304 2.983 3.881.304.91.304 1.94.365 2.911.121 2.062.243 4.125 0 6.187z" fill="#fff"/><path d="M115.837 230.842a16.758 16.758 0 0 1-2.713-.404 99.988 99.988 0 0 1-23.875-8.243 1.508 1.508 0 0 1-.772-1.801c.246-.783.592-1.497.948-2.214l.342-.705c.688-1.453 1.412-2.508 2.29-3.317.813-.812 1.795-1.327 2.644-1.717 3.746-1.606 8.371-1.481 13.772.364 1.603.556 3.294 1.217 4.875 2.313 1.261.915 2.879 2.452 3.563 4.68.308.916.36 1.912.404 2.79l.026.471c.125 2.081.257 4.235-.008 6.456a1.509 1.509 0 0 1-1.496 1.327zm-24-10.739a96.924 96.924 0 0 0 21.938 7.394c.228.055.456.103.683.143.056-1.467-.036-2.952-.125-4.397l-.025-.504c-.037-.75-.074-1.46-.261-2.022-.357-1.154-1.217-2.257-2.438-3.14-1.187-.823-2.507-1.363-4.114-1.922-4.665-1.592-8.559-1.75-11.57-.463-.603.279-1.264.62-1.78 1.14-.628.576-1.139 1.337-1.653 2.426l-.368.757c-.096.199-.195.393-.287.588z" fill="#000"/><path d="m128.218 179.606-13.299-7.74c-1.1-.629-1.792-2.013-1.792-3.964l-.251-72.956c0-1.227-.44-2.108-1.132-2.517l13.267 7.74c.723.408 1.164 1.29 1.164 2.516l.22 72.957c.031 1.95.723 3.303 1.823 3.964z" fill="#89bf19"/><path d="M128.22 181.114c-.258 0-.519-.066-.758-.206l-13.301-7.739c-1.61-.926-2.54-2.849-2.54-5.268l-.25-72.952c0-.684-.196-1.107-.39-1.22a1.502 1.502 0 0 1-.534-2.06 1.495 1.495 0 0 1 2.056-.54l.007.004 13.257 7.735c1.21.68 1.916 2.077 1.916 3.816l.22 72.956c.019 1.309.408 2.265 1.092 2.677a1.506 1.506 0 0 1-.776 2.797zm-13.835-85.4.25 72.183c0 1.316.375 2.287 1.033 2.666l9.232 5.367-.011-.264-.221-72.978c0-.6-.154-1.07-.397-1.206z" fill="#000"/><path d="M148.623 14.593c-1.194-.692-2.798-.471-4.401.472-1.95 1.133-3.93 3.304-5.157 6.104l-34.112 78.087c-1.792 4.058-1.195 7.488.786 8.62l-13.3-7.74c-1.98-1.132-2.577-4.53-.785-8.62l34.112-78.087c1.227-2.8 3.207-4.97 5.157-6.103 1.603-.944 3.206-1.164 4.4-.472z" fill="#89bf19"/><path d="M105.738 109.383a1.524 1.524 0 0 1-.809-.236l-13.246-7.71c-2.827-1.617-3.412-5.948-1.408-10.525l34.114-78.085c1.28-2.934 3.386-5.412 5.775-6.801 2.114-1.25 4.276-1.427 5.916-.474l13.301 7.738a1.506 1.506 0 0 1-1.51 2.607c0-.004-.004-.004-.004-.004-.662-.378-1.728-.205-2.88.471-1.826 1.059-3.521 3.08-4.543 5.408l-34.11 78.088c-1.453 3.287-1.078 5.971.128 6.692l.033.022a1.506 1.506 0 0 1-.757 2.809zM133.742 7.956c-.592 0-1.31.228-2.056.669-1.83 1.063-3.522 3.08-4.54 5.408L93.032 92.118c-1.504 3.44-1.044 6.026.154 6.71l9.199 5.352c-.059-1.673.33-3.58 1.191-5.533l34.11-78.08c1.287-2.942 3.394-5.42 5.78-6.802.129-.074.254-.144.379-.213l-9.28-5.398a1.626 1.626 0 0 0-.823-.198z" fill="#000"/><path d="M144.217 15.052c1.96-1.132 3.92-1.218 5.15.163l34.47 38.461c2.804 3.12-.148 11.253-5.127 14.13l-12.084 6.98c-2.188 1.265-3.949 4.316-3.942 6.81l.24 72.937c.01 3.947-2.75 8.733-6.183 10.716l-24.088 13.917c-3.433 1.983-6.232.41-6.243-3.537l-.24-72.938c-.007-2.493-1.759-3.515-3.946-2.251l-12.085 6.981c-4.998 2.888-7.967-1.824-5.19-8.168l34.12-78.088c1.229-2.803 3.188-4.98 5.148-6.113z" fill="#fff"/><path d="m178.723 67.81-12.098 6.983c-2.197 1.264-3.942 4.304-3.942 6.802l.24 72.946c0 3.943-2.739 8.73-6.17 10.716l-24.106 13.907c-2.71 1.565-5.027.933-5.87-1.355 17.877-18.422 29.766-39.685 29.766-77.07 0-29.559-7.434-56.258-19.382-75.252l1.896-4.334c1.234-2.8 3.19-4.967 5.146-6.11 1.987-1.114 3.943-1.205 5.177.18l34.46 38.439c2.799 3.13-.15 11.257-5.117 14.147z" fill="#e9edf4"/><path d="M129.848 181.533a4.706 4.706 0 0 1-2.371-.617c-1.65-.953-2.566-2.828-2.574-5.283l-.239-72.938c0-.739-.217-1.125-.397-1.232-.18-.103-.632-.103-1.29.284l-12.085 6.981c-2.54 1.463-4.963 1.434-6.665-.088-2.195-1.967-2.456-5.886-.658-9.99l34.121-78.087c1.298-2.96 3.4-5.445 5.772-6.817 2.699-1.547 5.39-1.375 7.026.464l34.47 38.463c1.258 1.397 1.732 3.555 1.331 6.077-.658 4.162-3.466 8.42-6.827 10.36l-12.08 6.982c-1.706.982-3.195 3.552-3.192 5.5l.243 72.938c.01 4.485-3.037 9.768-6.938 12.025l-24.088 13.916c-1.228.706-2.437 1.062-3.559 1.062zm-5.845-83.136c.632 0 1.231.15 1.764.456 1.21.695 1.905 2.092 1.912 3.835l.239 72.937c.004 1.316.39 2.294 1.063 2.68.687.39 1.75.232 2.919-.445l24.088-13.915c2.952-1.706 5.441-6.015 5.43-9.408l-.243-72.938c-.003-3.03 2.06-6.592 4.699-8.117l12.08-6.982c2.59-1.493 4.843-4.948 5.361-8.22.25-1.585.033-2.894-.595-3.596l-34.475-38.467c-.937-1.048-2.606-.254-3.275.14-1.802 1.04-3.493 3.062-4.523 5.411l-34.12 78.089c-1.431 3.268-1.049 5.68-.093 6.537.92.823 2.368.18 3.15-.276l12.085-6.982c.853-.492 1.721-.739 2.534-.739z" fill="#000"/><path d="M208.773 53.701c-6.48-3.756-15.471-3.223-25.388 2.485-19.689 11.352-35.592 38.84-35.53 61.443.02 11.23 3.99 19.113 10.39 22.829l-9.31-5.414c-6.418-3.716-10.39-11.599-10.41-22.828-.061-22.603 15.842-50.091 35.531-61.444 9.917-5.707 18.907-6.241 25.388-2.484z" fill="#89bf19"/><path d="M158.245 141.967c-.257 0-.518-.066-.757-.206l-9.309-5.415c-7.173-4.155-11.14-12.72-11.162-24.125-.062-23.03 16.217-51.18 36.287-62.754 10.096-5.805 19.65-6.684 26.894-2.482l9.316 5.405a.051.051 0 0 1 .014.01h.004a1.506 1.506 0 0 1-1.51 2.604c-6.291-3.633-14.77-2.761-23.887 2.485-19.235 11.092-34.835 38.07-34.772 60.136.015 10.272 3.43 17.912 9.614 21.519l.026.014a1.506 1.506 0 0 1-.758 2.81zm31.824-94.585c-4.644 0-9.838 1.574-15.261 4.695-19.236 11.092-34.838 38.07-34.776 60.136.018 10.287 3.449 17.934 9.658 21.53l.309.176c-2.379-4.342-3.64-9.867-3.65-16.286-.063-23.03 16.212-51.18 36.282-62.754 5.747-3.305 11.317-5.015 16.39-5.096l-.334-.195c-2.545-1.474-5.453-2.206-8.618-2.206z" fill="#000"/><path d="M183.383 56.186c19.717-11.358 35.729-2.254 35.793 20.353.041 14.535-6.54 31.115-16.492 44.113-5.507 7.192-12.045 13.286-19.069 17.332-7.01 4.038-13.553 5.482-19.077 4.65-9.992-1.507-16.648-10.464-16.69-25.003-.063-22.607 15.845-50.101 35.535-61.445z" fill="#fff"/><path d="M219.184 76.53c.041 14.535-6.543 31.122-16.5 44.117-5.514 7.206-12.036 13.283-19.073 17.327-7.015 4.044-13.557 5.502-19.072 4.66-6.048-.903-10.883-4.558-13.722-10.51a49.756 49.756 0 0 0 11.686 1.395c27.157 0 49.172-21.966 49.172-49.065 0-12.79-4.897-24.41-12.9-33.134 12.015-.349 20.347 8.91 20.409 25.21z" fill="#e9edf4"/><path d="M167.62 144.364c-1.128 0-2.231-.08-3.305-.242-11.213-1.692-17.93-11.592-17.974-26.49-.063-23.036 16.217-51.187 36.29-62.75 10.063-5.797 19.603-6.687 26.853-2.514 7.188 4.143 11.166 12.724 11.199 24.169.037 14.404-6.243 31.239-16.805 45.03-5.81 7.588-12.555 13.716-19.508 17.724-5.82 3.349-11.54 5.073-16.75 5.073zm31.776-91.573c-4.643 0-9.842 1.577-15.265 4.702-19.235 11.084-34.838 38.059-34.775 60.132.036 13.276 5.797 22.07 15.408 23.519 5.382.801 11.625-.736 18.103-4.464 6.61-3.812 13.047-9.669 18.621-16.945 10.17-13.283 16.22-29.43 16.18-43.19-.026-10.324-3.467-17.982-9.687-21.567-2.54-1.463-5.434-2.188-8.585-2.188zm-16.015 3.397h.037z" fill="#000"/><path d="M183.443 71.02c12.558-7.236 22.752-1.428 22.793 12.964.04 14.383-10.087 31.921-22.645 39.158-12.55 7.231-22.761 1.413-22.802-12.97-.041-14.392 10.104-31.92 22.654-39.152z" fill="#89bf19"/><path d="M192.656 67.963c6.39 7.838 8.236 19.583 3.893 30.565-5.918 15.002-21.22 23.155-34.72 18.775 2.903 8.96 11.544 11.723 21.76 5.84 12.555-7.232 22.68-24.772 22.658-39.167-.022-10.623-5.603-16.575-13.59-16.013z" fill="#89bf19"/><path d="M173.4 127.769c-2.434 0-4.695-.574-6.702-1.732-4.762-2.743-7.394-8.375-7.416-15.86-.04-14.853 10.46-33.004 23.412-40.46h-.004c6.585-3.787 12.85-4.36 17.644-1.603 4.753 2.74 7.386 8.375 7.408 15.868.044 14.85-10.453 33.003-23.397 40.467-3.831 2.206-7.556 3.32-10.945 3.32zm20.239-58.364c-2.86 0-6.078.981-9.441 2.922h-.004c-12.114 6.978-21.938 23.953-21.897 37.842.014 6.368 2.114 11.074 5.904 13.261 3.835 2.203 9.033 1.633 14.64-1.592 12.11-6.981 21.93-23.96 21.886-37.849-.015-6.375-2.11-11.084-5.897-13.265-1.53-.882-3.283-1.32-5.191-1.32zm-10.195 1.617h.037z" fill="#000"/><path d="M189.207 95.474c.534.446.806 1.284.81 2.523.003 1.013-.235 2.066-.704 3.154-.474 1.096-1.145 2.138-2.014 3.126-.873.99-1.88 1.852-3.03 2.588l.007 2.03c0 .247-.068.493-.209.736-.14.244-.33.437-.56.57-.215.123-.395.149-.537.078-.142-.071-.211-.243-.212-.509l-.006-2.03c-1.797.902-3.479 1.423-5.042 1.56a.567.567 0 0 1-.499-.185c-.133-.14-.202-.337-.203-.583-.001-.324.097-.661.285-1.01.192-.348.436-.612.736-.785.163-.094.322-.146.472-.154 1.349-.092 2.765-.524 4.244-1.302l-.019-6.575c-1.133.308-2.086.488-2.858.53-.773.046-1.422-.152-1.94-.588-.516-.436-.776-1.217-.779-2.344-.003-.988.21-2.026.627-3.11.422-1.08 1.05-2.141 1.89-3.176a13.59 13.59 0 0 1 3.028-2.75l-.006-2.002c0-.246.068-.497.209-.75.14-.254.32-.441.535-.565.214-.123.399-.146.55-.06.15.085.223.255.224.5l.006 1.972c1.63-.86 3.075-1.378 4.342-1.556.468-.077.7.168.702.743 0 .305-.088.632-.272.985-.184.357-.423.618-.724.79a1.102 1.102 0 0 1-.399.118c-1.129.192-2.343.63-3.642 1.325l.019 6.806c1.201-.372 2.193-.589 2.983-.66.79-.076 1.452.114 1.986.56zm-4.944 8.932c2.345-1.538 3.512-3.3 3.507-5.286-.002-.743-.3-1.148-.888-1.218-.593-.072-1.47.049-2.637.357l.018 6.147m-1.544-8.39-.018-6.29c-.999.728-1.795 1.537-2.39 2.422-.599.891-.897 1.772-.894 2.653.002.836.283 1.324.841 1.46.56.136 1.38.053 2.46-.245" fill="#000"/></g></svg>