<svg width="121" height="36" xmlns="http://www.w3.org/2000/svg"><g id="2"><g id="1-2" stroke="none"><path id="path1" fill="#fff" d="M61.22 14.33a6.38 6.38 0 0 1-1.46-4.62 6.37 6.37 0 0 1 1.46-4.56 6 6 0 0 1 4.49-1.5h3.67v2.09h-3.14a5.48 5.48 0 0 0-2.24.41 2.37 2.37 0 0 0-1.2 1.25 6 6 0 0 0-.38 2.33 6.13 6.13 0 0 0 .37 2.33A2.38 2.38 0 0 0 64 13.29a5.42 5.42 0 0 0 2.27.39h3.22v2.14h-3.76a6.08 6.08 0 0 1-4.51-1.49Z"/><path id="path2" fill="#fff" d="M73.9 10.71v5.11h-2.49V3.6h2.49v5h5.66v-5h2.51v12.22h-2.5v-5.11Z"/><path id="path3" fill="#fff" d="M85.82 14.42a6.5 6.5 0 0 1-1.56-4.71A6.46 6.46 0 0 1 85.82 5a6.09 6.09 0 0 1 4.58-1.6A6.17 6.17 0 0 1 95 5a6.5 6.5 0 0 1 1.56 4.71A6.51 6.51 0 0 1 95 14.43a7.35 7.35 0 0 1-9.17 0ZM93 12.86a4.68 4.68 0 0 0 .89-3.15A4.75 4.75 0 0 0 93 6.55a3.94 3.94 0 0 0-5.26 0 4.68 4.68 0 0 0-.89 3.15 4.7 4.7 0 0 0 .88 3.16 3.94 3.94 0 0 0 5.26 0Z"/><path id="path4" fill="#fff" d="M99.67 14.42a6.5 6.5 0 0 1-1.56-4.71A6.5 6.5 0 0 1 99.66 5a7.37 7.37 0 0 1 9.17 0 6.46 6.46 0 0 1 1.57 4.71 6.51 6.51 0 0 1-1.56 4.72 7.35 7.35 0 0 1-9.17 0Zm7.21-1.56a4.68 4.68 0 0 0 .89-3.15 4.69 4.69 0 0 0-.89-3.16 3.93 3.93 0 0 0-5.25 0 4.63 4.63 0 0 0-.89 3.15 4.7 4.7 0 0 0 .88 3.16 3.94 3.94 0 0 0 5.26 0Z"/><path id="path5" fill="#fff" d="M113.7 14.65a4.78 4.78 0 0 1-1.17-3.5V3.6H115v7.22a4.36 4.36 0 0 0 .27 1.69c.178.4.499.717.9.89a4.18 4.18 0 0 0 1.7.28H121v2.14h-3.81a4.78 4.78 0 0 1-3.49-1.17Z"/><path id="path6" fill="#fff" d="M60.71 21.66v-2.13h10.44v2.13h-4v10.09h-2.5V21.66Z"/><path id="path7" fill="#fff" d="M75.18 27.2v4.55h-2.5V19.53H79a4.13 4.13 0 0 1 3 .95 3.76 3.76 0 0 1 1 2.87c0 2-.843 3.23-2.53 3.69l3.17 4.71h-3L77.7 27.2Zm4.73-2.54a1.68 1.68 0 0 0 .45-1.29 1.67 1.67 0 0 0-.45-1.3 2 2 0 0 0-1.36-.41h-3.37v3.41h3.37a2 2 0 0 0 1.36-.41Z"/><path id="path8" fill="#fff" d="m87.61 29.09-.94 2.66H84l4.71-12.22h2.95l4.7 12.22h-2.8l-1-2.66ZM91.9 27l-1.78-5.12L88.31 27Z"/><path id="path9" fill="#fff" d="M102.88 19.53a6 6 0 0 1 4.5 1.48 6.39 6.39 0 0 1 1.45 4.63 6.38 6.38 0 0 1-1.45 4.62 6 6 0 0 1-4.5 1.49h-5.22V19.53Zm1.75 9.69a2.3 2.3 0 0 0 1.2-1.25 5.94 5.94 0 0 0 .37-2.33 6 6 0 0 0-.37-2.34 2.3 2.3 0 0 0-1.2-1.25 5.37 5.37 0 0 0-2.26-.39h-2.21v8h2.21a5.37 5.37 0 0 0 2.26-.44Z"/><path id="path10" fill="#fff" d="M111.84 30.25a6.41 6.41 0 0 1-1.45-4.61 6.42 6.42 0 0 1 1.45-4.62 6.05 6.05 0 0 1 4.52-1.49h3.55v2.13h-3.06a5.92 5.92 0 0 0-2 .29c-.483.165-.9.48-1.19.9a4 4 0 0 0-.55 1.68h6.65v2.14h-6.65a4 4 0 0 0 .52 1.69c.289.44.714.774 1.21.95a5.76 5.76 0 0 0 2 .3h3.24v2.14h-3.73a6.05 6.05 0 0 1-4.51-1.5Z"/><path id="path11" fill="#fff" d="M54 13.69a1.55 1.55 0 0 0 1.12-.36 1.49 1.49 0 0 0 .37-1.11 1.5 1.5 0 0 0-.34-1.07 1.54 1.54 0 0 0-1.15-.4h-2.1c-2.4 0-3.6-1.203-3.6-3.61a3.63 3.63 0 0 1 .89-2.67 3.71 3.71 0 0 1 2.71-.88h5.73l-2.09 2.14h-3.11A1.28 1.28 0 0 0 51 7.15c-.029.394.1.782.36 1.08.297.26.686.39 1.08.36h2.08a3.78 3.78 0 0 1 2.74.92 3.63 3.63 0 0 1 .93 2.7 3.64 3.64 0 0 1-.93 2.71 3.77 3.77 0 0 1-2.72.91h-5.92v-2.14Z"/><path id="path12" fill="#89bf19" d="M51.4 29.61h7.71v2.14H48.79v-3.6a3.63 3.63 0 0 1 .92-2.71 3.66 3.66 0 0 1 2.7-.91h2v.4l3.16-1.78-3.19-1.84v.42h-5.1l2.12-2.18h4.4a3.77 3.77 0 0 1 2.69.88 3.55 3.55 0 0 1 .92 2.66 3.59 3.59 0 0 1-.91 2.67 3.71 3.71 0 0 1-2.69.89h-2.9a1.56 1.56 0 0 0-1.14.36 1.5 1.5 0 0 0-.37 1.14Z"/><path id="path13" fill="#89bf19" d="m35.94 7.28-6.22 3.87 1.36.71-14 24.14h4.66l12.9-22.22 1.54.83Z"/><path id="path14" fill="#00b6fb" d="M34.19 21.5 42.57 36H25.8Z"/><path id="path15" fill="#00b6fb" d="M25.64 6.61 21.33-.85 6.38 24.95h4.68L21.33 7.22l2 3.4L20 16.39h4.68L28 10.62Z"/><path id="path16" fill="#89bf19" d="M9.11 28.36 4.68 36H0l4.45-7.64Z"/><path id="path17" fill="#89bf19" d="M22.73 19.63 13.24 36H8.58l9.49-16.37Z"/></g></g></svg>