<svg width="25" height="25" fill="none" xmlns="http://www.w3.org/2000/svg"><path d="M13.691 12.91 9.6 17.012a.596.596 0 0 1-.42.175.586.586 0 0 1-.41-.996l3.095-3.105H2.344a.586.586 0 1 1 0-1.172h9.521L8.77 8.81a.566.566 0 0 1 0-.82.576.576 0 0 1 .83 0l4.091 4.1.03.03.02.02a.34.34 0 0 1 .048.078h.01a.595.595 0 0 1 0 .547h-.01a.34.34 0 0 1-.049.078l-.02.02-.029.048Zm5.059-9.59h-5.469a.586.586 0 0 0 0 1.172h5.469a.195.195 0 0 1 .195.196v15.625a.195.195 0 0 1-.195.195h-5.469a.586.586 0 1 0 0 1.172h5.469a1.367 1.367 0 0 0 1.367-1.367V4.688A1.367 1.367 0 0 0 18.75 3.32Z" fill="#fff"/></svg>