<svg xmlns="http://www.w3.org/2000/svg" viewBox="0 0 256 256" width="32" height="32"><path d="M19 2c-.522 0-1.055.191-1.432.568C17.191 2.945 17 3.478 17 4H9C7.346 4 6 5.346 6 7v38c0 1.654 1.346 3 3 3h32c1.388 0 2.56-.947 2.9-2.229.065-.246.1-.505.1-.771V7c0-1.654-1.346-3-3-3h-8c0-.522-.191-1.055-.568-1.432C32.055 2.191 31.522 2 31 2zm0 2h12v6H19zM9 6h8v2h-7v36h30V8h-7V6h8c.551 0 1 .448 1 1v38c0 .552-.449 1-1 1H9c-.551 0-1-.448-1-1V7c0-.552.449-1 1-1zm3 4h5c0 .522.191 1.055.568 1.432.377.377.91.568 1.432.568h12c.522 0 1.055-.191 1.432-.568.377-.377.568-.91.568-1.432h5v32H12zm21.994 6.988a1 1 0 0 0-.818.446L23.54 31.482l-6.865-6.302a1 1 0 1 0-1.352 1.472l8.563 7.864 10.937-15.95a1 1 0 0 0-.83-1.578z" transform="scale(5.12)" fill="#fff" stroke-miterlimit="10" font-family="none" font-weight="none" font-size="none" text-anchor="none" style="mix-blend-mode:normal"/></svg>