<svg width="14" height="14" fill="none" xmlns="http://www.w3.org/2000/svg"><path d="M7.7 5.527 5.667 4v6L7.7 8.473 9.667 7 7.7 5.527Zm0 0L5.667 4v6L7.7 8.473 9.667 7 7.7 5.527Zm0 0L5.667 4v6L7.7 8.473 9.667 7 7.7 5.527ZM6.333 1.713V.367A6.633 6.633 0 0 0 2.787 1.84l.946.953a5.294 5.294 0 0 1 2.6-1.08Zm-3.54 2.02-.953-.946A6.633 6.633 0 0 0 .367 6.333h1.346c.12-.973.507-1.86 1.08-2.6Zm-1.08 3.934H.367a6.633 6.633 0 0 0 1.473 3.546l.953-.953a5.245 5.245 0 0 1-1.08-2.593Zm1.074 4.493a6.654 6.654 0 0 0 3.546 1.473v-1.346a5.294 5.294 0 0 1-2.6-1.08l-.946.953ZM13.667 7c0 3.44-2.614 6.28-5.967 6.633v-1.346A5.344 5.344 0 0 0 12.333 7c0-2.7-2.02-4.94-4.633-5.287V.367A6.677 6.677 0 0 1 13.667 7Z" fill="#89BF19"/></svg>