<svg xmlns="http://www.w3.org/2000/svg" xmlns:xlink="http://www.w3.org/1999/xlink" viewBox="0,0,256,256" width="80px" height="80px" fill-rule="nonzero"><g fill="#ffffff" fill-rule="nonzero" stroke="none" stroke-width="1" stroke-linecap="butt" stroke-linejoin="miter" stroke-miterlimit="10" stroke-dasharray="" stroke-dashoffset="0" font-family="none" font-weight="none" font-size="none" text-anchor="none" style="mix-blend-mode: normal"><g transform="scale(3.2,3.2)"><path d="M10,10c-2.74952,0 -5,2.25048 -5,5v44c0,2.74952 2.25048,5 5,5h26h1h6v-2h-6h-1h-26c-1.66848,0 -3,-1.33152 -3,-3v-44c0,-1.66848 1.33152,-3 3,-3h26h1h33c1.66848,0 3,1.33152 3,3v42h2v-42c0,-2.74952 -2.25048,-5 -5,-5h-33h-1zM18,15c-0.55228,0 -1,0.44772 -1,1c0,0.55228 0.44772,1 1,1c0.55228,0 1,-0.44772 1,-1c0,-0.55228 -0.44772,-1 -1,-1zM22,15c-0.55228,0 -1,0.44772 -1,1c0,0.55228 0.44772,1 1,1c0.55228,0 1,-0.44772 1,-1c0,-0.55228 -0.44772,-1 -1,-1zM26,15c-0.55228,0 -1,0.44772 -1,1c0,0.55228 0.44772,1 1,1c0.55228,0 1,-0.44772 1,-1c0,-0.55228 -0.44772,-1 -1,-1zM30,15c-0.55228,0 -1,0.44772 -1,1c0,0.55228 0.44772,1 1,1c0.55228,0 1,-0.44772 1,-1c0,-0.55228 -0.44772,-1 -1,-1zM34,15c-0.55228,0 -1,0.44772 -1,1c0,0.55228 0.44772,1 1,1c0.55228,0 1,-0.44772 1,-1c0,-0.55228 -0.44772,-1 -1,-1zM38,15c-0.55228,0 -1,0.44772 -1,1c0,0.55228 0.44772,1 1,1c0.55228,0 1,-0.44772 1,-1c0,-0.55228 -0.44772,-1 -1,-1zM42,15c-0.55228,0 -1,0.44772 -1,1c0,0.55228 0.44772,1 1,1c0.55228,0 1,-0.44772 1,-1c0,-0.55228 -0.44772,-1 -1,-1zM46,15c-0.55228,0 -1,0.44772 -1,1c0,0.55228 0.44772,1 1,1c0.55228,0 1,-0.44772 1,-1c0,-0.55228 -0.44772,-1 -1,-1zM50,15c-0.55228,0 -1,0.44772 -1,1c0,0.55228 0.44772,1 1,1c0.55228,0 1,-0.44772 1,-1c0,-0.55228 -0.44772,-1 -1,-1zM54,15c-0.55228,0 -1,0.44772 -1,1c0,0.55228 0.44772,1 1,1c0.55228,0 1,-0.44772 1,-1c0,-0.55228 -0.44772,-1 -1,-1zM58,15c-0.55228,0 -1,0.44772 -1,1c0,0.55228 0.44772,1 1,1c0.55228,0 1,-0.44772 1,-1c0,-0.55228 -0.44772,-1 -1,-1zM62,15c-0.55228,0 -1,0.44772 -1,1c0,0.55228 0.44772,1 1,1c0.55228,0 1,-0.44772 1,-1c0,-0.55228 -0.44772,-1 -1,-1zM17.0625,18.49805c-0.55228,0 -1,0.44772 -1,1c0,0.55228 0.44772,1 1,1c0.55228,0 1,-0.44772 1,-1c0,-0.55228 -0.44772,-1 -1,-1zM62.9375,18.49805c-0.55228,0 -1,0.44772 -1,1c0,0.55228 0.44772,1 1,1c0.55228,0 1,-0.44772 1,-1c0,-0.55228 -0.44772,-1 -1,-1zM39.08008,18.57031v1.91992c-3.75,0.35 -6.04102,2.47945 -6.04102,5.68945c0,2.72 1.70078,4.58086 4.80078,5.38086l1.24023,0.32031v6.33984c-2.07,-0.24 -3.41078,-1.39078 -3.55078,-3.05078h-2.94922c0.02,3.23 2.52,5.40969 6.5,5.67969v1.81055h1.91016v-1.83008c4.07,-0.34 6.42969,-2.47086 6.42969,-5.88086c0,-2.88 -1.65062,-4.65 -5.14062,-5.5l-1.28906,-0.28906v-5.99023c1.83,0.22 3.09062,1.40922 3.14063,2.94922h2.9082c-0.08,-3.11 -2.44883,-5.30891 -6.04883,-5.62891v-1.91992zM14.50195,21.0625c-0.55228,0 -1,0.44772 -1,1c0,0.55228 0.44772,1 1,1c0.55228,0 1,-0.44772 1,-1c0,-0.55228 -0.44772,-1 -1,-1zM65.49805,21.0625c-0.55228,0 -1,0.44772 -1,1c0,0.55228 0.44772,1 1,1c0.55228,0 1,-0.44772 1,-1c0,-0.55228 -0.44772,-1 -1,-1zM11,22c-0.55228,0 -1,0.44772 -1,1c0,0.55228 0.44772,1 1,1c0.55228,0 1,-0.44772 1,-1c0,-0.55228 -0.44772,-1 -1,-1zM69,22c-0.55228,0 -1,0.44772 -1,1c0,0.55228 0.44772,1 1,1c0.55228,0 1,-0.44772 1,-1c0,-0.55228 -0.44772,-1 -1,-1zM39.08008,23.15039v5.60938c-2,-0.4 -3.06055,-1.39031 -3.06055,-2.82031c0,-1.52 1.28055,-2.68906 3.06055,-2.78906zM11,26c-0.55228,0 -1,0.44772 -1,1c0,0.55228 0.44772,1 1,1c0.55228,0 1,-0.44772 1,-1c0,-0.55228 -0.44772,-1 -1,-1zM69,26c-0.55228,0 -1,0.44772 -1,1c0,0.55228 0.44772,1 1,1c0.55228,0 1,-0.44772 1,-1c0,-0.55228 -0.44772,-1 -1,-1zM11,30c-0.55228,0 -1,0.44772 -1,1c0,0.55228 0.44772,1 1,1c0.55228,0 1,-0.44772 1,-1c0,-0.55228 -0.44772,-1 -1,-1zM69,30c-0.55228,0 -1,0.44772 -1,1c0,0.55228 0.44772,1 1,1c0.55228,0 1,-0.44772 1,-1c0,-0.55228 -0.44772,-1 -1,-1zM40.99023,32.24023c2.36,0.47 3.45898,1.4293 3.45898,3.0293c0,1.77 -1.25899,2.85047 -3.45898,2.98047zM11,34c-0.55228,0 -1,0.44772 -1,1c0,0.55228 0.44772,1 1,1c0.55228,0 1,-0.44772 1,-1c0,-0.55228 -0.44772,-1 -1,-1zM69,34c-0.55228,0 -1,0.44772 -1,1c0,0.55228 0.44772,1 1,1c0.55228,0 1,-0.44772 1,-1c0,-0.55228 -0.44772,-1 -1,-1zM11,38c-0.55228,0 -1,0.44772 -1,1c0,0.55228 0.44772,1 1,1c0.55228,0 1,-0.44772 1,-1c0,-0.55228 -0.44772,-1 -1,-1zM69,38c-0.55228,0 -1,0.44772 -1,1c0,0.55228 0.44772,1 1,1c0.55228,0 1,-0.44772 1,-1c0,-0.55228 -0.44772,-1 -1,-1zM61.5,40c-5.23486,0 -9.5,4.26514 -9.5,9.5c0,3.51481 2.00936,6.46831 4.85742,8.11133c-6.23069,1.68505 -10.85742,6.98839 -10.85742,13.38867h2c0,-6.59811 5.76875,-12 13,-12c7.23125,0 13,5.40189 13,12h2c0,-0.40449 -0.02044,-0.80412 -0.05664,-1.19922l0.01563,-0.08398l-0.03125,-0.0332c-0.56136,-5.56694 -4.63707,-10.1223 -10.08594,-11.87109c3.02293,-1.59233 5.1582,-4.66771 5.1582,-8.3125c0,-5.23486 -4.26514,-9.5 -9.5,-9.5zM11,42c-0.55228,0 -1,0.44772 -1,1c0,0.55228 0.44772,1 1,1c0.55228,0 1,-0.44772 1,-1c0,-0.55228 -0.44772,-1 -1,-1zM61.5,42c4.15398,0 7.5,3.34602 7.5,7.5c0,4.15398 -3.34602,7.5 -7.5,7.5c-4.15398,0 -7.5,-3.34602 -7.5,-7.5c0,-4.15398 3.34602,-7.5 7.5,-7.5zM17,45v2h31v-2zM11,46c-0.55228,0 -1,0.44772 -1,1c0,0.55228 0.44772,1 1,1c0.55228,0 1,-0.44772 1,-1c0,-0.55228 -0.44772,-1 -1,-1zM11,50c-0.55228,0 -1,0.44772 -1,1c0,0.55228 0.44772,1 1,1c0.55228,0 1,-0.44772 1,-1c0,-0.55228 -0.44772,-1 -1,-1zM21.84375,50v2h26.15625v-2zM14.50195,50.9375c-0.55228,0 -1,0.44772 -1,1c0,0.55228 0.44772,1 1,1c0.55228,0 1,-0.44772 1,-1c0,-0.55228 -0.44772,-1 -1,-1zM17.0625,53.50195c-0.55228,0 -1,0.44772 -1,1c0,0.55228 0.44772,1 1,1c0.55228,0 1,-0.44772 1,-1c0,-0.55228 -0.44772,-1 -1,-1zM18,57c-0.55228,0 -1,0.44772 -1,1c0,0.55228 0.44772,1 1,1c0.55228,0 1,-0.44772 1,-1c0,-0.55228 -0.44772,-1 -1,-1zM22,57c-0.55228,0 -1,0.44772 -1,1c0,0.55228 0.44772,1 1,1c0.55228,0 1,-0.44772 1,-1c0,-0.55228 -0.44772,-1 -1,-1zM26,57c-0.55228,0 -1,0.44772 -1,1c0,0.55228 0.44772,1 1,1c0.55228,0 1,-0.44772 1,-1c0,-0.55228 -0.44772,-1 -1,-1zM30,57c-0.55228,0 -1,0.44772 -1,1c0,0.55228 0.44772,1 1,1c0.55228,0 1,-0.44772 1,-1c0,-0.55228 -0.44772,-1 -1,-1zM34,57c-0.55228,0 -1,0.44772 -1,1c0,0.55228 0.44772,1 1,1c0.55228,0 1,-0.44772 1,-1c0,-0.55228 -0.44772,-1 -1,-1zM38,57c-0.55228,0 -1,0.44772 -1,1c0,0.55228 0.44772,1 1,1c0.55228,0 1,-0.44772 1,-1c0,-0.55228 -0.44772,-1 -1,-1zM42,57c-0.55228,0 -1,0.44772 -1,1c0,0.55228 0.44772,1 1,1c0.55228,0 1,-0.44772 1,-1c0,-0.55228 -0.44772,-1 -1,-1zM46,57c-0.55228,0 -1,0.44772 -1,1c0,0.55228 0.44772,1 1,1c0.55228,0 1,-0.44772 1,-1c0,-0.55228 -0.44772,-1 -1,-1zM51,69l-0.80078,0.40234l-0.1582,0.88086l0.61133,0.6543l0.34766,0.0625l0.80078,-0.40234l0.1582,-0.88086l-0.61133,-0.6543zM55,69l-0.80078,0.40234l-0.1582,0.88086l0.61133,0.6543l0.34766,0.0625l0.80078,-0.40234l0.1582,-0.88086l-0.61133,-0.6543zM59,69l-0.80078,0.40234l-0.1582,0.88086l0.61133,0.6543l0.34766,0.0625l0.80078,-0.40234l0.1582,-0.88086l-0.61133,-0.6543zM63,69l-0.80078,0.40234l-0.1582,0.88086l0.61133,0.6543l0.34766,0.0625l0.80078,-0.40234l0.1582,-0.88086l-0.61133,-0.6543zM67,69l-0.80078,0.40234l-0.1582,0.88086l0.61133,0.6543l0.34766,0.0625l0.80078,-0.40234l0.1582,-0.88086l-0.61133,-0.6543zM71,69l-0.80078,0.40234l-0.1582,0.88086l0.61133,0.6543l0.34766,0.0625l0.80078,-0.40234l0.1582,-0.88086l-0.61133,-0.6543z"></path></g></g></svg>