<svg xmlns="http://www.w3.org/2000/svg" xmlns:xlink="http://www.w3.org/1999/xlink" viewBox="0,0,256,256" width="64px" height="64px" fill-rule="nonzero"><g fill="#ffffff" fill-rule="nonzero" stroke="none" stroke-width="1" stroke-linecap="butt" stroke-linejoin="miter" stroke-miterlimit="10" stroke-dasharray="" stroke-dashoffset="0" font-family="none" font-weight="none" font-size="none" text-anchor="none" style="mix-blend-mode: normal"><g transform="scale(4,4)"><path d="M24,2c-2.37539,0.00243 -4.42228,1.67323 -4.90039,4h-3.09961c-2.76005,0.00331 -4.99669,2.23995 -5,5v4.53906l-0.34961,-0.29883c-0.37403,-0.31942 -0.9248,-0.31942 -1.29883,0l-7,6c-0.31781,0.27198 -0.43276,0.71302 -0.28813,1.10552c0.14463,0.3925 0.51827,0.65351 0.93657,0.65424h3c0.55228,0 1,-0.44772 1,-1c0,-0.55228 -0.44772,-1 -1,-1h-0.30078l4.30078,-3.68359l4.30078,3.68359h-0.30078c-0.55228,0 -1,0.44772 -1,1v13h-6v-9c0,-0.55228 -0.44772,-1 -1,-1c-0.55228,0 -1,0.44772 -1,1v10c0,0.55228 0.44772,1 1,1h5v5h-1c-1.65685,0 -3,1.34315 -3,3v10c0,1.65685 1.34315,3 3,3h1.09961c0.47811,2.32677 2.52501,3.99757 4.90039,4h17c0.55228,0 1,-0.44772 1,-1c0,-0.55228 -0.44772,-1 -1,-1h-17c-1.26693,-0.00508 -2.3941,-0.80551 -2.81641,-2h3.81641c0.55228,0 1,-0.44772 1,-1c0,-0.55228 -0.44772,-1 -1,-1h-7c-0.55228,0 -1,-0.44772 -1,-1v-10c0,-0.55228 0.44772,-1 1,-1h23.19141c-0.64058,0.48413 -1.06109,1.2042 -1.16797,2c-0.27261,-0.00879 -0.5368,0.09506 -0.73047,0.28711l-1.29297,1.29883l-1.29297,-1.29297c-0.3921,-0.38079 -1.0173,-0.37621 -1.40379,0.01028c-0.38649,0.38649 -0.39106,1.01168 -0.01028,1.40379l1.70703,1.70703v3.58594c0,0.55228 0.44772,1 1,1c0.55228,0 1,-0.44772 1,-1v-3.58594l1.45508,-1.45703c0.2564,0.42638 0.61567,0.78163 1.04492,1.0332l1.5,0.86719v5.14258c0,0.55228 -0.44772,1 -1,1h-13c-0.55228,0 -1,0.44772 -1,1c0,0.55228 0.44772,1 1,1h13c1.65685,0 3,-1.34315 3,-3v-3.98828l2.67188,1.54102c-0.48953,1.75812 0.27299,3.62466 1.85352,4.53711l2.88477,1.66406c-0.55784,0.77695 -1.45371,1.24013 -2.41016,1.24609h-5c-0.55228,0 -1,0.44772 -1,1c0,0.55228 0.44772,1 1,1h5c1.67925,-0.01006 3.24096,-0.86357 4.15625,-2.27148c1.9207,0.9461 4.15084,1.04038 6.14453,0.25977c1.60123,-0.63036 3.40284,-0.49366 4.89063,0.37109l2.60938,1.50586c0.47535,0.2517 1.06465,0.0823 1.33378,-0.38341c0.26912,-0.46571 0.12165,-1.06088 -0.33378,-1.34706l-2.60937,-1.50781c-2.01449,-1.16798 -4.45206,-1.35211 -6.61914,-0.5c-1.60098,0.63065 -3.40245,0.49468 -4.89062,-0.36914l-4.15625,-2.40039c-0.62291,-0.3504 -1.00378,-1.01391 -0.99219,-1.72852l3.22656,1.86133c0.47535,0.2517 1.06465,0.0823 1.33378,-0.38341c0.26912,-0.46571 0.12165,-1.06088 -0.33378,-1.34706l-11.25977,-6.50195c-0.32354,-0.17132 -0.5276,-0.50574 -0.53198,-0.87181c-0.00437,-0.36607 0.19164,-0.70527 0.511,-0.88427c0.31936,-0.179 0.711,-0.16917 1.02098,0.02561l6.92383,4c0.4784,0.27614 1.09007,0.11218 1.36621,-0.36621c0.27614,-0.4784 0.11218,-1.09007 -0.36621,-1.36621c-0.4784,-0.27614 -0.64235,-0.88782 -0.36621,-1.36621c0.27614,-0.4784 0.88782,-0.64235 1.36621,-0.36621c0.4784,0.27614 1.09007,0.11218 1.36621,-0.36621c0.27614,-0.4784 0.11218,-1.09007 -0.36621,-1.36621c-0.32354,-0.17132 -0.5276,-0.50574 -0.53197,-0.87181c-0.00437,-0.36607 0.19164,-0.70527 0.511,-0.88426c0.31935,-0.179 0.71099,-0.16918 1.02097,0.0256c0.47839,0.27614 1.09007,0.11218 1.36621,-0.36621c0.27614,-0.47839 0.11218,-1.09007 -0.36621,-1.36621c-0.32354,-0.17132 -0.5276,-0.50574 -0.53197,-0.87181c-0.00437,-0.36607 0.19164,-0.70527 0.511,-0.88426c0.31935,-0.179 0.71099,-0.16918 1.02097,0.0256l5.84961,3.37695c1.07361,0.62177 1.91812,1.57313 2.4082,2.71289l0.19922,0.46875c0.66118,1.53742 1.80013,2.82089 3.24805,3.66016l0.36719,0.21289c0.47839,0.27614 1.09007,0.11218 1.36621,-0.36621c0.27614,-0.47839 0.11218,-1.09007 -0.36621,-1.36621h0.00391l-0.36719,-0.21289c-1.07378,-0.62244 -1.91829,-1.57448 -2.4082,-2.71484l-0.19922,-0.4668c-0.66064,-1.53826 -1.79968,-2.8225 -3.24805,-3.66211l-5.84766,-3.37891c-0.7387,-0.42253 -1.62255,-0.50992 -2.42969,-0.24023v-5.16016h7c2.76005,-0.00331 4.99669,-2.23995 5,-5v-12c0,-0.55228 -0.44772,-1 -1,-1c-0.55228,0 -1,0.44772 -1,1v12c0,1.65685 -1.34315,3 -3,3h-15.00977c-0.29217,-0.00005 -0.56974,0.12768 -0.75977,0.34961l-4.23047,4.94336v-4.29297c0,-0.55228 -0.44772,-1 -1,-1h-9c-1.65685,0 -3,-1.34315 -3,-3v-20c0,-1.65685 1.34315,-3 3,-3h30c1.65685,0 3,1.34315 3,3v4c0,0.55228 0.44772,1 1,1c0.55228,0 1,-0.44772 1,-1v-4c-0.00331,-2.76005 -2.23995,-4.99669 -5,-5zM50.9707,6c-0.54081,0.01585 -0.97094,0.45896 -0.9707,1v1h-1c-0.55228,0 -1,0.44772 -1,1v8c0,0.55228 0.44772,1 1,1h1v1c0,0.55228 0.44772,1 1,1c0.55228,0 1,-0.44772 1,-1v-1h1c0.55228,0 1,-0.44772 1,-1v-8c0,-0.55228 -0.44772,-1 -1,-1h-1v-1c0.00012,-0.27037 -0.10925,-0.52927 -0.30317,-0.71767c-0.19392,-0.1884 -0.45587,-0.29025 -0.72612,-0.28233zM16,8h3v19c0.00331,2.76005 2.23995,4.99669 5,5h8v6c-0.00008,0.41866 0.26064,0.79305 0.65333,0.93818c0.39269,0.14514 0.83423,0.03029 1.10644,-0.28779l5.68945,-6.65039h5.55078v7.38867c-0.0882,0.40449 -0.09086,0.82294 -0.00781,1.22852c-0.70136,0.22872 -1.29336,0.70872 -1.66211,1.34766c-0.37109,0.63876 -0.49151,1.39265 -0.33789,2.11523c-1.04176,0.34108 -1.81455,1.2232 -2.01563,2.30078l-4.16406,-2.40039c-0.42639,-1.18695 -1.55129,-1.97907 -2.8125,-1.98047h-21v-5h1c0.55228,0 1,-0.44772 1,-1v-13h2c0.41866,0.00008 0.79305,-0.26064 0.93818,-0.65333c0.14514,-0.39269 0.03029,-0.83423 -0.28779,-1.10644l-4.65039,-3.98633v-6.25391c0,-1.65685 1.34315,-3 3,-3zM34.9707,9c-0.54081,0.01585 -0.97094,0.45896 -0.9707,1v1h-1c-0.55228,0 -1,0.44772 -1,1v8c0,0.55228 0.44772,1 1,1h1v1c0,0.55228 0.44772,1 1,1c0.55228,0 1,-0.44772 1,-1v-1h1c0.55228,0 1,-0.44772 1,-1v-8c0,-0.55228 -0.44772,-1 -1,-1h-1v-1c0.00012,-0.27037 -0.10925,-0.52927 -0.30317,-0.71767c-0.19392,-0.1884 -0.45587,-0.29025 -0.72612,-0.28233zM50,10h2v6h-2zM42.9707,11c-0.54081,0.01585 -0.97094,0.45896 -0.9707,1v1h-1c-0.55228,0 -1,0.44772 -1,1v8c0,0.55228 0.44772,1 1,1h1v1c0,0.55228 0.44772,1 1,1c0.55228,0 1,-0.44772 1,-1v-1h1c0.55228,0 1,-0.44772 1,-1v-8c0,-0.55228 -0.44772,-1 -1,-1h-1v-1c0.00012,-0.27037 -0.10925,-0.52927 -0.30317,-0.71767c-0.19392,-0.1884 -0.45587,-0.29025 -0.72612,-0.28233zM34,13h2v6h-2zM26.9707,14c-0.54081,0.01585 -0.97094,0.45896 -0.9707,1v1h-1c-0.55228,0 -1,0.44772 -1,1v8c0,0.55228 0.44772,1 1,1h1v1c0,0.55228 0.44772,1 1,1c0.55228,0 1,-0.44772 1,-1v-1h1c0.55228,0 1,-0.44772 1,-1v-8c0,-0.55228 -0.44772,-1 -1,-1h-1v-1c0.00012,-0.27037 -0.10925,-0.52927 -0.30317,-0.71767c-0.19392,-0.1884 -0.45587,-0.29025 -0.72612,-0.28233zM42,15h2v6h-2zM26,18h2v6h-2zM20,34c-0.55228,0 -1,0.44772 -1,1c0,0.55228 0.44772,1 1,1h9c0.55228,0 1,-0.44772 1,-1c0,-0.55228 -0.44772,-1 -1,-1zM16,38c-0.55228,0 -1,0.44772 -1,1c0,0.55228 0.44772,1 1,1h9c0.55228,0 1,-0.44772 1,-1c0,-0.55228 -0.44772,-1 -1,-1zM12,46c-0.55228,0 -1,0.44772 -1,1v6c0,0.55228 0.44772,1 1,1h2.5c1.38071,0 2.5,-1.11929 2.5,-2.5c-0.00218,-0.54279 -0.18266,-1.06982 -0.51367,-1.5c0.33101,-0.43018 0.51149,-0.95721 0.51367,-1.5c0,-1.38071 -1.11929,-2.5 -2.5,-2.5zM20,46c-0.55228,0 -1,0.44772 -1,1v4c0,1.65685 1.34315,3 3,3c1.65685,0 3,-1.34315 3,-3v-4c0,-0.55228 -0.44772,-1 -1,-1c-0.55228,0 -1,0.44772 -1,1v4c0,0.55228 -0.44772,1 -1,1c-0.55228,0 -1,-0.44772 -1,-1v-4c0,-0.55228 -0.44772,-1 -1,-1zM13,48h1.5c0.27614,0 0.5,0.22386 0.5,0.5c0,0.27614 -0.22386,0.5 -0.5,0.5h-1.5zM13,51h1.5c0.27614,0 0.5,0.22386 0.5,0.5c0,0.27614 -0.22386,0.5 -0.5,0.5h-1.5z"></path></g></g></svg>