<svg xmlns="http://www.w3.org/2000/svg" xmlns:xlink="http://www.w3.org/1999/xlink" viewBox="0,0,256,256" width="50px" height="50px" fill-rule="nonzero"><g fill="#ffffff" fill-rule="nonzero" stroke="none" stroke-width="1" stroke-linecap="butt" stroke-linejoin="miter" stroke-miterlimit="10" stroke-dasharray="" stroke-dashoffset="0" font-family="none" font-weight="none" font-size="none" text-anchor="none" style="mix-blend-mode: normal"><g transform="scale(2.56,2.56)"><path d="M85.94,51.886c-0.257,-5.386 -3.427,-7.955 -5.085,-8.935l2.884,-8.096l-4.172,0.194l-1.999,-1.88l-2.478,1.11l-3.617,-1.549l0.038,7.143c-0.768,-0.221 -1.647,-0.653 -1.905,-1.503l-0.326,-1.075l-2.149,0.653l0.327,1.075c0.439,1.444 1.55,2.259 2.637,2.72c-2.105,0.739 -5.009,2.522 -6.665,6.845l-2.324,6.708c-1.914,-1.218 -4.181,-1.926 -6.612,-1.926c-4.331,0 -8.146,2.241 -10.352,5.623l-13.568,-2.456c3.536,-1.893 5.949,-5.622 5.949,-9.907c0,-6.193 -5.038,-11.232 -11.231,-11.232c-6.194,0 -11.231,5.039 -11.231,11.232c0,3.104 1.266,5.917 3.309,7.952l-1.124,6.208l25.9,4.688c-0.002,0.082 -0.006,0.162 -0.006,0.244v8.985v2.246v4.492h24.709v-11.494l15.709,2.844l1.142,-6.308c0.103,-0.08 0.208,-0.156 0.307,-0.246c1.382,-1.259 1.986,-3.149 1.8,-5.512zM81.146,67.973l-0.4,2.211l-13.898,-2.516v-1.916v-0.029c0,-0.114 -0.006,-0.227 -0.008,-0.34l13.144,2.379zM64.601,69.545v9.657h-20.216v-2.246h16.847v-2.246h-16.847v-8.824v-0.162c0,-0.328 0.019,-0.651 0.049,-0.971c0.036,-0.377 0.092,-0.747 0.169,-1.111c0.158,-0.752 0.408,-1.47 0.724,-2.152c0.167,-0.359 0.354,-0.706 0.56,-1.04c0.216,-0.352 0.449,-0.692 0.706,-1.014c1.854,-2.324 4.704,-3.821 7.901,-3.821c2.171,0 4.179,0.695 5.828,1.864c0.329,0.234 0.642,0.489 0.942,0.76c0.337,0.305 0.658,0.627 0.951,0.975c0.834,0.987 1.481,2.135 1.889,3.391c0.012,0.035 0.027,0.068 0.038,0.103c0.111,0.356 0.199,0.723 0.271,1.095c0.017,0.087 0.026,0.177 0.041,0.264c0.049,0.298 0.087,0.598 0.11,0.904c0.008,0.105 0.011,0.212 0.016,0.317c0.007,0.145 0.022,0.288 0.022,0.435v1.538v1.141v1.143zM19.255,56.772l2.181,0.394l3.842,0.696l17.77,3.216c-0.282,0.693 -0.506,1.415 -0.66,2.164l-23.533,-4.26zM25.292,37.646c4.954,0 8.985,4.03 8.985,8.985c0,4.904 -3.951,8.897 -8.835,8.978l-3.428,-0.62c-3.336,-1.313 -5.707,-4.561 -5.707,-8.357c-0.001,-4.956 4.03,-8.986 8.985,-8.986zM77.119,35.83l1.602,1.506l1.779,-0.083l-1.393,3.909l-5.348,-0.91l-0.022,-4.111l1.373,0.588zM72.668,43.465l1.109,-0.02l-0.005,-0.911l4.57,0.777l-0.302,0.848l1.026,0.392c0.043,0.017 4.359,1.729 4.629,7.371l-0.133,8.877c0.134,1.74 -0.227,3.013 -1.071,3.783c-0.679,0.619 -1.579,0.854 -2.384,0.922l-13.555,-2.454c-0.543,-2.451 -1.816,-4.63 -3.579,-6.298l2.566,-7.394c2.177,-5.681 6.934,-5.887 7.129,-5.893zM24.168,52.246h-2.808v-2.246h2.808h1.685c0.619,0 1.123,-0.504 1.123,-1.123c0,-0.619 -0.504,-1.123 -1.123,-1.123h-1.123c-1.858,0 -3.37,-1.511 -3.37,-3.369c0,-1.666 1.217,-3.05 2.808,-3.319v-1.174h2.246v1.123h2.808v2.246h-2.808h-1.684c-0.619,0 -1.123,0.504 -1.123,1.123c0,0.619 0.504,1.123 1.123,1.123h1.123c1.858,0 3.369,1.511 3.369,3.369c0,1.667 -1.217,3.05 -2.808,3.319v1.174h-2.246zM58.571,61.606c-0.712,-1.544 -2.27,-2.62 -4.078,-2.62c-1.234,0 -2.353,0.501 -3.166,1.309c-0.298,0.296 -0.553,0.634 -0.759,1.004c-0.185,0.331 -0.325,0.689 -0.422,1.065c-0.092,0.356 -0.146,0.728 -0.146,1.114c0,0.405 0.059,0.797 0.16,1.171c0.12,0.444 0.306,0.861 0.548,1.24c0.361,0.564 0.843,1.041 1.411,1.396c0.69,0.432 1.501,0.685 2.373,0.685c0.31,0 0.612,-0.032 0.904,-0.092c0.663,-0.136 1.271,-0.423 1.793,-0.817c0.363,-0.274 0.683,-0.6 0.949,-0.97c0.442,-0.615 0.735,-1.343 0.82,-2.134c0.016,-0.158 0.026,-0.318 0.026,-0.48c0,-0.227 -0.022,-0.448 -0.055,-0.666c-0.062,-0.424 -0.184,-0.829 -0.358,-1.205zM55.279,65.575c-0.245,0.092 -0.508,0.149 -0.785,0.149c-0.562,0 -1.07,-0.215 -1.464,-0.557c-0.475,-0.412 -0.783,-1.012 -0.783,-1.69c0,-0.25 0.051,-0.487 0.127,-0.712c0.136,-0.402 0.379,-0.75 0.701,-1.015c0.388,-0.32 0.878,-0.52 1.419,-0.52c0.829,0 1.547,0.457 1.936,1.127c0.192,0.331 0.31,0.71 0.31,1.119c0,0.026 -0.007,0.051 -0.008,0.077c-0.033,0.929 -0.626,1.711 -1.453,2.022zM50.562,20.799h-1.123v-2.247h3.369v11.232h-2.246zM28.099,20.799h-1.123v-2.247h3.369v11.232h-2.246zM58.986,29.784c2.167,0 3.931,-1.764 3.931,-3.931v-3.37c0,-2.167 -1.764,-3.931 -3.931,-3.931c-2.167,0 -3.931,1.764 -3.931,3.931v3.37c0,2.167 1.763,3.931 3.931,3.931zM57.301,22.483c0,-0.928 0.756,-1.684 1.685,-1.684c0.929,0 1.685,0.756 1.685,1.684v3.37c0,0.929 -0.756,1.685 -1.685,1.685c-0.929,0 -1.685,-0.756 -1.685,-1.685zM69.094,29.784c2.167,0 3.931,-1.764 3.931,-3.931v-3.37c0,-2.167 -1.764,-3.931 -3.931,-3.931c-2.168,0 -3.931,1.764 -3.931,3.931v3.37c0,2.167 1.763,3.931 3.931,3.931zM67.409,22.483c0,-0.928 0.756,-1.684 1.685,-1.684c0.929,0 1.685,0.756 1.685,1.684v3.37c0,0.929 -0.756,1.685 -1.685,1.685c-0.93,0 -1.685,-0.756 -1.685,-1.685zM37.277,25.756l1.588,-1.588l-1.588,-1.588l1.588,-1.588l1.588,1.588l1.588,-1.588l1.588,1.588l-1.588,1.588l1.588,1.588l-1.588,1.588l-1.588,-1.588l-1.588,1.588zM41.015,41.015c-2.246,0 0,0 -2.246,0v-2.246h2.246zM42.139,52.246c-2.246,0 0,0 -2.246,0v-2.246h2.246zM43.262,42.138h2.246v2.246c-2.246,0 0,0 -2.246,0zM20.799,33.153c-2.246,0 0,0 -2.246,0v-2.246h2.246zM73.078,59.982l-2.797,-0.257l0.206,-2.237l4.474,0.411c0.303,0.023 0.591,-0.063 0.821,-0.255c0.23,-0.192 0.373,-0.462 0.4,-0.761c0.057,-0.617 -0.399,-1.164 -1.015,-1.221l-1.12,-0.103c-1.85,-0.17 -3.216,-1.813 -3.046,-3.662c0.083,-0.897 0.509,-1.708 1.201,-2.283c0.546,-0.454 1.207,-0.715 1.899,-0.766l0.107,-1.168l2.236,0.205l-0.103,1.119l2.797,0.257l-0.206,2.237l-4.474,-0.411c-0.299,-0.021 -0.591,0.063 -0.821,0.255c-0.23,0.192 -0.373,0.463 -0.4,0.761c-0.057,0.617 0.399,1.164 1.015,1.222l1.119,0.103c1.85,0.17 3.216,1.813 3.046,3.663c-0.082,0.897 -0.508,1.707 -1.2,2.283c-0.545,0.453 -1.206,0.706 -1.898,0.757l-0.108,1.177l-2.236,-0.205z"></path></g></g></svg>