<svg xmlns="http://www.w3.org/2000/svg" xmlns:xlink="http://www.w3.org/1999/xlink" viewBox="0,0,256,256" width="64px" height="64px" fill-rule="nonzero"><g fill="#ffffff" fill-rule="nonzero" stroke="none" stroke-width="1" stroke-linecap="butt" stroke-linejoin="miter" stroke-miterlimit="10" stroke-dasharray="" stroke-dashoffset="0" font-family="none" font-weight="none" font-size="none" text-anchor="none" style="mix-blend-mode: normal"><g transform="scale(4,4)"><path d="M10,18v13c0.00127,1.10404 0.89596,1.99873 2,2h1v5c0,0.55228 0.44772,1 1,1c0.55228,0 1,-0.44772 1,-1v-5h1c1.10404,-0.00127 1.99873,-0.89596 2,-2v-13c-0.00127,-1.10404 -0.89596,-1.99873 -2,-2h-1v-5c0,-0.55228 -0.44772,-1 -1,-1c-0.55228,0 -1,0.44772 -1,1v5h-1c-1.10404,0.00127 -1.99873,0.89596 -2,2zM12,18h4l0.001,13h-4.001zM34,18v13c0.00127,1.10404 0.89596,1.99873 2,2h1v5c0,0.55228 0.44772,1 1,1c0.55228,0 1,-0.44772 1,-1v-5h1c1.10404,-0.00127 1.99873,-0.89596 2,-2v-13c-0.00127,-1.10404 -0.89596,-1.99873 -2,-2h-1v-5c0,-0.55228 -0.44772,-1 -1,-1c-0.55228,0 -1,0.44772 -1,1v5h-1c-1.10404,0.00127 -1.99873,0.89596 -2,2zM36,18h4l0.001,13h-4.001zM48,29h1v5c0,0.55228 0.44772,1 1,1c0.55228,0 1,-0.44772 1,-1v-5h1c1.10404,-0.00127 1.99873,-0.89596 2,-2v-17c-0.00127,-1.10404 -0.89596,-1.99873 -2,-2h-1v-5c0,-0.55228 -0.44772,-1 -1,-1c-0.55228,0 -1,0.44772 -1,1v5h-1c-1.10404,0.00127 -1.99873,0.89596 -2,2v17c0.00127,1.10404 0.89596,1.99873 2,2zM48,10h4l0.001,17h-4.001zM28,47c0,-0.55228 0.44772,-1 1,-1h6c0.55228,0 1,0.44772 1,1c0,0.55228 -0.44772,1 -1,1h-6c-0.55228,0 -1,-0.44772 -1,-1zM57,12c-0.55228,0 -1,0.44772 -1,1c0,0.55228 0.44772,1 1,1c1.6561,0.00182 2.99818,1.3439 3,3v25h-56v-25c0.00182,-1.6561 1.3439,-2.99818 3,-3h3c0.55228,0 1,-0.44772 1,-1c0,-0.55228 -0.44772,-1 -1,-1h-3c-2.76008,0.00325 -4.99675,2.23992 -5,5v30c0.00325,2.76008 2.23992,4.99675 5,5h18.8726c-0.46107,1.48915 -1.25012,2.856 -2.3091,4h-0.5635c-1.6561,0.00182 -2.99818,1.3439 -3,3v2c0,0.55228 0.44772,1 1,1h22c0.55228,0 1,-0.44772 1,-1v-2c-0.00182,-1.6561 -1.3439,-2.99818 -3,-3h-0.5635c-1.05898,-1.144 -1.84803,-2.51085 -2.3091,-4h18.8726c2.76008,-0.00325 4.99675,-2.23992 5,-5v-30c-0.00325,-2.76008 -2.23992,-4.99675 -5,-5zM41,58c0.55215,0.00033 0.99967,0.44785 1,1v1h-20v-1c0.00033,-0.55215 0.44785,-0.99967 1,-1zM26.1113,56c0.87863,-1.18877 1.49035,-2.55317 1.7934,-4h8.1906c0.30305,1.44683 0.91477,2.81123 1.7934,4zM60,47c-0.00182,1.6561 -1.3439,2.99818 -3,3h-50c-1.6561,-0.00182 -2.99818,-1.3439 -3,-3v-3h56zM24,29h1v5c0,0.55228 0.44772,1 1,1c0.55228,0 1,-0.44772 1,-1v-5h1c1.10404,-0.00127 1.99873,-0.89596 2,-2v-17c-0.00127,-1.10404 -0.89596,-1.99873 -2,-2h-1v-5c0,-0.55228 -0.44772,-1 -1,-1c-0.55228,0 -1,0.44772 -1,1v5h-1c-1.10404,0.00127 -1.99873,0.89596 -2,2v17c0.00127,1.10404 0.89596,1.99873 2,2zM24,10h4l0.001,17h-4.001zM41,13c0,-0.55228 0.44772,-1 1,-1h1c0.55228,0 1,0.44772 1,1c0,0.55228 -0.44772,1 -1,1h-1c-0.55228,0 -1,-0.44772 -1,-1zM32,13c0,-0.55228 0.44772,-1 1,-1h1c0.55228,0 1,0.44772 1,1c0,0.55228 -0.44772,1 -1,1h-1c-0.55228,0 -1,-0.44772 -1,-1zM17,13c0,-0.55228 0.44772,-1 1,-1h1c0.55228,0 1,0.44772 1,1c0,0.55228 -0.44772,1 -1,1h-1c-0.55228,0 -1,-0.44772 -1,-1z"></path></g></g></svg>