<svg xmlns="http://www.w3.org/2000/svg" xmlns:xlink="http://www.w3.org/1999/xlink" viewBox="0,0,256,256" width="64px" height="64px" fill-rule="nonzero"><g fill="#ffffff" fill-rule="nonzero" stroke="none" stroke-width="1" stroke-linecap="butt" stroke-linejoin="miter" stroke-miterlimit="10" stroke-dasharray="" stroke-dashoffset="0" font-family="none" font-weight="none" font-size="none" text-anchor="none" style="mix-blend-mode: normal"><g transform="scale(4,4)"><path d="M21,1c-3.86417,0.00441 -6.99559,3.13583 -7,7v5h-11c-1.65685,0 -3,1.34315 -3,3v12c0.00281,2.37525 1.67344,4.42193 4,4.90039v22.09961c0.00331,3.31234 2.68766,5.99669 6,6h31c0.55228,0 1,-0.44772 1,-1c0,-0.55228 -0.44772,-1 -1,-1h-31c-2.20914,0 -4,-1.79086 -4,-4v-22h18v2c0,1.10457 0.89543,2 2,2h12c1.10457,0 2,-0.89543 2,-2v-2h18v18c0.00331,3.67345 -2.49343,6.87795 -6.05619,7.77294c-3.56276,0.89499 -7.27751,-0.74913 -9.01064,-3.98804c-1.73313,-3.23891 -1.03999,-7.24167 1.68129,-9.70924c2.72128,-2.46757 6.77257,-2.76689 9.82694,-0.72605c0.45844,0.3085 1.08017,0.18696 1.38867,-0.27148c0.3085,-0.45844 0.18696,-1.08017 -0.27148,-1.38867c-3.81348,-2.55 -8.87292,-2.1782 -12.27266,0.90187c-3.39975,3.08008 -4.26772,8.07835 -2.10544,12.1243c2.16228,4.04595 6.80015,6.10173 11.25008,4.98671c4.44993,-1.11502 7.57045,-5.11484 7.56943,-9.70234v-18.09961c2.32656,-0.47846 3.99719,-2.52514 4,-4.90039v-12c0,-1.65685 -1.34315,-3 -3,-3h-11v-5c-0.00441,-3.86417 -3.13583,-6.99559 -7,-7zM21,3h22c2.76005,0.00331 4.99669,2.23995 5,5v5h-4v-5c0,-0.55228 -0.44772,-1 -1,-1h-22c-0.55228,0 -1,0.44772 -1,1v5h-4v-5c0.00331,-2.76005 2.23995,-4.99669 5,-5zM22,9h20v4h-20zM3,15h58c0.55228,0 1,0.44772 1,1v12c0,1.65685 -1.34315,3 -3,3h-19v-2c0,-1.10457 -0.89543,-2 -2,-2h-12c-1.10457,0 -2,0.89543 -2,2v2h-19c-1.65685,0 -3,-1.34315 -3,-3v-12c0,-0.55228 0.44772,-1 1,-1zM48.9707,18c-0.54081,0.01585 -0.97094,0.45896 -0.9707,1v1h-38c-0.55228,0 -1,0.44772 -1,1c0,0.55228 0.44772,1 1,1h38v1c0,0.55228 0.44772,1 1,1c0.55228,0 1,-0.44772 1,-1v-1h4c0.55228,0 1,-0.44772 1,-1c0,-0.55228 -0.44772,-1 -1,-1h-4v-1c0.00012,-0.27037 -0.10925,-0.52927 -0.30317,-0.71767c-0.19392,-0.1884 -0.45587,-0.29025 -0.72612,-0.28233zM26,29h12v6h-12zM49.9707,44c-0.54081,0.01585 -0.97094,0.45896 -0.9707,1c-1.65685,0 -3,1.34315 -3,3v0.55859c0.00007,1.29102 0.82609,2.43722 2.05078,2.8457l0.94922,0.31641v3.2793c-0.55228,0 -1,-0.44772 -1,-1c0,-0.55228 -0.44772,-1 -1,-1c-0.55228,0 -1,0.44772 -1,1c0,1.65685 1.34315,3 3,3c0,0.55228 0.44772,1 1,1c0.55228,0 1,-0.44772 1,-1c1.65685,0 3,-1.34315 3,-3v-0.55859c-0.00175,-1.28958 -0.82745,-2.43377 -2.05078,-2.8418l-0.94922,-0.32031v-3.2793c0.55228,0 1,0.44772 1,1c0,0.55228 0.44772,1 1,1c0.55228,0 1,-0.44772 1,-1c0,-1.65685 -1.34315,-3 -3,-3c0.00012,-0.27037 -0.10925,-0.52927 -0.30317,-0.71767c-0.19392,-0.1884 -0.45587,-0.29025 -0.72612,-0.28233zM49,47v2.61328l-0.31641,-0.10547c-0.40846,-0.13624 -0.68385,-0.51864 -0.68359,-0.94922v-0.55859c0,-0.55228 0.44772,-1 1,-1zM51,52.38672l0.31641,0.10547c0.40846,0.13624 0.68385,0.51864 0.68359,0.94922v0.55859c0,0.55228 -0.44772,1 -1,1z"></path></g></g></svg>