<svg xmlns="http://www.w3.org/2000/svg" xmlns:xlink="http://www.w3.org/1999/xlink" viewBox="0,0,256,256" width="64px" height="64px" fill-rule="nonzero"><g fill="#ffffff" fill-rule="nonzero" stroke="none" stroke-width="1" stroke-linecap="butt" stroke-linejoin="miter" stroke-miterlimit="10" stroke-dasharray="" stroke-dashoffset="0" font-family="none" font-weight="none" font-size="none" text-anchor="none" style="mix-blend-mode: normal"><g transform="scale(4,4)"><path d="M24,2c-2.37539,0.00243 -4.42228,1.67323 -4.90039,4h-3.09961c-2.76005,0.00331 -4.99669,2.23995 -5,5v6h-5c-0.55228,0 -1,0.44772 -1,1v10c0,0.55228 0.44772,1 1,1c0.55228,0 1,-0.44772 1,-1v-9h6v13c0,0.55228 0.44772,1 1,1h0.30078l-4.30078,3.68359l-4.30078,-3.68359h0.30078c0.55228,0 1,-0.44772 1,-1c0,-0.55228 -0.44772,-1 -1,-1h-3c-0.41866,-0.00008 -0.79305,0.26064 -0.93818,0.65333c-0.14514,0.39269 -0.03029,0.83423 0.28779,1.10644l7,6c0.37403,0.31942 0.9248,0.31942 1.29883,0l0.34961,-0.30078v3.54102h-5.99805c-1.65685,0 -3,1.34315 -3,3v10c0,1.65685 1.34315,3 3,3h6.09961c0.47811,2.32677 2.52501,3.99757 4.90039,4h18c0.55228,0 1,-0.44772 1,-1c0,-0.55228 -0.44772,-1 -1,-1h-18c-1.26693,-0.00508 -2.3941,-0.80551 -2.81641,-2h2.81641c0.55228,0 1,-0.44772 1,-1c0,-0.55228 -0.44772,-1 -1,-1h-11c-0.55228,0 -1,-0.44772 -1,-1v-10c0,-0.55228 0.44772,-1 1,-1h28.19141c-0.80193,0.60649 -1.24671,1.57439 -1.18466,2.57792c0.06206,1.00353 0.62271,1.90925 1.49325,2.41232l2.5,1.44336v4.56641c0,0.55228 -0.44772,1 -1,1h-15c-0.55228,0 -1,0.44772 -1,1c0,0.55228 0.44772,1 1,1h15c1.65685,0 3,-1.34315 3,-3v-3.41016l1.67188,0.96484c-0.4863,1.75738 0.27554,3.62145 1.85352,4.53516l2.88477,1.66602c-0.55815,0.77633 -1.45402,1.23879 -2.41016,1.24414h-4c-0.55228,0 -1,0.44772 -1,1c0,0.55228 0.44772,1 1,1h4c1.67916,-0.01024 3.24048,-0.86467 4.1543,-2.27344c1.92078,0.94805 4.15207,1.04305 6.14648,0.26172c1.60123,-0.63036 3.40284,-0.49366 4.89063,0.37109l2.60938,1.50586c0.47535,0.2517 1.06465,0.0823 1.33378,-0.38341c0.26912,-0.46571 0.12165,-1.06088 -0.33378,-1.34706l-2.60937,-1.50781c-2.01413,-1.16914 -4.45224,-1.35331 -6.61914,-0.5c-1.601,0.6305 -3.4024,0.49453 -4.89062,-0.36914l-4.15625,-2.40039c-0.62275,-0.35056 -1.00356,-1.01397 -0.99219,-1.72852l3.22656,1.86133c0.47535,0.2517 1.06465,0.0823 1.33378,-0.38341c0.26912,-0.46571 0.12165,-1.06088 -0.33378,-1.34706l-11.25977,-6.5c-0.4784,-0.27614 -0.64235,-0.88782 -0.36621,-1.36621c0.27614,-0.4784 0.88782,-0.64235 1.36621,-0.36621l6.92773,4c0.4784,0.27614 1.09007,0.11218 1.36621,-0.36621c0.27614,-0.4784 0.11218,-1.09007 -0.36621,-1.36621c-0.4784,-0.27614 -0.64235,-0.88782 -0.36621,-1.36621c0.27614,-0.4784 0.88782,-0.64235 1.36621,-0.36621c0.4784,0.27614 1.09007,0.11218 1.36621,-0.36621c0.27614,-0.4784 0.11218,-1.09007 -0.36621,-1.36621c-0.32354,-0.17132 -0.5276,-0.50574 -0.53197,-0.87181c-0.00437,-0.36607 0.19164,-0.70527 0.511,-0.88426c0.31935,-0.179 0.71099,-0.16918 1.02097,0.0256c0.47839,0.27614 1.09007,0.11218 1.36621,-0.36621c0.27614,-0.47839 0.11218,-1.09007 -0.36621,-1.36621c-0.45544,-0.28618 -0.60292,-0.88135 -0.33379,-1.34706c0.26913,-0.46572 0.85843,-0.63512 1.33379,-0.38341l5.84961,3.37695c1.07278,0.6231 1.91648,1.575 2.40625,2.71484l0.20117,0.4668c0.66056,1.5377 1.79878,2.82179 3.24609,3.66211l0.36719,0.21094c0.47535,0.2517 1.06465,0.0823 1.33378,-0.38341c0.26912,-0.46571 0.12165,-1.06088 -0.33378,-1.34706l0.00195,-0.00195l-0.36719,-0.21289c-1.07378,-0.62244 -1.91829,-1.57448 -2.4082,-2.71484l-0.20117,-0.4668c-0.66014,-1.53797 -1.79846,-2.82218 -3.24609,-3.66211l-5.84766,-3.37891c-0.73854,-0.42303 -1.62261,-0.51044 -2.42969,-0.24023v-5.16016h7c2.76005,-0.00331 4.99669,-2.23995 5,-5v-13c0,-0.55228 -0.44772,-1 -1,-1c-0.55228,0 -1,0.44772 -1,1v13c0,1.65685 -1.34315,3 -3,3h-15.01172c-0.29217,-0.00005 -0.56974,0.12768 -0.75977,0.34961l-4.22852,4.94336v-4.29297c0,-0.55228 -0.44772,-1 -1,-1h-9c-1.65685,0 -3,-1.34315 -3,-3v-20c0,-1.65685 1.34315,-3 3,-3h30c1.65685,0 3,1.34315 3,3v3c0,0.55228 0.44772,1 1,1c0.55228,0 1,-0.44772 1,-1v-3c-0.00331,-2.76005 -2.23995,-4.99669 -5,-5zM26.9707,6c-0.54081,0.01585 -0.97094,0.45896 -0.9707,1v1h-1c-0.55228,0 -1,0.44772 -1,1v8c0,0.55228 0.44772,1 1,1h1v1c0,0.55228 0.44772,1 1,1c0.55228,0 1,-0.44772 1,-1v-1h1c0.55228,0 1,-0.44772 1,-1v-8c0,-0.55228 -0.44772,-1 -1,-1h-1v-1c0.00012,-0.27037 -0.10925,-0.52927 -0.30317,-0.71767c-0.19392,-0.1884 -0.45587,-0.29025 -0.72612,-0.28233zM16,8h3v19c0.00331,2.76005 2.23995,4.99669 5,5h8v6c-0.00008,0.41866 0.26064,0.79305 0.65333,0.93818c0.39269,0.14514 0.83423,0.03029 1.10644,-0.28779l5.68945,-6.65039h5.55078v7.40039c-0.08564,0.40154 -0.08763,0.81641 -0.00586,1.21875c-0.70186,0.22764 -1.29462,0.707 -1.66406,1.3457c-0.36996,0.63918 -0.48966,1.39288 -0.33594,2.11523c-1.04176,0.34108 -1.81455,1.2232 -2.01562,2.30078l-3.01367,-1.74023c-0.17865,-1.50314 -1.45113,-2.63646 -2.96484,-2.64062h-22v-5.25391l4.65039,-3.98633c0.31808,-0.27221 0.43293,-0.71374 0.28779,-1.10644c-0.14514,-0.39269 -0.51953,-0.65341 -0.93818,-0.65333h-2v-13c0,-0.55228 -0.44772,-1 -1,-1h-1v-6c0,-1.65685 1.34315,-3 3,-3zM42.9707,9c-0.54081,0.01585 -0.97094,0.45896 -0.9707,1v1h-1c-0.55228,0 -1,0.44772 -1,1v8c0,0.55228 0.44772,1 1,1h1v1c0,0.55228 0.44772,1 1,1c0.55228,0 1,-0.44772 1,-1v-1h1c0.55228,0 1,-0.44772 1,-1v-8c0,-0.55228 -0.44772,-1 -1,-1h-1v-1c0.00012,-0.27037 -0.10925,-0.52927 -0.30317,-0.71767c-0.19392,-0.1884 -0.45587,-0.29025 -0.72612,-0.28233zM26,10h2v6h-2zM34.9707,11c-0.54081,0.01585 -0.97094,0.45896 -0.9707,1v1h-1c-0.55228,0 -1,0.44772 -1,1v8c0,0.55228 0.44772,1 1,1h1v1c0,0.55228 0.44772,1 1,1c0.55228,0 1,-0.44772 1,-1v-1h1c0.55228,0 1,-0.44772 1,-1v-8c0,-0.55228 -0.44772,-1 -1,-1h-1v-1c0.00012,-0.27037 -0.10925,-0.52927 -0.30317,-0.71767c-0.19392,-0.1884 -0.45587,-0.29025 -0.72612,-0.28233zM42,13h2v6h-2zM50.9707,14c-0.54081,0.01585 -0.97094,0.45896 -0.9707,1v1h-1c-0.55228,0 -1,0.44772 -1,1v8c0,0.55228 0.44772,1 1,1h1v1c0,0.55228 0.44772,1 1,1c0.55228,0 1,-0.44772 1,-1v-1h1c0.55228,0 1,-0.44772 1,-1v-8c0,-0.55228 -0.44772,-1 -1,-1h-1v-1c0.00012,-0.27037 -0.10925,-0.52927 -0.30317,-0.71767c-0.19392,-0.1884 -0.45587,-0.29025 -0.72612,-0.28233zM34,15h2v6h-2zM50,18h2v6h-2zM20,34c-0.55228,0 -1,0.44772 -1,1c0,0.55228 0.44772,1 1,1h9c0.55228,0 1,-0.44772 1,-1c0,-0.55228 -0.44772,-1 -1,-1zM16,38c-0.55228,0 -1,0.44772 -1,1c0,0.55228 0.44772,1 1,1h9c0.55228,0 1,-0.44772 1,-1c0,-0.55228 -0.44772,-1 -1,-1zM8.49414,45.95898c-0.95872,0.01594 -1.82689,0.56999 -2.24515,1.43281c-0.41826,0.86282 -0.31543,1.88757 0.26593,2.65008c0.58136,0.76251 1.54231,1.13301 2.48508,0.95813c0.62,0 1,0.324 1,0.5c0,0.176 -0.38,0.5 -1,0.5c-0.37132,0.03027 -0.73415,-0.122 -0.97266,-0.4082c-0.27443,-0.47441 -0.87955,-0.63957 -1.35694,-0.37037c-0.47739,0.2692 -0.64919,0.87248 -0.38525,1.35279c0.58434,0.92712 1.61987,1.47095 2.71484,1.42578c1.00248,0.18453 2.01824,-0.24762 2.58049,-1.09784c0.56225,-0.85022 0.56225,-1.95409 0,-2.80431c-0.56225,-0.85022 -1.57801,-1.28237 -2.58049,-1.09784c-0.62,0 -1,-0.324 -1,-0.5c0,-0.176 0.38,-0.5 1,-0.5c0.37132,-0.03027 0.73415,0.122 0.97266,0.4082c0.17334,0.31543 0.5028,0.51339 0.86268,0.51836c0.35988,0.00497 0.69468,-0.18382 0.87666,-0.49435c0.18198,-0.31052 0.18307,-0.69488 0.00285,-1.00643c-0.58434,-0.92712 -1.61987,-1.47095 -2.71484,-1.42578c-0.16683,-0.03051 -0.33629,-0.04425 -0.50586,-0.04102zM15,46c-0.55228,0 -1,0.44772 -1,1v6c0,0.55228 0.44772,1 1,1h4c0.55228,0 1,-0.44772 1,-1c0,-0.55228 -0.44772,-1 -1,-1h-3v-1h2c0.55228,0 1,-0.44772 1,-1c0,-0.55228 -0.44772,-1 -1,-1h-2v-1h3c0.55228,0 1,-0.44772 1,-1c0,-0.55228 -0.44772,-1 -1,-1zM23,46c-0.55228,0 -1,0.44772 -1,1v6c0,0.55228 0.44772,1 1,1h3c0.55228,0 1,-0.44772 1,-1c0,-0.55228 -0.44772,-1 -1,-1h-2v-5c0,-0.55228 -0.44772,-1 -1,-1zM30,46c-0.55228,0 -1,0.44772 -1,1v6c0,0.55228 0.44772,1 1,1h3c0.55228,0 1,-0.44772 1,-1c0,-0.55228 -0.44772,-1 -1,-1h-2v-5c0,-0.55228 -0.44772,-1 -1,-1z"></path></g></g></svg>