<svg xmlns="http://www.w3.org/2000/svg" xmlns:xlink="http://www.w3.org/1999/xlink" viewBox="0,0,256,256" width="68px" height="68px" fill-rule="nonzero"><g fill="#ffffff" fill-rule="nonzero" stroke="none" stroke-width="1" stroke-linecap="butt" stroke-linejoin="miter" stroke-miterlimit="10" stroke-dasharray="" stroke-dashoffset="0" font-family="none" font-weight="none" font-size="none" text-anchor="none" style="mix-blend-mode: normal"><g transform="scale(3.76471,3.76471)"><path d="M28.30078,1.40039c-2.9,0 -5.20117,2.39922 -5.20117,5.19922v0.20117h-4.09961c-1.2,0 -2.19961,0.39883 -3.09961,1.29883c-0.7,0.6 -1.10117,1.50039 -1.20117,2.40039h-4c-3.6,0 -6.5,2.9 -6.5,6.5v43.19922c0,3.6 2.9,6.5 6.5,6.5h52.30078c0.4,0 0.69922,-0.29922 0.69922,-0.69922v-3c0.1,-1.6 -1.09922,-2.80078 -2.69922,-2.80078c-3.1,-5.6 -4.40039,-12.49844 -3.90039,-19.89844h0.09961c1.7,0 3.10156,-1.40156 3.10156,-3.10156v-5.29883c0,-0.4 -0.30117,-0.70117 -0.70117,-0.70117h-2.29883c-0.4,0 -0.70117,0.30117 -0.70117,0.70117v2c0,0.2 -0.20039,0.40039 -0.40039,0.40039h-1.89844c-0.2,0 -0.40039,-0.20039 -0.40039,-0.40039v-2c0,-0.4 -0.30117,-0.70117 -0.70117,-0.70117h-0.79883v-14.29883c0,-3.6 -2.9,-6.5 -6.5,-6.5h-4c-0.3,-2 -2.10078,-3.59961 -4.30078,-3.59961h-4.09961v-0.20117c0,-2.9 -2.39922,-5.19922 -5.19922,-5.19922zM28.30078,4.5c0.8,0 1.5,0.7 1.5,1.5c0,0.8 -0.7,1.5 -1.5,1.5c-0.8,0 -1.5,-0.7 -1.5,-1.5c0,-0.9 0.7,-1.5 1.5,-1.5zM10.69922,12.40039h4.10156c0.6,1.7 2.19961,3 4.09961,3h18.59961c1.9,0 3.59961,-1.3 4.09961,-3h4.09961c2.5,0 4.5,2 4.5,4.5v14.29883c-0.3,0.1 -0.39844,0.40156 -0.39844,0.60156v2c0,0.2 -0.20039,0.39844 -0.40039,0.39844h-1.90039c-0.2,0 -0.40039,-0.19844 -0.40039,-0.39844v-2c0,-0.4 -0.29922,-0.70117 -0.69922,-0.70117h-2.30078c-0.4,0 -0.69922,0.30117 -0.69922,0.70117v5.29883c0,1.7 1.39961,3.09961 3.09961,3.09961h0.09961c0.5,7.4 -0.80039,14.30039 -3.90039,19.90039c-1.5,0 -2.69922,1.20117 -2.69922,2.70117v1.69922h-29.19922c-2.5,0 -4.5,-2 -4.5,-4.5v-43.09961h-0.10156c0,-2.5 2,-4.5 4.5,-4.5zM11.90039,19.19922c-0.6,0 -1,0.4 -1,1c0,0.6 0.4,1 1,1h32.79883c0.6,0 1,-0.4 1,-1c0,-0.6 -0.4,-1 -1,-1zM11.90039,24.5c-0.6,0 -1,0.4 -1,1c0,0.5 0.4,1 1,1h32.79883c0.6,0 1,-0.4 1,-1c0,-0.6 -0.4,-1 -1,-1zM11.90039,29.80078c-0.6,0 -1,0.5 -1,1c0,0.5 0.4,1 1,1h20.09961c0.5,0 1,-0.5 1,-1c0,-0.5 -0.5,-1 -1,-1zM11.80078,36.69922c-0.5,0 -1,0.4 -1,1v22.60156c0,0.6 0.5,1 1,1h27.09961c0.5,0 1,-0.5 1,-1c0,-0.5 -0.5,-1 -1,-1h-2.40039v-12.60156c0,-0.8 -0.7,-1.5 -1.5,-1.5h-2.59961c-0.8,0 -1.5,0.7 -1.5,1.5v12.60156h-2.30078v-3.80078c0,-0.8 -0.7,-1.5 -1.5,-1.5h-2.59961c-0.8,0 -1.5,0.7 -1.5,1.5v3.80078h-2.30078v-7.80078c0,-0.8 -0.7,-1.5 -1.5,-1.5h-2.59961c-0.8,0 -1.5,0.7 -1.5,1.5v7.80078h-2.29883v-21.60156c0,-0.6 -0.4,-1 -1,-1zM35.09961,37.30078l-2.09961,0.09961c-0.9,0 -1.30078,1.09883 -0.80078,1.79883l0.20117,0.20117l-6.5,5.40039l-3.5,-3.40039c-0.4,-0.4 -0.90078,-0.39961 -1.30078,-0.09961l-3.79883,2.89844c-0.4,0.3 -0.50117,1.00039 -0.20117,1.40039c0.3,0.4 1.00039,0.50117 1.40039,0.20117l3.19922,-2.40039l3.40039,3.40039c0.2,0.2 0.50117,0.29883 0.70117,0.29883c0.2,0 0.49961,-0.09922 0.59961,-0.19922l7.29883,-6l0.20117,0.29883c0.6,0.7 1.70039,0.4 1.90039,-0.5l0.39844,-2.09961c0.1,-0.7 -0.39961,-1.29883 -1.09961,-1.29883zM48.69922,40.59961h6.40039c-0.4,7.1 0.8,13.80078 3.5,19.30078h-13.40039c2.7,-5.6 3.9,-12.20078 3.5,-19.30078z"></path></g></g></svg>