<svg width="19" height="19" viewBox="0 0 19 19" fill="none" xmlns="http://www.w3.org/2000/svg">
<g clip-path="url(#clip0_9_46)">
<path fill-rule="evenodd" clip-rule="evenodd" d="M0 0H1.1875V17.8125H19V19H0V0ZM11.875 4.15625C11.875 3.99878 11.9376 3.84776 12.0489 3.73641C12.1603 3.62506 12.3113 3.5625 12.4688 3.5625H17.2188C17.3762 3.5625 17.5272 3.62506 17.6386 3.73641C17.7499 3.84776 17.8125 3.99878 17.8125 4.15625V8.90625C17.8125 9.06372 17.7499 9.21474 17.6386 9.32609C17.5272 9.43744 17.3762 9.5 17.2188 9.5C17.0613 9.5 16.9103 9.43744 16.7989 9.32609C16.6876 9.21474 16.625 9.06372 16.625 8.90625V5.81875L12.3346 11.0639C12.282 11.128 12.2167 11.1804 12.1427 11.2178C12.0687 11.2551 11.9877 11.2765 11.9049 11.2807C11.8222 11.2848 11.7394 11.2716 11.6621 11.2418C11.5847 11.212 11.5145 11.1664 11.4558 11.1079L8.38375 8.03581L4.04225 14.0054C3.94728 14.1261 3.80919 14.2054 3.65701 14.2265C3.50482 14.2476 3.35039 14.2088 3.22617 14.1184C3.10194 14.028 3.01759 13.893 2.99085 13.7417C2.96411 13.5904 2.99705 13.4346 3.08275 13.3071L7.83275 6.77587C7.88317 6.70642 7.94804 6.64873 8.0229 6.60676C8.09777 6.56479 8.18084 6.53956 8.26639 6.53278C8.35194 6.52601 8.43795 6.53787 8.51848 6.56753C8.59902 6.5972 8.67216 6.64397 8.73287 6.70463L11.8311 9.804L15.9659 4.75H12.4688C12.3113 4.75 12.1603 4.68744 12.0489 4.57609C11.9376 4.46475 11.875 4.31372 11.875 4.15625Z" fill="white"/>
</g>
<defs>
<clipPath id="clip0_9_46">
<rect width="19" height="19" fill="white"/>
</clipPath>
</defs>
</svg>
