<?xml version="1.0" encoding="UTF-8"?>
<!-- Generated by Pixelmator Pro 3.0 -->
<svg width="121" height="36" viewBox="0 0 121 36" xmlns="http://www.w3.org/2000/svg" xmlns:xlink="http://www.w3.org/1999/xlink">
    <g id="2">
        <g id="1-2">
            <path id="path1" fill="#ffffff" stroke="none" d="M 61.220001 14.33 C 60.144753 13.041901 59.620216 11.382071 59.759998 9.710001 C 59.635159 8.057974 60.158859 6.422302 61.220001 5.15 C 62.447826 4.055752 64.071007 3.513489 65.709999 3.650002 L 69.379997 3.650002 L 69.379997 5.74 L 66.239998 5.74 C 65.472862 5.718309 64.709717 5.85799 64 6.15 C 63.456562 6.400263 63.027882 6.846802 62.799999 7.4 C 62.520279 8.143837 62.391113 8.935833 62.419998 9.73 C 62.391308 10.523298 62.516968 11.314617 62.790001 12.059999 C 63.025288 12.606915 63.457016 13.045778 64 13.290001 C 64.719986 13.581131 65.494133 13.714132 66.269997 13.68 L 69.489998 13.68 L 69.489998 15.82 L 65.730003 15.82 C 64.086823 15.955376 62.459126 15.417622 61.220001 14.33 Z"/>
            <path id="path2" fill="#ffffff" stroke="none" d="M 73.900002 10.710001 L 73.900002 15.82 L 71.410004 15.82 L 71.410004 3.599998 L 73.900002 3.599998 L 73.900002 8.6 L 79.559998 8.6 L 79.559998 3.599998 L 82.07 3.599998 L 82.07 15.82 L 79.57 15.82 L 79.57 10.710001 Z"/>
            <path id="path3" fill="#ffffff" stroke="none" d="M 85.82 14.42 C 84.69767 13.118032 84.136765 11.424511 84.260002 9.710001 C 84.132309 7.994936 84.693771 6.299753 85.82 5 C 87.059174 3.85535 88.717621 3.275978 90.400002 3.400002 C 92.08786 3.279995 93.750938 3.858456 95 5 C 96.12233 6.301968 96.683243 7.995489 96.559998 9.710001 C 96.68483 11.427748 96.123886 13.124966 95 14.43 C 92.318085 16.570551 88.511917 16.570551 85.830002 14.43 Z M 93 12.860001 C 93.666168 11.951361 93.982178 10.832899 93.889999 9.710001 C 93.978333 8.584366 93.662811 7.464077 93 6.549999 C 91.503349 5.20829 89.236656 5.20829 87.739998 6.549999 C 87.073837 7.458639 86.757828 8.577101 86.849998 9.700001 C 86.754311 10.824835 87.066681 11.946533 87.730003 12.860001 C 89.226654 14.20171 91.493347 14.20171 92.989998 12.860001 Z"/>
            <path id="path4" fill="#ffffff" stroke="none" d="M 99.669998 14.42 C 98.547676 13.118032 97.986763 11.424511 98.110001 9.710001 C 97.984009 7.996866 98.541275 6.303513 99.660004 5 C 102.344513 2.866871 106.145493 2.866871 108.830002 5 C 109.959831 6.298191 110.524948 7.993547 110.400002 9.710001 C 110.524834 11.427748 109.963882 13.124966 108.839996 14.43 C 106.158081 16.570551 102.351913 16.570551 99.669998 14.43 Z M 106.879997 12.860001 C 107.546165 11.951361 107.862175 10.832899 107.769997 9.710001 C 107.863724 8.583843 107.547676 7.461712 106.879997 6.549999 C 105.386635 5.209692 103.123367 5.209692 101.629997 6.549999 C 100.959686 7.456608 100.643227 8.576658 100.739998 9.700001 C 100.64431 10.824835 100.95668 11.946533 101.620003 12.860001 C 103.116653 14.20171 105.383347 14.20171 106.879997 12.860001 Z"/>
            <path id="path5" fill="#ffffff" stroke="none" d="M 113.699997 14.65 C 112.857208 13.686991 112.43576 12.426249 112.529999 11.15 L 112.529999 3.599998 L 115 3.599998 L 115 10.82 C 114.97747 11.395639 115.069237 11.970036 115.269997 12.51 C 115.447632 12.909132 115.768906 13.226837 116.169998 13.4 C 116.711075 13.610373 117.290039 13.70573 117.870003 13.68 L 121 13.68 L 121 15.82 L 117.190002 15.82 C 115.91713 15.911514 114.660507 15.490242 113.699997 14.65 Z"/>
            <path id="path6" fill="#ffffff" stroke="none" d="M 60.709999 21.66 L 60.709999 19.529999 L 71.150002 19.529999 L 71.150002 21.66 L 67.150002 21.66 L 67.150002 31.749998 L 64.650002 31.749998 L 64.650002 21.66 Z"/>
            <path id="path7" fill="#ffffff" stroke="none" d="M 75.18 27.199999 L 75.18 31.749998 L 72.68 31.749998 L 72.68 19.529999 L 79 19.529999 C 80.086182 19.438358 81.164551 19.779842 82 20.48 C 82.722351 21.253323 83.085381 22.295237 83 23.35 C 83 25.35 82.156667 26.58 80.470001 27.039999 L 83.639999 31.749998 L 80.639999 31.749998 L 77.699997 27.199999 Z M 79.910004 24.66 C 80.23597 24.313162 80.399513 23.844332 80.360001 23.369999 C 80.40374 22.892139 80.239807 22.418556 79.910004 22.07 C 79.522102 21.771528 79.038231 21.625654 78.550003 21.66 L 75.18 21.66 L 75.18 25.07 L 78.550003 25.07 C 79.038231 25.104345 79.522102 24.958471 79.910004 24.66 Z"/>
            <path id="path8" fill="#ffffff" stroke="none" d="M 87.610001 29.09 L 86.669998 31.749998 L 84 31.749998 L 88.709999 19.529999 L 91.660004 19.529999 L 96.360001 31.749998 L 93.559998 31.749998 L 92.559998 29.09 Z M 91.900002 27 L 90.120003 21.879999 L 88.309998 27 Z"/>
            <path id="path9" fill="#ffffff" stroke="none" d="M 102.879997 19.529999 C 104.519501 19.385246 106.146484 19.920343 107.379997 21.01 C 108.453224 22.302691 108.974152 23.966057 108.830002 25.639999 C 108.972557 27.310707 108.45166 28.970377 107.379997 30.26 C 106.148094 31.353262 104.520927 31.892035 102.879997 31.749998 L 97.660004 31.749998 L 97.660004 19.529999 Z M 104.629997 29.219999 C 105.177658 28.975702 105.608253 28.52717 105.830002 27.969999 C 106.10788 27.225883 106.233696 26.433594 106.199997 25.639999 C 106.233414 24.843161 106.107628 24.047657 105.830002 23.299999 C 105.608253 22.742828 105.177658 22.294296 104.629997 22.049999 C 103.913536 21.758774 103.142632 21.62574 102.370003 21.66 L 100.160004 21.66 L 100.160004 29.66 L 102.370003 29.66 C 103.146286 29.678457 103.917336 29.528339 104.629997 29.219999 Z"/>
            <path id="path10" fill="#ffffff" stroke="none" d="M 111.839996 30.25 C 110.773727 28.961361 110.253372 27.306992 110.389999 25.639999 C 110.251785 23.96977 110.772171 22.311707 111.839996 21.02 C 113.079842 19.926691 114.713043 19.388311 116.360001 19.529999 L 119.910004 19.529999 L 119.910004 21.66 L 116.849998 21.66 C 116.171638 21.641321 115.495117 21.739416 114.849998 21.949999 C 114.367119 22.114697 113.949951 22.430206 113.660004 22.85 C 113.353668 23.361975 113.165749 23.935989 113.110001 24.529999 L 119.760002 24.529999 L 119.760002 26.67 L 113.110001 26.67 C 113.15509 27.26507 113.332771 27.84251 113.629997 28.359999 C 113.918716 28.80035 114.343712 29.134024 114.839996 29.309999 C 115.483757 29.527168 116.160858 29.628735 116.839996 29.609999 L 120.080002 29.609999 L 120.080002 31.749998 L 116.349998 31.749998 C 114.704987 31.886171 113.07576 31.344301 111.839996 30.25 Z"/>
            <path id="path11" fill="#ffffff" stroke="none" d="M 54 13.690001 C 54.406136 13.721846 54.808483 13.59252 55.119999 13.33 C 55.389526 13.025928 55.523178 12.624973 55.490002 12.219999 C 55.519451 11.832767 55.397572 11.449205 55.150002 11.15 C 54.837891 10.864355 54.422005 10.7197 54 10.75 L 51.900002 10.75 C 49.5 10.75 48.299999 9.546666 48.299999 7.139999 C 48.225536 6.166529 48.546345 5.2041 49.189999 4.469999 C 49.940193 3.827648 50.915546 3.510929 51.900002 3.59 L 57.630001 3.59 L 55.540001 5.73 L 52.43 5.73 C 52.039608 5.681187 51.648453 5.814621 51.369278 6.091843 C 51.090103 6.369064 50.95393 6.759274 51 7.15 C 50.971207 7.5436 51.100807 7.932398 51.360001 8.23 C 51.657036 8.490187 52.046261 8.619926 52.439999 8.59 L 54.52 8.59 C 55.519146 8.521587 56.504604 8.85247 57.259998 9.51 C 57.925858 10.245146 58.261898 11.220739 58.189999 12.210001 C 58.2635 13.202484 57.927433 14.181784 57.259998 14.92 C 56.508636 15.569849 55.531151 15.896875 54.540001 15.83 L 48.619999 15.83 L 48.619999 13.690001 Z"/>
            <path id="path12" fill="#89bf19" stroke="none" d="M 51.400002 29.609999 L 59.110001 29.609999 L 59.110001 31.749998 L 48.790001 31.749998 L 48.790001 28.15 C 48.712605 27.158794 49.045151 26.179226 49.709999 25.440001 C 50.450138 24.784422 51.42403 24.456186 52.41 24.529999 L 54.41 24.529999 L 54.41 24.93 L 57.57 23.15 L 54.380001 21.309999 L 54.380001 21.73 L 49.279999 21.73 L 51.400002 19.549999 L 55.799999 19.549999 C 56.776924 19.482847 57.74165 19.798445 58.490002 20.43 C 59.150078 21.152029 59.482944 22.114445 59.41 23.09 C 59.483673 24.066883 59.15493 25.031443 58.5 25.76 C 57.756393 26.400869 56.789101 26.720903 55.810001 26.65 L 52.91 26.65 C 52.497272 26.613857 52.08712 26.74338 51.77 27.01 C 51.493614 27.322077 51.359566 27.735094 51.400002 28.15 Z"/>
            <path id="path13" fill="#89bf19" stroke="none" d="M 35.939999 7.280001 L 29.719999 11.15 L 31.08 11.860001 L 17.08 36 L 21.74 36 L 34.639999 13.780001 L 36.18 14.610001 Z"/>
            <path id="path14" fill="#00b6fb" stroke="none" d="M 34.189999 21.5 L 42.57 36 L 25.799999 36 Z"/>
            <path id="path15" fill="#00b6fb" stroke="none" d="M 25.639999 6.610001 L 21.33 -0.849998 L 6.38 24.949999 L 11.06 24.949999 L 21.33 7.219999 L 23.33 10.620001 L 20 16.389999 L 24.68 16.389999 L 28 10.620001 Z"/>
            <path id="path16" fill="#89bf19" stroke="none" d="M 9.11 28.359999 L 4.68 36 L 0 36 L 4.45 28.359999 Z"/>
            <path id="path17" fill="#89bf19" stroke="none" d="M 22.73 19.629999 L 13.24 36 L 8.58 36 L 18.07 19.629999 Z"/>
        </g>
    </g>
</svg>
