<svg xmlns="http://www.w3.org/2000/svg" viewBox="0 0 2500 2500" width="2500" height="2500"><g transform="translate(87.0 977.0) rotate(0.0 363.5 358.5) scale(1.0230027875770593 1.0229733855710816)"><svg width="710.653" height="700.898" viewBox="0 0 710.653 700.898"><g stroke="#000" stroke-linecap="round" stroke-linejoin="round" stroke-miterlimit="10" stroke-width="2"><path d="m602.374 109.387-.262 292.053 106.55-61.244.991-292.611z"/><path d="m520.853 63.084.531 293.466 80.728 44.89.262-292.053z" fill="#87c159"/><path d="M628.231 1 520.853 63.084l81.521 46.303 107.279-61.802z" fill="#fff"/><path d="m433.607 355.619-.263 142.477 106.55-61.244.992-143.035z"/><path d="m352.085 309.316.531 143.89 80.728 44.89.263-142.477z" fill="#dbf301"/><path d="m459.464 247.232-107.379 62.084 81.522 46.303 107.279-61.802z" fill="#fff"/><path d="m257.678 295.227-.263 304.517 106.55-61.244.992-305.076z"/><path d="m176.156 248.924.531 305.93 80.728 44.89.263-304.517z" fill="#adc4cb"/><path d="m283.534 186.84-107.378 62.084 81.522 46.303 107.279-61.803z" fill="#fff"/><path d="m82.521 445.239-.262 254.659 106.55-61.244.991-255.217z"/><path d="m1 398.936.531 256.072 80.728 44.89.262-254.659z" fill="#adc4cb"/><path d="M108.378 336.852 1 398.936l81.521 46.303L189.8 383.437z" fill="#fff"/></g></svg></g><g transform="translate(876.0 441.0) rotate(0.0 737.5 736.0) scale(1.028244302480892 1.0274142315018326)"><svg width="1434.484" height="1432.723" viewBox="0 0 1434.484 1432.723"><g stroke="#000" stroke-linecap="round" stroke-linejoin="round" stroke-miterlimit="10" stroke-width="2"><path d="m1.265 958.793-.233-28.291 527.151-278.717 810.501 466.154c4.127 2.373.892 8.574.892 8.574l-516.348 301.112a30.353 30.353 0 0 1-30.458-.001L9.632 973.32a16.795 16.795 0 0 1-8.367-14.527z" fill="#adc4cb"/><path d="m7.05 919.182 494.107-284.038 820.644 472.291-497.565 287.881a32.36 32.36 0 0 1-32.471-.003L7.009 940.07c-8.03-4.658-8.007-16.262.041-20.888z" fill="#fff"/><path d="M1321.55 1103.046c-.234 4.179-7.216 8.203-9.75 9.667l-489.776 283.882s-3.564 1.752-6.944 2.456c-3.711.773-7.086.631-7.086.631v32.041s5.809-.334 10.077-1.722c4.71-1.532 9.498-4.287 9.498-4.287l506.463-294.339a32.916 32.916 0 0 0 12.426-12.822z"/><path d="m1205.693 1109.902-187.148 108.639a28.43 28.43 0 0 1-28.509.023L302.394 820.902c-9.255-5.352-9.235-18.72.037-24.044l187.183-107.486a28.436 28.436 0 0 1 28.359.023l687.683 396.383c9.285 5.352 9.305 18.744.037 24.124z" fill="#adc4cb"/><g fill="#fff"><path d="M562.581 1232.535 301.29 1081.43c-9.257-5.353-9.234-18.724.04-24.046l153.659-88.178a28.436 28.436 0 0 1 28.351.026l260.781 150.299c9.285 5.352 9.306 18.744.038 24.125l-153.067 88.855a28.436 28.436 0 0 1-28.511.024zm870.586-741.276-83.051 616.051-29.566.204-34.232-21.054-752.299-462.654 50.267-611.051.351-.159 2.946-1.348 16.147-7.411c9.292-4.125 16.952-3.796 25.768 1.269l786.326 450.976a35.143 35.143 0 0 1 17.343 35.177z"/><path d="M1430.254 471.841a35.105 35.105 0 0 0-14.428-15.767L629.499 5.107c-8.816-5.065-16.476-5.394-25.768-1.269l-16.147 7.411 3.615 2.073 791.876 454.141a35.112 35.112 0 0 1 14.328 15.552z"/></g><path d="m501.157 635.143 77.711-615.676c.74-5.864 7.208-9.086 12.335-6.146l791.717 454.064a35.384 35.384 0 0 1 17.484 35.263l-79.02 605.339z" fill="#87c159"/><path d="M1346.458 1118.552a32.917 32.917 0 0 0 3.658-11.243l83.053-616.06a35.103 35.103 0 0 0-2.914-19.409l-32.852 11.175a35.098 35.098 0 0 1 3.036 19.459l-77.324 594.855a21.584 21.584 0 0 1-4.18 10.227z"/></g></svg></g><g transform="translate(1438.0 547.0) rotate(0.0 256.5 380.0) scale(1.0219958203757677 1.022522401313134)"><svg width="501.959" height="743.26" viewBox="0 0 501.959 743.26"><path d="M1 491.743 64.86 1l436.099 250.11-63.948 491.15z" style="fill:#fff;stroke:#000;stroke-width:2;stroke-linecap:round;stroke-linejoin:round;stroke-miterlimit:10"/></svg></g><g transform="translate(401.0 1461.0) rotate(0.0 396.5 243.5) scale(1.1645837310736786 1.1640580929525486)"><svg width="680.93" height="418.364" viewBox="0 0 680.93 418.364"><g stroke-linecap="round" stroke-linejoin="round" stroke-miterlimit="10" stroke-width="2"><g stroke="#000"><path d="M385.266 415.537 8.292 201.208a14.42 14.42 0 0 1-7.288-12.878l.454-19.058L290.232 20.613 679.93 226.071v22.411a8.177 8.177 0 0 1-4.084 7.078L399.172 415.487a13.982 13.982 0 0 1-13.906.05z" fill="#fff"/><path d="M679.93 232.199 392.229 397.107v20.257s4.645-.853 6.103-1.428c2.961-1.168 11.04-6.344 11.04-6.344l265.811-153.65a9.499 9.499 0 0 0 4.747-8.225z"/><path d="M387.692 395.916 5.917 178.857c-6.129-3.485-6.15-12.312-.037-15.825L285.71 2.212a9.115 9.115 0 0 1 9.053-.017l380.564 216.826c6.114 3.484 6.142 12.288.049 15.809l-278.62 161.053a9.111 9.111 0 0 1-9.064.033z" fill="#D4D7D4"/><path d="m297.968 19.764 351.79 200.432c3.206 1.827 3.22 6.443.026 8.289L395.417 375.518a16.007 16.007 0 0 1-15.921.057L31.562 177.757c-3.26-1.854-3.271-6.549-.02-8.417L291.787 19.775a6.223 6.223 0 0 1 6.181-.011z" fill="#fff"/></g><path d="m579.298 305.131-60.836 35.166-.1-7.115 61.055-35.292z" stroke="#fff"/></g></svg></g><g transform="translate(1786.0 796.0) rotate(0.0 314.0 353.5) scale(1.1695056976157354 1.1742177002938037)"><svg width="536.979" height="602.103" viewBox="0 0 536.979 602.103"><g stroke="#000" stroke-linecap="round" stroke-linejoin="round" stroke-miterlimit="10" stroke-width="2"><path d="m490.764 588.493 44.964-310.992a16.947 16.947 0 0 0-8.34-17.124L79.959 3.756A18.055 18.055 0 0 0 64.435 2.59L47.724 9.087 14.44 322.898l455.265 278.099 4.083-1.743c0 .001 16.105-4.737 16.976-10.761z" fill="#fff"/><path d="M534.754 268.949s.924 2.404 1.148 4.122c.245 1.88-.175 4.43-.175 4.43l-41.326 310.047s-.248 2.492-9.511 7.064c-5.142 2.538-12.268 5.396-12.268 5.396l44.324-324.275z"/><path d="M516.946 275.734 48.334 8.85l14.327-6.277a18.719 18.719 0 0 1 16.827.908l448.237 257.1s2.626 1.847 4.235 3.652c1.541 1.729 2.794 4.715 2.794 4.715z" fill="#fff"/><path d="m477.158 593.387 40.617-311.959a10.675 10.675 0 0 0-5.274-10.638L57.202 9.656c-6.594-3.782-14.915.344-15.896 7.882L1.09 326.584a10.673 10.673 0 0 0 5.271 10.635L463.976 599.92c5.467 3.138 12.368-.282 13.182-6.533z" fill="#fff"/><path d="m40.068 27.05 475.327 272.622 2.392-18.373a10.482 10.482 0 0 0-5.181-10.448L57.02 9.552c-6.507-3.732-14.72.34-15.688 7.779z" fill="#dbf301"/></g></svg></g><g transform="translate(401.0 1461.0) rotate(0.0 397.0 243.5) scale(1.0293934616661136 1.0278555177057083)"><svg width="771.328" height="473.802" viewBox="0 0 771.328 473.802"><g><g><g><g><path style="fill:#adc4cb" d="M436.431 470.732 9.263 227.865a16.337 16.337 0 0 1-8.258-14.592l.515-21.595L328.743 23.225l441.586 232.814v25.395a9.263 9.263 0 0 1-4.628 8.02L452.189 470.676a15.843 15.843 0 0 1-15.758.056z"/><path d="M444.26 473.793c-2.876 0-5.752-.729-8.323-2.191L8.769 228.734a17.316 17.316 0 0 1-8.764-15.485l.514-21.595a1 1 0 0 1 .542-.865L328.285 22.336a.999.999 0 0 1 .924.004l441.586 232.814c.328.173.534.514.534.885v25.395c0 3.653-1.965 7.059-5.127 8.887L452.689 471.542a16.847 16.847 0 0 1-8.429 2.251zm-7.335-3.93a14.889 14.889 0 0 0 14.763-.054L765.2 288.588a8.287 8.287 0 0 0 4.128-7.154v-24.791L328.737 24.353 2.505 192.295l-.5 21.001a15.319 15.319 0 0 0 7.753 13.7l427.167 242.867z"/></g><g><path d="M770.328 262.983 444.32 449.848v22.954s5.264-.967 6.915-1.618c3.355-1.324 12.51-7.188 12.51-7.188l301.204-174.109a10.764 10.764 0 0 0 5.379-9.321v-17.583z"/><path d="M444.32 473.802a1.001 1.001 0 0 1-1-1v-22.954a1 1 0 0 1 .503-.867l326.008-186.864a1 1 0 0 1 1.498.867v17.583c0 4.188-2.253 8.092-5.879 10.187L464.246 464.861c-.338.218-9.237 5.909-12.644 7.253-1.722.679-6.883 1.631-7.101 1.671-.06.011-.121.017-.181.017zm1-23.375v21.166c1.805-.356 4.534-.939 5.548-1.34 3.227-1.272 12.247-7.042 12.337-7.1L764.449 289.02a9.79 9.79 0 0 0 4.88-8.454v-15.857L445.32 450.427z"/></g><g><path style="fill:#fff" d="M439.179 448.498 6.571 202.538c-6.946-3.949-6.969-13.951-.042-17.932L323.619 2.373a10.326 10.326 0 0 1 10.258-.019L765.113 248.05c6.928 3.947 6.959 13.924.056 17.914L449.452 448.462a10.327 10.327 0 0 1-10.273.036z"/><path d="M444.284 450.842c-1.935 0-3.87-.491-5.599-1.475L6.077 203.407C2.5 201.374.358 197.703.348 193.588c-.01-4.116 2.115-7.798 5.683-9.849L323.12 1.506a11.38 11.38 0 0 1 11.252-.021l431.236 245.696c3.569 2.033 5.707 5.699 5.72 9.807.013 4.107-2.103 7.787-5.658 9.843L449.952 449.328a11.328 11.328 0 0 1-5.668 1.514zM328.764 2.005a9.325 9.325 0 0 0-4.647 1.235L7.028 185.474c-2.938 1.688-4.688 4.721-4.68 8.109s1.771 6.411 4.717 8.086l432.608 245.96a9.358 9.358 0 0 0 9.278-.033l315.717-182.497c2.928-1.692 4.67-4.722 4.659-8.104-.01-3.383-1.771-6.401-4.71-8.075L333.382 3.224a9.32 9.32 0 0 0-4.618-1.219z"/></g><g><path style="fill:#fff" d="m337.509 22.262 398.63 227.119c3.633 2.07 3.649 7.301.029 9.393L447.933 425.385a18.135 18.135 0 0 1-18.041.064L35.631 201.292c-3.694-2.1-3.707-7.421-.022-9.538L330.505 22.275a7.049 7.049 0 0 1 7.004-.013z"/><path d="M438.856 428.81c-3.268 0-6.537-.83-9.458-2.491L35.137 202.161a6.423 6.423 0 0 1-3.284-5.63 6.426 6.426 0 0 1 3.258-5.645L330.007 21.408a8.083 8.083 0 0 1 7.997-.016l398.63 227.119a6.35 6.35 0 0 1 3.239 5.555 6.347 6.347 0 0 1-3.205 5.573L448.433 426.251a19.135 19.135 0 0 1-9.577 2.559zM334.019 22.341a6.051 6.051 0 0 0-3.015.802L36.107 192.621a4.443 4.443 0 0 0-2.254 3.905 4.444 4.444 0 0 0 2.273 3.896l394.26 224.158a17.195 17.195 0 0 0 17.046-.062l288.236-166.611a4.369 4.369 0 0 0 2.206-3.834 4.369 4.369 0 0 0-2.229-3.823L337.014 23.131a6.043 6.043 0 0 0-2.995-.79z"/></g><g><path d="m656.298 345.626-68.936 39.848-.113-8.063 69.184-39.991z"/><path d="M587.362 386.474a1 1 0 0 1-1-.986l-.113-8.062a1.002 1.002 0 0 1 .5-.88l69.184-39.99a1 1 0 0 1 1.5.883l-.135 8.205a1.002 1.002 0 0 1-.499.85l-68.936 39.848a1.028 1.028 0 0 1-.501.132zm.895-8.491.081 5.771 66.97-38.711.096-5.873-67.147 38.813zm68.041-32.357h.01-.01z"/></g></g></g></g></svg></g><g transform="translate(1158.0 1746.0) rotate(0.0 160.0 177.0) scale(1.0224622168258937 1.02601855528472)"><svg width="312.97" height="345.023" viewBox="0 0 312.97 345.023"><g stroke="#000" stroke-linecap="round" stroke-linejoin="round" stroke-miterlimit="10" stroke-width="2"><path d="m1.547 264.55 151.239.001-.021-176.322H1.12z" fill="#87c159"/><path d="M152.767 88.639s.154-58.579.163-87.638C102.237.926.653 20.476 1.121 88.638l151.646.001z" fill="#dbf301"/><path d="m166.142 248.939 106.168-61.455.308-138.744-106.453 61.289z"/><path d="M272.618 48.74c-31.906-18.41-69.995-25.412-106.482-25.541l.029 86.83z" fill="#fff"/><path d="m160.586 253.092 106.673 61.753.308-120.978-106.96-61.587z" fill="#dbf301"/><path d="M311.563 246.305c.261 2.062-.335 14.705-1.779 19.794-5.938 20.928-23.252 37.539-41.712 48.297-.272.147-.544.306-.816.453l.419-105.575.464-138.867c19.739 11.388 43.83 61.337 43.83 61.337l-.419 114.448v.068z"/><g fill="#fff"><path d="M268.303 193.456c35.942-20.534 59.586-60.805 30.391-97.755-8.249-10.44-19.096-18.676-30.554-25.299-35.807 20.625-71.238 42.13-107.534 61.878l106.96 61.587zm-9.625 20.101v.068l-.204 105.088-2.799 1.564c-35.705 19.377-78.176 25.553-118.357 23.309-47.932-2.777-135.015-24.533-135.899-86.403l-.306-102.267-.011-2.697 48.617 13.686 156.764 27.59z"/><path d="m258.746 213.591-.068.034c-20.691 11.751-43.955 18.663-67.4 22.266-43.184 6.629-90.017 2.924-130.312-14.708-27.229-11.921-57.791-34.006-59.853-66.267A41.95 41.95 0 0 1 1 152.219h151.207l63.944 36.839 42.527 24.499z"/></g></g></svg></g><g transform="translate(681.0 1428.0) rotate(0.0 112.5 190.5) scale(1.0533658550287686 1.0543356440164378)"><svg width="213.601" height="361.365" viewBox="0 0 213.601 361.365"><g stroke="#000" stroke-miterlimit="10"><path d="m67.459 306.449.035 30.638 39.904 23.278v-30.659z" fill="#dbf301" stroke-linecap="round" stroke-linejoin="round" stroke-width="2"/><path d="M58.624 236.722 1.629 269.68l40.026 23.31 56.995-33.047z" fill="none" stroke-width=".25"/><g stroke-linecap="round" stroke-linejoin="round" stroke-width="2"><path d="M111.47 92.65c.555 2.01.937 4.064 1.144 6.139l40.15 23.066c-.205-2.076-3.79-17.991-4.341-20.002z"/><path d="M172.581 171.896c-.188 47.533-34.076 91.654-72.229 116.847l.006 29.225-32.863 19.12-.035-30.638c-13.467 5.404-29.936 9.678-44.066 4.092C6.84 303.996 2.379 285.823 1.629 269.68l56.994-32.958c2.975 33.623 37.352 10.32 49.409-5.401 12.265-15.991 13.69-42.607-11.886-39.147-20.374 2.757-39.407 12.652-60.221 13.49C8.64 206.762.362 183.499 1.037 159.853c1.269-44.471 31.681-83.825 66.125-109.315l-.035-30.594L100.294 1l.006 29.838c14.376-6.44 32.861-12.755 48.262-5.885 15.751 7.027 20.017 25.409 21.112 41.044l-57.06 32.792c-3.536-38.484-58.789 3.328-54.672 30.719 4.315 28.707 67.525-.002 84.235.74 23.308 1.035 30.441 21.172 30.404 41.648z" fill="#fff"/><path d="M102.007 191.599c24.565-1.975 12.751 32.292 3.624 42.543-12.98 14.578-44.285 34.782-47.006 2.579l40.026 23.221c2.684 32.232 34.019 11.934 46.978-2.636 9.167-10.306 20.988-44.42-3.571-42.567z"/><path d="M107.397 43.012v30.606C77.188 96.021 50.14 128.826 42.989 166.65c-2.198 11.626 11.21 56.111 11.21 56.111s-36.03-19.686-41.445-24.841C3.699 189.299.614 174.65 1.04 159.851c1.269-44.476 31.683-83.819 66.12-109.314l-.034-30.595zm41.165-18.059c-15.402-6.871-33.886-.556-48.262 5.885l40.238 23.034c14.356-6.453 49.852-5.161 49.852-5.161s-26.076-16.731-41.828-23.758zM1.629 269.68c.749 16.143 4.493 31.583 19.393 41.32 3.902 2.55 41.28 22.407 41.28 22.407s-19.92-24.29-20.647-40.417z" fill="#87c159"/><path d="M199.932 159.366c-12.397 1.654-66.288 7.484-66.288 7.484s-27.493 3.223-33.679-7.95c-3.365-6.074-3.218-12.771-1.053-19.23 17.405-3.649 34.577-8.339 42.271-9.832 10.346-2.007 20.052.753 29.264 5.087 13.018 6.125 22.949 17.769 29.485 24.441z"/><path d="M212.563 197.42c.479-18.451-3.372-38.366-23.785-43.25-17.29-4.137-37.996 4.515-54.646 8.245-10.113 2.266-27.978 7.661-34.173-3.521-9.011-16.267 7.172-36.967 19.927-45.771 13.153-9.079 31.02-11.839 32.877 8.73l57.06-32.88c-1.073-15.62-5.303-34.027-21.05-41.047-15.397-6.864-33.881-.509-48.237 5.944l.029-29.858L107.4 43.008v30.615c-30.211 22.395-57.259 55.207-64.411 93.031-4.384 23.183-3.697 58.184 26.059 62.048 20.504 2.663 41.541-7.986 61.189-12.25 6.824-1.481 16.313-3.853 22.152 1.129 8.827 7.533 3.778 23.84-1.032 32.087-10.12 17.355-49.678 46.33-52.707 10.274L41.655 292.99c.728 16.127 5.151 34.326 21.701 40.863 14.124 5.578 30.592 1.272 44.041-4.146v30.659l32.863-19.171.028-29.244c37.62-24.909 70.751-67.838 72.275-114.531z" fill="#87c159"/><path d="M100.294 1 67.127 19.944 107.4 43.008l33.167-18.995zM1.629 269.68l40.918 22.793 56.103-32.53-40.026-23.221z" fill="#dbf301"/></g></g></svg></g><g transform="translate(955.0 524.0) rotate(0.0 438.0 513.5) scale(1.0205460620436084 1.0202104991283012)"><svg width="858.364" height="1006.655" viewBox="0 0 858.364 1006.655"><g stroke="#000" stroke-miterlimit="10"><path d="m11.965 1.106 1.415 517.093 843.984 487.456" fill="none" stroke-linecap="round" stroke-linejoin="round" stroke-width="2"/><path d="M.787 24.937 11.965 1.106l13.006 23.831z"/><path d="m848.131 981.913 9.233 23.742-28.366-2.958" fill="none" stroke-linecap="round" stroke-linejoin="round" stroke-width="2"/><path d="m55.37 402.265 20.615 10.637-20.366 81.933-40.045 23.019-.283-92.591z" fill="#fff" stroke-linecap="round" stroke-linejoin="round" stroke-width="2"/><path d="m55.619 494.835 621.256 359.334-40.044 23.328L15.574 517.854z" fill="none" stroke-width=".25"/><g stroke-linecap="round" stroke-linejoin="round" stroke-width="2"><path d="m676.875 854.169.288-93.133-40.079 23.307-.253 93.154z"/><path d="M352.371 317.068c-13.548 5.103-20.662 18.619-24.895 30.889-6.626 19.207-10.992 39.113-17.519 58.351-4.254 12.54-10.217 32.237-23.96 37.673-14.259 5.64-28.755-8.322-36.809-18.474-25.848-32.58-32.878-77.756-48.221-115.521-8.214-20.218-26.962-57.86-50.212-57.86-10.724 0-47.423 26.155-47.423 26.155s41.568 20.431 51.419 40.905c18.374 38.185 24.876 81.747 46.775 118.297 7.438 12.415 20.506 30.121 36.615 30.858 14.472.663 22.152-14.981 26.959-26.27 7.713-18.115 12.021-37.579 17.612-56.4 4.481-15.083 10.843-36.685 22.911-47.818z" fill="#fff"/><path d="M558.618 512.799c-15.954 2.174-27.622 19.997-39.518 35.066-7.661 9.704-17.029 19.124-30.387 18.011-19.352-1.613-32.665-19.787-40.501-35.678-12.726-25.808-23.831-107.39-44.757-163.126-13.425-35.757-31.861-61.26-55.424-53.808l-38.228 22.037c10.07 39.82 77.003 161.625 90.937 200.392 9.921 27.603 40.483 74.645 72.068 42.622 13.294-13.478 23.929-38.877 42.96-42.432z" fill="#fff"/><path d="M512.306 536.567c4.655-.87 13.273-1.118 19.094 1.12 39.676 15.255 48.427 74.847 56.118 111.108 8.951 42.202 13.371 106.547 49.566 135.548l40.079-23.307c-32.644-26.168-38.384-81.549-46.282-119.877-7.888-38.28-14.07-94.483-47.466-119.924-9.43-7.184-22.01-13.192-35.324-6.097z" fill="#fff"/><path d="m636.831 877.497.253-93.154c-34.838-27.921-39.801-88.791-48.302-129.524-7.812-37.432-16.632-105.209-60.151-118.135-31.119-9.243-41.614 32.192-61.425 46.688-40.017 29.281-66.544-44.83-73.623-70.768-11.653-42.698-16.57-87.466-31.9-129.129-6.591-17.914-19.845-48.212-42.51-49.842-19.156-1.377-27.285 24.021-32.12 38.199-7.283 21.354-18.838 109.824-56.656 94.479-20.311-8.241-31.922-32.278-39.927-51.111-10.444-24.572-17.438-50.433-26.968-75.348-7.853-20.532-17.562-43.91-36.019-57.234-21.046-15.192-34.901.083-42.855 20.188-8.459 21.38-12.505 44.425-17.942 66.691-4.329 17.729-8.974 50.347-27.098 60.048-8.434 4.514-17.036.852-24.298-4.282l.283 92.591z" fill="#89BF19"/></g></g></svg></g><g transform="translate(1438.0 650.0) rotate(0.0 196.5 236.5) scale(1.0209913748311337 1.022068467783235)"><svg width="384.92" height="462.787" viewBox="0 0 384.92 462.787"><g stroke="#000" stroke-linecap="round" stroke-linejoin="round" stroke-miterlimit="10" stroke-width="2"><g fill="#fff"><path d="M57.831 267.083 83.659 68.598m19.196 270.274 25.829-198.485m33.089 120.611 25.829-198.485m23.932 248.274 25.829-198.484m22.574 240.55 25.828-198.485m16.183 273.616 25.829-198.485"/></g><path d="m206.227 92.845-19.489 139.178-35.594-20.478 19.394-139.103z" fill="#adc4cb"/><path d="m142.318 193.888-17.581 126.261L89.3 299.657l17.497-126.194zm-44.393-72.056L81.233 242.433 45.85 222.017 62.46 101.48zm245.382 166.402-15.206 106.633-35.799-20.665 15.133-106.577zm-94.223-110.646-13.602 96.555-35.669-20.532 13.537-96.504zm47.551 51.911-11.741 82.84-35.748-20.586 11.685-82.797z" fill="#fff"/></g></svg></g><g transform="translate(1836.0 900.0) rotate(0.0 138.5 191.0) scale(1.0272385084645195 1.0287068454785373)"><svg width="269.655" height="371.34" viewBox="0 0 269.655 371.34"><path d="M33.479 1 1 235.259 236.188 370.34l32.467-234.339z" style="fill:#adc4cb;stroke:#000;stroke-width:2;stroke-linecap:round;stroke-linejoin:round;stroke-miterlimit:10"/></svg></g><g transform="translate(2159.0 1065.0) rotate(0.0 75.5 57.5) scale(1.1942612189373447 1.188200650927313)"><svg width="126.438" height="96.785" viewBox="0 0 126.438 96.785"><path d="m122.14 95.785 3.298-25.331L4.296 1 1 26.33z" style="fill:#fff;stroke:#000;stroke-width:2;stroke-linecap:round;stroke-linejoin:round;stroke-miterlimit:10"/></svg></g><g transform="translate(2129.0 1183.0) rotate(0.0 73.0 87.5) scale(1.1802176127269493 1.1704198128665921)"><svg width="123.706" height="149.519" viewBox="0 0 123.706 149.519"><g stroke="#000" stroke-linecap="round" stroke-linejoin="round" stroke-miterlimit="10" stroke-width="2"><path d="m57.355 130.233-14.308 4.22S21.221 84.671 17.372 65.217c-4.974-25.137-6.72-48.754 7.393-56.339C35.793 2.951 49.812-1.261 63.199 2.32c8.623 2.306 16.918 7.04 24.438 13.471L67.169 66.713z" fill="#fff"/><path d="M43.047 134.453C24.406 121.891 8.265 98.388 2.832 70.933-5.652 28.057 16.302-.62 48.659 8.035c8.623 2.306 16.918 7.04 24.438 13.471L52.629 72.428z" fill="#fff"/><path d="M73.098 21.506 52.629 72.428l-9.582 62.025 14.308-4.22 9.814-63.52 20.468-50.922z"/><path d="m72.163 78.589 50.543 26.357s-2.166 31.363-35.611 40.672c-7.798-.157-15.922-4.096-23.65-8.53l-4.035-54.2z" fill="#87c159"/><path d="m109.953 109.245 12.753-4.299s-2.166 31.363-35.611 40.672z"/><path d="m59.41 82.888 50.543 26.357s-7.614 39.957-35.694 39.265c-7.798-.157-15.839-2.689-23.566-7.123z" fill="#87c159"/><path d="M95.886 25.469s22.614 21.092 25.302 55.159c.348 4.405-.172 10.696-.172 10.696l-13.389 4.48-37.089-25.926 11.666-39.34z"/><path d="M82.204 30.538s22.614 21.092 25.302 55.159c.348 4.405-.172 10.696-.172 10.696L56.857 74.948z" fill="#adc4cb"/></g></svg></g><g transform="translate(179.0 869.0) rotate(0.0 309.5 256.0) scale(1.024515548140645 1.0229790668912424)"><svg width="604.188" height="500.499" viewBox="0 0 604.188 500.499"><g stroke="#89BF19" stroke-linecap="round" stroke-linejoin="round" stroke-miterlimit="10" stroke-width="2"><path d="M568.149 71.643 369.282 381.982 201.947 224.729 28.752 472.345v27.154l171.211-247.901L367.471 408.24 568.223 96.796z" fill="#89BF19"/><path d="M537.411 55.6 343.966 358.232l25.35 23.697L568.149 71.643l35.039 25.997L594.145 1l-90.078 31.994z" fill="#89BF19"/><path d="m504.067 32.994.065 24.632 22.654 14.596L537.411 55.6zm64.082 38.649.074 25.153 34.965 23.528V97.64z" fill="#fff"/><path d="m174.198 206.942 27.749 17.787L28.752 472.345 1 458.802z" fill="#89BF19"/><path d="M1 458.802v27.106l27.752 13.591v-27.154z" fill="#fff"/></g></svg></g></svg>