<svg width="25" height="25" viewBox="0 0 25 25" fill="none" xmlns="http://www.w3.org/2000/svg">
<path d="M13.6914 12.9102L9.59961 17.0117C9.48843 17.1236 9.33741 17.1868 9.17969 17.1875C9.065 17.1859 8.95332 17.1507 8.85847 17.0862C8.76362 17.0217 8.68978 16.9308 8.64611 16.8247C8.60244 16.7187 8.59086 16.6021 8.6128 16.4895C8.63474 16.377 8.68923 16.2733 8.76953 16.1914L11.8652 13.0859H2.34375C2.18835 13.0859 2.03931 13.0242 1.92943 12.9143C1.81954 12.8044 1.75781 12.6554 1.75781 12.5C1.75781 12.3446 1.81954 12.1956 1.92943 12.0857C2.03931 11.9758 2.18835 11.9141 2.34375 11.9141H11.8652L8.76953 8.80859C8.71399 8.75569 8.66976 8.69206 8.63955 8.62156C8.60933 8.55105 8.59375 8.47514 8.59375 8.39844C8.59375 8.32173 8.60933 8.24582 8.63955 8.17532C8.66976 8.10482 8.71399 8.04118 8.76953 7.98828C8.82328 7.93246 8.88775 7.88805 8.95906 7.85772C9.03037 7.82739 9.10707 7.81175 9.18457 7.81176C9.26207 7.81175 9.33877 7.82739 9.41008 7.85772C9.48139 7.88805 9.54586 7.93246 9.59961 7.98828L13.6914 12.0898L13.7207 12.1191L13.7402 12.1387C13.76 12.1624 13.7764 12.1887 13.7891 12.2168H13.7988C13.8425 12.3013 13.8653 12.3951 13.8653 12.4902C13.8653 12.5854 13.8425 12.6791 13.7988 12.7637H13.7891C13.7764 12.7918 13.76 12.8181 13.7402 12.8418L13.7207 12.8613L13.6914 12.9102ZM18.75 3.32031H13.2812C13.1258 3.32031 12.9768 3.38204 12.8669 3.49193C12.757 3.60181 12.6953 3.75085 12.6953 3.90625C12.6953 4.06165 12.757 4.21069 12.8669 4.32057C12.9768 4.43046 13.1258 4.49219 13.2812 4.49219H18.75C18.8018 4.49219 18.8515 4.51276 18.8881 4.54939C18.9247 4.58602 18.9453 4.6357 18.9453 4.6875V20.3125C18.9453 20.3643 18.9247 20.414 18.8881 20.4506C18.8515 20.4872 18.8018 20.5078 18.75 20.5078H13.2812C13.1258 20.5078 12.9768 20.5695 12.8669 20.6794C12.757 20.7893 12.6953 20.9383 12.6953 21.0938C12.6953 21.2492 12.757 21.3982 12.8669 21.5081C12.9768 21.618 13.1258 21.6797 13.2812 21.6797H18.75C19.1126 21.6797 19.4604 21.5356 19.7167 21.2792C19.9731 21.0229 20.1172 20.6751 20.1172 20.3125V4.6875C20.1172 4.3249 19.9731 3.97715 19.7167 3.72075C19.4604 3.46436 19.1126 3.32031 18.75 3.32031Z" fill="white"/>
</svg>
