<svg xmlns="http://www.w3.org/2000/svg" xmlns:xlink="http://www.w3.org/1999/xlink" viewBox="0,0,256,256" width="32px" height="32px" fill-rule="nonzero"><g fill="#ffffff" fill-rule="nonzero" stroke="none" stroke-width="1" stroke-linecap="butt" stroke-linejoin="miter" stroke-miterlimit="10" stroke-dasharray="" stroke-dashoffset="0" font-family="none" font-weight="none" font-size="none" text-anchor="none" style="mix-blend-mode: normal"><g transform="scale(5.12,5.12)"><path d="M19,2c-0.52222,0 -1.05461,0.19133 -1.43164,0.56836c-0.37703,0.37703 -0.56836,0.90942 -0.56836,1.43164h-8c-1.654,0 -3,1.346 -3,3v38c0,1.654 1.346,3 3,3h32c1.388,0 2.55939,-0.94652 2.90039,-2.22852c0.065,-0.246 0.09961,-0.50548 0.09961,-0.77148v-38c0,-1.654 -1.346,-3 -3,-3h-8c0,-0.52222 -0.19133,-1.05461 -0.56836,-1.43164c-0.37703,-0.37703 -0.90942,-0.56836 -1.43164,-0.56836zM19,4h12v6h-12zM9,6h8v2h-7v36h30v-36h-7v-2h8c0.551,0 1,0.448 1,1v38c0,0.552 -0.449,1 -1,1h-32c-0.551,0 -1,-0.448 -1,-1v-38c0,-0.552 0.449,-1 1,-1zM12,10h5c0,0.52222 0.19133,1.05461 0.56836,1.43164c0.37703,0.37703 0.90942,0.56836 1.43164,0.56836h12c0.52222,0 1.05461,-0.19133 1.43164,-0.56836c0.37703,-0.37703 0.56836,-0.90942 0.56836,-1.43164h5v32h-26zM33.99414,16.98828c-0.32949,0.00455 -0.63559,0.17112 -0.81836,0.44531l-9.63477,14.04883l-6.86523,-6.30273c-0.26044,-0.25721 -0.64058,-0.3516 -0.99108,-0.24607c-0.3505,0.10553 -0.61535,0.3941 -0.69048,0.75235c-0.07514,0.35825 0.05144,0.72892 0.33,0.96638l8.5625,7.86328l10.9375,-15.94922c0.21761,-0.30717 0.2443,-0.71052 0.06905,-1.04369c-0.17524,-0.33317 -0.52272,-0.53971 -0.89913,-0.53443z"></path></g></g></svg>