<svg width="20" height="19" viewBox="0 0 20 19" fill="none" xmlns="http://www.w3.org/2000/svg">
<path d="M12.6914 9.91016L8.59961 14.0117C8.48843 14.1236 8.33741 14.1868 8.17969 14.1875C8.065 14.1859 7.95332 14.1507 7.85847 14.0862C7.76362 14.0217 7.68978 13.9308 7.64611 13.8247C7.60244 13.7187 7.59086 13.6021 7.6128 13.4895C7.63474 13.377 7.68923 13.2733 7.76953 13.1914L10.8652 10.0859H1.34375C1.18835 10.0859 1.03931 10.0242 0.92943 9.91432C0.819545 9.80444 0.757812 9.6554 0.757812 9.5C0.757812 9.3446 0.819545 9.19556 0.92943 9.08568C1.03931 8.9758 1.18835 8.91406 1.34375 8.91406H10.8652L7.76953 5.80859C7.71399 5.75569 7.66976 5.69206 7.63955 5.62156C7.60933 5.55105 7.59375 5.47514 7.59375 5.39844C7.59375 5.32173 7.60933 5.24582 7.63955 5.17532C7.66976 5.10481 7.71399 5.04118 7.76953 4.98828C7.82328 4.93246 7.88775 4.88805 7.95906 4.85772C8.03037 4.82739 8.10707 4.81175 8.18457 4.81175C8.26207 4.81175 8.33877 4.82739 8.41008 4.85772C8.48139 4.88805 8.54586 4.93246 8.59961 4.98828L12.6914 9.08984L12.7207 9.11914L12.7402 9.13867C12.76 9.16239 12.7764 9.18867 12.7891 9.2168H12.7988C12.8425 9.30133 12.8653 9.39509 12.8653 9.49023C12.8653 9.58538 12.8425 9.67914 12.7988 9.76367H12.7891C12.7764 9.7918 12.76 9.81808 12.7402 9.8418L12.7207 9.86133L12.6914 9.91016ZM17.75 0.320312H12.2812C12.1258 0.320313 11.9768 0.382045 11.8669 0.49193C11.757 0.601814 11.6953 0.75085 11.6953 0.90625C11.6953 1.06165 11.757 1.21069 11.8669 1.32057C11.9768 1.43046 12.1258 1.49219 12.2812 1.49219H17.75C17.8018 1.49219 17.8515 1.51276 17.8881 1.54939C17.9247 1.58602 17.9453 1.6357 17.9453 1.6875V17.3125C17.9453 17.3643 17.9247 17.414 17.8881 17.4506C17.8515 17.4872 17.8018 17.5078 17.75 17.5078H12.2812C12.1258 17.5078 11.9768 17.5695 11.8669 17.6794C11.757 17.7893 11.6953 17.9383 11.6953 18.0938C11.6953 18.2492 11.757 18.3982 11.8669 18.5081C11.9768 18.618 12.1258 18.6797 12.2812 18.6797H17.75C18.1126 18.6797 18.4603 18.5356 18.7167 18.2792C18.9731 18.0228 19.1172 17.6751 19.1172 17.3125V1.6875C19.1172 1.3249 18.9731 0.97715 18.7167 0.720753C18.4603 0.464355 18.1126 0.320312 17.75 0.320312Z" fill="white"/>
</svg>
