<svg width="14" height="14" viewBox="0 0 14 14" fill="none" xmlns="http://www.w3.org/2000/svg">
<path d="M7.69997 5.5267L5.66664 4.00003V10L7.69997 8.47336L9.66664 7.00003L7.69997 5.5267ZM7.69997 5.5267L5.66664 4.00003V10L7.69997 8.47336L9.66664 7.00003L7.69997 5.5267ZM7.69997 5.5267L5.66664 4.00003V10L7.69997 8.47336L9.66664 7.00003L7.69997 5.5267ZM6.3333 1.71337V0.366699C4.9933 0.500033 3.7733 1.03337 2.78664 1.84003L3.7333 2.79337C4.48661 2.20529 5.38504 1.83209 6.3333 1.71337ZM2.7933 3.73337L1.83997 2.7867C1.00985 3.79776 0.497242 5.03172 0.366638 6.33337H1.7133C1.8333 5.36003 2.21997 4.47337 2.7933 3.73337ZM1.7133 7.6667H0.366638C0.499972 9.0067 1.0333 10.2267 1.83997 11.2134L2.7933 10.26C2.20421 9.50986 1.83082 8.61326 1.7133 7.6667ZM2.78664 12.16C3.79836 12.9891 5.03197 13.5015 6.3333 13.6334V12.2867C5.38504 12.168 4.48661 11.7948 3.7333 11.2067L2.78664 12.16ZM13.6666 7.00003C13.6666 10.44 11.0533 13.28 7.69997 13.6334V12.2867C10.3133 11.94 12.3333 9.70003 12.3333 7.00003C12.3333 4.30003 10.3133 2.06003 7.69997 1.71337V0.366699C11.0533 0.720033 13.6666 3.56003 13.6666 7.00003Z" fill="#89BF19"/>
</svg>
