<svg xmlns="http://www.w3.org/2000/svg" xmlns:xlink="http://www.w3.org/1999/xlink" viewBox="0,0,256,256" width="50px" height="50px" fill-rule="nonzero"><g fill="#89bf19" fill-rule="nonzero" stroke="none" stroke-width="1" stroke-linecap="butt" stroke-linejoin="miter" stroke-miterlimit="10" stroke-dasharray="" stroke-dashoffset="0" font-family="none" font-weight="none" font-size="none" text-anchor="none" style="mix-blend-mode: normal"><g transform="scale(5.12,5.12)"><path d="M43,26v-3.96875c0,-4.42969 -3.60547,-8.03125 -8.03125,-8.03125h-8.96875v-3.14062c1.72266,-0.44922 3,-2 3,-3.85937c0,-2.20703 -1.79297,-4 -4,-4c-2.20703,0 -4,1.79297 -4,4c0,1.85938 1.28125,3.41016 3,3.85938v3.14063h-8.96875c-4.42578,0 -8.03125,3.60156 -8.03125,8.03125v3.96875h-5v12h5v9h36v-9h5v-12zM27,38v7h-4v-7zM15,26.5c0,-1.93359 1.56641,-3.5 3.5,-3.5c1.93359,0 3.5,1.56641 3.5,3.5c0,1.93359 -1.56641,3.5 -3.5,3.5c-1.93359,0 -3.5,-1.56641 -3.5,-3.5zM17,38h4v7h-4zM33,45h-4v-7h4zM31.5,30c-1.93359,0 -3.5,-1.56641 -3.5,-3.5c0,-1.93359 1.56641,-3.5 3.5,-3.5c1.93359,0 3.5,1.56641 3.5,3.5c0,1.93359 -1.56641,3.5 -3.5,3.5z"></path></g></g></svg>