<svg xmlns="http://www.w3.org/2000/svg" xmlns:xlink="http://www.w3.org/1999/xlink" viewBox="0,0,256,256" width="50px" height="50px" fill-rule="nonzero"><g fill="#89bf19" fill-rule="nonzero" stroke="none" stroke-width="1" stroke-linecap="butt" stroke-linejoin="miter" stroke-miterlimit="10" stroke-dasharray="" stroke-dashoffset="0" font-family="none" font-weight="none" font-size="none" text-anchor="none" style="mix-blend-mode: normal"><g transform="scale(5.12,5.12)"><path d="M25,3c-6.065,0 -11,4.935 -11,11c0,6.065 4.935,11 11,11c6.065,0 11,-4.935 11,-11c0,-6.065 -4.935,-11 -11,-11zM24,7h0.0957h1.82227h0.08008v1.77148c0.733,0.137 1.37142,0.47877 1.85742,1.00977c0.555,0.608 0.87014,1.44275 0.86914,2.21875h-1.85547c-0.051,-0.793 -0.42384,-1.66406 -1.83984,-1.66406c-1.301,0 -1.90625,0.51047 -1.90625,1.60547c0,0.915 0.81767,1.14847 2.26367,1.48047c1.61,0.37 3.61428,0.8297 3.61328,3.2207c0,0.455 -0.154,2.66105 -3,3.12305v1.23438h-0.08203h-1.82031h-0.0957v-1.26562c-1.946,-0.37 -2.92828,-1.56992 -2.98828,-3.66992l-0.00195,-0.06445h1.85742l-0.00195,0.0625c-0.017,0.663 0.15662,1.18202 0.51562,1.54102c0.608,0.608 1.57814,0.61523 1.61914,0.61523c1.866,0 2.14453,-0.9795 2.14453,-1.5625c0,-0.972 -0.81767,-1.20334 -2.26367,-1.52734c-1.611,-0.36 -3.61523,-0.8072 -3.61523,-3.2832c0,-0.279 0.08442,-2.63217 2.73242,-3.07617zM13.40039,24.90039c-2.5,0 -4.70039,0.89961 -12.90039,4.59961c-0.5,0.2 -0.7,0.80078 -0.5,1.30078l5.30078,11.79883c0.1,0.3 0.39961,0.49961 0.59961,0.59961c0.3,0.1 0.59883,0.00039 0.79883,-0.09961l2.70117,-1.79883c1.2,-0.8 1.69883,-0.90156 3.29883,-0.10156l2.10156,1.10156c2.5,1.3 5.89844,3.09961 6.89844,3.59961c1.6,0.8 2.9,1.09961 4,1.09961c2,0 3.3,-0.79961 4.5,-1.59961c1.2,-0.8 15.80156,-10.30117 17.10156,-11.20117c1.6,-1.1 2.59961,-2.39844 2.59961,-3.39844c0.1,-2.8 -2.6,-3.5 -5,-2l-10.70117,7.19922c-1.7,1 -3.19922,0.90039 -4.19922,0.90039h-6c-2.7,0 -5.99961,-1 -6.09961,-1c-0.3,-0.1 -0.40078,-0.39961 -0.30078,-0.59961c0.1,-0.3 0.29961,-0.40078 0.59961,-0.30078h0.10156c0.3,0.1 3.6,1 6,1h5.69922c0.8,0 1.40078,-0.2 1.80078,-0.5c0.4,-0.3 0.69844,-0.6 0.89844,-1c0,-0.1 0.10156,-0.09922 0.10156,-0.19922v-0.10156c0.1,-0.3 0.09961,-0.49883 0.09961,-0.79883c0,-1.2 -1,-2.4 -3,-2.5c-1.6,-0.1 -3.79961,-0.5 -5.59961,-1c-1,-0.3 -1.70156,-0.60078 -2.10156,-0.80078c-0.3,-0.2 -0.6,-0.50039 -1,-0.90039c-1.2,-1.3 -2.99883,-3.29883 -7.79883,-3.29883zM35.09961,24.90039c-1.1,0 -2.29883,0.39961 -3.29883,1.09961c-0.7,0.4 -3.7,2.30039 -5.5,3.40039c1.3,0.3 2.69922,0.5 3.69922,0.5c0.7,0 1.40039,0.20039 1.90039,0.40039l6.5,-4.40039c0,0 -1.50078,-1 -3.30078,-1zM41.69922,26c-1,0 -2.19844,0.4 -3.89844,1.5l-5,3.40039c0.8,0.7 1.19922,1.6 1.19922,2.5c0,0.6 -0.19961,1.30039 -0.59961,1.90039l0.09961,-0.10156l0.09961,-0.09961l11,-7.29883c-0.3,-1.3 -1.90039,-1.80078 -2.90039,-1.80078z"></path></g></g></svg>