<svg xmlns="http://www.w3.org/2000/svg" xmlns:xlink="http://www.w3.org/1999/xlink" viewBox="0,0,256,256" width="50px" height="50px" fill-rule="nonzero"><g fill="#89bf19" fill-rule="nonzero" stroke="none" stroke-width="1" stroke-linecap="butt" stroke-linejoin="miter" stroke-miterlimit="10" stroke-dasharray="" stroke-dashoffset="0" font-family="none" font-weight="none" font-size="none" text-anchor="none" style="mix-blend-mode: normal"><g transform="scale(5.12,5.12)"><path d="M25,2c-12.683,0 -23,10.318 -23,23c0,12.682 10.317,23 23,23c2.66,0 5.21345,-0.457 7.5918,-1.29297h0.00195c0.11396,0.12626 0.22607,0.25342 0.34766,0.375c3.889,3.889 10.25162,3.889 14.14063,0c3.889,-3.889 3.889,-10.25162 0,-14.14062c-0.12136,-0.12136 -0.25093,-0.22802 -0.37695,-0.3418c0.83765,-2.38049 1.29492,-4.93679 1.29492,-7.59961c0,-12.682 -10.317,-23 -23,-23zM24,10h2.05078v2.80078c4.8,0.2 6.79961,4.29961 6.59961,7.09961h-2.09961c-0.1,-1.7 -0.7,-5.5 -5.5,-5.5c-4.7,0 -5.60156,2.7 -5.60156,5c0,6.9 13.70117,2.29883 13.70117,11.29883c0,1 -0.45039,6 -7.15039,6.5v2.80078h-2v-2.80078c-2.7,-0.3 -6.95039,-1.19844 -7.15039,-7.89844h2.09961c-0.2,6.3 5.90156,6.29883 6.10156,6.29883c5.9,0 6.09961,-4.00039 6.09961,-4.90039c0,-7.1 -13.70117,-2.1 -13.70117,-11.5c0,-1.9 0.95078,-6.09844 6.55078,-6.39844zM40.01172,32.02148c2.05063,0.00012 4.1022,0.77848 5.6582,2.33398c3.112,3.111 3.111,8.20345 0,11.31445c-3.111,3.111 -8.20245,3.111 -11.31445,0c-3.112,-3.111 -3.111,-8.20245 0,-11.31445c1.5555,-1.556 3.60563,-2.33411 5.65625,-2.33398zM40.01172,34.07227c-0.566,0 -0.99023,0.42423 -0.99023,0.99023v3.95898h-3.95898c-0.566,0 -0.99023,0.42423 -0.99023,0.99023c0,0.566 0.42423,0.99023 0.99023,0.99023h3.95898v3.96094c0,0.566 0.42423,0.98828 0.99023,0.98828c0.283,0 0.56603,-0.13925 0.70703,-0.28125c0.141,-0.142 0.2832,-0.42403 0.2832,-0.70703v-3.96094h3.96094c0.283,0 0.56603,-0.1412 0.70703,-0.2832c0.141,-0.141 0.28125,-0.42403 0.28125,-0.70703c0,-0.566 -0.42228,-0.99023 -0.98828,-0.99023h-3.96094v-3.95898c0,-0.566 -0.42423,-0.99023 -0.99023,-0.99023z"></path></g></g></svg>