<svg xmlns="http://www.w3.org/2000/svg" xmlns:xlink="http://www.w3.org/1999/xlink" viewBox="0,0,256,256" width="50px" height="50px" fill-rule="nonzero"><g fill="#89bf19" fill-rule="nonzero" stroke="none" stroke-width="1" stroke-linecap="butt" stroke-linejoin="miter" stroke-miterlimit="10" stroke-dasharray="" stroke-dashoffset="0" font-family="none" font-weight="none" font-size="none" text-anchor="none" style="mix-blend-mode: normal"><g transform="scale(5.12,5.12)"><path d="M25,0.09766c-1.981,0 -3.77005,0.94114 -6.24805,2.24414c-3.192,1.679 -7.5648,3.97556 -14.9668,5.60156l-0.78516,0.17188v0.80469c0,30.465 21.36408,40.6803 21.58008,40.7793l0.44141,0.20313l0.43164,-0.21875c0.216,-0.11 21.54688,-11.31367 21.54688,-40.76367v-0.80469l-0.78516,-0.17187c-7.402,-1.626 -11.7748,-3.92256 -14.9668,-5.60156c-2.478,-1.302 -4.26705,-2.24414 -6.24805,-2.24414zM23.90039,11.5h2v2.09961c1.4,0.2 2.69961,0.80078 3.59961,1.80078c1,1 1.50039,2.60039 1.40039,3.90039v0.19922h-2.09961v-0.19922c0,-1.2 -0.40039,-3.90039 -3.90039,-3.90039c-2.7,0 -4,1.2 -4,3.5c0,2.2 2.1,2.69883 4.5,3.29883c2.8,0.6 5.99961,1.40078 6.09961,5.30078c0,0.8 -0.39961,4.69922 -5.59961,5.19922v1.80078h-2v-1.80078c-2.4,-0.3 -5.30039,-1.29922 -5.40039,-6.19922v-0.30078h2.09961v0.30078c0,1.3 0.29961,2.39922 1.09961,3.19922c1.2,1.3 3.10078,1.30078 3.30078,1.30078c4,0 4.40039,-2.5 4.40039,-3.5c0,-2.4 -2.1,-2.80039 -4.5,-3.40039c-2.8,-0.6 -6,-1.40039 -6,-5.40039c0,-0.5 0.1,-4.69961 5,-5.09961z"></path></g></g></svg>