<svg xmlns="http://www.w3.org/2000/svg" xmlns:xlink="http://www.w3.org/1999/xlink" viewBox="0,0,256,256" width="50px" height="50px" fill-rule="nonzero"><g fill="#89bf19" fill-rule="nonzero" stroke="none" stroke-width="1" stroke-linecap="butt" stroke-linejoin="miter" stroke-miterlimit="10" stroke-dasharray="" stroke-dashoffset="0" font-family="none" font-weight="none" font-size="none" text-anchor="none" style="mix-blend-mode: normal"><g transform="scale(5.12,5.12)"><path d="M15.53125,2.58203c-0.19141,0.01172 -0.37891,0.07422 -0.53125,0.1875c-9.50781,6.62109 -11.85156,19.72656 -5.23047,29.23047c3.86719,5.55469 9.94922,8.64063 16.23047,8.94922v3.10547c-4.01953,0.26953 -8.36328,2.01563 -8.36328,2.01563c-0.44922,0.17578 -0.70312,0.64453 -0.61719,1.11719c0.08984,0.46875 0.5,0.8125 0.98047,0.8125h8.83203c0.10938,0.01953 0.21875,0.01953 0.32422,0h8.84375c0.48047,0 0.89063,-0.34375 0.98047,-0.8125c0.08594,-0.47266 -0.16797,-0.94141 -0.61719,-1.11719c0,0 -4.34375,-1.74609 -8.36328,-2.01562v-3.10156c3.82031,-0.17969 7.63672,-1.37891 11,-3.72266c0.30859,-0.19922 0.48047,-0.54687 0.45313,-0.91406c-0.02734,-0.36328 -0.25,-0.67969 -0.58203,-0.83203c-0.33203,-0.15234 -0.71875,-0.11328 -1.01172,0.10547c-3.27344,2.27734 -7.00781,3.38281 -10.70703,3.41016c-0.05859,-0.00781 -0.11328,-0.01562 -0.16797,-0.01562c-0.02734,0.00391 -0.05469,0.00391 -0.08203,0.00391c-5.96484,-0.03125 -11.82031,-2.85547 -15.49219,-8.12891c-6.00391,-8.62109 -3.89062,-20.44531 4.73047,-26.44922c0.35547,-0.24219 0.51953,-0.68359 0.40234,-1.09766c-0.11328,-0.41797 -0.48437,-0.71094 -0.91406,-0.73047c-0.03125,0 -0.06641,0 -0.09766,0zM27,3c-1.77344,0 -3.47656,0.28516 -5.08203,0.79688c1.11719,0.32031 2.30469,0.78906 3.55469,1.44531c1.25391,0.65625 2.47266,1.44922 3.64844,2.33203l4.58594,-3.19141c-2.05859,-0.88672 -4.32422,-1.38281 -6.70703,-1.38281zM18.99609,5.32031c-0.19922,0 -0.38672,0.01172 -0.56641,0.03125c-0.11328,0.07031 -0.23047,0.12891 -0.33984,0.19922l4.56641,6.51953l4.73047,-3.28906c-0.92969,-0.66406 -1.88281,-1.26562 -2.84375,-1.77344c-2.10937,-1.10547 -4.0625,-1.6875 -5.54687,-1.6875zM35.75,5.45313l-4.96875,3.45313c1.54297,1.34766 2.94141,2.85156 4.12891,4.44141l5.47656,-3.79297c-1.28125,-1.63672 -2.85156,-3.02734 -4.63672,-4.10156zM16.44922,6.69531c-0.09375,0.07031 -0.17969,0.15234 -0.26953,0.22656c-0.96484,1.94531 -0.91016,5.60938 0.14844,9.55078l4.6875,-3.25781zM13.56641,9.61719c-2.23047,2.875 -3.56641,6.47266 -3.56641,10.38281c0,0.28516 0.02734,0.5625 0.04297,0.84375l4.53906,-3.15625c-0.84375,-2.87109 -1.19531,-5.69922 -1.01562,-8.07031zM29.07422,10.09766l-5.24609,3.64844l3.4375,4.90625l6,-4.16406c-1.18359,-1.57031 -2.61719,-3.06641 -4.19141,-4.39062zM41.51563,11.20313l-5.46875,3.79297c1.04688,1.66016 1.94141,3.48047 2.64844,5.36328l5,-3.51562c-0.38281,-2.03125 -1.13672,-3.93359 -2.17969,-5.64062zM22.1875,14.88672l-5.23047,3.63281c0.65625,1.86328 1.53516,3.72656 2.62891,5.45703l6.03516,-4.18359zM34.40234,16.13672l-5.99219,4.15234l3.42188,4.89063l5.16016,-3.625c-0.67578,-1.90625 -1.55859,-3.76172 -2.58984,-5.41797zM43.95703,19.15625l-4.58594,3.22656c0.38672,1.32031 0.69141,2.64844 0.875,3.96094c0.20703,1.51172 0.23828,2.88672 0.12891,4.11328c2.26563,-2.88281 3.625,-6.51172 3.625,-10.45703c0,-0.28516 -0.02734,-0.5625 -0.04297,-0.84375zM15.26172,19.70313l-4.95703,3.44531c0.39063,2.06641 1.15625,3.99219 2.22266,5.72266l5.42578,-3.76172c-1.08594,-1.70703 -1.99609,-3.53906 -2.69141,-5.40625zM26.76563,21.42969l-6.03516,4.18359c1.21094,1.59375 2.65625,3.08203 4.25,4.38281l5.21875,-3.66797zM37.64063,23.59766l-4.63672,3.25391l4.50391,6.42969c0.86328,-1.3125 1.16016,-3.72266 0.75781,-6.66406c-0.14062,-0.98828 -0.35156,-2.00391 -0.625,-3.01953zM19.08594,26.75391l-5.41797,3.76172c1.30078,1.64453 2.89844,3.03906 4.71484,4.11328l4.89844,-3.44141c-1.56641,-1.33594 -2.99219,-2.83594 -4.19531,-4.43359zM31.37109,28l-4.68359,3.29297c0.87109,0.59766 1.76563,1.14063 2.67578,1.60938c2.59375,1.32813 4.94141,1.84766 6.49219,1.50391zM24.96484,32.50391l-4.52734,3.17969c2.02344,0.84766 4.23828,1.31641 6.5625,1.31641c1.82813,0 3.58203,-0.30469 5.23438,-0.84375c-1.18359,-0.30469 -2.45312,-0.79297 -3.78125,-1.47266c-1.19531,-0.61719 -2.36328,-1.35937 -3.48828,-2.17969z"></path></g></g></svg>