<svg xmlns="http://www.w3.org/2000/svg" xmlns:xlink="http://www.w3.org/1999/xlink" viewBox="0,0,256,256" width="50px" height="50px" fill-rule="nonzero"><g fill="#89bf19" fill-rule="nonzero" stroke="none" stroke-width="1" stroke-linecap="butt" stroke-linejoin="miter" stroke-miterlimit="10" stroke-dasharray="" stroke-dashoffset="0" font-family="none" font-weight="none" font-size="none" text-anchor="none" style="mix-blend-mode: normal"><g transform="scale(5.12,5.12)"><path d="M25,5c-10.64898,0 -19.36721,8.37937 -19.94531,18.89063c-0.04779,0.71859 0.29441,1.4074 0.89594,1.8034c0.60153,0.39601 1.3695,0.43807 2.01068,0.11012c0.64118,-0.32795 1.05655,-0.97526 1.08752,-1.69477c0.4639,-8.43475 7.39215,-15.10937 15.95117,-15.10937c4.58538,0 8.69889,1.92393 11.61133,5h-1.61133c-0.72127,-0.0102 -1.39216,0.36875 -1.75578,0.99175c-0.36361,0.623 -0.36361,1.39351 0,2.01651c0.36361,0.623 1.0345,1.00195 1.75578,0.99175h5.25977c0.22745,0.03968 0.46005,0.03968 0.6875,0h3.05273v-9c0.00739,-0.54026 -0.2041,-1.06052 -0.58634,-1.44239c-0.38224,-0.38187 -0.90271,-0.59286 -1.44296,-0.58495c-1.1038,0.01618 -1.9858,0.92353 -1.9707,2.02734v2.77734c-3.66814,-4.15535 -9.03615,-6.77734 -15,-6.77734zM29.95117,15.98828c-0.32958,0.0191 -0.6285,0.19962 -0.79883,0.48242l-10,16c-0.20617,0.30316 -0.22994,0.69482 -0.06195,1.02068c0.16799,0.32586 0.50082,0.53369 0.86735,0.5416c0.36653,0.00791 0.70801,-0.18537 0.8899,-0.50368l10,-16c0.1941,-0.3011 0.21233,-0.68303 0.04777,-1.00125c-0.16455,-0.31822 -0.48675,-0.52411 -0.84465,-0.53977c-0.03318,-0.00165 -0.06643,-0.00165 -0.09961,0zM20,16c-1.64497,0 -3,1.35503 -3,3v2v1h0.41602c0.4434,1.10669 1.32736,2 2.58398,2c1.64497,0 3,-1.35503 3,-3v-2c0,-1.64497 -1.35503,-3 -3,-3zM20,18c0.56503,0 1,0.43497 1,1v2c0,0.56503 -0.43497,1 -1,1c-0.56503,0 -1,-0.43497 -1,-1v-2c0,-0.56503 0.43497,-1 1,-1zM43.03125,23.97266c-0.53021,-0.02162 -1.04728,0.16833 -1.43739,0.52804c-0.39012,0.35971 -0.62131,0.85971 -0.64268,1.38992c-0.4639,8.43475 -7.39215,15.10938 -15.95117,15.10938c-4.58478,0 -8.69724,-1.92432 -11.60937,-5h1.60938c0.72127,0.0102 1.39216,-0.36875 1.75578,-0.99175c0.36361,-0.623 0.36361,-1.39351 0,-2.01651c-0.36361,-0.623 -1.0345,-1.00195 -1.75578,-0.99175h-5.2832c-0.20832,-0.03316 -0.42058,-0.03316 -0.62891,0h-3.08789v9c-0.0102,0.72127 0.36875,1.39216 0.99175,1.75578c0.623,0.36361 1.39351,0.36361 2.01651,0c0.623,-0.36361 1.00195,-1.0345 0.99175,-1.75578v-2.77734c3.66802,4.15546 9.03681,6.77734 15,6.77734c10.64898,0 19.36721,-8.37937 19.94531,-18.89062c0.03733,-0.53906 -0.14503,-1.07029 -0.50557,-1.47277c-0.36054,-0.40248 -0.86858,-0.64197 -1.40849,-0.66395zM30,26c-1.64497,0 -3,1.35503 -3,3v2v1h0.41602c0.4434,1.10669 1.32736,2 2.58398,2c1.64497,0 3,-1.35503 3,-3v-2c0,-1.64497 -1.35503,-3 -3,-3zM30,28c0.56503,0 1,0.43497 1,1v2c0,0.56503 -0.43497,1 -1,1c-0.56503,0 -1,-0.43497 -1,-1v-2c0,-0.56503 0.43497,-1 1,-1z"></path></g></g></svg>