<svg xmlns="http://www.w3.org/2000/svg" xmlns:xlink="http://www.w3.org/1999/xlink" viewBox="0,0,256,256" width="50px" height="50px" fill-rule="nonzero"><g fill="#89bf19" fill-rule="nonzero" stroke="none" stroke-width="1" stroke-linecap="butt" stroke-linejoin="miter" stroke-miterlimit="10" stroke-dasharray="" stroke-dashoffset="0" font-family="none" font-weight="none" font-size="none" text-anchor="none" style="mix-blend-mode: normal"><g transform="scale(5.12,5.12)"><path d="M16,0c-8.82031,0 -16,7.17969 -16,16c0,8.82031 7.17969,16 16,16c0.03906,0 0.08594,0 0.125,0c0.34375,-3.07031 1.46484,-5.90625 3.15625,-8.3125c-0.66797,0.25391 -1.39453,0.40625 -2.1875,0.40625c-3.60156,0 -5.70703,-2.10547 -6.40625,-6.40625h-1.6875l0.59375,-1.28125h1v-1.09375h-1.59375l0.59375,-1.3125h1.21875c0.39844,-1.80078 1,-3.21094 2,-4.3125c1.10156,-1.19922 2.48047,-1.78125 4.28125,-1.78125c1.30078,0 2.69922,0.50781 4,1.40625l-1.09375,1.6875c-1,-1 -2.08594,-1.5 -3.1875,-1.5c-1.10156,0 -2.01953,0.50781 -2.71875,1.40625c-0.60156,0.80078 -0.98828,1.69922 -1.1875,3h6.28125l-0.59375,1.28125h-5.78125v1.125h5.5l-0.625,1.28125h-4.78125c0.5,3.19922 1.88672,4.8125 4.1875,4.8125c0.69922,0 1.30469,-0.10547 1.90625,-0.40625c0.39844,-0.19922 0.89844,-0.58594 1.5,-1.1875v1.3125c2.88281,-3.27734 6.93359,-5.49219 11.5,-6c0,-0.03906 0,-0.08594 0,-0.125c0,-8.82031 -7.17969,-16 -16,-16zM40.28125,0.28125l-5,5l-0.6875,0.71875l0.6875,0.71875l5,5l1.4375,-1.4375l-3.28125,-3.28125h4.5625c2.75391,0 5,2.24609 5,5v6h2v-6c0,-3.84375 -3.15625,-7 -7,-7h-4.5625l3.28125,-3.28125zM34,18c-8.82031,0 -16,7.17969 -16,16c0,8.82031 7.17969,16 16,16c8.82031,0 16,-7.17969 16,-16c0,-8.82031 -7.17969,-16 -16,-16zM33.59375,24.1875h1.21875v1.5c1.19922,0.10156 2.17578,0.61328 2.875,1.3125c0.69922,0.69922 1.19922,1.79297 1.5,3.09375h-1.875c-0.30078,-1.5 -1.10156,-2.29297 -2.5,-2.59375v5.5l1.28125,0.40625c0.30078,0.10156 0.60156,0.20703 1,0.40625c0.39844,0.19922 0.82031,0.38281 1.21875,0.78125c0.39844,0.30078 0.67578,0.71875 0.875,1.21875c0.30078,0.5 0.40625,1.08203 0.40625,1.78125c0,0.69922 -0.10547,1.40625 -0.40625,1.90625c-0.19922,0.60156 -0.60156,1.10156 -1,1.5c-0.39844,0.39844 -0.89844,0.69922 -1.5,1c-0.60156,0.19922 -1.19922,0.40625 -2,0.40625v1.78125h-1.1875v-1.78125c-1.5,-0.10156 -2.69922,-0.69531 -3.5,-1.59375c-0.89844,-0.89844 -1.39844,-2.11719 -1.5,-3.71875h1.90625c-0.10156,1.10156 0.28125,1.90625 0.78125,2.40625c0.60156,0.60156 1.32031,0.89453 2.21875,1.09375v-5.90625c-0.80078,-0.19922 -1.5,-0.39453 -2,-0.59375c-0.60156,-0.19922 -1.00781,-0.48047 -1.40625,-0.78125c-0.39844,-0.30078 -0.71094,-0.71875 -0.8125,-1.21875c-0.19922,-0.5 -0.28125,-0.98828 -0.28125,-1.6875c0,-0.69922 0.10547,-1.3125 0.40625,-1.8125c0.19922,-0.60156 0.60156,-1 1,-1.5c0.39844,-0.39844 0.89844,-0.69922 1.5,-1c0.60156,-0.19922 1.17969,-0.40625 1.78125,-0.40625zM33.40625,27.59375c-0.60156,0 -1.3125,0.21875 -1.8125,0.71875c-0.5,0.40234 -0.6875,1.07422 -0.6875,1.875c0,0.39844 0.08984,0.69922 0.1875,1c0.10156,0.30078 0.30078,0.51953 0.5,0.71875c0.19922,0.19922 0.51172,0.30078 0.8125,0.5c0.30078,0.10156 0.69922,0.30859 1,0.40625zM0,32v6c0,3.84375 3.15625,7 7,7h4.5625l-3.28125,3.28125l1.4375,1.4375l5,-5l0.6875,-0.71875l-0.6875,-0.71875l-5,-5l-1.4375,1.4375l3.28125,3.28125h-4.5625c-2.75391,0 -5,-2.24609 -5,-5v-6zM34.6875,35.09375v5.59375c0.39844,-0.10156 0.82422,-0.17969 1.125,-0.28125c0.30078,-0.10156 0.67578,-0.30078 0.875,-0.5c0.30078,-0.19922 0.52344,-0.50781 0.625,-0.90625c0.10156,-0.30078 0.1875,-0.78906 0.1875,-1.1875c0,-0.39844 -0.08594,-0.82422 -0.1875,-1.125c-0.10156,-0.30078 -0.32422,-0.48828 -0.625,-0.6875c-0.30078,-0.19922 -0.57422,-0.39844 -0.875,-0.5c-0.39844,-0.10156 -0.72656,-0.30469 -1.125,-0.40625z"></path></g></g></svg>