<svg xmlns="http://www.w3.org/2000/svg" xmlns:xlink="http://www.w3.org/1999/xlink" viewBox="0,0,256,256" width="50px" height="50px" fill-rule="nonzero"><g fill="#ffffff" fill-rule="nonzero" stroke="none" stroke-width="1" stroke-linecap="butt" stroke-linejoin="miter" stroke-miterlimit="10" stroke-dasharray="" stroke-dashoffset="0" font-family="none" font-weight="none" font-size="none" text-anchor="none" style="mix-blend-mode: normal"><g transform="scale(5.12,5.12)"><path d="M3.84375,6.96875c-0.78516,0.04297 -1.47656,0.54297 -1.75781,1.27734c-0.28516,0.73438 -0.10937,1.57031 0.44531,2.12891l19.71875,20.96875l-8.125,8.65625h-10.125c-0.72266,-0.01172 -1.39062,0.36719 -1.75391,0.99219c-0.36719,0.62109 -0.36719,1.39453 0,2.01563c0.36328,0.625 1.03125,1.00391 1.75391,0.99219h11c0.55469,0.00391 1.08594,-0.22266 1.46875,-0.625l8.53125,-9.09375l8.53125,9.09375c0.38281,0.40234 0.91406,0.62891 1.46875,0.625h11c0.72266,0.01172 1.39063,-0.36719 1.75391,-0.99219c0.36719,-0.62109 0.36719,-1.39453 0,-2.01562c-0.36328,-0.625 -1.03125,-1.00391 -1.75391,-0.99219h-10.125l-8.125,-8.65625l19.71875,-20.96875c0.58984,-0.58984 0.75,-1.48828 0.40234,-2.24609c-0.35156,-0.75781 -1.13281,-1.22266 -1.96484,-1.16016c-0.52734,0.02734 -1.01953,0.26563 -1.375,0.65625l-19.53125,20.78125l-19.53125,-20.78125c-0.41016,-0.45703 -1.01172,-0.69922 -1.625,-0.65625zM4,24c-0.55078,0 -1,0.44922 -1,1c0,0.55078 0.44922,1 1,1c0.55078,0 1,-0.44922 1,-1c0,-0.55078 -0.44922,-1 -1,-1zM7,24c-0.55078,0 -1,0.44922 -1,1c0,0.55078 0.44922,1 1,1c0.55078,0 1,-0.44922 1,-1c0,-0.55078 -0.44922,-1 -1,-1zM10,24c-0.55078,0 -1,0.44922 -1,1c0,0.55078 0.44922,1 1,1c0.55078,0 1,-0.44922 1,-1c0,-0.55078 -0.44922,-1 -1,-1zM25,24c-0.39844,0 -0.70703,0.19531 -0.90625,0.59375l0.90625,0.90625l0.90625,-0.90625c-0.19922,-0.39844 -0.50781,-0.59375 -0.90625,-0.59375zM40,24c-0.55078,0 -1,0.44922 -1,1c0,0.55078 0.44922,1 1,1c0.55078,0 1,-0.44922 1,-1c0,-0.55078 -0.44922,-1 -1,-1zM43,24c-0.55078,0 -1,0.44922 -1,1c0,0.55078 0.44922,1 1,1c0.55078,0 1,-0.44922 1,-1c0,-0.55078 -0.44922,-1 -1,-1zM46,24c-0.55078,0 -1,0.44922 -1,1c0,0.55078 0.44922,1 1,1c0.55078,0 1,-0.44922 1,-1c0,-0.55078 -0.44922,-1 -1,-1zM12.6875,24.09375c-0.39844,0.10156 -0.6875,0.50781 -0.6875,0.90625c0,0.60156 0.39844,1 1,1c0.39844,0 0.80469,-0.19531 0.90625,-0.59375zM37.3125,24.09375l-1.21875,1.3125c0.10156,0.39844 0.50781,0.59375 0.90625,0.59375c0.60156,0 1,-0.39844 1,-1c0,-0.39844 -0.28906,-0.80469 -0.6875,-0.90625z"></path></g></g></svg>