<svg xmlns="http://www.w3.org/2000/svg" xmlns:xlink="http://www.w3.org/1999/xlink" viewBox="0,0,256,256" width="50px" height="50px" fill-rule="nonzero"><g fill="#89bf19" fill-rule="nonzero" stroke="none" stroke-width="1" stroke-linecap="butt" stroke-linejoin="miter" stroke-miterlimit="10" stroke-dasharray="" stroke-dashoffset="0" font-family="none" font-weight="none" font-size="none" text-anchor="none" style="mix-blend-mode: normal"><g transform="scale(5.12,5.12)"><path d="M20,12c-0.41797,0 -0.78906,0.26563 -0.9375,0.65625l-2.0625,6.34375h16l-2.0625,-6.34375c-0.14844,-0.39062 -0.51953,-0.65625 -0.9375,-0.65625zM11.3125,21c-0.39844,0 -0.75,0.22656 -0.90625,0.59375l-2.40625,6.40625h17l-2.46875,-6.40625c-0.15625,-0.36719 -0.50781,-0.59375 -0.90625,-0.59375zM28.3125,21c-0.39844,0 -0.75,0.22656 -0.90625,0.59375l-1.34375,3.59375l0.8125,2.09375l0.28125,0.71875h14.84375l-2.40625,-6.40625c-0.15625,-0.36719 -0.50781,-0.59375 -0.90625,-0.59375zM3.3125,30c-0.41797,0 -0.78906,0.20313 -0.9375,0.59375l-2.375,6.40625h16.625l-2.375,-6.40625c-0.14844,-0.39062 -0.51953,-0.59375 -0.9375,-0.59375zM20,30c-0.41797,0 -0.78906,0.26563 -0.9375,0.65625l-1.34375,3.53125l0.78125,2.125l0.28125,0.6875h14.53125l-2.375,-6.34375c-0.14453,-0.39062 -0.51953,-0.65625 -0.9375,-0.65625zM36.6875,30c-0.41797,0 -0.78906,0.20313 -0.9375,0.59375l-1.34375,3.59375l0.78125,2.125l0.28125,0.6875h14.53125l-2.375,-6.40625c-0.14453,-0.39062 -0.51953,-0.59375 -0.9375,-0.59375z"></path></g></g></svg>