<svg xmlns="http://www.w3.org/2000/svg" xmlns:xlink="http://www.w3.org/1999/xlink" viewBox="0,0,256,256" width="50px" height="50px" fill-rule="nonzero"><g fill="#89bf19" fill-rule="nonzero" stroke="none" stroke-width="1" stroke-linecap="butt" stroke-linejoin="miter" stroke-miterlimit="10" stroke-dasharray="" stroke-dashoffset="0" font-family="none" font-weight="none" font-size="none" text-anchor="none" style="mix-blend-mode: normal"><g transform="scale(5.12,5.12)"><path d="M50,41v-32c0,-0.551 -0.449,-1 -1,-1h-48c-0.551,0 -1,0.449 -1,1v32c0,0.551 0.449,1 1,1h30.358c-0.004,0.193 -0.01,0.388 -0.026,0.604c-0.273,0.47 -1.226,0.845 -2.149,1.208c-1.95,0.767 -4.622,1.818 -4.82,5.128c-0.017,0.275 0.081,0.545 0.27,0.746c0.189,0.201 0.451,0.314 0.727,0.314h18.715c0.275,0 0.539,-0.114 0.728,-0.314c0.189,-0.2 0.287,-0.47 0.27,-0.746c-0.02,-0.338 -0.072,-0.647 -0.14,-0.94h4.067c0.275,0 0.539,-0.114 0.728,-0.314c0.189,-0.2 0.287,-0.47 0.27,-0.745c-0.172,-2.888 -2.468,-3.794 -4.144,-4.456c-0.384,-0.152 -0.785,-0.314 -1.114,-0.485h4.26c0.551,0 1,-0.449 1,-1zM35,18h7v4h-7zM2,40v-4c2.008,0.41 3.59,1.992 4,4zM2,14v-4.012l4,0.012c-0.41,2.008 -1.992,3.59 -4,4zM8,18h7v4h-7zM21.792,37h-12.792v-2h12.792zM27,32h-18v-2h18zM25.914,25.781v1.219h-1.82v-1.242c-2.012,-0.348 -3.02,-1.559 -3.082,-3.695l-0.012,-0.485h1.879l-0.012,0.484c-0.016,0.664 0.156,1.18 0.516,1.539c0.605,0.609 1.578,0.617 1.617,0.617c1.867,0 2.145,-0.98 2.145,-1.563c0,-0.973 -0.816,-1.203 -2.262,-1.527c-1.613,-0.359 -3.617,-0.809 -3.617,-3.285c0,-0.281 0.082,-2.695 2.832,-3.094v-1.749h1.82v1.754c0.766,0.125 1.434,0.477 1.938,1.027c0.594,0.656 0.93,1.574 0.875,2.398l-0.031,0.438h-1.813l-0.008,-0.465c-0.012,-0.828 -0.344,-1.816 -1.852,-1.816c-1.301,0 -1.906,0.512 -1.906,1.605c0,0.914 0.816,1.148 2.266,1.48c1.609,0.368 3.613,0.829 3.613,3.22c0,0.461 -0.152,2.711 -3.086,3.14zM26.591,48c0.477,-1.125 1.643,-1.667 3.323,-2.327c1.393,-0.548 2.834,-1.115 3.337,-2.467c0.031,-0.083 0.05,-0.17 0.059,-0.259c0.061,-0.668 0.056,-1.176 0.051,-1.714l-0.002,-0.449c0,-0.342 -0.174,-0.657 -0.458,-0.84c-0.185,-0.199 -0.615,-0.998 -0.687,-1.673c-0.044,-0.413 -0.336,-0.749 -0.724,-0.857c-0.038,-0.074 -0.099,-0.236 -0.136,-0.544c-0.006,-0.053 -0.004,-0.088 -0.001,-0.108c0.313,-0.243 0.457,-0.652 0.355,-1.042c-0.557,-2.145 -0.488,-3.758 0.2,-4.664c0.513,-0.676 1.449,-1.032 2.763,-1.056c0.86,0 1.308,0.222 1.387,0.361c0.154,0.27 0.424,0.453 0.731,0.496c0.666,0.092 0.927,0.4 1.066,0.623c0.572,0.921 0.344,2.811 -0.11,4.176c-0.135,0.406 0.004,0.849 0.336,1.106c0.003,0.021 0.006,0.055 0,0.108c-0.037,0.308 -0.099,0.47 -0.136,0.544c-0.388,0.108 -0.681,0.443 -0.725,0.856c-0.074,0.692 -0.484,1.474 -0.666,1.677c-0.281,0.183 -0.453,0.498 -0.453,0.837l-0.001,0.453c-0.005,0.537 -0.009,1.043 0.051,1.71c0.008,0.088 0.028,0.176 0.059,0.259c0.503,1.351 1.938,1.918 3.326,2.466c1.673,0.661 2.834,1.202 3.31,2.328zM47.705,46h-3.786c-0.998,-1.138 -2.457,-1.718 -3.648,-2.188c-0.919,-0.363 -1.868,-0.737 -2.141,-1.208c-0.037,-0.491 -0.034,-0.892 -0.03,-1.349v-0.046c0.445,-0.535 0.821,-1.372 1.006,-2.14c0.409,-0.292 0.829,-0.859 0.961,-1.96c0.067,-0.559 -0.057,-1.021 -0.26,-1.37c0.262,-0.973 0.623,-2.849 0.135,-4.419c0.328,-0.096 0.704,-0.153 1.138,-0.161c0.713,0 0.997,0.179 1.031,0.224c0.154,0.27 0.424,0.453 0.731,0.496c0.489,0.068 0.677,0.277 0.785,0.452c0.485,0.782 0.201,2.452 -0.109,3.384c-0.126,0.381 -0.012,0.794 0.277,1.056c-0.021,0.173 -0.051,0.282 -0.075,0.346c-0.351,0.128 -0.609,0.447 -0.65,0.833c-0.056,0.521 -0.366,1.133 -0.511,1.31c-0.269,0.186 -0.432,0.492 -0.432,0.823l-0.002,0.381c-0.004,0.455 -0.008,0.885 0.043,1.455c0.008,0.089 0.028,0.176 0.059,0.259c0.448,1.204 1.69,1.694 2.891,2.168c1.25,0.492 2.148,0.901 2.587,1.654zM48,40h-3.55c0.221,-0.4 0.396,-0.853 0.502,-1.266c0.349,-0.267 0.689,-0.762 0.815,-1.65c0.636,-0.527 1.393,-0.912 2.233,-1.084zM48,14c-2.008,-0.41 -3.59,-1.992 -4,-4h4z"></path></g></g></svg>