<svg xmlns="http://www.w3.org/2000/svg" xmlns:xlink="http://www.w3.org/1999/xlink" viewBox="0,0,256,256" width="50px" height="50px" fill-rule="nonzero"><g fill="#89bf19" fill-rule="nonzero" stroke="none" stroke-width="1" stroke-linecap="butt" stroke-linejoin="miter" stroke-miterlimit="10" stroke-dasharray="" stroke-dashoffset="0" font-family="none" font-weight="none" font-size="none" text-anchor="none" style="mix-blend-mode: normal"><g transform="scale(5.12,5.12)"><path d="M25,0c-11.77734,0 -21,4.39453 -21,10c0,5.60547 9.22266,10 21,10c11.77344,0 21,-4.39453 21,-10c0,-5.60547 -9.22656,-10 -21,-10zM16.5,8c1.93359,0 3.5,0.67188 3.5,1.5c0,0.82813 -1.56641,1.5 -3.5,1.5c-1.93359,0 -3.5,-0.67187 -3.5,-1.5c0,-0.82812 1.56641,-1.5 3.5,-1.5zM5,16.09375v5.5625c0,0.19531 -0.04687,0.36719 -0.15625,0.53125c-0.57422,0.86328 -1.42187,2.79688 -0.03125,4.6875c1.39063,1.89063 6.47656,3.91797 10.625,4.9375c0.53516,0.13281 0.85156,0.68359 0.71875,1.21875c-0.11328,0.45313 -0.51953,0.75 -0.96875,0.75c-0.07812,0 -0.17187,-0.01172 -0.25,-0.03125c-3.37891,-0.82812 -8.05859,-2.49609 -9.9375,-3.96875v6.875c0,0.19531 -0.07812,0.39844 -0.1875,0.5625c-0.57422,0.86328 -0.8125,2.08984 -0.8125,2.78125c0,6.27734 10.69922,10 21,10c10.30078,0 21,-3.73437 21,-9.96875c0,-0.6875 -0.23828,-1.98047 -0.8125,-2.84375c-0.10937,-0.16406 -0.1875,-0.33203 -0.1875,-0.53125v-6.90625c-1.87891,1.47656 -6.58984,3.19922 -9.96875,4.03125c-0.07812,0.01953 -0.14062,0.03125 -0.21875,0.03125c-0.44922,0 -0.85547,-0.32422 -0.96875,-0.78125c-0.13281,-0.53516 0.18359,-1.05469 0.71875,-1.1875c4.14844,-1.01953 9.3125,-3.01172 10.59375,-4.84375c1.28125,-1.83203 0.60547,-3.91797 0.03125,-4.78125c-0.10937,-0.16406 -0.1875,-0.33203 -0.1875,-0.53125v-5.59375c-3.88672,3.58594 -11.21484,5.90625 -20,5.90625c-8.78125,0 -16.10937,-2.32422 -20,-5.90625zM25,24c0,0 6,6.70703 6,10.40625c0,3.10156 -2.69922,5.59375 -6,5.59375c-3.30078,0 -6,-2.49219 -6,-5.59375c0,-3.69922 6,-10.40625 6,-10.40625zM24.6875,28.40625c-1.10156,2.09766 -3,4.40625 -3,5.90625c0,1 0.39844,2.39453 2,3.09375c-0.19922,-0.60156 -0.59375,-1.89453 -0.59375,-2.59375c0,-2.10156 1.49219,-5.30859 1.59375,-6.40625z"></path></g></g></svg>