<svg xmlns="http://www.w3.org/2000/svg" xmlns:xlink="http://www.w3.org/1999/xlink" viewBox="0,0,256,256" width="50px" height="50px" fill-rule="nonzero"><g fill="#ffffff" fill-rule="nonzero" stroke="none" stroke-width="1" stroke-linecap="butt" stroke-linejoin="miter" stroke-miterlimit="10" stroke-dasharray="" stroke-dashoffset="0" font-family="none" font-weight="none" font-size="none" text-anchor="none" style="mix-blend-mode: normal"><g transform="scale(5.12,5.12)"><path d="M20,3c-9.389,0 -17,7.611 -17,17c0,9.389 7.611,17 17,17c3.71803,0 7.14344,-1.2083 9.9375,-3.23437l13.14844,13.14844l2.82812,-2.82812l-13.02734,-13.02734c2.34438,-2.73751 3.83865,-6.22559 4.0625,-10.05859h-3.53516l-6.41406,6.41406l-12,-12l-5.58594,5.58594h-4.36328c-0.022,-0.332 -0.05078,-0.662 -0.05078,-1c0,-0.338 0.02878,-0.668 0.05078,-1h3.53516l6.41406,-6.41406l12,12l5.58594,-5.58594h4.36328c-0.521,-8.921 -7.89822,-16 -16.94922,-16zM36.94922,19c0.019,0.333 0.05078,0.662 0.05078,1c0,0.338 -0.03178,0.667 -0.05078,1h10.05078v-2z"></path></g></g></svg>