<svg xmlns="http://www.w3.org/2000/svg" xmlns:xlink="http://www.w3.org/1999/xlink" viewBox="0,0,256,256" width="50px" height="50px" fill-rule="nonzero"><g fill="#89bf19" fill-rule="nonzero" stroke="none" stroke-width="1" stroke-linecap="butt" stroke-linejoin="miter" stroke-miterlimit="10" stroke-dasharray="" stroke-dashoffset="0" font-family="none" font-weight="none" font-size="none" text-anchor="none" style="mix-blend-mode: normal"><g transform="scale(5.12,5.12)"><path d="M16,0c-8.822,0 -16,7.178 -16,16c0,8.822 7.178,16 16,16c0.041,0 0.07619,-0.00391 0.11719,-0.00391c0.924,-8.339 7.53991,-14.95491 15.87891,-15.87891c0,-0.041 0.00391,-0.07619 0.00391,-0.11719c0,-8.822 -7.178,-16 -16,-16zM39.29297,0.29297l-5.70703,5.70703l5.70703,5.70703l1.41406,-1.41406l-3.29297,-3.29297h4.58594c2.75455,0 5,2.24545 5,5v6h2v-6c0,-3.84545 -3.15454,-7 -7,-7h-4.58594l3.29297,-3.29297zM16,4c0.552,0 1,0.448 1,1v1.73438c1.108,0.137 2.04022,0.60663 2.69922,1.26563c0.7,0.7 1.2,1.79961 1.5,3.09961h-1.89844c-0.285,-1.425 -1.02778,-2.21192 -2.30078,-2.54492v5.50781l1.09961,0.33789c0.3,0.1 0.6,0.20039 1,0.40039c0.4,0.2 0.80117,0.39883 1.20117,0.79883c0.4,0.3 0.69844,0.70117 0.89844,1.20117c0.3,0.5 0.40039,1.09883 0.40039,1.79883c0,0.7 -0.10039,1.40039 -0.40039,1.90039c-0.2,0.6 -0.6,1.1 -1,1.5c-0.4,0.4 -0.9,0.7 -1.5,1c-0.52,0.173 -1.04822,0.33981 -1.69922,0.38281v1.61719c0,0.552 -0.448,1 -1,1c-0.552,0 -1,-0.448 -1,-1v-1.67773c-1.261,-0.189 -2.294,-0.72649 -3,-1.52148c-0.9,-0.9 -1.4,-2.10117 -1.5,-3.70117h1.90039c-0.1,1.1 0.29883,1.90039 0.79883,2.40039c0.506,0.506 1.09178,0.79319 1.80078,0.99219v-5.89648c-0.631,-0.166 -1.18561,-0.33009 -1.59961,-0.49609c-0.6,-0.2 -1.00039,-0.50078 -1.40039,-0.80078c-0.4,-0.3 -0.70078,-0.69922 -0.80078,-1.19922c-0.2,-0.5 -0.29883,-1.00117 -0.29883,-1.70117c0,-0.7 0.10039,-1.29883 0.40039,-1.79883c0.2,-0.6 0.6,-1 1,-1.5c0.4,-0.4 0.9,-0.7 1.5,-1c0.4,-0.133 0.79922,-0.26194 1.19922,-0.33594v-1.76367c0,-0.552 0.448,-1 1,-1zM15,8.63477c-0.494,0.071 -1.00839,0.27402 -1.40039,0.66602c-0.5,0.4 -0.69922,1.09844 -0.69922,1.89844c0,0.4 0.09922,0.7 0.19922,1c0.1,0.3 0.3,0.50117 0.5,0.70117c0.2,0.2 0.50078,0.3 0.80078,0.5c0.18,0.06 0.39061,0.15123 0.59961,0.24023zM17,16.20898v5.41406c0.293,-0.075 0.57778,-0.14866 0.80078,-0.22266c0.3,-0.1 0.69844,-0.3 0.89844,-0.5c0.3,-0.2 0.50156,-0.50039 0.60156,-0.90039c0.1,-0.3 0.19922,-0.79922 0.19922,-1.19922c0,-0.4 -0.09922,-0.80156 -0.19922,-1.10156c-0.1,-0.3 -0.30156,-0.49922 -0.60156,-0.69922c-0.3,-0.2 -0.59844,-0.4 -0.89844,-0.5c-0.291,-0.073 -0.53878,-0.18902 -0.80078,-0.29102zM34,18c-8.822,0 -16,7.178 -16,16c0,8.822 7.178,16 16,16c8.822,0 16,-7.178 16,-16c0,-8.822 -7.178,-16 -16,-16zM34,25c1.775,0 3.46858,0.85425 4.76758,2.40625c0.354,0.423 0.298,1.05516 -0.125,1.41016c-0.423,0.354 -1.05516,0.298 -1.41016,-0.125c-0.912,-1.09 -2.05942,-1.69141 -3.23242,-1.69141c-1.989,0 -3.70672,1.639 -4.51172,4h3.51172c0.552,0 1,0.448 1,1c0,0.552 -0.448,1 -1,1h-3.94336c-0.034,0.328 -0.05664,0.66 -0.05664,1c0,0.34 0.02264,0.672 0.05664,1h3.94336c0.552,0 1,0.448 1,1c0,0.552 -0.448,1 -1,1h-3.51172c0.805,2.361 2.52172,4 4.51172,4c1.173,0 2.32042,-0.60045 3.23242,-1.68945c0.354,-0.424 0.98616,-0.481 1.41016,-0.125c0.424,0.354 0.48,0.9842 0.125,1.4082c-1.299,1.551 -2.99258,2.40625 -4.76758,2.40625c-3.041,0 -5.6278,-2.51 -6.5918,-6h-1.4082c-0.552,0 -1,-0.448 -1,-1c0,-0.552 0.448,-1 1,-1h1.04688c-0.029,-0.329 -0.04687,-0.662 -0.04687,-1c0,-0.338 0.01788,-0.671 0.04688,-1h-1.04687c-0.552,0 -1,-0.448 -1,-1c0,-0.552 0.448,-1 1,-1h1.4082c0.964,-3.49 3.5508,-6 6.5918,-6zM1,32v6c0,3.84546 3.15455,7 7,7h3.58594l-3.29297,3.29297l1.41406,1.41406l5.70703,-5.70703l-5.70703,-5.70703l-1.41406,1.41406l3.29297,3.29297h-3.58594c-2.75455,0 -5,-2.24545 -5,-5v-6z"></path></g></g></svg>