<svg xmlns="http://www.w3.org/2000/svg" xmlns:xlink="http://www.w3.org/1999/xlink" viewBox="0,0,256,256" width="50px" height="50px" fill-rule="nonzero"><g fill="#89bf19" fill-rule="nonzero" stroke="none" stroke-width="1" stroke-linecap="butt" stroke-linejoin="miter" stroke-miterlimit="10" stroke-dasharray="" stroke-dashoffset="0" font-family="none" font-weight="none" font-size="none" text-anchor="none" style="mix-blend-mode: normal"><g transform="scale(5.12,5.12)"><path d="M25,3c-0.1595,0 -0.31984,0.03728 -0.46484,0.11328l-21,11c-0.329,0.173 -0.53516,0.51472 -0.53516,0.88672v2c0,0.552 0.448,1 1,1h42c0.553,0 1,-0.448 1,-1v-2c0,-0.372 -0.20516,-0.71372 -0.53516,-0.88672l-21,-11c-0.145,-0.076 -0.30534,-0.11328 -0.46484,-0.11328zM25,9c1.656,0 3,1.343 3,3c0,1.657 -1.344,3 -3,3c-1.657,0 -3,-1.343 -3,-3c0,-1.657 1.343,-3 3,-3zM8,20c-0.552,0 -1,0.448 -1,1v14h6v-14c0,-0.552 -0.448,-1 -1,-1zM18,20c-0.552,0 -1,0.448 -1,1v14h6v-14c0,-0.552 -0.448,-1 -1,-1zM28,20c-0.553,0 -1,0.35878 -1,0.80078v9.63086c0.619,-0.274 1.29953,-0.43164 2.01953,-0.43164h3.98047v-9.19922c0,-0.442 -0.447,-0.80078 -1,-0.80078zM38,20c-0.553,0 -1,0.29997 -1,0.66797v9.33203h6v-9.33203c0,-0.368 -0.447,-0.66797 -1,-0.66797zM29,32.01758c-1.57379,0 -2.98242,1.21577 -2.98242,2.84766v10.26953c0,1.57335 1.31633,2.84766 2.89063,2.84766h17.18359c1.57317,0 2.89215,-1.27564 2.89063,-2.85156v-10.26562c0,-1.63125 -1.40812,-2.84766 -2.98242,-2.84766zM41.65625,36h2.62695c0.363,0 0.65625,0.26861 0.65625,0.59961v1.80078c0,0.331 -0.29325,0.59961 -0.65625,0.59961h-2.62695c-0.363,0 -0.65625,-0.26861 -0.65625,-0.59961v-1.80078c0,-0.331 0.29325,-0.59961 0.65625,-0.59961zM5,37c-0.552,0 -1,0.447 -1,1v2h-1c-0.552,0 -1,0.447 -1,1v3c0,0.553 0.448,1 1,1h21v-8zM31,41h1c0.553,0 1,0.448 1,1c0,0.552 -0.447,1 -1,1h-1c-0.553,0 -1,-0.448 -1,-1c0,-0.552 0.447,-1 1,-1zM35,41h1c0.553,0 1,0.448 1,1c0,0.552 -0.447,1 -1,1h-1c-0.553,0 -1,-0.448 -1,-1c0,-0.552 0.447,-1 1,-1zM39,41h1c0.553,0 1,0.448 1,1c0,0.552 -0.447,1 -1,1h-1c-0.553,0 -1,-0.448 -1,-1c0,-0.552 0.447,-1 1,-1zM43,41h1c0.553,0 1,0.448 1,1c0,0.552 -0.447,1 -1,1h-1c-0.553,0 -1,-0.448 -1,-1c0,-0.552 0.447,-1 1,-1z"></path></g></g></svg>