<svg xmlns="http://www.w3.org/2000/svg" xmlns:xlink="http://www.w3.org/1999/xlink" viewBox="0,0,256,256" width="50px" height="50px" fill-rule="nonzero"><g fill="#89bf19" fill-rule="nonzero" stroke="none" stroke-width="1" stroke-linecap="butt" stroke-linejoin="miter" stroke-miterlimit="10" stroke-dasharray="" stroke-dashoffset="0" font-family="none" font-weight="none" font-size="none" text-anchor="none" style="mix-blend-mode: normal"><g transform="scale(5.12,5.12)"><path d="M24,1v18h2v-18zM22,4.24219c-9.17578,1.32031 -16.44141,8.58203 -17.76562,17.75781h4.03125c1.25,-6.96875 6.76172,-12.46875 13.73438,-13.71875zM28,4.24219v4.03906c6.97266,1.24609 12.48438,6.75 13.73438,13.71875h4.03125c-1.32422,-9.17578 -8.58984,-16.4375 -17.76562,-17.75781zM22,13.39453c-4.20703,1.08984 -7.52734,4.40234 -8.61719,8.60547h4.22656c0.81641,-1.99609 2.39453,-3.59766 4.39063,-4.41016zM28,13.39453v4.19531c2,0.8125 3.57813,2.41406 4.39063,4.41016h4.23047c-1.08984,-4.20312 -4.41406,-7.51562 -8.62109,-8.60547zM25.00391,22c-1.65625,0 -3.00391,1.34375 -3.00391,3c0,1.65625 1.34766,3 3.00391,3c1.65625,0 2.94531,-1.34375 2.94531,-3c0,-1.65625 -1.28906,-3 -2.94531,-3zM1,24v2h18v-2zM31,24v2h18v-2zM4.24219,28c1.32031,9.17578 8.58203,16.44141 17.75781,17.76563v-4.03125c-6.96875,-1.25 -12.46875,-6.76172 -13.71875,-13.73437zM13.37891,28c1.08984,4.20313 4.41406,7.51563 8.62109,8.60547v-4.19531c-2,-0.8125 -3.57812,-2.41406 -4.39062,-4.41016zM41.71875,28c-1.25,6.97266 -6.75,12.48438 -13.71875,13.73438v4.03125c9.17578,-1.32422 16.4375,-8.58984 17.76172,-17.76562zM32.41016,28c-0.8125,2 -2.41406,3.57813 -4.41016,4.39063v4.23047c4.20313,-1.08984 7.51563,-4.41406 8.60547,-8.62109zM24,31v18h2v-18z"></path></g></g></svg>