<svg xmlns="http://www.w3.org/2000/svg" xmlns:xlink="http://www.w3.org/1999/xlink" viewBox="0,0,256,256" width="50px" height="50px" fill-rule="nonzero"><g fill="#89bf19" fill-rule="nonzero" stroke="none" stroke-width="1" stroke-linecap="butt" stroke-linejoin="miter" stroke-miterlimit="10" stroke-dasharray="" stroke-dashoffset="0" font-family="none" font-weight="none" font-size="none" text-anchor="none" style="mix-blend-mode: normal"><g transform="scale(5.12,5.12)"><path d="M12,0c-1.09375,0 -2,0.90625 -2,2v2h-6c-1.16016,0 -2,0.83984 -2,2v7h46v-7c0,-1.16016 -0.83984,-2 -2,-2h-6v-2c0,-1.09375 -0.90625,-2 -2,-2h-2c-1.09375,0 -2,0.90625 -2,2v2h-18v-2c0,-1.09375 -0.90625,-2 -2,-2zM12,2h2v6h-2zM36,2h2v6h-2zM2,15v31c0,1.10547 0.89453,2 2,2h30.02734c1.66797,1.25 3.73047,2 5.97266,2c5.51563,0 10,-4.48437 10,-10c0,-2.24219 -0.75,-4.30469 -2,-5.97266v-19.02734zM12,21h5v5h-5zM19,21h5v5h-5zM26,21h5v5h-5zM33,21h5v5h-5zM12,28h5v5h-5zM19,28h5v5h-5zM26,28h5v5h-5zM33,28h5v2.20313c-1.92578,0.39063 -3.64844,1.33984 -5,2.66797zM40,32c4.41016,0 8,3.58984 8,8c0,4.41016 -3.58984,8 -8,8c-4.41016,0 -8,-3.58984 -8,-8c0,-4.41016 3.58984,-8 8,-8zM40,34.09766c-0.60156,0 -1,0.40234 -1,1v3.90234h-3.90234c-0.59766,0 -1,0.39844 -1,1c0,0.60156 0.40234,1 1,1h3.90234v3.90234c0,0.59766 0.39844,1 1,1c0.60156,0 1,-0.40234 1,-1v-3.90234h3.90234c0.59766,0 1,-0.39844 1,-1c0,-0.60156 -0.40234,-1 -1,-1h-3.90234v-3.90234c0,-0.59766 -0.39844,-1 -1,-1zM12,35h5v5h-5zM19,35h5v5h-5zM26,35h5v0.67188c-0.63281,1.30859 -1,2.77734 -1,4.32813h-4z"></path></g></g></svg>