<svg xmlns="http://www.w3.org/2000/svg" xmlns:xlink="http://www.w3.org/1999/xlink" viewBox="0,0,256,256" width="50px" height="50px" fill-rule="nonzero"><g fill="#89bf19" fill-rule="nonzero" stroke="none" stroke-width="1" stroke-linecap="butt" stroke-linejoin="miter" stroke-miterlimit="10" stroke-dasharray="" stroke-dashoffset="0" font-family="none" font-weight="none" font-size="none" text-anchor="none" style="mix-blend-mode: normal"><g transform="scale(5.12,5.12)"><path d="M0.98828,9c-0.54687,0.00781 -0.98828,0.45313 -0.98828,1v28c0,0.55078 0.44922,1 1,1h48c0.55078,0 1,-0.44922 1,-1v-28c0,-0.36719 -0.20312,-0.70703 -0.52734,-0.88281c-0.32422,-0.17187 -0.71875,-0.15234 -1.02734,0.05078l-2.43359,1.625l-2.35156,-1.61719c-0.33203,-0.23047 -0.76953,-0.23437 -1.10937,-0.01562l-2.53516,1.63672l-2.36328,-1.62109c-0.33594,-0.23047 -0.77344,-0.23437 -1.11328,-0.01562l-2.52734,1.64063l-2.41797,-1.62891c-0.33594,-0.22656 -0.77344,-0.23047 -1.10937,-0.00781l-2.47266,1.63281l-2.37891,-1.625c-0.33203,-0.22656 -0.76953,-0.23047 -1.10937,-0.00781l-2.51953,1.63672l-2.46875,-1.63672c-0.33594,-0.22266 -0.77344,-0.21875 -1.10937,0.00781l-2.4375,1.62891l-2.53906,-1.64062c-0.33984,-0.21875 -0.77734,-0.21484 -1.10937,0.01563l-2.33984,1.60938l-2.33594,-1.60937c-0.33203,-0.23047 -0.76953,-0.23437 -1.10937,-0.01562l-2.54687,1.64453l-2.45312,-1.63672c-0.16797,-0.11328 -0.36328,-0.17187 -0.56641,-0.16797zM38,17h2v1.18359c1.16016,0.41406 2,1.51563 2,2.81641v1h-2v-1c0,-0.55078 -0.44922,-1 -1,-1c-0.55078,0 -1,0.44922 -1,1v1.07422l3.59766,2.69531c0.25391,0.19141 0.40234,0.48438 0.40234,0.80078v1.42969c0,1.30078 -0.83984,2.40234 -2,2.81641v1.18359h-2v-1.18359c-1.16016,-0.41406 -2,-1.51562 -2,-2.81641v-1h2v1c0,0.55078 0.44922,1 1,1c0.55078,0 1,-0.44922 1,-1v-0.92578l-3.59766,-2.69922c-0.25391,-0.19141 -0.40234,-0.48437 -0.40234,-0.80078v-1.57422c0,-1.30078 0.83984,-2.40234 2,-2.81641zM10.99609,18.02344c0.91406,0 1.64453,0.40234 2.1875,1.21094c0.54297,0.80859 0.81641,1.98438 0.81641,3.53125v2.5c0,1.55469 -0.27344,2.73047 -0.8125,3.53125c-0.54297,0.80078 -1.26562,1.20313 -2.17578,1.20313c-0.91797,0 -1.65234,-0.40234 -2.19531,-1.20312c-0.54297,-0.80078 -0.81641,-1.97656 -0.81641,-3.53125v-2.5c0,-1.54687 0.27344,-2.72266 0.8125,-3.53125c0.54297,-0.80859 1.26953,-1.21094 2.18359,-1.21094zM20.99609,18.02344c0.91406,0 1.64453,0.40234 2.1875,1.21094c0.54297,0.80859 0.81641,1.98438 0.81641,3.53125v2.5c0,1.55469 -0.27344,2.73047 -0.8125,3.53125c-0.54297,0.80078 -1.26562,1.20313 -2.17578,1.20313c-0.91797,0 -1.65234,-0.40234 -2.19531,-1.20312c-0.54297,-0.80078 -0.81641,-1.97656 -0.81641,-3.53125v-2.5c0,-1.54687 0.27344,-2.72266 0.8125,-3.53125c0.54297,-0.80859 1.26953,-1.21094 2.18359,-1.21094zM28.99609,18.02344c0.91406,0 1.64063,0.40234 2.1875,1.21094c0.54688,0.80859 0.81641,1.98438 0.81641,3.53125v2.5c0,1.55469 -0.27344,2.73047 -0.8125,3.53125c-0.54297,0.80078 -1.26562,1.20313 -2.17578,1.20313c-0.92187,0 -1.65234,-0.40234 -2.19531,-1.20312c-0.54297,-0.80078 -0.81641,-1.97656 -0.81641,-3.53125v-2.5c0,-1.54687 0.27344,-2.72266 0.8125,-3.53125c0.54297,-0.80859 1.26953,-1.21094 2.18359,-1.21094zM10.97656,19.90234c-0.3125,-0.02734 -0.55469,0.17578 -0.72656,0.60938c-0.16797,0.42969 -0.25,1.11328 -0.25,2.05078v2.89063c0,0.94531 0.08594,1.63672 0.26172,2.07422c0.17188,0.43359 0.41406,0.63672 0.72656,0.60156h0.04297c0.3125,0.03516 0.55078,-0.16797 0.71875,-0.59766c0.16797,-0.43359 0.25391,-1.125 0.25391,-2.07812v-2.89062c0,-0.9375 -0.08984,-1.62109 -0.26172,-2.05078c-0.17578,-0.43359 -0.41406,-0.63672 -0.72656,-0.60937zM20.97656,19.90234c-0.3125,-0.02734 -0.55469,0.17578 -0.72656,0.60938c-0.16797,0.42969 -0.25,1.11328 -0.25,2.05078v2.89063c0,0.94531 0.08594,1.63672 0.26172,2.07422c0.17188,0.43359 0.41406,0.63672 0.72656,0.60156h0.04297c0.3125,0.03516 0.55078,-0.16797 0.71875,-0.59766c0.16797,-0.43359 0.25391,-1.125 0.25391,-2.07812v-2.89062c0,-0.9375 -0.08984,-1.62109 -0.26172,-2.05078c-0.17578,-0.43359 -0.41406,-0.63672 -0.72656,-0.60937zM28.97266,19.90234c-0.3125,-0.02734 -0.55078,0.17578 -0.72266,0.60938c-0.16797,0.42969 -0.25,1.11328 -0.25,2.05078v2.89063c0,0.94531 0.08594,1.63672 0.25781,2.07422c0.17578,0.43359 0.41797,0.63672 0.73047,0.60156h0.04297c0.3125,0.03516 0.55078,-0.16797 0.71875,-0.59766c0.16797,-0.43359 0.25391,-1.125 0.25391,-2.07812v-2.89062c0,-0.9375 -0.08594,-1.62109 -0.26172,-2.05078c-0.17578,-0.43359 -0.41406,-0.63672 -0.72656,-0.60937zM15,27.98438h2v2.01563h-2z"></path></g></g></svg>