<svg xmlns="http://www.w3.org/2000/svg" xmlns:xlink="http://www.w3.org/1999/xlink" viewBox="0,0,256,256" width="50px" height="50px" fill-rule="nonzero"><g fill="#89bf19" fill-rule="nonzero" stroke="none" stroke-width="1" stroke-linecap="butt" stroke-linejoin="miter" stroke-miterlimit="10" stroke-dasharray="" stroke-dashoffset="0" font-family="none" font-weight="none" font-size="none" text-anchor="none" style="mix-blend-mode: normal"><g transform="scale(5.12,5.12)"><path d="M25,2c-12.682,0 -23,10.318 -23,23c0,12.682 10.318,23 23,23c12.682,0 23,-10.318 23,-23c0,-4.597 -1.36036,-8.88052 -3.69336,-12.47852l-0.89258,0.89258l-0.58594,0.58594h-0.82812h-1.75781l-2.73242,2.73242c1.571,2.371 2.49023,5.21058 2.49023,8.26758c0,8.284 -6.716,15 -15,15c-8.284,0 -15,-6.716 -15,-15c0,-8.284 6.716,-15 15,-15c3.057,0 5.89658,0.91923 8.26758,2.49023l2.73242,-2.73242v-1.75781v-0.82812l0.58594,-0.58594l0.88867,-0.88867c-3.596,-2.334 -7.87761,-3.69727 -12.47461,-3.69727zM43,3l-5,5v2.58594l-13.70703,13.70703c-0.26124,0.25082 -0.36648,0.62327 -0.27512,0.97371c0.09136,0.35044 0.36503,0.62411 0.71547,0.71547c0.35044,0.09136 0.72289,-0.01388 0.97371,-0.27512l13.70703,-13.70703h2.58594l5,-5h-4zM25,16c-4.962,0 -9,4.038 -9,9c0,4.962 4.038,9 9,9c4.962,0 9,-4.038 9,-9c0,-1.387 -0.32472,-2.69514 -0.88672,-3.86914l-5.99219,5.99023c-0.566,0.567 -1.32009,0.87891 -2.12109,0.87891c-0.801,0 -1.55509,-0.31191 -2.12109,-0.87891c-0.567,-0.566 -0.87891,-1.32009 -0.87891,-2.12109c0,-0.801 0.31191,-1.55509 0.87891,-2.12109l5.99219,-5.99219c-1.173,-0.565 -2.48409,-0.88672 -3.87109,-0.88672z"></path></g></g></svg>