<svg xmlns="http://www.w3.org/2000/svg" xmlns:xlink="http://www.w3.org/1999/xlink" viewBox="0,0,256,256" width="50px" height="50px" fill-rule="nonzero"><g fill="#89bf19" fill-rule="nonzero" stroke="none" stroke-width="1" stroke-linecap="butt" stroke-linejoin="miter" stroke-miterlimit="10" stroke-dasharray="" stroke-dashoffset="0" font-family="none" font-weight="none" font-size="none" text-anchor="none" style="mix-blend-mode: normal"><g transform="scale(5.12,5.12)"><path d="M7,9c-2.75781,0 -5,2.24219 -5,5v22c0,2.75781 2.24219,5 5,5h36c2.75781,0 5,-2.24219 5,-5v-22c0,-2.75781 -2.24219,-5 -5,-5zM29.0625,16c0.12891,0.00781 0.25,0.03125 0.375,0.09375c0.49219,0.24609 0.71484,0.85156 0.46875,1.34375l-8,16c-0.17578,0.35156 -0.53906,0.5625 -0.90625,0.5625c-0.14844,0 -0.29297,-0.02344 -0.4375,-0.09375c-0.49219,-0.24609 -0.71484,-0.85156 -0.46875,-1.34375l8,-16c0.1875,-0.37109 0.57813,-0.58594 0.96875,-0.5625zM20,17c1.65234,0 3,1.34766 3,3v1c0,1.65234 -1.34766,3 -3,3c-1.65234,0 -3,-1.34766 -3,-3v-1c0,-1.65234 1.34766,-3 3,-3zM20,19c-0.55078,0 -1,0.44922 -1,1v1c0,0.55078 0.44922,1 1,1c0.55078,0 1,-0.44922 1,-1v-1c0,-0.55078 -0.44922,-1 -1,-1zM30,26c1.65234,0 3,1.34766 3,3v1c0,1.65234 -1.34766,3 -3,3c-1.65234,0 -3,-1.34766 -3,-3v-1c0,-1.65234 1.34766,-3 3,-3zM30,28c-0.55078,0 -1,0.44922 -1,1v1c0,0.55078 0.44922,1 1,1c0.55078,0 1,-0.44922 1,-1v-1c0,-0.55078 -0.44922,-1 -1,-1z"></path></g></g></svg>