<svg xmlns="http://www.w3.org/2000/svg" xmlns:xlink="http://www.w3.org/1999/xlink" viewBox="0,0,256,256" width="50px" height="50px" fill-rule="nonzero"><g fill="#89bf19" fill-rule="nonzero" stroke="none" stroke-width="1" stroke-linecap="butt" stroke-linejoin="miter" stroke-miterlimit="10" stroke-dasharray="" stroke-dashoffset="0" font-family="none" font-weight="none" font-size="none" text-anchor="none" style="mix-blend-mode: normal"><g transform="scale(5.12,5.12)"><path d="M3,3c-0.36064,-0.0051 -0.69608,0.18438 -0.87789,0.49587c-0.18181,0.3115 -0.18181,0.69676 0,1.00825c0.18181,0.3115 0.51725,0.50097 0.87789,0.49587h1v8c-1.5,0.5 -2,1.625 -2,2.5c0,0.875 0.5,2 2,2.5v10c-1.5,0.5 -2,1.625 -2,2.5c0,0.875 0.5,2 2,2.5v8h-1c-0.552,0 -1,0.447 -1,1c0,0.553 0.448,1 1,1h14.13281l0.39648,-0.97266l0.31836,-0.7832l0.09961,-0.24414l0.4082,-1h1.34375h1.30078v-0.83203v-0.39258l0.14844,-0.36328l1.69922,-4.16797l0.50781,-1.24414h1.34375h1.30078v-0.83203v-0.39258l0.14844,-0.36328l1.69922,-4.16797l0.50781,-1.24414h1.34375h2.30078v-1v-7c1.5,-0.5 2,-1.625 2,-2.5c0,-0.875 -0.5,-2 -2,-2.5v-8h1c0.36064,0.0051 0.69608,-0.18438 0.87789,-0.49587c0.18181,-0.3115 0.18181,-0.69676 0,-1.00825c-0.18181,-0.3115 -0.51725,-0.50097 -0.87789,-0.49587zM18,14.75c0,0 5,7.417 5,10.25c0,2.833 -2.167,5 -5,5c-2.833,0 -5,-2.167 -5,-5c0,-2.833 5,-10.25 5,-10.25zM29.69922,28l-1.69922,4.16797v0.83203h10v-0.83203l-1.69922,-4.16797zM24.69922,35l-1.69922,4.16797v0.83203h10h10v-0.83203l-1.69922,-4.16797h-6.60156l-1.69922,4.16797l-1.69922,-4.16797zM19.69922,42l-1.69922,4.16797v0.83203h10h10h10v-0.83203l-1.69922,-4.16797h-6.60156l-1.69922,4.16797l-1.69922,-4.16797h-6.60156l-1.69922,4.16797l-1.69922,-4.16797z"></path></g></g></svg>