<svg xmlns="http://www.w3.org/2000/svg" xmlns:xlink="http://www.w3.org/1999/xlink" viewBox="0,0,256,256" width="50px" height="50px" fill-rule="nonzero"><g fill="#89bf19" fill-rule="nonzero" stroke="none" stroke-width="1" stroke-linecap="butt" stroke-linejoin="miter" stroke-miterlimit="10" stroke-dasharray="" stroke-dashoffset="0" font-family="none" font-weight="none" font-size="none" text-anchor="none" style="mix-blend-mode: normal"><g transform="scale(5.12,5.12)"><path d="M40,0v10h10v-10zM33,5v6h-4v2h4v6h6v-2h-4v-10h4v-2zM18,7v10h10v-10zM13,11v13h-2v2h2v13h4v-2h-2v-24h2v-2zM40,14v10h10v-10zM0,18v14h10v-14zM40,26v10h10v-10zM33,31v6h-4v2h4v6h6v-2h-4v-10h4v-2zM18,33v10h10v-10zM40,40v10h10v-10z"></path></g></g></svg>