<svg xmlns="http://www.w3.org/2000/svg" xmlns:xlink="http://www.w3.org/1999/xlink" viewBox="0,0,256,256" width="50px" height="50px" fill-rule="nonzero"><g fill="#89bf19" fill-rule="nonzero" stroke="none" stroke-width="1" stroke-linecap="butt" stroke-linejoin="miter" stroke-miterlimit="10" stroke-dasharray="" stroke-dashoffset="0" font-family="none" font-weight="none" font-size="none" text-anchor="none" style="mix-blend-mode: normal"><g transform="scale(5.12,5.12)"><path d="M8,4c-2.20703,0 -4,1.79297 -4,4v9h5v-8h32v14h5v-15c0,-2.20703 -1.79297,-4 -4,-4zM2,18c-1.10156,0 -2,0.89844 -2,2v24c0,1.10156 0.89844,2 2,2h19c1.10156,0 2,-0.89844 2,-2v-24c0,-1.10156 -0.89844,-2 -2,-2zM4,22h15v18h-15zM37,24c-1.10156,0 -2,0.89844 -2,2v18c0,1.10156 0.89844,2 2,2h11c1.10156,0 2,-0.89844 2,-2v-18c0,-1.10156 -0.89844,-2 -2,-2zM39,28h7v12h-7zM24,32v11h10v-4h-4v-3h4v-4zM11.5,41.5c0.55078,0 1,0.44531 1,1c0,0.55469 -0.44922,1 -1,1c-0.55078,0 -1,-0.44531 -1,-1c0,-0.55469 0.44922,-1 1,-1zM42.5,41.5c0.55469,0 1,0.44531 1,1c0,0.55469 -0.44531,1 -1,1c-0.55469,0 -1,-0.44531 -1,-1c0,-0.55469 0.44531,-1 1,-1z"></path></g></g></svg>