<svg xmlns="http://www.w3.org/2000/svg" xmlns:xlink="http://www.w3.org/1999/xlink" viewBox="0,0,256,256" width="50px" height="50px" fill-rule="nonzero"><g fill="#89bf19" fill-rule="nonzero" stroke="none" stroke-width="1" stroke-linecap="butt" stroke-linejoin="miter" stroke-miterlimit="10" stroke-dasharray="" stroke-dashoffset="0" font-family="none" font-weight="none" font-size="none" text-anchor="none" style="mix-blend-mode: normal"><g transform="scale(5.12,5.12)"><path d="M25,3c-0.912,0 -2.66256,0.18978 -4.10156,1.42578c-0.277,0.209 -0.97253,0.81102 -2.39453,2.04102l-0.61719,0.5332h-6.88672c-0.553,0 -1,0.447 -1,1v5.96289c-3.439,3.04 -6.35867,5.64062 -6.63867,5.89062l8.63867,6.73047v-17.58398h26v17.58398l8.63867,-6.73047c-0.281,-0.25 -3.19967,-2.85062 -6.63867,-5.89062v-5.96289c0,-0.553 -0.447,-1 -1,-1h-6.94336c-1.213,-1.089 -2.54625,-2.2652 -2.90625,-2.5332c-1.488,-1.276 -3.23839,-1.4668 -4.15039,-1.4668zM24,10v1.11133c-1.23319,0.26214 -2.07836,0.9775 -2.49219,1.69922c-0.5181,0.90356 -0.50781,1.80469 -0.50781,1.80469c0,1.2423 0.69614,2.24041 1.52539,2.8125c0.82925,0.57209 1.77322,0.87219 2.64063,1.17969c0.8674,0.30749 1.65479,0.62037 2.13477,0.98633c0.47998,0.36596 0.69922,0.66804 0.69922,1.40625c0,0 -0.0027,0.45133 -0.33203,0.94531c-0.32932,0.49398 -0.91797,1.05469 -2.66797,1.05469c-1.66667,0 -2.22473,-0.68578 -2.60547,-1.44727c-0.38074,-0.76149 -0.39453,-1.55273 -0.39453,-1.55273h-2c0,0 -0.01379,1.20875 0.60547,2.44727c0.52471,1.04941 1.64674,2.14444 3.39453,2.45703v1.0957h2v-1.07422c1.67146,-0.2322 2.76771,-1.02461 3.33203,-1.87109c0.67068,-1.00602 0.66797,-2.05469 0.66797,-2.05469c0,-1.30829 -0.65576,-2.36329 -1.48828,-2.99805c-0.83252,-0.63476 -1.79514,-0.96642 -2.67773,-1.2793c-0.8826,-0.31288 -1.68863,-0.60802 -2.17187,-0.94141c-0.48325,-0.33338 -0.66211,-0.55231 -0.66211,-1.16602c0,0 0.01029,-0.40611 0.24219,-0.81055c0.2319,-0.40444 0.54848,-0.80469 1.75781,-0.80469c1.16667,0 1.47473,0.43578 1.73047,0.94727c0.25574,0.51149 0.26953,1.05273 0.26953,1.05273h2c0,0 0.01379,-0.95875 -0.48047,-1.94727c-0.39701,-0.79402 -1.25141,-1.62679 -2.51953,-1.92773v-1.125zM3,22.13477v19.00195c0.08,-0.061 0.15338,-0.12059 0.23438,-0.18359c3.474,-2.702 8.24289,-6.41083 11.96289,-9.29883zM47,22.13477l-12.25977,9.56836c3.648,2.879 8.40977,6.63306 12.25977,9.66406zM25,27.82227c-0.251,0 -1.5672,0.05025 -2.9082,1.03125c-0.919,0.679 -11.78891,9.13669 -17.62891,13.67969c-0.552,0.429 -1.03289,0.80472 -1.46289,1.13672v2.33008c0,0.553 0.447,1 1,1h42c0.553,0 1,-0.447 1,-1v-2.08789c-7.029,-5.532 -18.343,-14.45598 -19.125,-15.08398c-1.094,-0.874 -2.271,-1.00586 -2.875,-1.00586z"></path></g></g></svg>