<svg xmlns="http://www.w3.org/2000/svg" xmlns:xlink="http://www.w3.org/1999/xlink" viewBox="0,0,256,256" width="256px" height="256px" fill-rule="nonzero"><g fill="none" fill-rule="nonzero" stroke="none" stroke-width="1" stroke-linecap="butt" stroke-linejoin="miter" stroke-miterlimit="10" stroke-dasharray="" stroke-dashoffset="0" font-family="none" font-weight="none" font-size="none" text-anchor="none" style="mix-blend-mode: normal"><g><rect x="48.297" y="11.261" width="145.272" height="183.25" fill="#89bf19"></rect><rect x="48.297" y="11.261" width="15.5" height="183.25" fill="#ffffff"></rect><rect x="178.069" y="11.261" width="15.5" height="183.25" fill="#89bf19"></rect><rect x="63.6" y="25.731" width="114.667" height="114.667" rx="4.65" ry="4.65" fill="#ffffff"></rect><path d="M87.6,113.667h2.746c2.76142,0 5,2.23858 5,5v1.1h-12.746v-1.1c0,-2.76142 2.23858,-5 5,-5z" fill="#f8af23"></path><path transform="translate(177.942,147.998) rotate(-180)" d="M87.6,70.95h2.746c2.76142,0 5,2.23858 5,5v1.1h-12.746v-1.1c0,-2.76142 2.23858,-5 5,-5z" fill="#f8af23"></path><path d="M159.268,63.458l-38.335,-31.742l-38.335,31.742z" fill="#89bf19"></path><rect x="-167.884" y="-70.95" transform="rotate(180)" width="93.903" height="7.492" rx="3.533" ry="3.533" fill="#89bf19"></rect><path transform="translate(241.866,147.996) rotate(-180)" d="M119.56,70.95h2.746c2.76142,0 5,2.23858 5,5v1.1h-12.746v-1.1c0,-2.76142 2.23858,-5 5,-5z" fill="#f8af23"></path><path d="M119.56,113.667h2.746c2.76142,0 5,2.23858 5,5v1.1h-12.746v-1.1c0,-2.76142 2.23858,-5 5,-5z" fill="#f8af23"></path><rect x="-124.28" y="-113.666" transform="rotate(-180)" width="6.939" height="36.62" fill="#9e9e9e"></rect><path transform="translate(305.79,147.996) rotate(-180)" d="M151.522,70.95h2.746c2.76142,0 5,2.23858 5,5v1.1h-12.746v-1.1c0,-2.76142 2.23858,-5 5,-5z" fill="#f8af23"></path><path d="M151.522,113.667h2.746c2.76142,0 5,2.23858 5,5v1.1h-12.746v-1.1c0,-2.76142 2.23858,-5 5,-5z" fill="#f8af23"></path><rect x="-156.244" y="-113.666" transform="rotate(-180)" width="6.939" height="36.62" fill="#9e9e9e"></rect><rect x="-92.32" y="-113.666" transform="rotate(-180)" width="6.939" height="36.62" fill="#707070"></rect><rect x="-163.721" y="-127.088" transform="rotate(-180)" width="85.576" height="7.325" fill="#89bf19"></rect><rect x="78.145" y="119.762" width="15.5" height="7.325" fill="#ffffff"></rect><rect x="-167.075" y="-134.412" transform="rotate(-180)" width="92.283" height="7.325" fill="#89bf19"></rect><rect x="74.791" y="127.088" width="15.5" height="7.325" fill="#ffffff"></rect><path d="M193.569,75.27v36.174l-7.12,-8.353c-2.97125,-3.46455 -8.18234,-3.88 -11.665,-0.93v0c-3.46455,2.97125 -3.88,8.18234 -0.93,11.665l16.2,19c0,0 -4.834,20.4 7.909,32.058h36.026l-3.194,-43.827c-0.383,-4.048 -2.879,-7.471 -5.417,-10.3z" fill="#f8af23"></path><rect x="182.026" y="164.887" width="63.046" height="26.003" fill="#9e9e9e"></rect><rect x="185.762" y="190.89" width="55.574" height="42.876" fill="#89bf19"></rect><path d="M209.875,110.757l-16.306,-18.193v-17.294l31.806,35.487c2.538,2.832 5.034,6.256 5.417,10.3l3.194,43.827h-15.5l-3.194,-43.827c-0.383,-4.044 -2.879,-7.468 -5.417,-10.3z" fill="#f8d323"></path><rect x="225.837" y="190.89" width="15.5" height="42.876" fill="#89bf19"></rect><rect x="229.572" y="164.887" width="15.5" height="26.003" fill="#cecece"></rect><rect x="184.632" y="-102.19" transform="rotate(90)" width="19.755" height="91.263" fill="#9e9e9e"></rect><rect x="10.928" y="184.632" width="15.5" height="19.756" fill="#707070"></rect><rect x="172.867" y="-139.433" transform="rotate(90)" width="43.285" height="37.243" fill="#f8af23"></rect><rect x="155.254" y="-147.968" transform="rotate(90)" width="10.4" height="54.313" rx="4.734" ry="4.734" fill="#f8af23"></rect><rect x="223.366" y="-147.968" transform="rotate(90)" width="10.4" height="54.313" rx="4.734" ry="4.734" fill="#f8af23"></rect><rect x="165.654" y="-139.433" transform="rotate(90)" width="7.213" height="37.243" fill="#9e9e9e"></rect><rect x="216.153" y="-139.434" transform="rotate(90)" width="7.213" height="37.243" fill="#9e9e9e"></rect><rect x="180.501" y="-18.238" transform="rotate(90)" width="28.017" height="7.31" rx="3.328" ry="3.328" fill="#f87023"></rect><path transform="translate(291.753,97.267) rotate(90)" d="M82.2,189.563h30.079v0.886c0,4.97498 -4.03302,9.008 -9.008,9.008h-12.06c-2.38942,0.0008 -4.68126,-0.94777 -6.3712,-2.63697c-1.68995,-1.6892 -2.63953,-3.98062 -2.6398,-6.37003v-0.886z" fill="#f8af23"></path><path d="M27.323,243.239h-18c-0.82843,0 -1.5,0.67157 -1.5,1.5c0,0.82843 0.67157,1.5 1.5,1.5h18c0.82843,0 1.5,-0.67157 1.5,-1.5c0,-0.82843 -0.67157,-1.5 -1.5,-1.5z" fill="#3f3679"></path><path d="M246.68,243.239h-18c-0.82843,0 -1.5,0.67157 -1.5,1.5c0,0.82843 0.67157,1.5 1.5,1.5h18c0.82843,0 1.5,-0.67157 1.5,-1.5c0,-0.82843 -0.67157,-1.5 -1.5,-1.5z" fill="#3f3679"></path><path d="M218.479,243.239h-180.958c-0.82843,0 -1.5,0.67157 -1.5,1.5c0,0.82843 0.67157,1.5 1.5,1.5h180.958c0.82843,0 1.5,-0.67157 1.5,-1.5c0,-0.82843 -0.67157,-1.5 -1.5,-1.5z" fill="#3f3679"></path><path d="M9.32,235.267h237.36c0.82843,0 1.5,-0.67157 1.5,-1.5c0,-0.82843 -0.67157,-1.5 -1.5,-1.5h-3.843v-39.876h2.235c0.82843,0 1.5,-0.67157 1.5,-1.5v-26c0,-0.82843 -0.67157,-1.5 -1.5,-1.5h-9.691l-3.1,-42.469c-0.44,-4.657 -3.327,-8.412 -5.793,-11.162l-31.419,-35.06v-63.439c0,-0.82843 -0.67157,-1.5 -1.5,-1.5h-145.269c-0.82843,0 -1.5,0.67157 -1.5,1.5v171.872h-27.132c-0.34089,-2.36736 -2.36623,-4.12665 -4.758,-4.133h-0.655c-2.66474,0.00276 -4.82424,2.16226 -4.827,4.827v21.363c0.00275,2.6649 2.1621,4.82469 4.827,4.828h0.655c2.39095,-0.00663 4.41581,-1.76466 4.758,-4.131h72.606c1.77837,3.00262 4.93231,4.92549 8.416,5.131v10.847h-2.3c-3.44112,0.00441 -6.22959,2.79288 -6.234,6.234v0.932c0.00075,1.14178 0.31743,2.26108 0.915,3.234h-83.751c-0.82843,0 -1.5,0.67157 -1.5,1.5c0,0.82843 0.67157,1.5 1.5,1.5zM143.234,221.867h-2.3v-25.857h43.328v36.257h-35.708c0.59757,-0.97292 0.91425,-2.09222 0.915,-3.234v-0.933c-0.00441,-3.44151 -2.79349,-6.23014 -6.235,-6.234zM139.434,164.155h-41.044c-1.78518,-0.0022 -3.2318,-1.44882 -3.234,-3.234v-0.932c0.0022,-1.78518 1.44882,-3.2318 3.234,-3.234h44.845c1.78518,0.0022 3.2318,1.44882 3.234,3.234v0.932c-0.0022,1.78518 -1.44882,3.2318 -3.234,3.234zM137.934,167.155v4.214h-34.244v-4.214zM103.691,209.555v-35.187h34.243v40.284h-34.244zM239.837,232.272h-52.575v-39.881h52.575zM243.572,189.396h-60.046v-10h34.86c0.82843,0 1.5,-0.67157 1.5,-1.5c0,-0.82843 -0.67157,-1.5 -1.5,-1.5h-34.86v-10h60.046zM224.258,111.764c2.159,2.408 4.683,5.657 5.038,9.411l3.077,42.218h-33.819c-11.405,-10.979 -7.088,-30.021 -7.042,-30.214c0.10959,-0.46459 -0.00849,-0.95361 -0.318,-1.317l-16.2,-19c-2.42729,-2.84786 -2.08636,-7.12421 0.7615,-9.5515c2.84786,-2.42729 7.12421,-2.08636 9.5515,0.7615l7.12,8.353l13.52,15.862c0.54272,0.60776 1.47136,0.67112 2.0916,0.14271c0.62024,-0.52841 0.70522,-1.45532 0.1914,-2.08771l-13.161,-15.442v-31.7zM176.767,99.3c-2.99187,1.10886 -5.25462,3.60761 -6.06219,6.69447c-0.80756,3.08686 -0.05837,6.37358 2.00719,8.80553l4.055,4.757v16.192c-0.0022,1.73878 -1.41122,3.1478 -3.15,3.15h-105.367c-1.73878,-0.0022 -3.1478,-1.41122 -3.15,-3.15v-105.367c0.0022,-1.73878 1.41122,-3.1478 3.15,-3.15h105.366c1.73878,0.0022 3.1478,1.41122 3.15,3.15zM49.8,12.761h142.269v94.61l-4.479,-5.253c-1.67858,-1.97581 -4.07785,-3.19795 -6.663,-3.394c-0.3863,-0.02885 -0.77396,-0.0352 -1.161,-0.019v-68.323c-0.00386,-3.39495 -2.75505,-6.14614 -6.15,-6.15h-105.366c-3.39495,0.00386 -6.14614,2.75505 -6.15,6.15v105.365c0.00386,3.39495 2.75505,6.14614 6.15,6.15h105.366c3.39495,-0.00386 6.14614,-2.75505 6.15,-6.15v-12.672l8.667,10.167c-0.68581,3.73573 -0.92082,7.54026 -0.7,11.332c0.21541,5.3868 1.70443,10.64585 4.345,15.346c0,0.017 0,0.032 0,0.048v3.419h-10.052c-0.82843,0 -1.5,0.67157 -1.5,1.5v26c0,0.82843 0.67157,1.5 1.5,1.5h2.235v0.619h-43.327v-25.852h2.3c3.44112,-0.00441 6.22959,-2.79288 6.234,-6.234v-0.932c-0.00441,-3.44112 -2.79288,-6.22959 -6.234,-6.234h-44.844c-3.44112,0.00441 -6.22959,2.79288 -6.234,6.234v0.932c0.00441,3.44112 2.79288,6.22959 6.234,6.234h2.3v10.846c-3.48369,0.20551 -6.63763,2.12838 -8.416,5.131h-42.474zM16.738,205.19c-0.0011,1.00912 -0.81888,1.8269 -1.828,1.828h-0.655c-1.00873,-0.00165 -1.8259,-0.81927 -1.827,-1.828v-21.361c0,-1.00935 0.81765,-1.8279 1.827,-1.829h0.655c1.00873,0.0011 1.82635,0.81827 1.828,1.827zM19.738,202.89v-16.757h71.332c-0.1791,0.76922 -0.27068,1.55621 -0.273,2.346v12.063c0.00232,0.78979 0.0939,1.57678 0.273,2.346zM93.8,200.542v-12.063c0.00661,-3.90373 2.99991,-7.15292 6.89,-7.479v27.03c-3.89353,-0.32638 -6.88806,-3.58082 -6.89,-7.488zM103.694,217.652h34.243v4.214h-34.247zM95.159,229.032v-0.932c0.0022,-1.78518 1.44882,-3.2318 3.234,-3.234h44.845c1.78518,0.0022 3.2318,1.44882 3.234,3.234v0.932c-0.0022,1.78518 -1.44882,3.2318 -3.234,3.234h-44.848c-1.78557,-0.00165 -3.2328,-1.44843 -3.235,-3.234z" fill="#3f3679"></path><path d="M164.352,61.958h-4.542l-37.919,-31.4c-0.55511,-0.45993 -1.35889,-0.45993 -1.914,0l-37.92,31.4h-4.541c-2.77828,0.00331 -5.02969,2.25472 -5.033,5.033v0.426c0.00331,2.77828 2.25472,5.02969 5.033,5.033h3.6c0.123,1.9754 1.14027,3.78683 2.763,4.92v35.972c-1.62273,1.13317 -2.64,2.9446 -2.763,4.92h-2.971c-0.82843,0 -1.5,0.67157 -1.5,1.5v5.825h-1.854c-0.82843,0 -1.5,0.67157 -1.5,1.5v7.325c0,0.82843 0.67157,1.5 1.5,1.5h92.283c0.82843,0 1.5,-0.67157 1.5,-1.5v-7.325c0,-0.82843 -0.67157,-1.5 -1.5,-1.5h-1.854v-5.825c0,-0.82843 -0.67157,-1.5 -1.5,-1.5h-2.973c-0.12872,-2.07607 -1.24414,-3.96484 -3,-5.08v-35.652c1.75586,-1.11516 2.87128,-3.00393 3,-5.08h3.6c2.77828,-0.00331 5.02969,-2.25472 5.033,-5.033v-0.426c-0.0033,-2.77633 -2.25167,-5.02694 -5.028,-5.033zM120.934,33.663l34.172,28.295h-68.344zM113.081,72.45c0.12276,1.97522 1.13965,3.78662 2.762,4.92v35.973c-1.62235,1.13338 -2.63924,2.94478 -2.762,4.92h-16.257c-0.12872,-2.07607 -1.24414,-3.96484 -3,-5.08v-35.653c1.75586,-1.11516 2.87128,-3.00393 3,-5.08zM145.043,72.45c0.12276,1.97522 1.13965,3.78662 2.762,4.92v35.973c-1.62235,1.13338 -2.63924,2.94478 -2.762,4.92h-16.257c-0.12872,-2.07607 -1.24414,-3.96484 -3,-5.08v-35.653c1.75586,-1.11516 2.87128,-3.00393 3,-5.08zM118.843,112.167v-33.621h3.938v33.621zM119.561,115.167h2.746c1.77735,0.00229 3.27163,1.33455 3.477,3.1h-9.7c0.20537,-1.76545 1.69965,-3.09771 3.477,-3.1zM122.307,75.546h-2.746c-1.77735,-0.00229 -3.27163,-1.33455 -3.477,-3.1h9.7c-0.20537,1.76545 -1.69965,3.09771 -3.477,3.1zM90.345,75.546h-2.745c-1.77735,-0.00229 -3.27163,-1.33455 -3.477,-3.1h9.7c-0.20541,1.76583 -1.70027,3.09821 -3.478,3.1zM86.881,112.167v-33.621h3.938v33.621zM87.598,115.167h2.747c1.77735,0.00229 3.27163,1.33455 3.477,3.1h-9.7c0.20541,-1.76583 1.70027,-3.09821 3.478,-3.1zM165.575,132.913h-89.284v-4.325h89.283zM162.221,125.588h-82.576v-4.325h82.576zM148.046,118.263c0.20537,-1.76545 1.69965,-3.09771 3.477,-3.1h2.746c1.77735,0.00229 3.27163,1.33455 3.477,3.1zM154.746,78.546v33.621h-3.946v-33.621h3.938zM154.271,75.546h-2.746c-1.77735,-0.00229 -3.27163,-1.33455 -3.477,-3.1h9.7c-0.20546,1.7662 -1.70089,3.09872 -3.479,3.1zM166.387,67.417c-0.00165,1.12211 -0.91089,2.03135 -2.033,2.033h-86.838c-1.12211,-0.00165 -2.03135,-0.91089 -2.033,-2.033v-0.426c0.00165,-1.12211 0.91089,-2.03135 2.033,-2.033h86.836c1.12211,0.00165 2.03135,0.91089 2.033,2.033z" fill="#3f3679"></path><path d="M226.5,176.389c-0.82843,0 -1.5,0.67157 -1.5,1.5c0,0.82843 0.67157,1.5 1.5,1.5h7.487c0.82843,0 1.5,-0.67157 1.5,-1.5c0,-0.82843 -0.67157,-1.5 -1.5,-1.5z" fill="#3f3679"></path></g></g></svg>