<svg xmlns="http://www.w3.org/2000/svg" xmlns:xlink="http://www.w3.org/1999/xlink" viewBox="0,0,256,256" width="256px" height="256px" fill-rule="nonzero"><g fill="none" fill-rule="nonzero" stroke="none" stroke-width="1" stroke-linecap="butt" stroke-linejoin="miter" stroke-miterlimit="10" stroke-dasharray="" stroke-dashoffset="0" font-family="none" font-weight="none" font-size="none" text-anchor="none" style="mix-blend-mode: normal"><g transform="scale(0.5,0.5)"><circle cx="-58.4351" cy="125.9274" transform="rotate(-70.36)" r="47.03" fill="#89bf19"></circle><path d="M145.85,93.58c0.99411,25.95738 -19.24262,47.80589 -45.2,48.8c-25.95738,0.99411 -47.80589,-19.24262 -48.8,-45.2c0,0 10.65,37.26 49.72,35.76c39.07,-1.5 44.28,-39.36 44.28,-39.36z" fill="#3f456b" opacity="0.2"></path><path d="M52,101.07c-0.99687,-25.95738 19.23762,-47.80813 45.195,-48.805c25.95738,-0.99687 47.80813,19.23762 48.805,45.195c0,0 -10.65,-37.25 -49.72,-35.75c-39.07,1.5 -44.28,39.36 -44.28,39.36z" fill="#ffffff" opacity="0.3"></path><path d="M84.58,116.76c-1.34083,0.01306 -2.63071,-0.51298 -3.58,-1.46c-9.90523,-9.90523 -9.90523,-25.96477 0,-35.87c9.90523,-9.90523 25.96477,-9.90523 35.87,0c1.89486,1.96189 1.86776,5.08042 -0.06091,7.00909c-1.92867,1.92867 -5.0472,1.95577 -7.00909,0.06091c-6.0412,-5.75353 -15.56911,-5.63735 -21.46823,0.26177c-5.89912,5.89912 -6.0153,15.42703 -0.26177,21.46823c1.42533,1.42979 1.85096,3.57648 1.07897,5.44193c-0.77199,1.86545 -2.5901,3.08361 -4.60897,3.08807z" fill="#3f456b" opacity="0.3"></path><circle cx="471.46" cy="56.98" r="26.5" fill="#89bf19"></circle><path d="M448.6,63.31c0,0 1.15,-20 21.92,-21.86c20.77,-1.86 25.18,19.26 25.18,19.26c0,0 0.67,-32.33 -24,-30.22c-29.04,2.51 -23.1,32.82 -23.1,32.82z" fill="#ffffff" opacity="0.3"></path><path d="M495,51.06c0,0 -1.15,20 -21.92,21.86c-20.77,1.86 -25.18,-19.25 -25.18,-19.25c0,0 -0.67,32.32 24,30.22c29.1,-2.48 23.1,-32.83 23.1,-32.83z" fill="#3f456b" opacity="0.15"></path><circle cx="41.46" cy="452.98" r="26.5" fill="#89bf19"></circle><path d="M18.6,459.31c0,0 1.15,-20 21.92,-21.86c20.77,-1.86 25.18,19.26 25.18,19.26c0,0 0.67,-32.33 -24,-30.22c-29.04,2.51 -23.1,32.82 -23.1,32.82z" fill="#ffffff" opacity="0.3"></path><path d="M65,447.06c0,0 -1.15,20 -21.92,21.86c-20.77,1.86 -25.18,-19.25 -25.18,-19.25c0,0 -0.67,32.32 24,30.22c29.1,-2.48 23.1,-32.83 23.1,-32.83z" fill="#3f456b" opacity="0.15"></path><circle cx="-229.07521" cy="280.97542" transform="rotate(-84.29)" r="223.13" fill="#8bd0f7"></circle><path d="M200.72,56.69c-58.51042,0 -111.25934,35.24636 -133.64937,89.30332c-22.39003,54.05696 -10.0117,116.27859 31.36284,157.65028c41.37454,41.37168 103.59703,53.74571 157.65245,31.35194c54.05542,-22.39377 89.29813,-75.14512 89.29409,-133.65554c0,-38.3653 -15.24124,-75.15911 -42.37054,-102.28653c-27.1293,-27.12742 -63.92416,-42.36612 -102.28946,-42.36347z" fill="#ffffff" opacity="0.5"></path><path d="M154.72,112.07c-17.50604,0 -33.28813,10.54592 -39.98646,26.71977c-6.69834,16.17386 -2.99365,34.79014 9.38642,47.16735c12.38007,12.37721 30.99721,16.07759 47.16951,9.37552c16.17231,-6.70207 26.71458,-22.4866 26.71053,-39.99264c0,-11.47765 -4.56016,-22.48506 -12.67702,-30.60005c-8.11686,-8.11499 -19.12533,-12.67261 -30.60298,-12.66995z" fill="#ffffff" opacity="0.5"></path><g fill="#3f456b" opacity="0.3"><path d="M256,484c-2.76142,0 -5,-2.23858 -5,-5v-446c0,-2.76142 2.23858,-5 5,-5c2.76142,0 5,2.23858 5,5v446c0,2.76142 -2.23858,5 -5,5z"></path><path d="M471,261h-430c-2.76142,0 -5,-2.23858 -5,-5c0,-2.76142 2.23858,-5 5,-5h430c2.76142,0 5,2.23858 5,5c0,2.76142 -2.23858,5 -5,5z"></path><path d="M311.76,476.84c-1.73653,0.00169 -3.34957,-0.89775 -4.26093,-2.37591c-0.91136,-1.47816 -0.99051,-3.32332 -0.20907,-4.87409c0.37,-0.72 36.53,-74.45 36.53,-213.29c0,-138.84 -36.17,-213.39 -36.54,-214.13c-1.22883,-2.48528 -0.21028,-5.49617 2.275,-6.725c2.48528,-1.22883 5.49617,-0.21028 6.725,2.275c1.53,3.08 37.58,77.13 37.58,218.58c0,141.45 -36.1,214.7 -37.63,217.79c-0.8505,1.68782 -2.58001,2.75184 -4.47,2.75z"></path><path d="M367.91,454.07c-1.98936,-0.00269 -3.78787,-1.18445 -4.57989,-3.00936c-0.79202,-1.8249 -0.42685,-3.94572 0.92989,-5.40064c0.15,-0.16 15.39,-16.72 30.42,-48.22c13.86,-29 30.38,-77.11 30.38,-141.18c0,-64.3 -16.63,-112.7 -30.59,-142c-15,-31.55 -30.08,-48 -30.23,-48.17c-1.87501,-2.02965 -1.74965,-5.19499 0.28,-7.07c2.02965,-1.87501 5.19499,-1.74965 7.07,0.28c0.65,0.71 16.23,17.75 31.91,50.66c14.4,30.21 31.56,80.11 31.56,146.28c0,66.17 -17.17,115.9 -31.56,145.94c-15.69,32.74 -31.28,49.6 -31.93,50.3c-0.94647,1.01496 -2.27221,1.5909 -3.66,1.59z"></path><path d="M204.7,476.84c-1.88999,0.00184 -3.6195,-1.06218 -4.47,-2.75c-1.54,-3 -37.6,-76.32 -37.6,-217.79c0,-141.47 36.05,-215.5 37.59,-218.58c0.76096,-1.65668 2.3633,-2.76788 4.18161,-2.89987c1.81831,-0.13199 3.56433,0.73614 4.55657,2.26556c0.99224,1.52942 1.07341,3.47767 0.21182,5.08431v0c-0.36,0.74 -36.54,75.28 -36.54,214.13c0,138.85 36.17,212.57 36.53,213.3c0.77588,1.54834 0.69526,3.38793 -0.21308,4.86247c-0.90835,1.47454 -2.51506,2.37401 -4.24692,2.37753z"></path><path d="M148.54,455.07c-1.39779,0.00131 -2.7323,-0.58254 -3.68,-1.61c-0.65,-0.72 -16.23,-17.82 -31.91,-50.79c-14.39,-30.27 -31.55,-80.24 -31.55,-146.41c0,-66.17 17.15,-116.59 31.54,-147.26c15.67,-33.38 31.22,-50.89 31.88,-51.62c1.16888,-1.41284 3.01736,-2.0725 4.81663,-1.71891c1.79927,0.3536 3.26064,1.66372 3.80793,3.41383c0.54729,1.75011 0.09269,3.65939 -1.18456,4.97508c-0.28,0.32 -15.47,17.56 -30.45,49.6c-13.88,29.68 -30.41,78.5 -30.41,142.61c0,122.91 60.21,189.76 60.82,190.42c1.34684,1.46019 1.70153,3.5792 0.9036,5.39839c-0.79793,1.81919 -2.59711,2.99347 -4.5836,2.99161z"></path><path d="M256.39,184.22c-129.67,0 -190.23,-36.39 -192.74,-37.94c-1.61455,-0.88918 -2.60896,-2.59454 -2.58762,-4.43762c0.02134,-1.84309 1.05497,-3.52496 2.68968,-4.37652c1.63471,-0.85156 3.60535,-0.73468 5.12794,0.30414v0c0.6,0.36 61,36.45 187.51,36.45c126.94,0 188.53,-34.27 189.13,-34.62c2.39968,-1.38071 5.46429,-0.55468 6.845,1.845c1.38071,2.39968 0.55468,5.46429 -1.845,6.845c-2.62,1.46 -64.52,35.93 -194.13,35.93z"></path><path d="M256.67,111.37c-81.87,0 -120.26,-37.05 -121.85,-38.63c-1.78681,-1.96245 -1.72902,-4.97901 0.13165,-6.87158c1.86067,-1.89257 4.87582,-2.00162 6.86835,-0.24842v0c0.37,0.36 37.36,35.75 114.83,35.75c77.91,0 115.52,-33.62 115.89,-34c2.03793,-1.86396 5.20104,-1.72293 7.065,0.315c1.86396,2.03793 1.72293,5.20104 -0.315,7.065c-1.61,1.53 -40.86,36.62 -122.62,36.62z"></path><path d="M64.28,369.77c-2.24275,0.00388 -4.2137,-1.4861 -4.82152,-3.64491c-0.60782,-2.15882 0.29621,-4.45825 2.21152,-5.62509c2.54,-1.54 63.71,-37.91 194.71,-37.91c131,0 193.48,34.41 196.08,35.91c2.4052,1.35862 3.25362,4.4098 1.895,6.815c-1.35862,2.4052 -4.4098,3.25362 -6.815,1.895c-0.61,-0.34 -63.19,-34.62 -191.16,-34.62c-66.83,0 -114.81,9.91 -143.29,18.23c-30.83,9.01 -46.09,18.18 -46.23,18.23c-0.77851,0.47018 -1.67052,0.71911 -2.58,0.72z"></path><path d="M138.33,442.61c-2.02404,-0.00445 -3.84574,-1.22873 -4.61441,-3.10114c-0.76867,-1.8724 -0.33267,-4.02353 1.10441,-5.44886c1.59,-1.57 40,-38.63 121.85,-38.63c81.85,0 121,35.09 122.64,36.59c1.38993,1.18693 2.02145,3.03769 1.64698,4.82667c-0.37447,1.78899 -1.69525,3.23109 -3.44453,3.76092c-1.74928,0.52983 -3.64827,0.06295 -4.95245,-1.21759c-0.37,-0.33 -38.31,-34 -115.89,-34c-77.58,0 -114.46,35.39 -114.83,35.75c-0.93051,0.93348 -2.19198,1.46179 -3.51,1.47z"></path><path d="M33.66,260.89c-2.76142,0 -5,-2.23858 -5,-5c0,-2.76142 2.23858,-5 5,-5h446.34c2.76142,0 5,2.23858 5,5c0,2.76142 -2.23858,5 -5,5z"></path></g><path d="M103.8,416.25c86,86 225.5,86 311.53,0c86.03,-86 86,-225.5 0,-311.53c0,0 86.55,171.2 -26.8,284.55c-117.95,117.95 -284.73,26.98 -284.73,26.98z" fill="#3f456b" opacity="0.3"></path><circle cx="-78.44609" cy="301.8838" transform="rotate(-70.36)" r="47.03" fill="#89bf19"></circle><path d="M304.85,171.58c0.99411,25.95738 -19.24262,47.80589 -45.2,48.8c-25.95738,0.99411 -47.80589,-19.24262 -48.8,-45.2c0,0 10.65,37.26 49.72,35.76c39.07,-1.5 44.28,-39.36 44.28,-39.36z" fill="#3f456b" opacity="0.2"></path><path d="M211,179.07c-0.99687,-25.95738 19.23762,-47.80813 45.195,-48.805c25.95738,-0.99687 47.80813,19.23762 48.805,45.195c0,0 -10.65,-37.25 -49.72,-35.75c-39.07,1.5 -44.28,39.36 -44.28,39.36z" fill="#ffffff" opacity="0.3"></path><circle cx="-258.36277" cy="273.72725" transform="rotate(-70.36)" r="47.03" fill="#89bf19"></circle><path d="M217.85,331.58c0.99411,25.95738 -19.24262,47.80589 -45.2,48.8c-25.95738,0.99411 -47.80589,-19.24262 -48.8,-45.2c0,0 10.65,37.26 49.72,35.76c39.07,-1.5 44.28,-39.36 44.28,-39.36z" fill="#3f456b" opacity="0.2"></path><path d="M124,339.07c-0.99687,-25.95738 19.23762,-47.80813 45.195,-48.805c25.95738,-0.99687 47.80813,19.23762 48.805,45.195c0,0 -10.65,-37.25 -49.72,-35.75c-39.07,1.5 -44.28,39.36 -44.28,39.36z" fill="#ffffff" opacity="0.3"></path><path d="M258,200.73c-14.01146,0 -25.37,-11.35854 -25.37,-25.37c0,-14.01146 11.35854,-25.37 25.37,-25.37c14.01146,0 25.37,11.35854 25.37,25.37c-0.01653,14.00461 -11.36539,25.35347 -25.37,25.37zM258,160c-6.21749,0 -11.82259,3.74586 -14.20098,9.49047c-2.3784,5.7446 -1.06157,12.3563 3.33629,16.7513c4.39786,4.395 11.01041,5.70752 16.75347,3.32539c5.74305,-2.38214 9.48527,-7.98966 9.48122,-14.20716c-0.01103,-8.48243 -6.88757,-15.35449 -15.37,-15.36z" fill="#3f456b" opacity="0.3"></path><path d="M171,360.73c-14.01146,0 -25.37,-11.35854 -25.37,-25.37c0,-14.01146 11.35854,-25.37 25.37,-25.37c14.01146,0 25.37,11.35854 25.37,25.37c-0.01653,14.00461 -11.36539,25.35347 -25.37,25.37zM171,320c-6.21749,0 -11.82259,3.74586 -14.20098,9.49047c-2.3784,5.7446 -1.06157,12.3563 3.33629,16.7513c4.39786,4.395 11.01041,5.70752 16.75347,3.32539c5.74305,-2.38214 9.48527,-7.98966 9.48122,-14.20716c-0.01103,-8.48243 -6.88757,-15.35449 -15.37,-15.36z" fill="#3f456b" opacity="0.3"></path><path d="M486,419.22c0,42.46517 -34.42483,76.89 -76.89,76.89c-42.46517,0 -76.89,-34.42483 -76.89,-76.89c0,-42.46517 34.42483,-76.89 76.89,-76.89c42.46289,0.00552 76.88448,34.42711 76.89,76.89z" fill="#89bf19"></path><path d="M485.54,416.43c0.49,43.43 -33.42,79 -75.75,79.5c-42.33,0.5 -77.05,-34.32 -77.55,-77.74c0,0 14.77,64.28 78.47,62c62.29,-2.19 74.83,-63.76 74.83,-63.76z" fill="#3f456b" opacity="0.15"></path><path d="M333.14,421.81c-0.5,-43.42 33.42,-79 75.75,-79.5c42.33,-0.5 77.05,34.33 77.54,77.75c0,0 -14.77,-64.28 -78.46,-62c-62.29,2.18 -74.83,63.75 -74.83,63.75z" fill="#ffffff" opacity="0.3"></path><path d="M353.72,473.59c-30.02772,-30.02772 -30.02772,-78.71228 0,-108.74c30.02772,-30.02772 78.71228,-30.02772 108.74,0z" fill="#ffffff" opacity="0.3"></path><g fill="#3f456b"><path d="M256.79,484c-60.50119,0.00265 -118.52545,-24.02881 -161.30813,-66.80773c-42.78267,-42.77892 -66.81922,-100.80108 -66.82187,-161.30227c0,-43.86 13.56,-86.77 41.46,-131.17c13,-20.63 44.23,-47 45.56,-48.09l0.12,-0.1c68.67011,-53.97378 162.12879,-64.00385 240.68817,-25.83087c78.55938,38.17298 128.42917,117.84814 128.43183,205.19087c0.11029,36.32084 -8.54824,72.13165 -25.24,104.39l-8.89,-4.58c34.77726,-67.63069 31.82827,-148.49049 -7.78309,-213.4082c-39.61136,-64.91771 -110.16845,-104.52453 -186.21691,-104.5318c-48.8918,-0.1769 -96.39609,16.24547 -134.74,46.58c-1.5,1.26 -31.58,26.79 -43.46,45.7c-26.87,42.76 -39.93,83.96 -39.93,125.85c0.03644,73.00206 36.57122,141.15134 97.35,181.58947c60.77878,40.43813 137.75139,47.80909 205.1,19.64053l3.87,9.23c-27.92432,11.70942 -57.91006,17.71065 -88.19,17.65z"></path><path d="M409.1,457.7c-16.84,0 -27.93,-8.47 -28.32,-21.71c-0.08284,-2.76142 2.08858,-5.06716 4.85,-5.15c2.76142,-0.08284 5.06716,2.08858 5.15,4.85c0.33,11.06 13.29,12.08 18.86,12c5.57,-0.08 10.72,-2.2 13.51,-5.41c1.82746,-2.07497 2.62111,-4.86374 2.16,-7.59c-0.51,-3.89 -2.84,-6.8 -12.55,-8.39l-2.83,-0.43c-8.39,-1.27 -17.89,-2.7 -24.37,-11.87c-2.58943,-3.59164 -3.58752,-8.09026 -2.76,-12.44c1.26584,-5.85904 4.78137,-10.98691 9.79,-14.28c7.21,-4.89 18.27,-5.64 27.5,-1.85c6.70318,2.6901 12.02168,7.99416 14.73,14.69c0.70823,1.67528 0.45087,3.60301 -0.67204,5.03383c-1.12291,1.43081 -2.93422,2.139 -4.72983,1.84926c-1.79561,-0.28974 -3.29225,-1.5317 -3.90813,-3.24308c-1.72772,-4.13956 -5.0463,-7.4113 -9.21,-9.08c-6.17,-2.53 -13.61,-2.17 -18.1,0.88c-2.77229,1.79957 -4.75916,4.58333 -5.56,7.79c-0.34065,1.70615 0.05124,3.47692 1.08,4.88c3.83,5.41 9.22,6.47 17.7,7.75c1,0.15 2,0.29 2.95,0.45c4.71,0.77 19,3.11 20.85,17c0.83137,5.55579 -0.81735,11.19653 -4.51,15.43c-4.71,5.44 -12.54,8.75 -20.94,8.86z"></path><path d="M409,393c-2.76142,0 -5,-2.23858 -5,-5v-15c0,-2.76142 2.23858,-5 5,-5c2.76142,0 5,2.23858 5,5v15c0,2.76142 -2.23858,5 -5,5z"></path><path d="M409,473c-2.76142,0 -5,-2.23858 -5,-5v-15c0,-2.76142 2.23858,-5 5,-5c2.76142,0 5,2.23858 5,5v15c0,2.76142 -2.23858,5 -5,5z"></path><path d="M409.09,501.11c-45.22399,-0.01105 -81.87736,-36.67934 -81.87,-81.90333c0.00736,-45.22399 36.67267,-81.88035 81.89666,-81.87667c45.22399,0.00368 81.88333,36.666 81.88333,81.89v0c-0.06062,45.20927 -36.70071,81.84042 -81.91,81.89zM409.09,347.33c-39.70115,0.01104 -71.87736,32.20218 -71.87,71.90333c0.00736,39.70115 32.19552,71.88035 71.89666,71.87667c39.70115,-0.00368 71.88333,-32.18885 71.88334,-71.89c-0.0606,-39.68643 -32.22356,-71.84044 -71.91,-71.89z"></path><path d="M471.43,88.47c-14.75344,-0.02149 -27.51415,-10.28312 -30.70081,-24.68832c-3.18666,-14.4052 4.05513,-29.0917 17.42291,-35.33405c13.36778,-6.24235 29.27745,-2.36687 38.27684,9.32396c8.99939,11.69083 8.67563,28.06251 -0.77894,39.3884v0c-5.9898,7.18405 -14.8665,11.3292 -24.22,11.31zM471.49,35.47c-0.65,0 -1.31,0 -2,0.09c-9.67728,0.90874 -17.54126,8.19713 -19.18154,17.77757c-1.64028,9.58045 3.35115,19.06983 12.17492,23.14616c8.82377,4.07633 19.28499,1.72564 25.51662,-5.73374v0c5.34025,-6.40353 6.49654,-15.31731 2.96685,-22.87143c-3.52968,-7.55413 -11.10879,-12.38627 -19.44685,-12.39857z"></path><path d="M41.43,484.47c-14.75344,-0.02149 -27.51415,-10.28312 -30.70081,-24.68832c-3.18666,-14.4052 4.05513,-29.0917 17.42291,-35.33405c13.36778,-6.24235 29.27745,-2.36687 38.27684,9.32396c8.99939,11.69083 8.67563,28.06251 -0.77894,39.3884v0c-5.9898,7.18405 -14.8665,11.3292 -24.22,11.31zM41.49,431.47c-0.65,0 -1.31,0 -2,0.09c-9.67728,0.90874 -17.54126,8.19713 -19.18154,17.77757c-1.64028,9.58045 3.35115,19.06983 12.17492,23.14616c8.82377,4.07633 19.28499,1.72564 25.51662,-5.73374v0c5.34025,-6.40353 6.49654,-15.31731 2.96685,-22.87143c-3.52968,-7.55413 -11.10879,-12.38627 -19.44685,-12.39857z"></path><rect x="229.50456" y="366.06961" transform="rotate(-44.07)" width="43.14" height="10"></rect><path d="M62,440c-2.05562,0.00143 -3.90265,-1.2554 -4.6558,-3.16808c-0.75315,-1.91268 -0.25892,-4.09142 1.2458,-5.49192l30,-28c2.02136,-1.88329 5.18671,-1.77136 7.07,0.25c1.88329,2.02136 1.77136,5.18671 -0.25,7.07l-30,28c-0.92618,0.86203 -2.14473,1.34088 -3.41,1.34z"></path><path d="M68.11,355.58c-28.23,0 -53.74,-4.67 -58.81,-20.57c-3.75,-11.74 4.62,-26 24.88,-42.46c2.14872,-1.63864 5.2106,-1.27357 6.9138,0.82434c1.7032,2.09791 1.43137,5.16947 -0.6138,6.93566c-16,13 -23.92,24.55 -21.66,31.66c3.39,10.63 33,19.38 105.15,9.08c2.73381,-0.39212 5.26788,1.50619 5.66,4.24c0.39212,2.73381 -1.50619,5.26788 -4.24,5.66c-16.39,2.33 -37.48,4.63 -57.28,4.63z"></path><path d="M217.88,331.71c-2.5179,0.00265 -4.64496,-1.86743 -4.96477,-4.36494c-0.3198,-2.49751 1.26743,-4.8432 3.70477,-5.47506c18.45,-4.87 37.38,-10.32 56.18,-16.33c64.55,-20.54 123.41,-45.54 165.71,-70.25c20.34,-11.88 35.65,-23 45.51,-33c8.88,-9.05 12.84,-16.94 11.16,-22.21c-2.29,-7.17 -15.59,-12 -36.5,-13.3c-2.76142,-0.16845 -4.86345,-2.54358 -4.695,-5.305c0.16845,-2.76142 2.54358,-4.86345 5.305,-4.695c26.37,1.61 41.64,8.42 45.41,20.24c2.95,9.24 -1.61,20.09 -13.54,32.25c-10.48,10.69 -26.5,22.35 -47.61,34.68c-42.92,25.05 -102.48,50.31 -167.71,71.12c-19,6.06 -38.07,11.6 -56.69,16.48c-0.41473,0.10753 -0.84156,0.1613 -1.27,0.16z"></path><path d="M456.31,363.5c-2.57875,0.00289 -4.73672,-1.95588 -4.98279,-4.52287c-0.24608,-2.56699 1.50046,-4.90006 4.03279,-5.38713c15.79,-3 35.6,-9.74 40.31,-24.26c5.45,-16.79 -11,-41.18 -45.24,-66.93c-35.92,-27 -88.17,-53.5 -147.11,-74.52c-2.60126,-0.92784 -3.95784,-3.78874 -3.03,-6.39c0.92784,-2.60126 3.78874,-3.95784 6.39,-3.03c59.87,21.35 113.06,48.33 149.76,76c38.94,29.3 55.79,56.27 48.74,78c-4.92,15.16 -21.49,25.87 -47.92,31c-0.31477,0.04249 -0.63278,0.05588 -0.95,0.04z"></path><path d="M35.19,227.16c-1.37783,0.00055 -2.69481,-0.56749 -3.64,-1.57c-18.68,-19.82 -25.94,-38.37 -21,-53.64c6.17,-19 30,-30.68 69,-33.76c36.07,-2.86 84.23,2 135.6,13.57c1.7778,0.35999 3.2212,1.65456 3.77178,3.38286c0.55058,1.7283 0.12197,3.61923 -1.12001,4.94122c-1.24198,1.32199 -3.10251,1.86767 -4.86177,1.42592c-101.73,-23 -182.82,-17.3 -192.83,13.53c-4.75,14.63 7.58,31.84 18.76,43.69c1.36921,1.45224 1.74357,3.57967 0.95235,5.41208c-0.79122,1.83241 -2.59642,3.01872 -4.59235,3.01792z"></path><path d="M258,227.39c-28.71881,0 -52,-23.28119 -52,-52c0,-28.71881 23.28119,-52 52,-52c28.71881,0 52,23.28119 52,52c-0.04954,28.69826 -23.30174,51.95046 -52,52zM258,133.39c-23.19596,0 -42,18.80404 -42,42c0,23.19596 18.80404,42 42,42c23.19596,0 42,-18.80404 42,-42c-0.011,-23.1995 -18.80053,-42.0114 -42,-42.05z"></path><path d="M171,387.39c-28.71881,0 -52,-23.28119 -52,-52c0,-28.71881 23.28119,-52 52,-52c28.71881,0 52,23.28119 52,52c-0.04954,28.69826 -23.30174,51.95046 -52,52zM171,293.34c-23.19596,0 -42,18.80404 -42,42c0,23.19596 18.80404,42 42,42c23.19596,0 42,-18.80404 42,-42c-0.03854,-23.17998 -18.82002,-41.96146 -42,-42z"></path><path d="M65.72,135.62c-1.32496,-0.00293 -2.59458,-0.53164 -3.53,-1.47c-20.31579,-20.31579 -20.31579,-53.25421 0,-73.57c20.31579,-20.31579 53.25421,-20.31579 73.57,0c1.29978,1.25537 1.82106,3.11439 1.36349,4.86254c-0.45758,1.74815 -1.8228,3.11337 -3.57095,3.57095c-1.74815,0.45758 -3.60716,-0.0637 -4.86254,-1.36349c-16.41114,-16.41114 -43.01886,-16.41114 -59.43,0c-16.41114,16.41114 -16.41114,43.01886 0,59.43c1.43377,1.43014 1.8633,3.58389 1.08784,5.45463c-0.77546,1.87074 -2.60275,3.08899 -4.62784,3.08537z"></path></g></g></g></svg>