<svg xmlns="http://www.w3.org/2000/svg" xmlns:xlink="http://www.w3.org/1999/xlink" viewBox="0,0,256,256" width="270px" height="270px" fill-rule="nonzero"><g fill="none" fill-rule="nonzero" stroke="none" stroke-width="1" stroke-linecap="butt" stroke-linejoin="miter" stroke-miterlimit="10" stroke-dasharray="" stroke-dashoffset="0" font-family="none" font-weight="none" font-size="none" text-anchor="none" style="mix-blend-mode: normal"><g transform="scale(1.8963,1.8963)"><path d="M103.15462,13.68839v107.59998c0,3.03003 -1.70001,5.66003 -4.20001,6.97002c-1.09003,0.57996 -2.34003,0.90997 -3.66998,0.90997h-55.55004c-1.57996,0 -3.06,-0.45996 -4.28998,-1.27996c-2.16998,-1.40002 -3.59003,-3.84003 -3.59003,-6.60004v-107.59998c0,-4.34998 3.54004,-7.88 7.88001,-7.88h55.55005c1.57996,0 3.04999,0.47003 4.29999,1.29004c2.14996,1.39996 3.57001,3.82996 3.57001,6.58997z" fill="#89bf19"></path><path d="M42.04458,116.57841v1.79999h0.03003c2.35999,0 4.28998,1.92999 4.28998,4.29999v5.21002c0,0.44994 -0.07001,0.88 -0.19,1.27996h-6.44c-1.57996,0 -3.06,-0.45996 -4.28998,-1.27996c-2.16998,-1.40002 -3.59003,-3.84003 -3.59003,-6.60004v-18.51001h10.22003c2.35999,0 4.28998,1.93005 4.28998,4.30005v5.20996c0,2.37 -1.92999,4.29004 -4.28998,4.29004z" fill="#000000" opacity="0.05"></path><path d="M103.15462,100.0084v21.27997c0,3.03003 -1.70001,5.66003 -4.20001,6.97002c-1.09003,0.57996 -2.34003,0.90997 -3.66998,0.90997h-17.56006c-0.37,-0.72998 -0.57996,-1.54998 -0.57996,-2.41998v-21.29999c0,-3 2.44,-5.44 5.42999,-5.44z" fill="#000000" opacity="0.05"></path><path d="M91.93275,5.82154l-36.35024,123.35511h-15.85514c-1.58669,0 -3.06523,-0.46878 -4.29733,-1.2802l35.97155,-122.07492z" fill="#ffffff"></path><path d="M99.57181,7.10173l-35.97155,122.07492h-5.60761l36.3502,-123.35512h0.92561c1.58673,0 3.06523,0.46882 4.30335,1.28019z" fill="#ffffff"></path><path d="M99.57461,13.68839v107.59998c0,2.37 -1.92999,4.29999 -4.28998,4.29999h-55.55004c-2.35999,0 -4.28998,-1.92999 -4.28998,-4.29999v-107.59998c0,-2.35999 1.92999,-4.29999 4.28998,-4.29999h9.92004c0,2.10999 1.71997,3.83002 3.81995,3.83002h31.13c2.12,0 3.82001,-1.72003 3.82001,-3.83002h6.86005c2.35999,0 4.28998,1.94 4.28998,4.29999z" fill="#ffffff"></path><path d="M42.04458,116.57841v1.79999h0.03003c2.35999,0 4.28998,1.92999 4.28998,4.29999v2.90997h-6.63c-2.35999,0 -4.28998,-1.92999 -4.28998,-4.29999v-18.51001h6.63c2.35999,0 4.28998,1.93005 4.28998,4.30005v5.20996c0,2.37 -1.92999,4.29004 -4.28998,4.29004h-0.03003z" fill="#000000" opacity="0.05"></path><path d="M99.57461,100.0084v21.27997c0,2.37 -1.92999,4.29999 -4.28998,4.29999h-18.14001v-20.13995c0,-3 2.44,-5.44 5.42999,-5.44h17z" fill="#000000" opacity="0.05"></path><path d="M99.57461,118.51841v2.76996c0,2.37 -1.92999,4.29999 -4.28998,4.29999h-55.55004c-2.35999,0 -4.28998,-1.92999 -4.28998,-4.29999v-2.76996c0,2.37 1.92999,4.29999 4.28998,4.29999h55.55005c2.35999,0 4.28998,-1.92999 4.28998,-4.29999z" fill="#d4f4ff"></path><path d="M99.57461,13.68839v2.59003c0,-2.36005 -1.92999,-4.30005 -4.28998,-4.30005h-6.86005c0,2.11005 -1.70001,3.83002 -3.82001,3.83002h-31.13c-2.09998,0 -3.81995,-1.71997 -3.81995,-3.83002h-9.92004c-2.35999,0 -4.28998,1.94 -4.28998,4.30005v-2.59003c0,-2.35999 1.92999,-4.29999 4.28998,-4.29999h9.92004c0,2.10999 1.71997,3.83002 3.81995,3.83002h31.13c2.12,0 3.82001,-1.72003 3.82001,-3.83002h6.86005c2.35999,0 4.28998,1.94 4.28998,4.29999z" fill="#d4f4ff"></path><path d="M39.04694,114.87578v5.21035c0,0.71464 -0.57933,1.29397 -1.29396,1.29397h-31.05519c-0.71464,0 -1.29397,-0.57933 -1.29397,-1.29397v-5.21035c0,-0.71464 0.57933,-1.29397 1.29397,-1.29397h31.05519c0.71464,0 1.29396,0.57933 1.29396,1.29397z" fill="#ffffff"></path><path d="M39.05125,116.46307v-1.58729c0,-0.71596 -0.58659,-1.29397 -1.29396,-1.29397h-31.05519c-0.71601,0 -1.29397,0.57801 -1.29397,1.29397v1.58729c0,-0.70737 0.57796,-1.29397 1.29397,-1.29397h31.05519c0.70737,0 1.29396,0.58659 1.29396,1.29397z" fill="#ffffff" opacity="0.3"></path><path d="M39.05125,118.49884v1.58729c0,0.71596 -0.58659,1.29397 -1.29396,1.29397h-31.05519c-0.71601,0 -1.29397,-0.57801 -1.29397,-1.29397v-1.58729c0,0.70737 0.57796,1.29397 1.29397,1.29397h31.05519c0.70737,0 1.29396,-0.58659 1.29396,-1.29397z" fill="#000000" opacity="0.05"></path><g><path d="M9.72136,122.67406v5.21035c0,0.71463 0.57933,1.29396 1.29397,1.29396h31.05519c0.71464,0 1.29396,-0.57933 1.29396,-1.29396v-5.21035c0,-0.71464 -0.57933,-1.29397 -1.29396,-1.29397h-31.05519c-0.71464,0 -1.29397,0.57933 -1.29397,1.29397z" fill="#ffffff"></path><path d="M9.71704,124.26135v-1.58729c0,-0.71596 0.58659,-1.29397 1.29397,-1.29397h31.05519c0.71601,0 1.29397,0.57801 1.29397,1.29397v1.58729c0,-0.70737 -0.57796,-1.29397 -1.29397,-1.29397h-31.05519c-0.70737,0 -1.29397,0.58659 -1.29397,1.29397z" fill="#ffffff" opacity="0.3"></path><path d="M9.71704,126.29713v1.58729c0,0.71596 0.58659,1.29396 1.29397,1.29396h31.05519c0.71601,0 1.29397,-0.578 1.29397,-1.29396v-1.58729c0,0.70737 -0.57796,1.29397 -1.29397,1.29397h-31.05519c-0.70737,0 -1.29397,-0.58659 -1.29397,-1.29397z" fill="#000000" opacity="0.05"></path></g><g><path d="M9.72136,107.07749v5.21035c0,0.71465 0.57933,1.29397 1.29397,1.29397h31.05519c0.71464,0 1.29396,-0.57932 1.29396,-1.29397v-5.21035c0,-0.71464 -0.57933,-1.29396 -1.29396,-1.29396h-31.05519c-0.71464,0 -1.29397,0.57932 -1.29397,1.29396z" fill="#ffffff"></path><path d="M9.71704,108.66478v-1.58729c0,-0.71596 0.58659,-1.29396 1.29397,-1.29396h31.05519c0.71601,0 1.29397,0.578 1.29397,1.29396v1.58729c0,-0.70737 -0.57796,-1.29396 -1.29397,-1.29396h-31.05519c-0.70737,0 -1.29397,0.58659 -1.29397,1.29396z" fill="#ffffff" opacity="0.3"></path><path d="M9.71704,110.70055v1.58729c0,0.71596 0.58659,1.29397 1.29397,1.29397h31.05519c0.71601,0 1.29397,-0.57801 1.29397,-1.29397v-1.58729c0,0.70737 -0.57796,1.29397 -1.29397,1.29397h-31.05519c-0.70737,0 -1.29397,-0.58659 -1.29397,-1.29397z" fill="#000000" opacity="0.05"></path></g><g><path d="M125.90597,105.4446v21.30344c0,1.34227 -1.08806,2.43033 -2.43034,2.43033h-40.89855c-1.34222,0 -2.43027,-1.08806 -2.43027,-2.43033v-21.30344c0,-1.35239 1.08806,-2.44045 2.43027,-2.44045h40.89855c1.34228,0 2.43034,1.08806 2.43034,2.44045z" fill="#89bf19"></path><path d="M80.27143,127.48022c0.31213,0.98193 1.22032,1.69815 2.30565,1.69815h40.89855c1.08533,0 1.99358,-0.71622 2.30571,-1.69815z" fill="#000000" opacity="0.05"></path><path d="M125.75341,104.59047c-0.2644,-0.10167 -0.54909,-0.15256 -0.84402,-0.15256h-40.89849c-1.34228,0 -2.43034,1.08806 -2.43034,2.44051v21.30344c0,0.29486 0.05083,0.57962 0.15256,0.84395c-0.92539,-0.34569 -1.58632,-1.23037 -1.58632,-2.27777v-21.30344c0,-1.35239 1.08806,-2.44045 2.43027,-2.44045h40.89855c1.04734,0 1.93208,0.66093 2.27778,1.58632z" fill="#ffffff" opacity="0.3"></path><path d="M122.85535,109.10537v13.97179c-1.68481,0 -3.05061,1.36581 -3.05061,3.05061h-33.55672c0,-1.68481 -1.3658,-3.05061 -3.05061,-3.05061v-13.97179c1.68481,0 3.05061,-1.3658 3.05061,-3.05061h33.55672c0,1.68481 1.36581,3.05061 3.05061,3.05061z" fill="#ffffff"></path><path d="M121.10631,108.55628h-32.48902c0,1.68798 -1.36257,3.05061 -3.05061,3.05061v12.5888c-0.56945,-0.68129 -1.41341,-1.11854 -2.36926,-1.11854v-13.97179c1.68797,0 3.05061,-1.36263 3.05061,-3.05061h33.55672c0,1.03722 0.51862,1.95237 1.30157,2.50152z" fill="#d4f4ff"></path><path d="M122.85535,109.10537v1.36257c-0.33559,-0.40671 -0.55927,-0.89478 -0.64063,-1.42358c0.2135,0.04065 0.42707,0.061 0.64063,0.061z" fill="#d4f4ff"></path><path d="M122.21472,109.04436c-0.40678,-0.09155 -0.78301,-0.25422 -1.10841,-0.48808h1.0677c0,0.16267 0.01019,0.32535 0.04072,0.48808z" fill="#d4f4ff"></path><circle cx="-89.31387" cy="126.94294" transform="rotate(-76.717)" r="6.724" fill="#89bf19"></circle></g><g><path d="M49.52576,42.01081v14.8695c0,0.40339 -0.32701,0.73039 -0.73039,0.73039h-4.68223c-0.40339,0 -0.73039,-0.32701 -0.73039,-0.73039v-14.8695c0,-0.40338 0.327,-0.73039 0.73039,-0.73039h4.68223c0.40338,0 0.73039,0.32701 0.73039,0.73039z" fill="#ff4b3a"></path><path d="M46.34677,57.6107h-2.23503c-0.40897,0 -0.73039,-0.32151 -0.73039,-0.73039v-14.8708c0,-0.40906 0.32141,-0.73039 0.73039,-0.73039h2.23503c-0.39444,0 -0.73039,0.32133 -0.73039,0.73039v14.8708c0,0.40889 0.33595,0.73039 0.73039,0.73039z" fill="#fc6868"></path><path d="M63.56037,34.70692v22.17339c0,0.40339 -0.32701,0.73039 -0.73039,0.73039h-4.68223c-0.40338,0 -0.73039,-0.32701 -0.73039,-0.73039v-22.17339c0,-0.40338 0.32701,-0.73039 0.73039,-0.73039h4.68223c0.40338,0 0.73039,0.32701 0.73039,0.73039z" fill="#89bf19"></path><path d="M60.37815,57.6107h-2.23503c-0.39435,0 -0.73039,-0.32151 -0.73039,-0.73039v-22.17469c0,-0.40906 0.33604,-0.73039 0.73039,-0.73039h2.23503c-0.39444,0 -0.73039,0.32133 -0.73039,0.73039v22.17469c0,0.40889 0.33595,0.73039 0.73039,0.73039z" fill="#ffffff" opacity="0.5"></path><path d="M77.594,42.00951v14.8708c0,0.40889 -0.32133,0.73039 -0.73038,0.73039h-4.67442c-0.20454,0 -0.37982,-0.07293 -0.51133,-0.20453c-0.07302,-0.07311 -0.1168,-0.14604 -0.16066,-0.2336c-0.04378,-0.08773 -0.0584,-0.19009 -0.0584,-0.29226v-14.8708c0,-0.40906 0.32133,-0.73039 0.73039,-0.73039h4.67442c0.40906,0 0.73038,0.32133 0.73038,0.73039z" fill="#ffffff"></path><path d="M74.42414,57.6107h-2.23494c-0.20454,0 -0.37982,-0.07293 -0.51133,-0.20453c-0.07302,-0.07311 -0.1168,-0.14604 -0.16066,-0.2336c-0.04378,-0.08773 -0.0584,-0.19009 -0.0584,-0.29226v-14.8708c0,-0.40906 0.32133,-0.73039 0.73039,-0.73039h1.50455v15.60118c0,0.40889 0.33604,0.73039 0.73038,0.73039z" fill="#ffff9a"></path><path d="M91.6296,34.70692v22.17339c0,0.40339 -0.327,0.73039 -0.73038,0.73039h-4.68224c-0.40338,0 -0.73038,-0.32701 -0.73038,-0.73039v-22.17339c0,-0.40338 0.327,-0.73039 0.73038,-0.73039h4.68224c0.40338,0 0.73038,0.32701 0.73038,0.73039z" fill="#52eef8"></path><path d="M88.45201,57.6107h-2.23503c-0.39435,0 -0.73038,-0.32151 -0.73038,-0.73039v-22.17469c0,-0.40906 0.33604,-0.73039 0.73038,-0.73039h2.23503c-0.39443,0 -0.73038,0.32133 -0.73038,0.73039v22.17469c0,0.40889 0.33595,0.73039 0.73038,0.73039z" fill="#ffffff" opacity="0.5"></path></g><g fill="#384b7d"><path d="M131.50024,128.6785h-5.83771c0.45667,-0.51697 0.74298,-1.1881 0.74298,-1.93066v-21.30322c0,-1.62158 -1.31445,-2.94043 -2.92969,-2.94043h-19.82422v-88.80371c0,-4.62061 -3.75879,-8.37988 -8.37988,-8.37988h-55.54004c-4.62061,0 -8.37988,3.75928 -8.37988,8.37988v91.58301h-20.33643c-0.98926,0 -1.79395,0.80469 -1.79395,1.79395v5.21045c0,0.28638 0.07373,0.55353 0.19354,0.79395h-2.71698c-0.98926,0 -1.79395,0.80469 -1.79395,1.79395v5.21045c0,0.98926 0.80469,1.79395 1.79395,1.79395h2.71698c-0.11981,0.24042 -0.19354,0.50757 -0.19354,0.79395v5.21045c0,0.28637 0.07373,0.55352 0.19354,0.79394h-5.91522c-0.27637,0 -0.5,0.22363 -0.5,0.5c0,0.27637 0.22363,0.5 0.5,0.5c24.92815,0.00053 99.82833,0.00175 128.00049,0c0.27637,0 0.5,-0.22363 0.5,-0.5c0,-0.27637 -0.22363,-0.5 -0.5,-0.5zM32.35181,13.70047c0,-4.06934 3.31055,-7.37988 7.37988,-7.37988h55.54004c4.06934,0 7.37988,3.31055 7.37988,7.37988v88.80371h-2.58008v-88.80371c0,-2.64697 -2.15332,-4.80029 -4.7998,-4.80029h-6.84961c-0.27637,0 -0.5,0.22363 -0.5,0.5c0,1.83105 -1.48926,3.32031 -3.32031,3.32031h-31.14014c-1.83057,0 -3.31982,-1.48926 -3.31982,-3.32031c0,-0.27637 -0.22363,-0.5 -0.5,-0.5h-9.91016c-2.64648,0 -4.7998,2.15332 -4.7998,4.80029v91.58301h-2.58008zM39.41089,127.0911c-0.27637,0 -0.5,0.22363 -0.5,0.5v1.08739h-3.28955v-6.79833c0.10784,0 3.40945,0 3.28955,0v2.65723c0,0.27637 0.22363,0.5 0.5,0.5c0.27637,0 0.5,-0.22363 0.5,-0.5v-2.65723h2.15967c0.43799,0 0.79395,0.35596 0.79395,0.79395v2.90198c-0.00018,0.00513 -0.00293,0.00934 -0.00293,0.01453c0,0.00519 0.00275,0.0094 0.00293,0.01453v2.27942c0,0.43798 -0.35596,0.79394 -0.79395,0.79394h-2.15967v-1.08739c0,-0.27637 -0.22363,-0.5 -0.5,-0.5zM30.83228,127.2205c-0.27637,0 -0.5,0.22363 -0.5,0.5v0.958h-3.28955v-6.79833h3.28955v4.11523c0,0.27637 0.22363,0.5 0.5,0.5c0.27637,0 0.5,-0.22363 0.5,-0.5v-4.11523h3.28906v6.79833h-3.28906v-0.958c0,-0.27637 -0.22363,-0.5 -0.5,-0.5zM14.14673,120.88017v-6.79834h3.28955v2.65723c0,0.27637 0.22363,0.5 0.5,0.5c0.27637,0 0.5,-0.22363 0.5,-0.5v-2.65723h3.28906v6.79834h-3.28906v-0.95801c0,-0.27637 -0.22363,-0.5 -0.5,-0.5c-0.27637,0 -0.5,0.22363 -0.5,0.5v0.95801zM30.83228,110.89872c0.27637,0 0.5,-0.22363 0.5,-0.5v-4.11523h7.57861v2.65723c0,0.27637 0.22363,0.5 0.5,0.5c0.27637,0 0.5,-0.22363 0.5,-0.5v-2.65723h2.15967c0.43799,0 0.79395,0.35596 0.79395,0.79395v5.21045c0,0.43799 -0.35596,0.79395 -0.79395,0.79395h-2.15967v-1.979c0,-0.27637 -0.22363,-0.5 -0.5,-0.5c-0.27637,0 -0.5,0.22363 -0.5,0.5v1.979c-0.17242,0 -8.02617,0 -7.57861,0v-0.95801c0,-0.27637 -0.22363,-0.5 -0.5,-0.5c-0.27637,0 -0.5,0.22363 -0.5,0.5v0.95801h-3.28955v-6.79834h3.28955v4.11523c0,0.27637 0.22363,0.5 0.5,0.5zM38.54712,114.87577v5.21045c0,0.43799 -0.35596,0.79395 -0.79395,0.79395h-2.16016v-3.27832c0,-0.27637 -0.22363,-0.5 -0.5,-0.5c-0.27637,0 -0.5,0.22363 -0.5,0.5v3.27832h-3.28906v-6.79834h6.44922c0.43799,0 0.79395,0.35596 0.79395,0.79395zM22.72534,120.88017v-6.79834h3.28906v6.79834zM27.0144,120.88017v-6.79834h3.28955v6.79834zM26.04272,113.08183h-3.28906v-6.79834h3.28906zM21.75366,113.08183h-3.28906v-6.79834h3.28906zM18.4646,121.88017h3.28906v6.79833h-3.28906zM22.75366,121.88017h3.28906v6.79833h-3.28906zM43.67096,128.6785c0.11981,-0.24042 0.19354,-0.50757 0.19354,-0.79394v-1.79395h35.78223v0.65723c0,0.74255 0.28638,1.41369 0.7431,1.93066zM79.64673,105.44462v19.646h-35.78223v-2.4165c0,-0.98926 -0.80469,-1.79395 -1.79395,-1.79395h-2.71698c0.11981,-0.24042 0.19354,-0.50757 0.19354,-0.79395v-5.21045c0,-0.28638 -0.07373,-0.55353 -0.19354,-0.79395h2.71698c0.98926,0 1.79395,-0.80469 1.79395,-1.79395v-5.21045c0,-0.98926 -0.80469,-1.79395 -1.79395,-1.79395h-6.13867v-91.58301c0,-2.0957 1.70459,-3.80029 3.7998,-3.80029h9.43896c0.24854,2.14746 2.07813,3.82031 4.29102,3.82031h31.14014c2.21289,0 4.04297,-1.67285 4.29199,-3.82031h6.37793c2.0957,0 3.7998,1.70459 3.7998,3.80029v88.80371h-16.49414c-1.61621,0 -2.93066,1.31885 -2.93066,2.94043zM10.22144,112.28788v-5.21045c0,-0.43799 0.35596,-0.79395 0.79395,-0.79395h2.15967v1.36328c0,0.27637 0.22363,0.5 0.5,0.5c0.27637,0 0.5,-0.22363 0.5,-0.5v-1.36328h3.28955v6.79834h-3.28955v-3.27832c0,-0.27637 -0.22363,-0.5 -0.5,-0.5c-0.27637,0 -0.5,0.22363 -0.5,0.5v3.27832h-2.15967c-0.43799,0 -0.79395,-0.35596 -0.79395,-0.79395zM5.90405,120.08622v-5.21045c0,-0.43799 0.35596,-0.79395 0.79395,-0.79395h2.15967v2.65723c0,0.27637 0.22363,0.5 0.5,0.5c0.27637,0 0.5,-0.22363 0.5,-0.5v-2.65723c0.80627,0 3.41254,0 3.28906,0v6.79834c-0.10784,0 -3.40897,0 -3.28906,0v-1.71631c0,-0.27637 -0.22363,-0.5 -0.5,-0.5c-0.27637,0 -0.5,0.22363 -0.5,0.5v1.71631h-2.15967c-0.43799,0 -0.79395,-0.35596 -0.79395,-0.79395zM10.22144,127.88456v-5.21045c0,-0.43799 0.35596,-0.79395 0.79395,-0.79395h2.15967v1.36328c0,0.27637 0.22363,0.5 0.5,0.5c0.27637,0 0.5,-0.22363 0.5,-0.5v-1.36328h3.28955v6.79833h-3.28955v-3.27831c0,-0.27637 -0.22363,-0.5 -0.5,-0.5c-0.27637,0 -0.5,0.22363 -0.5,0.5v3.27831h-2.15967c-0.43799,0 -0.79395,-0.35596 -0.79395,-0.79394zM82.57739,128.6785c-1.06445,0 -1.93066,-0.8662 -1.93066,-1.93066v-21.30322c0,-1.06982 0.86621,-1.94043 1.93066,-1.94043h40.89844c1.06445,0 1.92969,0.87061 1.92969,1.94043v21.30322c0,1.06445 -0.86523,1.93066 -1.92969,1.93066z"></path><path d="M61.78247,9.90262h11.43457c0.27637,0 0.5,-0.22363 0.5,-0.5c0,-0.27637 -0.22363,-0.5 -0.5,-0.5h-11.43457c-0.27637,0 -0.5,0.22363 -0.5,0.5c0,0.27637 0.22363,0.5 0.5,0.5z"></path><path d="M75.68677,9.90262h0.96289c0.27637,0 0.5,-0.22363 0.5,-0.5c0,-0.27637 -0.22363,-0.5 -0.5,-0.5h-0.96289c-0.27637,0 -0.5,0.22363 -0.5,0.5c0,0.27637 0.22363,0.5 0.5,0.5z"></path><path d="M122.85571,108.60526c-1.40625,0 -2.55078,-1.14404 -2.55078,-2.55029c0,-0.27637 -0.22363,-0.5 -0.5,-0.5h-33.55664c-0.27637,0 -0.5,0.22363 -0.5,0.5c0,1.40625 -1.14453,2.55029 -2.55078,2.55029c-0.27637,0 -0.5,0.22363 -0.5,0.5v13.97168c0,0.27637 0.22363,0.5 0.5,0.5c1.40625,0 2.55078,1.14404 2.55078,2.55078c0,0.27637 0.22363,0.5 0.5,0.5h33.55664c0.27637,0 0.5,-0.22363 0.5,-0.5c0,-1.40674 1.14453,-2.55078 2.55078,-2.55078c0.27637,0 0.5,-0.22363 0.5,-0.5v-13.97168c0,-0.27637 -0.22363,-0.5 -0.5,-0.5zM122.35571,122.6121c-1.55859,0.2207 -2.79492,1.45703 -3.01562,3.01563h-32.62695c-0.2207,-1.55859 -1.45703,-2.79492 -3.01562,-3.01562v-13.04199c1.55859,-0.2207 2.79492,-1.45654 3.01563,-3.01514h32.62695c0.2207,1.55859 1.45703,2.79443 3.01563,3.01514z"></path><path d="M116.8811,115.5911h-3.38965c-0.27637,0 -0.5,0.22363 -0.5,0.5c0,0.27637 0.22363,0.5 0.5,0.5h3.38965c0.27637,0 0.5,-0.22363 0.5,-0.5c0,-0.27637 -0.22363,-0.5 -0.5,-0.5z"></path><path d="M92.56079,115.5911h-3.38965c-0.27637,0 -0.5,0.22363 -0.5,0.5c0,0.27637 0.22363,0.5 0.5,0.5h3.38965c0.27637,0 0.5,-0.22363 0.5,-0.5c0,-0.27637 -0.22363,-0.5 -0.5,-0.5z"></path><path d="M104.01294,115.5911h-0.48633v-2.46729h1.70605c0.27637,0 0.5,-0.22363 0.5,-0.5c0,-0.27637 -0.22363,-0.5 -0.5,-0.5h-1.70605v-0.48145c0,-0.27637 -0.22363,-0.5 -0.5,-0.5c-0.27637,0 -0.5,0.22363 -0.5,0.5v0.48145h-0.48633c-1.22852,0 -2.22852,0.99951 -2.22852,2.23877c0,1.229 1,2.22852 2.22852,2.22852h0.48633v2.46777h-1.70703c-0.27637,0 -0.5,0.22363 -0.5,0.5c0,0.27637 0.22363,0.5 0.5,0.5h1.70703v0.48096c0,0.27637 0.22363,0.5 0.5,0.5c0.27637,0 0.5,-0.22363 0.5,-0.5v-0.48096h0.48633c1.22852,0 2.22852,-1 2.22852,-2.23877c0,-1.229 -1,-2.229 -2.22852,-2.229zM102.04028,115.5911c-0.67773,0 -1.22852,-0.55127 -1.22852,-1.23877c0,-0.67725 0.55078,-1.22852 1.22852,-1.22852h0.48633v2.46729h-0.48633zM104.01294,119.05888h-0.48633v-2.46777h0.48633c0.67773,0 1.22852,0.55127 1.22852,1.23877c0,0.67773 -0.55078,1.229 -1.22852,1.229z"></path><path d="M44.11304,58.11063h4.68213c0.67871,0 1.23047,-0.55176 1.23047,-1.23047v-14.86914c0,-0.67871 -0.55176,-1.23047 -1.23047,-1.23047h-4.68213c-0.67871,0 -1.23047,0.55176 -1.23047,1.23047v14.86914c0,0.67871 0.55176,1.23047 1.23047,1.23047zM43.88257,42.01102c0,-0.12695 0.10352,-0.23047 0.23047,-0.23047h4.68213c0.12695,0 0.23047,0.10352 0.23047,0.23047v14.86914c0,0.12695 -0.10352,0.23047 -0.23047,0.23047h-4.68213c-0.12695,0 -0.23047,-0.10352 -0.23047,-0.23047z"></path><path d="M58.14771,33.47635c-0.67871,0 -1.23047,0.55176 -1.23047,1.23047v22.17334c0,0.67871 0.55176,1.23047 1.23047,1.23047h4.68213c0.67871,0 1.23047,-0.55176 1.23047,-1.23047v-22.17334c0,-0.67871 -0.55176,-1.23047 -1.23047,-1.23047h-4.68213zM63.0603,34.70682v22.17334c0,0.12695 -0.10352,0.23047 -0.23047,0.23047h-4.68213c-0.12695,0 -0.23047,-0.10352 -0.23047,-0.23047v-22.17334c0,-0.12695 0.10352,-0.23047 0.23047,-0.23047h4.68213c0.12695,0 0.23047,0.10352 0.23047,0.23047z"></path><path d="M72.18188,40.78055c-0.67773,0 -1.22949,0.55176 -1.22949,1.23047v14.86914c0,0.67871 0.55176,1.23047 1.22949,1.23047h4.68262c0.67871,0 1.23047,-0.55176 1.23047,-1.23047v-14.86914c0,-0.67871 -0.55176,-1.23047 -1.23047,-1.23047zM77.09497,42.01102v14.86914c0,0.12695 -0.10352,0.23047 -0.23047,0.23047h-4.68262c-0.12695,0 -0.22949,-0.10352 -0.22949,-0.23047v-14.86914c0,-0.12695 0.10254,-0.23047 0.22949,-0.23047h4.68262c0.12695,0 0.23047,0.10352 0.23047,0.23047z"></path><path d="M84.98657,34.70682v22.17334c0,0.67871 0.55176,1.23047 1.23047,1.23047h4.68262c0.67773,0 1.22949,-0.55176 1.22949,-1.23047v-22.17334c0,-0.67871 -0.55176,-1.23047 -1.22949,-1.23047h-4.68262c-0.67871,0 -1.23047,0.55176 -1.23047,1.23047zM91.12915,34.70682v22.17334c0,0.12695 -0.10254,0.23047 -0.22949,0.23047h-4.68262c-0.12695,0 -0.23047,-0.10352 -0.23047,-0.23047v-22.17334c0,-0.12695 0.10352,-0.23047 0.23047,-0.23047h4.68262c0.12695,0 0.22949,0.10352 0.22949,0.23047z"></path><path d="M46.34741,36.00858c0.09131,0 0.18408,-0.0249 0.2666,-0.07764l13.76514,-8.70654l13.87891,8.70752c0.16699,0.10596 0.38281,0.10107 0.54688,-0.00977l13.12073,-8.92645l-0.33655,2.70184c-0.03716,0.29837 0.19499,0.56201 0.49707,0.56201c0.24805,0 0.46387,-0.18506 0.49512,-0.43799l0.47266,-3.7959c0.02928,-0.23427 -0.13326,-0.51409 -0.42621,-0.5556c-0.00269,-0.00037 -0.0047,-0.00214 -0.00739,-0.0025l-3.79492,-0.47705c-0.26855,-0.03369 -0.52344,0.15918 -0.55859,0.43359c-0.03418,0.27393 0.16016,0.52393 0.43359,0.55859l2.47839,0.31134l-12.66589,8.61737l-13.86914,-8.70117c-0.16162,-0.10254 -0.36963,-0.10156 -0.53271,0.00098l-14.03125,8.875c-0.2334,0.14746 -0.30322,0.45605 -0.15527,0.68945c0.09473,0.15039 0.25732,0.23291 0.42285,0.23291z"></path><path d="M43.38159,65.59159h48.24756c0.27637,0 0.5,-0.22363 0.5,-0.5c0,-0.27637 -0.22363,-0.5 -0.5,-0.5h-48.24756c-0.27637,0 -0.5,0.22363 -0.5,0.5c0,0.27637 0.22363,0.5 0.5,0.5z"></path><path d="M91.62915,77.59159h-16.16602c-0.27637,0 -0.5,0.22363 -0.5,0.5c0,0.27637 0.22363,0.5 0.5,0.5h16.16602c0.27637,0 0.5,-0.22363 0.5,-0.5c0,-0.27637 -0.22363,-0.5 -0.5,-0.5z"></path><path d="M43.38159,78.59159h27.08154c0.27637,0 0.5,-0.22363 0.5,-0.5c0,-0.27637 -0.22363,-0.5 -0.5,-0.5h-27.08154c-0.27637,0 -0.5,0.22363 -0.5,0.5c0,0.27637 0.22363,0.5 0.5,0.5z"></path><path d="M91.62915,84.09159h-21.875c-0.27637,0 -0.5,0.22363 -0.5,0.5c0,0.27637 0.22363,0.5 0.5,0.5h21.875c0.27637,0 0.5,-0.22363 0.5,-0.5c0,-0.27637 -0.22363,-0.5 -0.5,-0.5z"></path><path d="M43.38159,85.09159h21.37305c0.27637,0 0.5,-0.22363 0.5,-0.5c0,-0.27637 -0.22363,-0.5 -0.5,-0.5h-21.37305c-0.27637,0 -0.5,0.22363 -0.5,0.5c0,0.27637 0.22363,0.5 0.5,0.5z"></path><path d="M92.12915,91.09159c0,-0.27637 -0.22363,-0.5 -0.5,-0.5h-48.24756c-0.27637,0 -0.5,0.22363 -0.5,0.5c0,0.27637 0.22363,0.5 0.5,0.5h48.24756c0.27637,0 0.5,-0.22363 0.5,-0.5z"></path><path d="M71.19165,97.09159h-27.81006c-0.27637,0 -0.5,0.22363 -0.5,0.5c0,0.27637 0.22363,0.5 0.5,0.5h27.81006c0.27637,0 0.5,-0.22363 0.5,-0.5c0,-0.27637 -0.22363,-0.5 -0.5,-0.5z"></path><path d="M43.38159,72.09159h10.45654h5h32.79102h0.30371c0.27637,0 0.5,-0.22363 0.5,-0.5c0,-0.27637 -0.22363,-0.5 -0.5,-0.5h-0.30371h-32.79102h-5h-10.45654c-0.27637,0 -0.5,0.22363 -0.5,0.5c0,0.27637 0.22363,0.5 0.5,0.5z"></path></g></g></g></svg>