<svg xmlns="http://www.w3.org/2000/svg" xmlns:xlink="http://www.w3.org/1999/xlink" viewBox="0,0,256,256" width="212px" height="212px" fill-rule="nonzero"><g fill="none" fill-rule="nonzero" stroke="none" stroke-width="1" stroke-linecap="butt" stroke-linejoin="miter" stroke-miterlimit="10" stroke-dasharray="" stroke-dashoffset="0" font-family="none" font-weight="none" font-size="none" text-anchor="none" style="mix-blend-mode: normal"><g transform="scale(3.76471,3.76471)"><path d="M18.26596,17.63105c-1.33887,-0.77728 -3.20123,-0.67291 -5.25004,0.51047c-4.06265,2.34353 -7.3571,8.01668 -7.34545,12.68044c0,2.3203 0.82646,3.94454 2.15367,4.71021l-3.27115,-1.89105c-1.32722,-0.76567 -2.15367,-2.40152 -2.15367,-4.72182c-0.01165,-4.65215 3.27115,-10.33691 7.34545,-12.68044c2.0488,-1.17169 3.91117,-1.28775 5.25004,-0.51047z" fill="#89bf19"></path><path d="M20.41098,22.33963c0.01977,4.6649 -3.27855,10.34345 -7.34691,12.68576c-2.05407,1.181 -3.91069,1.27945 -5.25355,0.50193l-3.25878,-1.88957c-1.32333,-0.75782 -2.15267,-2.40135 -2.15267,-4.7141c-0.00988,-4.65511 3.26843,-10.34351 7.34691,-12.68582c2.04418,-1.17115 3.91045,-1.28925 5.25355,-0.51178l3.19948,1.86992c1.36263,0.74797 2.21198,2.3915 2.21198,4.74365z" fill="#89bf19"></path><path d="M9.76335,36.43165c-0.78223,0 -1.50977,-0.18555 -2.15332,-0.55859l-3.25879,-1.88965c-1.49414,-0.85547 -2.35254,-2.7002 -2.35254,-5.05957c-0.00977,-4.79004 3.37598,-10.63672 7.54785,-13.03223c2.11914,-1.21582 4.125,-1.39844 5.65332,-0.51172l3.20117,1.87012c1.55078,0.85156 2.41016,2.66113 2.41016,5.08984c0.01855,4.77832 -3.36621,10.625 -7.54785,13.03223c-1.22461,0.7041 -2.41602,1.05957 -3.5,1.05957zM13.0612,15.62794c-0.94531,0 -2.00684,0.32129 -3.11621,0.95703c-3.9502,2.26855 -7.15527,7.80273 -7.14551,12.33789c0,2.06641 0.71094,3.65723 1.95117,4.36816l3.25977,1.89063c1.2793,0.73828 3.00195,0.56152 4.85449,-0.50293c3.95898,-2.28027 7.16504,-7.81445 7.14551,-12.33691c0,-0.00098 0,-0.00098 0,-0.00195c0,-2.12305 -0.71191,-3.68359 -2.00391,-4.39355l-3.20898,-1.875c-0.51172,-0.29688 -1.09766,-0.44336 -1.73633,-0.44336z" fill="#000000"></path><path d="M13.01849,18.13843c4.06992,-2.34183 7.38407,-0.46443 7.39732,4.19645c0.01327,4.66573 -3.27938,10.34468 -7.3493,12.6865c-4.06992,2.34182 -7.38407,0.46443 -7.39734,-4.2013c-0.01326,-4.66088 3.2794,-10.33982 7.34931,-12.68165z" fill="#ffffff"></path><path d="M9.75749,36.43263c-0.77441,0 -1.49414,-0.18164 -2.13086,-0.5498c-1.51367,-0.87207 -2.35059,-2.66992 -2.35742,-5.06152c-0.01367,-4.78027 3.37305,-10.62598 7.5498,-13.0293v0c2.10742,-1.21387 4.11133,-1.39648 5.6416,-0.51562c1.51172,0.87207 2.34863,2.66797 2.35547,5.05762c0.01367,4.78418 -3.37305,10.63086 -7.55078,13.03418c-1.22949,0.70801 -2.42285,1.06445 -3.50781,1.06445zM13.21745,18.48536c-3.9541,2.27539 -7.16113,7.80859 -7.14746,12.33398c0.00488,2.09473 0.7002,3.64648 1.95605,4.37109c1.26953,0.73047 2.98828,0.5498 4.84082,-0.51562c3.95508,-2.27539 7.16211,-7.81055 7.14844,-12.33887c-0.00488,-2.0918 -0.69922,-3.64258 -1.9541,-4.36621c-1.27441,-0.73242 -2.99316,-0.5498 -4.84375,0.51562z" fill="#000000"></path><g><path d="M65.50008,58.39074c-0.4194,1.2268 -2.28764,1.51449 -3.14275,0.61883c0.71082,1.08294 0.42213,2.68699 -0.52286,3.60165c-1.04306,0.99067 -2.63897,1.24308 -4.04419,0.94453c-1.40522,-0.28498 -2.65253,-1.03952 -3.83721,-1.84291l-0.01629,-0.01628c0.66175,2.03288 -0.99679,4.45662 -3.12912,4.58146c-0.96407,0.06514 -1.91179,-0.28226 -2.82686,-0.62968c-4.89383,-1.82389 -9.77131,-3.6505 -14.64886,-5.4907c-0.00273,0 -0.00818,0 -0.01084,-0.00272c-0.03817,0.05429 -0.07899,0.10586 -0.11988,0.15199c-0.56375,0.6324 -1.51413,0.72197 -2.42374,0.60255c-0.22061,-0.01628 -0.42758,-0.04615 -0.63183,-0.09501c-0.66448,-0.14112 -1.3126,-0.29855 -1.96079,-0.48582c-0.4085,-0.11127 -0.80337,-0.23613 -1.19831,-0.37999c-0.049,0 -0.07892,-0.01357 -0.12792,-0.02985c-0.44121,-0.15742 -0.88509,-0.33112 -1.30994,-0.50483c-0.1117,-0.04614 -0.20698,-0.0787 -0.31595,-0.14114c-0.46023,-0.18999 -0.90144,-0.39355 -1.34259,-0.6134c-5.0409,-2.44001 -9.33834,-6.48677 -11.96089,-11.44551c-0.56648,-1.08837 -1.08934,-2.25273 -1.21467,-3.46596c-0.20691,-1.93518 0.53656,-3.95178 -0.03265,-5.80824c-0.15798,-0.48854 -0.37852,-0.92823 -0.63183,-1.35435c-0.49015,-0.81967 -1.10569,-1.55793 -1.6122,-2.34502c-0.23696,-0.3637 -0.4575,-0.74096 -0.61548,-1.15079c-0.09528,-0.21984 -0.15797,-0.45597 -0.20425,-0.7084c-0.01636,-0.12484 -0.03265,-0.25241 -0.03265,-0.39354c0.14162,-4.25035 3.12905,-9.25793 6.77836,-11.38309c0.99399,-0.55098 1.95807,-0.86581 2.79415,-0.8821h0.049c0.14162,0 0.28324,0.01628 0.42486,0.03257c0.01636,0 0.049,0 0.06536,0.01628c1.23096,0.09227 2.41563,0.56454 3.57026,1.02324c3.55397,1.41677 7.1243,2.84984 10.34604,4.91258c5.37314,3.44696 9.50988,8.54681 14.80404,12.13761c4.40641,3.00727 9.55622,4.92888 13.53771,8.45454c1.04306,0.92823 2.06977,2.12517 2.02076,3.52566c-0.04634,1.13451 -1.26366,2.17403 -2.27401,2.00032c1.72117,0.84953 3.28709,2.00032 4.59703,3.38454c0.8061,0.86581 1.57948,2.04646 1.20097,3.18096z" fill="#ffffff"></path><path d="M65.50034,58.38762c-0.41515,1.2302 -2.2913,1.51552 -3.14041,0.62003c0.71073,1.08255 0.41467,2.68673 -0.52364,3.60193c-1.04632,0.99401 -2.63654,1.24005 -4.04835,0.94487c-1.40217,-0.28544 -2.64666,-1.03341 -3.83137,-1.84037l-0.02025,-0.0197c0.66203,2.03727 -0.99714,4.45826 -3.13028,4.58609c-0.9576,0.0591 -1.90556,-0.28532 -2.8241,-0.62976c-4.89794,-1.83064 -9.77611,-3.65119 -14.65429,-5.49168c0,0 0,0 -0.01012,0c-0.03954,0.04926 -0.07908,0.09851 -0.11861,0.14765c-0.5627,0.62988 -1.51066,0.71854 -2.41908,0.60032c-0.22711,-0.00985 -0.43444,-0.0394 -0.63213,-0.08854c-0.67119,-0.14765 -1.31345,-0.30503 -1.96486,-0.49208c-0.40503,-0.10824 -0.79993,-0.23619 -1.19483,-0.37398c-0.04966,0 -0.07908,-0.0197 -0.12874,-0.02956c-0.44408,-0.15738 -0.88865,-0.33458 -1.31345,-0.51178c-0.10849,-0.03928 -0.20733,-0.07869 -0.31582,-0.13768c-0.45421,-0.18705 -0.89829,-0.39369 -1.34286,-0.61029c-5.03633,-2.44069 -9.33203,-6.48557 -11.95844,-11.44565c-0.56318,-1.09252 -1.08634,-2.25376 -1.2146,-3.47411c-0.20734,-1.92891 0.53329,-3.94649 -0.02989,-5.80656c-0.15815,-0.48223 -0.38478,-0.92517 -0.63165,-1.34829c-0.49375,-0.82678 -1.10611,-1.5649 -1.60998,-2.35215c-0.23675,-0.36414 -0.46385,-0.73812 -0.62201,-1.15151c-0.08872,-0.21649 -0.15815,-0.45267 -0.19769,-0.70857c-0.01977,-0.11809 -0.03906,-0.24604 -0.03906,-0.38371c0.14803,-4.25163 3.13028,-9.26108 6.78373,-11.38678c0.30618,-0.17708 0.62249,-0.32485 0.91854,-0.44282c-5.87579,11.60315 0.1379,27.08406 13.90402,35.14426c11.88949,6.9678 25.8128,6.19039 34.09802,-1.07282c0.35536,0.30515 0.69144,0.63 1.00727,0.97431c0.81005,0.86618 1.58008,2.04713 1.20495,3.17893z" fill="#e9edf4"></path><path d="M50.57389,66.68653c-0.98828,0 -1.9502,-0.36621 -2.73437,-0.66406c-4.80762,-1.79199 -9.59863,-3.58593 -14.3916,-5.39355c-0.57715,0.60254 -1.51367,0.83398 -2.72363,0.67676c-0.21777,-0.01465 -0.44531,-0.04785 -0.67187,-0.10254c-0.71289,-0.15137 -1.3623,-0.3125 -1.97754,-0.48926c-0.39746,-0.1084 -0.78613,-0.23047 -1.17383,-0.37109c-0.06738,-0.00879 -0.11816,-0.02734 -0.15527,-0.04004c-0.46779,-0.16602 -0.91797,-0.34277 -1.34863,-0.51855c-0.16699,-0.06641 -0.26074,-0.10547 -0.36426,-0.16504c-0.42187,-0.16992 -0.87109,-0.37793 -1.32129,-0.60156c-5.19238,-2.51367 -9.50391,-6.63965 -12.13574,-11.61719c-0.54787,-1.05078 -1.12402,-2.2998 -1.25879,-3.61133c-0.0918,-0.85352 -0.00684,-1.71582 0.07422,-2.54883c0.11035,-1.12402 0.21484,-2.18457 -0.0918,-3.18359c-0.12891,-0.39941 -0.31836,-0.80371 -0.59277,-1.26758c-0.26465,-0.44141 -0.57715,-0.87305 -0.87891,-1.29004c-0.25,-0.3457 -0.49902,-0.68945 -0.72656,-1.04297c-0.20508,-0.31348 -0.46582,-0.73828 -0.65137,-1.22266c-0.09375,-0.21289 -0.16699,-0.46582 -0.22559,-0.7793c-0.02246,-0.17383 -0.03906,-0.3125 -0.03906,-0.4668c0.14648,-4.38965 3.21094,-9.53516 6.97754,-11.72852c1.07813,-0.59766 2.1084,-0.91992 2.9873,-0.93652c0.00098,0 0.00098,0 0.00195,0c0.21289,0 0.36914,0.0166 0.52637,0.03516c0.02344,0.00293 0.05176,0.00879 0.08105,0.01758c1.27539,0.10156 2.47754,0.58008 3.6416,1.04297c3.51172,1.39844 7.12793,2.83887 10.42871,4.95215c2.82322,1.81152 5.33887,4.10254 7.77148,6.31738c2.22461,2.02539 4.52441,4.11914 7.04102,5.82617c1.74512,1.19043 3.64453,2.23047 5.48242,3.23535c2.78809,1.52539 5.67188,3.10352 8.09668,5.25c0.95313,0.84961 2.21289,2.16992 2.1543,3.83984c-0.02734,0.67676 -0.39941,1.36621 -0.99316,1.84668c-0.15918,0.12793 -0.32617,0.23535 -0.49707,0.32031c1.37402,0.79785 2.61719,1.7793 3.7041,2.92871c1.21484,1.30469 1.64844,2.50879 1.29004,3.58301c-0.00098,0.00098 -0.00098,0.00195 -0.00098,0.00195c-0.23047,0.67383 -0.83496,1.17773 -1.61816,1.35059c-0.39257,0.08594 -0.78906,0.08203 -1.15039,-0.00391c0.18262,1.05371 -0.17383,2.23633 -0.99707,3.03223c-1.05469,1.00098 -2.74512,1.40039 -4.40527,1.04883c-1.16992,-0.2373 -2.2373,-0.78711 -3.22656,-1.40918c0.02148,0.81152 -0.23047,1.65722 -0.72949,2.38867c-0.70312,1.03027 -1.79492,1.68457 -2.9209,1.75098c-0.08594,0.00586 -0.1709,0.00879 -0.25684,0.00879zM33.40202,59.76368c0.02441,0.00391 0.04785,0.01074 0.07129,0.01953c4.87695,1.84082 9.75391,3.66602 14.64746,5.49023c0.82324,0.3125 1.74805,0.66797 2.66016,0.60547c0.88281,-0.05176 1.74512,-0.57617 2.30957,-1.40332c0.56445,-0.82617 0.73828,-1.81836 0.46582,-2.65527c-0.05762,-0.17871 0.01563,-0.37305 0.17676,-0.46777c0.16113,-0.0957 0.36816,-0.06641 0.49512,0.06934c1.07715,0.72461 2.30469,1.4707 3.6416,1.74219c1.41309,0.2998 2.8252,-0.02246 3.68945,-0.84277c0.83887,-0.8125 1.04883,-2.20117 0.46387,-3.0918c-0.11426,-0.17285 -0.07715,-0.4043 0.08496,-0.5332c0.16016,-0.12793 0.39355,-0.11426 0.53809,0.03711c0.32227,0.33789 0.88867,0.47656 1.44238,0.35547c0.50684,-0.11133 0.89258,-0.4209 1.03223,-0.82617c0.32129,-0.96387 -0.42871,-2.04395 -1.11426,-2.78027c-1.27929,-1.35254 -2.78808,-2.46289 -4.48144,-3.29883c-0.17871,-0.08789 -0.26465,-0.29297 -0.2041,-0.48242c0.06152,-0.18945 0.25391,-0.30371 0.44824,-0.27051c0.34473,0.05859 0.75293,-0.08008 1.11035,-0.36816c0.41797,-0.33691 0.67871,-0.80664 0.69727,-1.25391c0.03516,-1.01172 -0.56445,-2.0332 -1.88672,-3.21094c-2.35645,-2.08691 -5.2002,-3.64258 -7.94922,-5.14648c-1.85449,-1.01465 -3.77246,-2.06348 -5.54883,-3.27637c-2.5625,-1.73828 -4.88379,-3.85156 -7.12891,-5.89648c-2.4082,-2.19238 -4.89844,-4.45996 -7.66504,-6.23437c-3.23633,-2.07227 -6.81641,-3.49805 -10.2793,-4.87695c-1.13086,-0.4502 -2.28613,-0.91016 -3.45117,-0.99707c-0.03711,-0.00195 -0.07324,-0.00977 -0.10742,-0.02246c-0.1377,-0.01367 -0.24609,-0.02441 -0.35352,-0.02441c-0.79004,0.01367 -1.69238,0.30078 -2.64941,0.83105c-3.54395,2.06445 -6.43457,6.91797 -6.57227,11.04688c0.00098,0.10449 0.01465,0.21094 0.02832,0.31543c0.04492,0.24414 0.10156,0.44141 0.17676,0.61328c0.16504,0.43066 0.39746,0.80859 0.58301,1.0918c0.2207,0.34375 0.46094,0.6748 0.70215,1.00781c0.3125,0.43164 0.63574,0.87695 0.91797,1.35059c0.30762,0.51758 0.51953,0.97363 0.66992,1.43652c0.35449,1.15723 0.23828,2.34961 0.125,3.50195c-0.07812,0.79297 -0.1582,1.61328 -0.07617,2.38672c0.12207,1.17969 0.66113,2.3418 1.17188,3.32422c2.55176,4.8252 6.73633,8.82813 11.78027,11.26953c0.4375,0.21777 0.86914,0.41797 1.32129,0.60352c0.11523,0.0625 0.17676,0.08594 0.24316,0.1123c0.49023,0.20117 0.92871,0.37207 1.36426,0.52734c0.04785,0 0.08789,0.01465 0.13184,0.03027c0.38379,0.14063 0.76758,0.2627 1.16602,0.37109c0.60254,0.17383 1.23438,0.33008 1.9375,0.47949c0.19336,0.0459 0.37988,0.07324 0.57715,0.08691c0.69727,0.09277 1.60449,0.08301 2.09668,-0.46875c0.03223,-0.03613 0.06348,-0.07617 0.09277,-0.11719c0.09473,-0.13281 0.25977,-0.19434 0.40723,-0.16016zM33.32096,60.15528h0.00977zM65.49967,58.39064h0.00977z" fill="#000000"></path><path d="M62.3571,59.40919c-0.12109,0 -0.24121,-0.05469 -0.31934,-0.15918c-0.03418,-0.04395 -3.55566,-4.50586 -19.4707,-10.34375c-0.20703,-0.07617 -0.31348,-0.30664 -0.23828,-0.51367c0.07617,-0.20801 0.30664,-0.31445 0.51367,-0.23828c16.21582,5.94922 19.69531,10.42871 19.83496,10.61621c0.13184,0.17676 0.0957,0.42578 -0.08008,0.55859c-0.07227,0.05371 -0.15625,0.08008 -0.24023,0.08008z" fill="#000000"></path><path d="M53.94499,62.10646c-0.13281,0 -0.2627,-0.06641 -0.33887,-0.18652c-0.03027,-0.04883 -3.21484,-4.8916 -16.71191,-9.84277c-0.20703,-0.07617 -0.31348,-0.30664 -0.23828,-0.51367c0.07617,-0.20801 0.30859,-0.31543 0.51367,-0.23828c13.81445,5.06836 16.98633,9.96484 17.11523,10.16992c0.11621,0.1875 0.05957,0.43262 -0.12793,0.5498c-0.06543,0.04199 -0.13867,0.06152 -0.21191,0.06152z" fill="#000000"></path><path d="M59.72721,52.23829c-0.08887,0 -0.17676,-0.0293 -0.25098,-0.08887c-0.06641,-0.05371 -6.74707,-5.39258 -13.7666,-7.13574c-0.21387,-0.05371 -0.34473,-0.27051 -0.29199,-0.48535c0.05371,-0.21289 0.26855,-0.34473 0.48533,-0.29199c7.19338,1.78711 14.00783,7.23535 14.07521,7.29004c0.17188,0.13867 0.19922,0.39063 0.06055,0.5625c-0.0791,0.09766 -0.19531,0.14941 -0.31152,0.14941z" fill="#000000"></path><g fill="#000000"><path d="M33.20085,60.70704c-0.09473,0 -0.19043,-0.03418 -0.2666,-0.10254c-0.16504,-0.14648 -0.17871,-0.39941 -0.03127,-0.56445c0.01955,-0.02246 0.03908,-0.0459 0.05764,-0.07031c0.19043,-1.02637 0.08105,-2.33691 -0.29199,-3.45215c-0.38574,-1.07031 -1.05176,-2.10156 -1.97656,-3.05469c-0.89258,-0.94043 -1.94434,-1.64941 -2.94824,-2.27441c-0.20898,-0.10352 -0.44531,-0.23047 -0.68066,-0.35645c-0.32715,-0.1748 -0.65234,-0.34961 -0.98926,-0.50684l-0.13184,-0.05664c-1.49414,-0.64844 -2.63867,-1.74512 -3.22266,-3.08789c-0.29297,-0.64746 -0.68164,-1.85937 -0.08984,-2.91016c0.1084,-0.19434 0.35547,-0.25977 0.54492,-0.15234c0.19238,0.1084 0.26074,0.35254 0.15234,0.54492c-0.41895,0.74316 -0.10937,1.67773 0.11328,2.16895c0.5166,1.18652 1.5127,2.13574 2.81934,2.70215l0.1416,0.06152c0.36133,0.16797 0.7002,0.34863 1.04004,0.53125c0.22949,0.12305 0.45898,0.24609 0.69434,0.36426c1.03027,0.64063 2.17969,1.41211 3.13379,2.41797c1.00098,1.03223 1.72754,2.15918 2.15527,3.3457c0.4375,1.30957 0.54785,2.7959 0.29883,3.98438c-0.01855,0.08887 -0.06543,0.16504 -0.13086,0.2207c-0.03027,0.04004 -0.06152,0.07813 -0.09375,0.11328c-0.07812,0.08789 -0.18848,0.13379 -0.29785,0.13379zM33.32096,60.15528h0.00977z"></path></g></g><g><path d="M30.76967,60.91722c-0.21015,-0.01603 -0.42031,-0.04828 -0.63046,-0.09666c-2.16616,-0.45104 -4.26759,-1.17603 -6.25586,-2.15874c0.08081,-0.25782 0.21015,-0.48329 0.32332,-0.72499c0.12925,-0.27385 0.29096,-0.54779 0.51719,-0.75724c0.17789,-0.17719 0.38804,-0.28997 0.5982,-0.38663c1.05067,-0.45104 2.27923,-0.25772 3.36226,0.11278c0.42031,0.14504 0.82443,0.3061 1.1962,0.56392c0.35568,0.25772 0.66282,0.61221 0.79217,1.03099c0.0808,0.2417 0.0808,0.51554 0.09699,0.77337c0.03226,0.5477 0.06462,1.09549 0,1.64319z" fill="#ffffff"></path><path d="M30.76921,61.31739c-0.00977,0 -0.01953,-0.00098 -0.0293,-0.00195c-0.23047,-0.0166 -0.46094,-0.05176 -0.69141,-0.10547c-2.18945,-0.45605 -4.32617,-1.19336 -6.3418,-2.18945c-0.17676,-0.08691 -0.26367,-0.29004 -0.20508,-0.47852c0.06543,-0.20801 0.15723,-0.39746 0.25195,-0.58789l0.09082,-0.1875c0.18262,-0.38574 0.375,-0.66602 0.6084,-0.88086c0.21582,-0.21582 0.47656,-0.35254 0.70215,-0.45605c0.99512,-0.42676 2.22363,-0.39355 3.6582,0.09668c0.42578,0.14746 0.875,0.32324 1.29492,0.61426c0.33496,0.24316 0.76465,0.65137 0.94629,1.24316c0.08203,0.24316 0.0957,0.50781 0.10742,0.74121l0.00684,0.125c0.0332,0.55273 0.06836,1.125 -0.00195,1.71484c-0.02441,0.20215 -0.19629,0.35254 -0.39746,0.35254zM24.39421,58.46486c1.85645,0.88477 3.81445,1.54492 5.82715,1.96387c0.06055,0.01465 0.12109,0.02734 0.18162,0.03809c0.01467,-0.38965 -0.00975,-0.78418 -0.03318,-1.16797l-0.00684,-0.13379c-0.00977,-0.19922 -0.01953,-0.3877 -0.06934,-0.53711c-0.09473,-0.30664 -0.32324,-0.59961 -0.64746,-0.83398c-0.31543,-0.21875 -0.66602,-0.3623 -1.09277,-0.51074c-1.23926,-0.42285 -2.27344,-0.46484 -3.07324,-0.12305c-0.16016,0.07422 -0.33594,0.16504 -0.47266,0.30273c-0.16699,0.15332 -0.30273,0.35547 -0.43945,0.64453l-0.09766,0.20117c-0.02539,0.05273 -0.05176,0.10449 -0.07617,0.15625z" fill="#000000"></path></g><g><path d="M34.05796,47.70781l-3.53257,-2.05582c-0.29217,-0.16715 -0.47608,-0.53485 -0.47608,-1.05298l-0.06667,-19.37908c0,-0.32593 -0.11703,-0.5599 -0.30074,-0.66854l3.52421,2.05577c0.19206,0.10864 0.3091,0.34266 0.3091,0.66854l0.05851,19.37913c0.00816,0.51812 0.19206,0.87747 0.48424,1.05298z" fill="#89bf19"></path><path d="M34.05827,48.10841c-0.06836,0 -0.1377,-0.01758 -0.20117,-0.05469l-3.5332,-2.05566c-0.42773,-0.24609 -0.6748,-0.75684 -0.6748,-1.39941l-0.06641,-19.37793c0,-0.18164 -0.05176,-0.29395 -0.10352,-0.32422c-0.19043,-0.1123 -0.25391,-0.35742 -0.1416,-0.54687c0.11133,-0.19141 0.35449,-0.25586 0.5459,-0.14355l0.00195,0.00098l3.52148,2.05469c0.32129,0.18066 0.50879,0.55176 0.50879,1.01367l0.05859,19.37891c0.00488,0.34766 0.1084,0.60156 0.29004,0.71094c0.18848,0.11328 0.25,0.35742 0.13865,0.5459c-0.07518,0.12695 -0.20799,0.19727 -0.34471,0.19727zM30.38346,25.42384l0.06641,19.17383c0,0.34961 0.09961,0.60742 0.27441,0.70801l2.45215,1.42578c-0.00098,-0.02246 -0.00195,-0.04687 -0.00293,-0.07031l-0.05859,-19.38477c0,-0.15918 -0.04102,-0.28418 -0.10547,-0.32031z" fill="#000000"></path><path d="M39.47793,3.87636c-0.31725,-0.18383 -0.74317,-0.12532 -1.1691,0.12537c-0.51788,0.30084 -1.04391,0.87746 -1.36972,1.62124l-9.06101,20.74185c-0.47608,1.07802 -0.31746,1.98895 0.20878,2.28978l-3.53257,-2.05582c-0.52624,-0.30084 -0.68486,-1.2034 -0.20878,-2.28979l9.06101,-20.74185c0.32581,-0.74373 0.85184,-1.32035 1.36972,-1.62124c0.42592,-0.2507 0.85184,-0.3092 1.16909,-0.12532z" fill="#89bf19"></path><path d="M28.08659,29.0547c-0.06738,0 -0.13574,-0.01758 -0.19824,-0.05273c-0.00586,-0.00391 -0.01074,-0.00684 -0.0166,-0.00977l-3.51855,-2.04785c-0.75098,-0.42969 -0.90625,-1.58008 -0.37402,-2.7959l9.06152,-20.74121c0.33984,-0.7793 0.89941,-1.4375 1.53418,-1.80664c0.56152,-0.33203 1.13574,-0.37891 1.57129,-0.12598l3.5332,2.05566c0.19043,0.11133 0.25586,0.35547 0.14453,0.54688c-0.11035,0.19043 -0.35742,0.25488 -0.54592,0.14551c0,-0.00098 -0.00096,-0.00098 -0.00096,-0.00098v0c-0.17578,-0.10059 -0.45898,-0.05469 -0.76465,0.125c-0.48535,0.28125 -0.93555,0.81836 -1.20703,1.43652l-9.06055,20.74219c-0.38574,0.87305 -0.28613,1.58594 0.03418,1.77734l0.00879,0.00586c0.19043,0.11035 0.25586,0.35449 0.14551,0.5459c-0.07422,0.12793 -0.20898,0.2002 -0.34668,0.2002zM35.52507,2.11329c-0.15723,0 -0.34766,0.06055 -0.5459,0.17773c-0.48633,0.28223 -0.93555,0.81836 -1.20605,1.43652l-9.06152,20.74121c-0.39941,0.91406 -0.27734,1.60059 0.04102,1.78223l2.44336,1.42188c-0.01562,-0.44434 0.08789,-0.95117 0.31641,-1.46973l9.06055,-20.74023c0.3418,-0.78125 0.90137,-1.43945 1.53516,-1.80664c0.03418,-0.01953 0.06738,-0.03809 0.10059,-0.05664l-2.46484,-1.43359c-0.06055,-0.03516 -0.13477,-0.05273 -0.21875,-0.05273z" fill="#000000"></path><g fill="#ffffff"><path d="M38.30752,3.99824c0.52056,-0.30075 1.04118,-0.32366 1.36805,0.04327l9.15617,10.21627c0.7447,0.82866 -0.03949,2.98893 -1.36193,3.75296l-3.20985,1.85446c-0.58117,0.33576 -1.04885,1.14637 -1.04697,1.80855l0.06355,19.37416c0.00297,1.0484 -0.73042,2.31958 -1.64222,2.84637l-6.39843,3.69663c-0.91181,0.52679 -1.65534,0.10889 -1.65831,-0.93951l-0.06356,-19.37416c-0.00188,-0.66218 -0.46727,-0.93371 -1.04843,-0.59795l-3.20985,1.85446c-1.32765,0.76704 -2.11628,-0.48456 -1.37871,-2.16958l9.06325,-20.74235c0.32633,-0.74431 0.84668,-1.3228 1.36724,-1.62355z"></path></g><g><path d="M47.47333,18.01177l-3.2137,1.85497c-0.58356,0.3358 -1.0471,1.14335 -1.0471,1.80699l0.06382,19.37623c0,1.04741 -0.72741,2.31867 -1.63885,2.8464l-6.40319,3.69392c-0.7196,0.41578 -1.33517,0.24786 -1.55903,-0.35981c4.74852,-4.89325 7.9064,-10.54119 7.9064,-20.47161c0,-7.8516 -1.97475,-14.94362 -5.14824,-19.98879l0.50354,-1.15136c0.32769,-0.74358 0.84743,-1.31928 1.36698,-1.62306c0.52774,-0.29588 1.04729,-0.31984 1.37498,0.04797l9.15335,10.21024c0.74361,0.83156 -0.03981,2.99032 -1.35898,3.7579z" fill="#e9edf4"></path><path d="M34.49089,48.21974c-0.22656,0 -0.43945,-0.05469 -0.62988,-0.16406c-0.43848,-0.25293 -0.68164,-0.75098 -0.68359,-1.40332l-0.06348,-19.37402c0,-0.19629 -0.05762,-0.29883 -0.10547,-0.32715c-0.04785,-0.02734 -0.16797,-0.02734 -0.34277,0.0752l-3.20996,1.85449c-0.6748,0.38867 -1.31836,0.38086 -1.77051,-0.02344c-0.58301,-0.52246 -0.65234,-1.56348 -0.1748,-2.65332l9.06348,-20.74219c0.34473,-0.78613 0.90332,-1.44629 1.5332,-1.81055c0.7168,-0.41113 1.43164,-0.36523 1.86621,0.12305l9.15625,10.2168c0.33398,0.37109 0.45996,0.94434 0.35352,1.61426c-0.1748,1.10547 -0.9209,2.23633 -1.81348,2.75195l-3.20898,1.85449c-0.45312,0.26074 -0.84863,0.94336 -0.84766,1.46094l0.06445,19.37402c0.00293,1.19141 -0.80664,2.59473 -1.84277,3.19434l-6.39844,3.69629c-0.32617,0.1875 -0.64746,0.28223 -0.94531,0.28223zM32.93815,26.13673c0.16797,0 0.32715,0.04004 0.46875,0.12109c0.32129,0.18457 0.50586,0.55566 0.50781,1.01855l0.06348,19.37402c0.00098,0.34961 0.10352,0.60938 0.28223,0.71191c0.18262,0.10352 0.46484,0.06152 0.77539,-0.11816l6.39844,-3.69629c0.78418,-0.45312 1.44531,-1.59766 1.44238,-2.49902l-0.06445,-19.37402c-0.00098,-0.80469 0.54688,-1.75098 1.24805,-2.15625l3.20898,-1.85449c0.6875,-0.39648 1.28613,-1.31445 1.42383,-2.18359c0.06641,-0.4209 0.00879,-0.76855 -0.1582,-0.95508l-9.15723,-10.21777c-0.24902,-0.27832 -0.69238,-0.06738 -0.87012,0.03711c-0.47852,0.27637 -0.92773,0.81348 -1.20117,1.4375l-9.06348,20.74219c-0.37988,0.86816 -0.27832,1.50879 -0.02441,1.73633c0.24414,0.21875 0.62891,0.04785 0.83691,-0.07324l3.20996,-1.85449c0.22656,-0.13086 0.45703,-0.19629 0.67285,-0.19629z" fill="#000000"></path></g></g><g><path d="M55.45536,14.26444c-1.7214,-0.99792 -4.10964,-0.85614 -6.74364,0.65983c-5.22998,3.01553 -9.45436,10.31719 -9.43795,16.32102c0.00547,2.98281 1.06017,5.07681 2.75982,6.06381l-2.47266,-1.43801c-1.70499,-0.987 -2.75982,-3.08096 -2.76529,-6.06381c-0.01628,-6.00383 4.2081,-13.30546 9.43795,-16.32103c2.63414,-1.51597 5.02224,-1.65772 6.74377,-0.65983z" fill="#89bf19"></path><path d="M42.03386,37.70997c-0.06836,0 -0.1377,-0.01758 -0.20117,-0.05469v0l-2.47266,-1.43848c-1.90527,-1.10352 -2.95898,-3.37891 -2.96484,-6.4082c-0.0166,-6.11719 4.30762,-13.59473 9.63867,-16.66895c2.68164,-1.54199 5.21973,-1.77539 7.14355,-0.65918l2.47461,1.43555c0.00195,0.00098 0.00293,0.00195 0.00391,0.00293h0.00098c0.19043,0.11035 0.25586,0.35547 0.14453,0.54688c-0.11035,0.18945 -0.3584,0.25684 -0.5459,0.14453c-1.6709,-0.96484 -3.92285,-0.7334 -6.34473,0.66016c-5.10937,2.94629 -9.25293,10.11231 -9.23633,15.97363c0.00391,2.72852 0.91113,4.75781 2.55371,5.71582l0.00684,0.00391c0.19043,0.11133 0.25586,0.35547 0.14453,0.54688c-0.07422,0.12793 -0.20801,0.19922 -0.3457,0.19922zM50.48698,12.58595c-1.2334,0 -2.61328,0.41797 -4.05371,1.24707c-5.10937,2.94629 -9.25391,10.11231 -9.2373,15.97363c0.00488,2.73242 0.91602,4.76367 2.56543,5.71875l0.08203,0.04688c-0.63184,-1.15332 -0.9668,-2.62109 -0.96973,-4.32617c-0.0166,-6.11719 4.30664,-13.59473 9.6377,-16.66895c1.52637,-0.87793 3.00586,-1.33203 4.35352,-1.35352l-0.08887,-0.05176c-0.67578,-0.3916 -1.44824,-0.58594 -2.28906,-0.58594z" fill="#000000"></path><path d="M48.71105,14.92449c5.23726,-3.01717 9.49044,-0.59869 9.5075,5.40623c0.01097,3.86082 -1.73695,8.26496 -4.38073,11.71748c-1.46281,1.91025 -3.19949,3.52893 -5.06504,4.60367c-1.86205,1.07272 -3.60024,1.45628 -5.0675,1.23505c-2.65416,-0.40011 -4.42201,-2.7794 -4.43298,-6.64133c-0.01706,-6.00493 4.2085,-13.30797 9.43875,-16.32111z" fill="#ffffff"></path><path d="M58.22064,20.32825c0.01094,3.86078 -1.73781,8.26683 -4.38289,11.71864c-1.46457,1.91403 -3.19691,3.52815 -5.066,4.60239c-1.86349,1.07427 -3.60131,1.46142 -5.066,1.23785c-1.60666,-0.23993 -2.89097,-1.2106 -3.64507,-2.79197c0.99466,0.23994 2.03294,0.3708 3.10405,0.3708c7.21368,0 13.06127,-5.83479 13.06127,-13.03284c0,-3.39725 -1.30072,-6.4837 -3.42653,-8.80126c3.19144,-0.09269 5.40476,2.36665 5.42117,6.69638z" fill="#e9edf4"></path><path d="M44.52409,38.34669c-0.2998,0 -0.59277,-0.02148 -0.87793,-0.06445c-2.97852,-0.44922 -4.7627,-3.0791 -4.77441,-7.03613c-0.0166,-6.11914 4.30762,-13.59668 9.63965,-16.66797c2.67285,-1.54004 5.20703,-1.77637 7.13281,-0.66797c1.90918,1.10059 2.96582,3.37988 2.97461,6.41992c0.00977,3.82617 -1.6582,8.29785 -4.46387,11.96094c-1.54297,2.01563 -3.33496,3.64355 -5.18164,4.70801c-1.5459,0.88965 -3.06543,1.34766 -4.44922,1.34766zM52.96452,14.02247c-1.2334,0 -2.61426,0.41895 -4.05469,1.24902v0c-5.10937,2.94434 -9.25391,10.10938 -9.2373,15.97266c0.00977,3.52637 1.54004,5.8623 4.09277,6.24707c1.42969,0.21289 3.08789,-0.19531 4.80859,-1.18555c1.75586,-1.0127 3.46582,-2.56836 4.94629,-4.50098c2.70117,-3.52832 4.30859,-7.81738 4.29785,-11.47266c-0.00684,-2.74219 -0.9209,-4.77637 -2.57324,-5.72852c-0.6748,-0.38867 -1.44336,-0.58105 -2.28027,-0.58105zM48.71061,14.92482h0.00977z" fill="#000000"></path><g><path d="M48.72691,18.86478c3.33586,-1.92224 6.04363,-0.37945 6.05449,3.44354c0.01085,3.82028 -2.6793,8.47897 -6.01516,10.40121c-3.33342,1.92083 -6.04595,0.37535 -6.0568,-3.44494c-0.01086,-3.82299 2.68405,-8.47898 6.01747,-10.39981z" fill="#89bf19"></path><path d="M51.1743,18.05258c1.69736,2.08199 2.18751,5.20188 1.034,8.11896c-1.57201,3.98484 -5.63636,6.15035 -9.22253,4.98706c0.77105,2.38018 3.06625,3.11392 5.7798,1.55099c3.33504,-1.92084 6.02466,-6.57984 6.01883,-10.40361c-0.00598,-2.82162 -1.4884,-4.40253 -3.6101,-4.2534z" fill="#89bf19"></path><path d="M46.05925,33.93849c-0.64648,0 -1.24707,-0.15234 -1.78027,-0.45996c-1.26465,-0.72852 -1.96387,-2.22461 -1.96973,-4.21289c-0.01074,-3.94531 2.77832,-8.7666 6.21873,-10.74707h-0.00096c1.74902,-1.00586 3.41309,-1.1582 4.68652,-0.42578c1.2627,0.72754 1.96191,2.22461 1.96777,4.21484c0.01172,3.94434 -2.77637,8.7666 -6.21484,10.74902c-1.01758,0.58594 -2.00684,0.88184 -2.90723,0.88184zM51.43522,18.43556c-0.75977,0 -1.61426,0.26074 -2.50781,0.77637c-0.00098,0 -0.00098,0 -0.00098,0c-3.21777,1.85352 -5.82715,6.3623 -5.81641,10.05176c0.00391,1.69141 0.56152,2.94141 1.56836,3.52246c1.01855,0.58496 2.39941,0.43359 3.88867,-0.42285c3.2168,-1.85449 5.8252,-6.36426 5.81348,-10.05371c-0.00391,-1.69336 -0.56055,-2.94434 -1.56641,-3.52344c-0.40625,-0.23437 -0.87207,-0.35059 -1.37891,-0.35059zM48.72721,18.86525h0.00977z" fill="#000000"></path><path d="M50.25799,25.36024c0.1418,0.11848 0.21429,0.341 0.21522,0.67016c0.00076,0.26908 -0.06232,0.5488 -0.18698,0.83781c-0.12581,0.291 -0.30414,0.56777 -0.53497,0.83031c-0.23197,0.2632 -0.49941,0.49187 -0.80461,0.68737l0.00153,0.53948c0.00019,0.06531 -0.01789,0.13068 -0.05533,0.19543c-0.03748,0.06477 -0.08753,0.11585 -0.14901,0.15128c-0.05697,0.03283 -0.10486,0.0395 -0.14254,0.02065c-0.03772,-0.01882 -0.05611,-0.06449 -0.0563,-0.13502l-0.00153,-0.53948c-0.47732,0.23974 -0.92411,0.37814 -1.33928,0.41458c-0.05247,0.00537 -0.09698,-0.01084 -0.13247,-0.04927c-0.03548,-0.03712 -0.05388,-0.08932 -0.05407,-0.15464c-0.00024,-0.08621 0.02574,-0.17575 0.07568,-0.26864c0.05108,-0.09224 0.1159,-0.16229 0.19564,-0.20824c0.04329,-0.02494 0.08546,-0.03877 0.12537,-0.04084c0.35814,-0.02451 0.73428,-0.13922 1.12727,-0.34605l-0.00496,-1.74641c-0.30094,0.08183 -0.55407,0.12957 -0.75937,0.14058c-0.20533,0.01234 -0.37773,-0.0401 -0.51497,-0.15596c-0.13721,-0.11589 -0.20625,-0.32337 -0.2071,-0.6225c-0.00074,-0.26255 0.0555,-0.53832 0.1665,-0.826c0.11211,-0.28702 0.27901,-0.56898 0.50182,-0.84392c0.22284,-0.27624 0.49023,-0.51931 0.80449,-0.73047l-0.00151,-0.53164c-0.00018,-0.0653 0.01789,-0.13197 0.05536,-0.19936c0.03744,-0.06736 0.08521,-0.11714 0.14218,-0.14997c0.05694,-0.03281 0.10598,-0.03881 0.14596,-0.01607c0.03999,0.02276 0.05952,0.06776 0.0597,0.13306l0.00149,0.52379c0.43285,-0.22848 0.81694,-0.36607 1.15336,-0.41339c0.12429,-0.02058 0.18605,0.04457 0.18649,0.1974c0.00023,0.08098 -0.02348,0.16792 -0.07226,0.26144c-0.04878,0.09484 -0.11246,0.16423 -0.1922,0.21018c-0.0262,0.0151 -0.06155,0.02501 -0.106,0.031c-0.29992,0.05114 -0.62242,0.16763 -0.96758,0.35212l0.00514,1.80782c0.31915,-0.09887 0.58253,-0.15643 0.79239,-0.17532c0.20986,-0.02018 0.38568,0.03028 0.52748,0.14874zM48.94479,27.73278c0.62288,-0.40863 0.933,-0.87648 0.9315,-1.40419c-0.00056,-0.19724 -0.07959,-0.30478 -0.23593,-0.3233c-0.15751,-0.01914 -0.39014,0.01286 -0.70021,0.09471l0.00463,1.63278M48.5346,25.50421l-0.00475,-1.67066c-0.26525,0.1934 -0.47684,0.40823 -0.63475,0.64313c-0.15905,0.23688 -0.23822,0.47091 -0.23756,0.70472c0.00063,0.22207 0.07515,0.35183 0.22355,0.38799c0.14843,0.03613 0.36626,0.01398 0.6535,-0.06519" fill="#000000"></path></g></g></g></g></svg>