<svg xmlns="http://www.w3.org/2000/svg" xmlns:xlink="http://www.w3.org/1999/xlink" viewBox="0,0,256,256" width="212px" height="212px" fill-rule="nonzero"><g fill="none" fill-rule="nonzero" stroke="none" stroke-width="1" stroke-linecap="butt" stroke-linejoin="miter" stroke-miterlimit="10" stroke-dasharray="" stroke-dashoffset="0" font-family="none" font-weight="none" font-size="none" text-anchor="none" style="mix-blend-mode: normal"><g transform="scale(3.76471,3.76471)"><path d="M58.36309,26.73357c0,13.42371 -10.89966,24.36188 -24.36189,24.36188c-13.46223,0 -24.36188,-10.93818 -24.36188,-24.36188c0,-13.46222 10.89966,-24.40017 24.36189,-24.40017c13.46223,0 24.36188,10.93794 24.36188,24.40017z" fill="#ffffff"></path><path d="M34.00098,51.47046c-13.64014,0 -24.73682,-11.09668 -24.73682,-24.73682c0,-13.66113 11.09668,-24.77539 24.73682,-24.77539c13.64014,0 24.7373,11.11426 24.7373,24.77539c0,13.64014 -11.09717,24.73682 -24.7373,24.73682zM34.00098,2.70825c-13.22656,0 -23.98682,10.77783 -23.98682,24.02539c0,13.22656 10.76025,23.98682 23.98682,23.98682c13.22656,0 23.9873,-10.76025 23.9873,-23.98682c0,-13.24756 -10.76074,-24.02539 -23.9873,-24.02539z" fill="#070b00"></path><path d="M34.00214,44.21238c-9.63775,0 -17.47904,-7.84129 -17.47904,-17.47904c0,-9.65829 7.84129,-17.51639 17.47904,-17.51639c9.63588,0 17.47718,7.8581 17.47718,17.51639c0,9.63775 -7.84129,17.47904 -17.47718,17.47904z" fill="#89bf19"></path><path d="M34.00195,44.58716c-9.84473,0 -17.854,-8.00928 -17.854,-17.854c0,-9.86523 8.00928,-17.89111 17.854,-17.89111c9.84375,0 17.85254,8.02588 17.85254,17.89111c0,9.84473 -8.00879,17.854 -17.85254,17.854zM34.00195,9.59204c-9.43115,0 -17.104,7.68945 -17.104,17.14111c0,9.43115 7.67285,17.104 17.104,17.104c9.43018,0 17.10254,-7.67285 17.10254,-17.104c0,-9.45166 -7.67236,-17.14111 -17.10254,-17.14111z" fill="#070b00"></path><path d="M40.53371,35.1176c-0.53168,0.80547 -1.28879,1.44807 -2.27018,1.92782c-0.98139,0.47975 -2.1186,0.75879 -3.40935,0.83597l0.00451,1.9935c0.00055,0.24333 -0.07896,0.44458 -0.2374,0.60373c-0.15844,0.15916 -0.3696,0.2396 -0.63121,0.2402c-0.24333,0.00055 -0.44456,-0.07325 -0.6037,-0.22255c-0.16028,-0.15044 -0.23957,-0.35589 -0.24016,-0.6175l-0.00451,-1.9935c-2.02236,-0.1268 -3.91404,-0.5612 -5.6739,-1.30664c-0.22527,-0.09317 -0.41297,-0.24697 -0.56311,-0.4614c-0.15014,-0.21558 -0.22606,-0.44389 -0.22661,-0.68836c-0.00072,-0.31759 0.10604,-0.59315 0.32143,-0.82784c0.21424,-0.23468 0.49044,-0.35297 0.82745,-0.35374c0.18736,-0.00042 0.36451,0.03688 0.53376,0.11189c1.5175,0.66945 3.10858,1.04055 4.77552,1.11218l-0.01462,-6.45803c-1.27455,-0.33413 -2.34581,-0.69613 -3.21721,-1.08715c-0.8714,-0.39102 -1.59809,-0.94687 -2.18007,-1.66641c-0.58197,-0.7184 -0.87421,-1.63053 -0.87671,-2.73524c-0.0022,-0.97219 0.23453,-1.8718 0.71019,-2.69656c0.47566,-0.82476 1.18469,-1.50953 2.12938,-2.05431c0.94354,-0.54478 2.07949,-0.87523 3.409,-0.99019l-0.00445,-1.96608c-0.00055,-0.24219 0.07781,-0.44914 0.23737,-0.61744c0.15841,-0.16944 0.35929,-0.25329 0.60262,-0.25384c0.24334,-0.00055 0.44916,0.08238 0.61861,0.25107c0.16832,0.16755 0.25332,0.37414 0.25387,0.61633l0.00439,1.93752c1.83373,0.07125 3.4635,0.37601 4.88703,0.91543c0.52479,0.18617 0.78725,0.56028 0.78852,1.12121c0.00068,0.30045 -0.10152,0.57144 -0.30661,0.81524c-0.20508,0.2438 -0.4767,0.36551 -0.81371,0.36627c-0.11195,0.00025 -0.26169,-0.03597 -0.44922,-0.11094c-1.27366,-0.44609 -2.64055,-0.69546 -4.10067,-0.74814l0.01513,6.68194c1.34876,0.31454 2.46682,0.65816 3.3576,1.03085c0.88964,0.3727 1.63461,0.92736 2.23605,1.66514c0.6003,0.73892 0.90182,1.71615 0.90458,2.93167c0.00225,0.99275 -0.2619,1.89129 -0.79358,2.69789zM30.34727,25.22909c0.6282,0.44869 1.55099,0.83045 2.76837,1.14528l-0.01398,-6.17699c-1.12264,0.15334 -2.02095,0.49581 -2.69262,1.03084c-0.67281,0.53503 -1.00824,1.2338 -1.00629,2.09404c0.00186,0.82368 0.31632,1.45929 0.94452,1.90683zM38.7999,32.2575c-0.00166,-0.73 -0.33537,-1.29473 -1.00003,-1.6965c-0.66579,-0.40062 -1.65369,-0.77767 -2.96484,-1.12999l0.01367,6.03648c2.63854,-0.19333 3.9556,-1.26332 3.95119,-3.20999z" fill="#ffffff"></path><path d="M33.98828,41.09399c-0.34082,0 -0.62939,-0.10889 -0.85889,-0.32422c-0.23633,-0.22217 -0.35693,-0.52148 -0.3584,-0.88965l-0.00342,-1.64551c-1.92969,-0.15625 -3.75977,-0.59668 -5.4458,-1.31055c-0.28906,-0.11963 -0.53369,-0.31885 -0.72412,-0.5918c-0.19482,-0.2793 -0.29395,-0.58301 -0.29443,-0.90234c-0.00146,-0.41309 0.14014,-0.77734 0.41992,-1.08252c0.28711,-0.31396 0.6582,-0.47363 1.10303,-0.4751c0.27051,-0.01709 0.47021,0.04785 0.68701,0.14404c1.34814,0.59473 2.77539,0.9502 4.24707,1.05762l-0.01318,-5.77246c-1.16699,-0.31738 -2.17432,-0.66455 -2.99609,-1.0332c-0.9209,-0.41309 -1.70068,-1.00928 -2.31836,-1.77246c-0.63428,-0.78418 -0.95752,-1.7832 -0.95996,-2.97021c-0.00244,-1.03516 0.25293,-2.00586 0.76025,-2.88525c0.50732,-0.87891 1.27002,-1.61621 2.2666,-2.19141c0.9043,-0.52246 1.98682,-0.85937 3.2207,-1.00439l-0.00342,-1.62598c-0.00049,-0.33789 0.1167,-0.64111 0.34033,-0.87646c0.2251,-0.24121 0.52783,-0.37061 0.87354,-0.37109c0.00098,0 0.00195,0 0.00293,0c0.34424,0 0.64063,0.12109 0.88086,0.35986c0.23779,0.23682 0.36426,0.5415 0.36475,0.88184l0.00342,1.58105c1.72461,0.09717 3.28613,0.40674 4.646,0.92188c0.66992,0.23828 1.02881,0.74756 1.03076,1.47119c0.00049,0.38965 -0.13232,0.74561 -0.39453,1.05762c-0.27441,0.32619 -0.65479,0.49902 -1.10059,0.49951c-0.00098,0 -0.00244,0 -0.00391,0c-0.16211,0 -0.354,-0.04492 -0.58545,-0.1377c-1.10449,-0.38623 -2.31299,-0.62354 -3.58496,-0.70215l0.01367,5.9917c1.23389,0.29883 2.28516,0.62891 3.12744,0.98096c0.94336,0.39502 1.74463,0.99219 2.38232,1.77441c0.65381,0.8042 0.98633,1.87012 0.98877,3.16748c0.00244,1.0625 -0.28516,2.04004 -0.85547,2.90527v0c-0.56641,0.8584 -1.37988,1.55078 -2.41846,2.05859c-0.93164,0.45508 -2.00635,0.73975 -3.19824,0.84717l0.00391,1.64404c0.00049,0.34033 -0.11963,0.64111 -0.34717,0.86963c-0.22656,0.22803 -0.53613,0.34912 -0.89502,0.35059c-0.00098,0 -0.00195,0 -0.00342,0zM27.83057,34.62231c-0.00049,0 -0.00146,0 -0.00244,0c-0.23242,0.00049 -0.4082,0.07422 -0.55176,0.23145c-0.15283,0.16699 -0.22363,0.34912 -0.22314,0.57422c0.00049,0.1665 0.05225,0.32178 0.15918,0.4751c0.10889,0.15527 0.23926,0.26318 0.39893,0.3291c1.7124,0.7251 3.58008,1.15527 5.55371,1.2793c0.19727,0.01221 0.35107,0.17529 0.35156,0.37305l0.00439,1.99316c0.00098,0.20752 0.06982,0.29639 0.12207,0.34521c0.08789,0.08252 0.19727,0.12109 0.34473,0.12109c0.19922,-0.02393 0.3125,-0.07422 0.36719,-0.12939c0.08838,-0.08887 0.12939,-0.19629 0.12891,-0.33887l-0.00488,-1.99316c-0.00049,-0.19873 0.1543,-0.36328 0.35254,-0.37549c1.23486,-0.07373 2.33398,-0.34229 3.26758,-0.79834c0.91602,-0.44824 1.62988,-1.05273 2.12158,-1.79785c0.48779,-0.73975 0.73389,-1.57764 0.73145,-2.49022c-0.00244,-1.1216 -0.27832,-2.02883 -0.82031,-2.69631c-0.55859,-0.68506 -1.26221,-1.2085 -2.09033,-1.55566c-0.86914,-0.36328 -1.97852,-0.70361 -3.29736,-1.01123c-0.16943,-0.03955 -0.28955,-0.19043 -0.29004,-0.36426l-0.01514,-6.68213c0,-0.10205 0.04102,-0.19971 0.11426,-0.27051c0.07373,-0.07129 0.15332,-0.12354 0.27441,-0.10498c1.49072,0.05371 2.90723,0.3125 4.21094,0.76855c0.21338,0.08496 0.28906,0.09229 0.32373,0.08984c0.22803,-0.00049 0.39551,-0.07422 0.52832,-0.23242c0.14746,-0.17529 0.21924,-0.36279 0.21875,-0.57324c-0.00098,-0.40479 -0.16211,-0.63477 -0.53906,-0.76855c-1.38525,-0.52441 -2.99023,-0.82422 -4.77637,-0.89404c-0.20068,-0.00781 -0.35986,-0.17236 -0.36035,-0.37354l-0.00439,-1.9375c-0.00049,-0.14307 -0.0459,-0.25488 -0.14307,-0.35156c-0.09912,-0.09814 -0.20752,-0.14209 -0.35254,-0.14209c-0.00049,0 -0.00049,0 -0.00098,0c-0.14111,0.00049 -0.24268,0.04199 -0.32959,0.13477c-0.09375,0.09912 -0.13672,0.21338 -0.13623,0.36084l0.00439,1.96582c0.00049,0.19482 -0.14844,0.35791 -0.34277,0.37451c-1.26758,0.10986 -2.3623,0.42676 -3.25391,0.94141c-0.88135,0.5083 -1.55127,1.15332 -1.99219,1.91699c-0.43994,0.76318 -0.66211,1.60693 -0.65967,2.5083c0.00244,1.01172 0.26904,1.85303 0.79297,2.50049c0.54297,0.6709 1.22998,1.19531 2.04199,1.55957c0.84961,0.38135 1.9126,0.74023 3.15918,1.06689c0.16455,0.04297 0.2793,0.19189 0.27979,0.36182l0.01465,6.45801c0,0.10254 -0.0415,0.20068 -0.11523,0.27148c-0.07422,0.07129 -0.17187,0.10791 -0.27588,0.104c-1.7041,-0.07324 -3.35645,-0.45801 -4.91064,-1.14355c-0.12158,-0.0542 -0.24512,-0.08008 -0.37891,-0.08008zM40.53369,35.11743h0.00928zM34.84863,35.84253c-0.09424,0 -0.18555,-0.03564 -0.25488,-0.1001c-0.07617,-0.0708 -0.12012,-0.16992 -0.12012,-0.27393l-0.01367,-6.03662c-0.00049,-0.1167 0.05371,-0.22705 0.14648,-0.29834c0.09277,-0.07129 0.21436,-0.09326 0.32568,-0.06494c1.33789,0.35986 2.36768,0.75391 3.06104,1.1709c0.78271,0.47314 1.17969,1.15186 1.18164,2.01709v0c0.00342,1.4917 -0.73975,3.32422 -4.29883,3.58496c-0.00928,0.00049 -0.01807,0.00098 -0.02734,0.00098zM35.21094,29.92554l0.01172,5.13037c2.15723,-0.24805 3.20605,-1.16602 3.20215,-2.79736v0c-0.00098,-0.59424 -0.26904,-1.04443 -0.81885,-1.37695c-0.55176,-0.33154 -1.35596,-0.65283 -2.39502,-0.95605zM33.11572,26.74927c-0.03125,0 -0.06299,-0.00391 -0.09375,-0.01172c-1.2749,-0.33008 -2.22119,-0.72363 -2.89258,-1.20312c-0.729,-0.51953 -1.09912,-1.26367 -1.10156,-2.21143c-0.00244,-0.97705 0.38379,-1.78076 1.14795,-2.38818c0.71924,-0.57324 1.68652,-0.94678 2.875,-1.10889c0.10596,-0.01562 0.21582,0.01758 0.29688,0.08887c0.08154,0.0708 0.12842,0.17383 0.12891,0.28174l0.01416,6.17676c0.00049,0.11621 -0.05322,0.22607 -0.14502,0.29738c-0.06641,0.05125 -0.14746,0.07859 -0.22998,0.07859zM32.72754,20.63892c-0.85693,0.16553 -1.55664,0.46191 -2.08447,0.88281c-0.58398,0.46436 -0.8667,1.05273 -0.86523,1.79932c0.00146,0.70215 0.25928,1.22656 0.78711,1.60303v0c0.50586,0.36133 1.23584,0.68262 2.1748,0.95752z" fill="#070b00"></path><path d="M60.73812,53.69865v9.2602c0,1.4954 -1.21227,2.70768 -2.70767,2.70768h-48.0612c-1.49541,0 -2.70767,-1.21227 -2.70767,-2.70768v-9.2602c0,-1.49541 1.21227,-2.70767 2.70767,-2.70767h48.0612c1.49541,0 2.70767,1.21227 2.70767,2.70767z" fill="#ffffff"></path><path d="M58.03027,66.04175h-48.06104c-1.69971,0 -3.08252,-1.38281 -3.08252,-3.08301v-9.26025c0,-1.69971 1.38281,-3.08252 3.08252,-3.08252h48.06104c1.7002,0 3.08301,1.38281 3.08301,3.08252v9.26025c0,1.7002 -1.38281,3.08301 -3.08301,3.08301zM9.96924,51.36597c-1.28613,0 -2.33252,1.04639 -2.33252,2.33252v9.26025c0,1.28662 1.04639,2.33301 2.33252,2.33301h48.06104c1.28662,0 2.33301,-1.04639 2.33301,-2.33301v-9.26025c0,-1.28613 -1.04639,-2.33252 -2.33301,-2.33252z" fill="#070b00"></path><rect x="13.332" y="50.991" width="3.242" height="14.676" fill="#89bf19"></rect><path d="M16.57373,66.04175h-3.24219c-0.20703,0 -0.375,-0.16797 -0.375,-0.375v-14.67578c0,-0.20703 0.16797,-0.375 0.375,-0.375h3.24219c0.20703,0 0.375,0.16797 0.375,0.375v14.67578c0,0.20703 -0.16797,0.375 -0.375,0.375zM13.70654,65.29175h2.49219v-13.92578h-2.49219z" fill="#070b00"></path><g><rect x="22.855" y="50.991" width="3.242" height="14.676" fill="#89bf19"></rect><path d="M26.09717,66.04175h-3.2417c-0.20703,0 -0.375,-0.16797 -0.375,-0.375v-14.67578c0,-0.20703 0.16797,-0.375 0.375,-0.375h3.2417c0.20703,0 0.375,0.16797 0.375,0.375v14.67578c0,0.20703 -0.16797,0.375 -0.375,0.375zM23.23047,65.29175h2.4917v-13.92578h-2.4917z" fill="#070b00"></path></g><g><rect x="32.379" y="50.991" width="3.242" height="14.676" fill="#89bf19"></rect><path d="M35.62109,66.04175h-3.24219c-0.20703,0 -0.375,-0.16797 -0.375,-0.375v-14.67578c0,-0.20703 0.16797,-0.375 0.375,-0.375h3.24219c0.20703,0 0.375,0.16797 0.375,0.375v14.67578c0,0.20703 -0.16797,0.375 -0.375,0.375zM32.75391,65.29175h2.49219v-13.92578h-2.49219z" fill="#070b00"></path></g><g><rect x="41.902" y="50.991" width="3.242" height="14.676" fill="#89bf19"></rect><path d="M45.14453,66.04175h-3.24219c-0.20703,0 -0.375,-0.16797 -0.375,-0.375v-14.67578c0,-0.20703 0.16797,-0.375 0.375,-0.375h3.24219c0.20703,0 0.375,0.16797 0.375,0.375v14.67578c0,0.20703 -0.16797,0.375 -0.375,0.375zM42.27734,65.29175h2.49219v-13.92578h-2.49219z" fill="#070b00"></path></g><g><rect x="51.426" y="50.991" width="3.242" height="14.676" fill="#89bf19"></rect><path d="M54.66797,66.04175h-3.24219c-0.20703,0 -0.375,-0.16797 -0.375,-0.375v-14.67578c0,-0.20703 0.16797,-0.375 0.375,-0.375h3.24219c0.20703,0 0.375,0.16797 0.375,0.375v14.67578c0,0.20703 -0.16797,0.375 -0.375,0.375zM51.80078,65.29175h2.49219v-13.92578h-2.49219z" fill="#070b00"></path></g></g></g></svg>