<svg xmlns="http://www.w3.org/2000/svg" xmlns:xlink="http://www.w3.org/1999/xlink" viewBox="0,0,256,256" width="50px" height="50px" fill-rule="nonzero"><g fill="#ffffff" fill-rule="nonzero" stroke="none" stroke-width="1" stroke-linecap="butt" stroke-linejoin="miter" stroke-miterlimit="10" stroke-dasharray="" stroke-dashoffset="0" font-family="none" font-weight="none" font-size="none" text-anchor="none" style="mix-blend-mode: normal"><g transform="scale(5.12,5.12)"><path d="M25,1.96875c-0.50391,0.00391 -1.01172,0.13672 -1.46875,0.39844c-21.49609,13.07422 -21.49219,13.5625 -21.53125,14.23437c-0.01562,0.28125 0.51953,0.86719 1.98438,2.19531c-0.01172,0.06641 -0.01953,0.13672 -0.01562,0.20313c0,3.0625 0.00781,10.62109 0.01172,12.28125c-0.60547,0.35938 -0.98047,1.01172 -0.98047,1.71875c0,0.23047 0.04297,0.46094 0.12109,0.67969c-0.67578,0.54688 -1.12109,1.36328 -1.12109,2.28906c0,1.17969 0.61328,2.18359 1.14453,3.06641c0.53125,0.88672 1.0625,1.57422 1.0625,1.57422c0.1875,0.24609 0.48047,0.39063 0.78906,0.39063c0.30859,0 0.60156,-0.14062 0.79297,-0.38281c0,0 0.53125,-0.67969 1.06641,-1.55859c0.53516,-0.88281 1.14453,-1.89844 1.14453,-3.08984c0,-0.92578 -0.44531,-1.74219 -1.12109,-2.28906c0.07813,-0.21875 0.12109,-0.44922 0.12109,-0.67969c0,-0.69531 -0.36328,-1.33984 -0.95312,-1.70312c-0.00391,-1.42187 -0.00781,-6.94141 -0.01172,-10.6875c1.33984,1.1875 2.38672,2.12109 4.96484,4.39063v-7c0,0 5.29297,-3 14,-3c8.70703,0 14,3 14,3v7c6.875,-6.08203 9.03125,-7.86328 9,-8.40234c-0.03906,-0.67187 -0.03516,-1.15625 -21.55078,-14.23828c-0.44531,-0.26172 -0.94922,-0.39062 -1.44922,-0.39062zM39,25c-0.02734,0.02344 -0.17969,-0.03125 -0.42969,-0.14062c-0.33203,-0.10937 -0.86719,-0.26953 -1.57031,-0.44922v2.70313l1.10938,-0.11719c0.00391,0 0.76563,-0.0625 1.29297,0.41016c0.39453,0.35547 0.59766,0.96484 0.59766,1.81641c0,1.26172 -0.78516,2.64844 -2.10547,2.78125l-0.60937,0.0625l-0.21875,0.57422c-3.42187,8.86328 -7.48047,13.35938 -12.0625,13.35938h-0.00391h-0.00391c-4.58203,0 -8.64062,-4.49609 -12.0625,-13.35937l-0.21875,-0.57422l-0.60937,-0.0625c-1.32031,-0.13281 -2.10547,-1.51953 -2.10547,-2.78125c0,-0.84375 0.19531,-1.44922 0.58594,-1.80859c0.52344,-0.48047 1.30469,-0.41797 1.30469,-0.41797l1.10938,0.11719v-2.70312c-0.73828,0.19141 -1.28906,0.35547 -1.61719,0.46094c-0.22266,0.10156 -0.35547,0.15234 -0.38281,0.12891v0.07031c-0.53125,0.10547 -1.17187,0.33984 -1.73828,0.84766c-0.83594,0.75 -1.26172,1.86328 -1.26172,3.30469c0,2.25 1.36719,4.14453 3.26953,4.65625c3.71484,9.37109 8.33203,14.12109 13.72656,14.12109h0.00391h0.00391c5.39453,0 10.00781,-4.75 13.72656,-14.12109c1.90234,-0.51562 3.26953,-2.40625 3.26953,-4.65625c0,-1.44141 -0.42578,-2.55469 -1.26172,-3.30469c-0.56641,-0.50781 -1.20703,-0.74219 -1.73828,-0.84766zM13,24.41016c2.30859,-0.58594 6.51172,-1.41016 12,-1.41016c5.49219,0 9.69141,0.82031 12,1.41016v-5.14453c-1.83984,-0.78516 -6.08984,-2.26562 -12,-2.26562c-5.95703,0 -10.17187,1.47266 -12,2.25781zM5,35c0.57422,0 1,0.43359 1,0.96875c0,0.28516 -0.39062,1.28125 -0.85547,2.04688c-0.07031,0.11719 -0.07031,0.10156 -0.14062,0.20703c-0.07031,-0.11328 -0.07422,-0.09766 -0.14844,-0.21875c-0.46875,-0.77344 -0.85547,-1.78906 -0.85547,-2.03516c0,-0.53516 0.42578,-0.96875 1,-0.96875z"></path></g></g></svg>