<svg xmlns="http://www.w3.org/2000/svg" xmlns:xlink="http://www.w3.org/1999/xlink" viewBox="0,0,256,256" width="50px" height="50px" fill-rule="nonzero"><g fill="#ffffff" fill-rule="nonzero" stroke="none" stroke-width="1" stroke-linecap="butt" stroke-linejoin="miter" stroke-miterlimit="10" stroke-dasharray="" stroke-dashoffset="0" font-family="none" font-weight="none" font-size="none" text-anchor="none" style="mix-blend-mode: normal"><g transform="scale(5.12,5.12)"><path d="M50,13.3v24.4l-11,-5.9v-12.5zM32,10h-27c-2.8,0 -5,2.2 -5,5v21c0,2.8 2.2,5 5,5h27c2.8,0 5,-2.2 5,-5v-21c0,-2.8 -2.2,-5 -5,-5zM24,25.5c0,3 -2.5,5.5 -5.5,5.5c-3,0 -5.5,-2.5 -5.5,-5.5c0,-3 2.5,-5.5 5.5,-5.5c3,0 5.5,2.5 5.5,5.5z"></path></g></g></svg>